G04*
G04 #@! TF.GenerationSoftware,Altium Limited,Altium Designer,24.5.2 (23)*
G04*
G04 Layer_Physical_Order=1*
G04 Layer_Color=255*
%FSLAX25Y25*%
%MOIN*%
G70*
G04*
G04 #@! TF.SameCoordinates,BB3BB737-B30A-4A97-ABAC-D2D8C2AF5157*
G04*
G04*
G04 #@! TF.FilePolarity,Positive*
G04*
G01*
G75*
%ADD17C,0.01500*%
%ADD18C,0.03969*%
%ADD19R,0.03969X0.03969*%
%ADD20R,0.06024X0.06024*%
%ADD21C,0.06024*%
G36*
X231481Y130724D02*
X103165D01*
Y199985D01*
X231481D01*
Y130724D01*
D02*
G37*
%LPC*%
G36*
X202962Y190512D02*
X202750D01*
Y187250D01*
X206012D01*
Y187462D01*
X205772Y188356D01*
X205310Y189156D01*
X204656Y189810D01*
X203855Y190272D01*
X202962Y190512D01*
D02*
G37*
G36*
X202250D02*
X202038D01*
X201145Y190272D01*
X200344Y189810D01*
X199690Y189156D01*
X199227Y188356D01*
X198988Y187462D01*
Y187250D01*
X202250D01*
Y190512D01*
D02*
G37*
G36*
X192962D02*
X192750D01*
Y187250D01*
X196012D01*
Y187462D01*
X195773Y188356D01*
X195310Y189156D01*
X194656Y189810D01*
X193856Y190272D01*
X192962Y190512D01*
D02*
G37*
G36*
X192250D02*
X192038D01*
X191145Y190272D01*
X190344Y189810D01*
X189690Y189156D01*
X189227Y188356D01*
X188988Y187462D01*
Y187250D01*
X192250D01*
Y190512D01*
D02*
G37*
G36*
X216012D02*
X208988D01*
Y183488D01*
X216012D01*
Y190512D01*
D02*
G37*
G36*
X206012Y186750D02*
X202750D01*
Y183488D01*
X202962D01*
X203855Y183728D01*
X204656Y184190D01*
X205310Y184844D01*
X205772Y185644D01*
X206012Y186538D01*
Y186750D01*
D02*
G37*
G36*
X202250D02*
X198988D01*
Y186538D01*
X199227Y185644D01*
X199690Y184844D01*
X200344Y184190D01*
X201145Y183728D01*
X202038Y183488D01*
X202250D01*
Y186750D01*
D02*
G37*
G36*
X196012D02*
X192750D01*
Y183488D01*
X192962D01*
X193856Y183728D01*
X194656Y184190D01*
X195310Y184844D01*
X195773Y185644D01*
X196012Y186538D01*
Y186750D01*
D02*
G37*
G36*
X192250D02*
X188988D01*
Y186538D01*
X189227Y185644D01*
X189690Y184844D01*
X190344Y184190D01*
X191145Y183728D01*
X192038Y183488D01*
X192250D01*
Y186750D01*
D02*
G37*
G36*
X172962Y190512D02*
X172038D01*
X171144Y190272D01*
X170344Y189810D01*
X169690Y189156D01*
X169228Y188356D01*
X168988Y187462D01*
Y186538D01*
X169228Y185644D01*
X169690Y184844D01*
X170344Y184190D01*
X171144Y183728D01*
X172038Y183488D01*
X172962D01*
X173855Y183728D01*
X174656Y184190D01*
X175310Y184844D01*
X175773Y185644D01*
X176012Y186538D01*
Y187462D01*
X175773Y188356D01*
X175310Y189156D01*
X174656Y189810D01*
X173855Y190272D01*
X172962Y190512D01*
D02*
G37*
G36*
X162962D02*
X162038D01*
X161144Y190272D01*
X160344Y189810D01*
X159690Y189156D01*
X159228Y188356D01*
X158988Y187462D01*
Y186538D01*
X159228Y185644D01*
X159690Y184844D01*
X160344Y184190D01*
X161144Y183728D01*
X162038Y183488D01*
X162962D01*
X163856Y183728D01*
X164656Y184190D01*
X165310Y184844D01*
X165772Y185644D01*
X166012Y186538D01*
Y187462D01*
X165772Y188356D01*
X165310Y189156D01*
X164656Y189810D01*
X163856Y190272D01*
X162962Y190512D01*
D02*
G37*
G36*
X152962D02*
X152038D01*
X151145Y190272D01*
X150344Y189810D01*
X149690Y189156D01*
X149227Y188356D01*
X148988Y187462D01*
Y186538D01*
X149227Y185644D01*
X149690Y184844D01*
X150344Y184190D01*
X151145Y183728D01*
X152038Y183488D01*
X152962D01*
X153856Y183728D01*
X154656Y184190D01*
X155310Y184844D01*
X155772Y185644D01*
X156012Y186538D01*
Y187462D01*
X155772Y188356D01*
X155310Y189156D01*
X154656Y189810D01*
X153856Y190272D01*
X152962Y190512D01*
D02*
G37*
G36*
X142962D02*
X142038D01*
X141145Y190272D01*
X140344Y189810D01*
X139690Y189156D01*
X139227Y188356D01*
X138988Y187462D01*
Y186538D01*
X139227Y185644D01*
X139690Y184844D01*
X140344Y184190D01*
X141145Y183728D01*
X142038Y183488D01*
X142962D01*
X143856Y183728D01*
X144656Y184190D01*
X145310Y184844D01*
X145773Y185644D01*
X146012Y186538D01*
Y187462D01*
X145773Y188356D01*
X145310Y189156D01*
X144656Y189810D01*
X143856Y190272D01*
X142962Y190512D01*
D02*
G37*
G36*
X132962D02*
X132038D01*
X131144Y190272D01*
X130344Y189810D01*
X129690Y189156D01*
X129227Y188356D01*
X128988Y187462D01*
Y186538D01*
X129227Y185644D01*
X129690Y184844D01*
X130344Y184190D01*
X131144Y183728D01*
X132038Y183488D01*
X132962D01*
X133855Y183728D01*
X134656Y184190D01*
X135310Y184844D01*
X135773Y185644D01*
X136012Y186538D01*
Y187462D01*
X135773Y188356D01*
X135310Y189156D01*
X134656Y189810D01*
X133855Y190272D01*
X132962Y190512D01*
D02*
G37*
G36*
X122962D02*
X122038D01*
X121144Y190272D01*
X120344Y189810D01*
X119690Y189156D01*
X119228Y188356D01*
X118988Y187462D01*
Y186538D01*
X119228Y185644D01*
X119690Y184844D01*
X120344Y184190D01*
X121144Y183728D01*
X122038Y183488D01*
X122962D01*
X123855Y183728D01*
X124656Y184190D01*
X125310Y184844D01*
X125773Y185644D01*
X126012Y186538D01*
Y187462D01*
X125773Y188356D01*
X125310Y189156D01*
X124656Y189810D01*
X123855Y190272D01*
X122962Y190512D01*
D02*
G37*
G36*
X182962D02*
X182038D01*
X181144Y190272D01*
X180344Y189810D01*
X179690Y189156D01*
X179227Y188356D01*
X178988Y187462D01*
Y186538D01*
X179227Y185644D01*
X179690Y184844D01*
X180344Y184190D01*
X181144Y183728D01*
X182038Y183488D01*
X182962D01*
X183855Y183728D01*
X183928Y183770D01*
X185487Y182210D01*
Y179686D01*
X184987Y179479D01*
X184656Y179810D01*
X183855Y180272D01*
X182962Y180512D01*
X182750D01*
Y177000D01*
Y173488D01*
X182962D01*
X183855Y173728D01*
X184656Y174190D01*
X184987Y174521D01*
X185487Y174314D01*
Y166290D01*
X175178Y155980D01*
X174901Y155567D01*
X174804Y155079D01*
Y150161D01*
X174671Y150106D01*
X173973Y149407D01*
X173868Y149155D01*
X173368D01*
X173264Y149407D01*
X172565Y150106D01*
X171652Y150484D01*
X170663D01*
X169750Y150106D01*
X169051Y149407D01*
X168673Y148494D01*
Y147506D01*
X169051Y146593D01*
X169750Y145894D01*
X170663Y145516D01*
X171652D01*
X172565Y145894D01*
X173264Y146593D01*
X173368Y146845D01*
X173868D01*
X173973Y146593D01*
X174671Y145894D01*
X175585Y145516D01*
X176573D01*
X177486Y145894D01*
X178185Y146593D01*
X178289Y146845D01*
X178789D01*
X178894Y146593D01*
X179593Y145894D01*
X180506Y145516D01*
X181494D01*
X182407Y145894D01*
X182937Y146424D01*
X183437Y146217D01*
Y145516D01*
X185671D01*
Y148000D01*
Y150484D01*
X183437D01*
Y149783D01*
X182937Y149576D01*
X182407Y150106D01*
X181494Y150484D01*
X180506D01*
X179593Y150106D01*
X178894Y149407D01*
X178789Y149155D01*
X178289D01*
X178185Y149407D01*
X177486Y150106D01*
X177353Y150161D01*
Y154551D01*
X187663Y164861D01*
X187939Y165274D01*
X188036Y165762D01*
Y182738D01*
X187939Y183226D01*
X187663Y183639D01*
X185731Y185572D01*
X185773Y185644D01*
X186012Y186538D01*
Y187462D01*
X185773Y188356D01*
X185310Y189156D01*
X184656Y189810D01*
X183855Y190272D01*
X182962Y190512D01*
D02*
G37*
G36*
X202962Y180512D02*
X202750D01*
Y177250D01*
X206012D01*
Y177462D01*
X205772Y178356D01*
X205310Y179156D01*
X204656Y179810D01*
X203855Y180272D01*
X202962Y180512D01*
D02*
G37*
G36*
X202250D02*
X202038D01*
X201145Y180272D01*
X200344Y179810D01*
X199690Y179156D01*
X199227Y178356D01*
X198988Y177462D01*
Y177250D01*
X202250D01*
Y180512D01*
D02*
G37*
G36*
X192962D02*
X192750D01*
Y177250D01*
X196012D01*
Y177462D01*
X195773Y178356D01*
X195310Y179156D01*
X194656Y179810D01*
X193856Y180272D01*
X192962Y180512D01*
D02*
G37*
G36*
X192250D02*
X192038D01*
X191145Y180272D01*
X190344Y179810D01*
X189690Y179156D01*
X189227Y178356D01*
X188988Y177462D01*
Y177250D01*
X192250D01*
Y180512D01*
D02*
G37*
G36*
X182250D02*
X182038D01*
X181144Y180272D01*
X180344Y179810D01*
X179690Y179156D01*
X179227Y178356D01*
X178988Y177462D01*
Y177250D01*
X182250D01*
Y180512D01*
D02*
G37*
G36*
X172962D02*
X172750D01*
Y177250D01*
X176012D01*
Y177462D01*
X175773Y178356D01*
X175310Y179156D01*
X174656Y179810D01*
X173855Y180272D01*
X172962Y180512D01*
D02*
G37*
G36*
X172250D02*
X172038D01*
X171144Y180272D01*
X170344Y179810D01*
X169690Y179156D01*
X169228Y178356D01*
X168988Y177462D01*
Y177250D01*
X172250D01*
Y180512D01*
D02*
G37*
G36*
X162962D02*
X162750D01*
Y177250D01*
X166012D01*
Y177462D01*
X165772Y178356D01*
X165310Y179156D01*
X164656Y179810D01*
X163856Y180272D01*
X162962Y180512D01*
D02*
G37*
G36*
X162250D02*
X162038D01*
X161144Y180272D01*
X160344Y179810D01*
X159690Y179156D01*
X159228Y178356D01*
X158988Y177462D01*
Y177250D01*
X162250D01*
Y180512D01*
D02*
G37*
G36*
X152962D02*
X152750D01*
Y177250D01*
X156012D01*
Y177462D01*
X155772Y178356D01*
X155310Y179156D01*
X154656Y179810D01*
X153856Y180272D01*
X152962Y180512D01*
D02*
G37*
G36*
X152250D02*
X152038D01*
X151145Y180272D01*
X150344Y179810D01*
X149690Y179156D01*
X149227Y178356D01*
X148988Y177462D01*
Y177250D01*
X152250D01*
Y180512D01*
D02*
G37*
G36*
X142962D02*
X142750D01*
Y177250D01*
X146012D01*
Y177462D01*
X145773Y178356D01*
X145310Y179156D01*
X144656Y179810D01*
X143856Y180272D01*
X142962Y180512D01*
D02*
G37*
G36*
X142250D02*
X142038D01*
X141145Y180272D01*
X140344Y179810D01*
X139690Y179156D01*
X139227Y178356D01*
X138988Y177462D01*
Y177250D01*
X142250D01*
Y180512D01*
D02*
G37*
G36*
X132962D02*
X132750D01*
Y177250D01*
X136012D01*
Y177462D01*
X135773Y178356D01*
X135310Y179156D01*
X134656Y179810D01*
X133855Y180272D01*
X132962Y180512D01*
D02*
G37*
G36*
X132250D02*
X132038D01*
X131144Y180272D01*
X130344Y179810D01*
X129690Y179156D01*
X129227Y178356D01*
X128988Y177462D01*
Y177250D01*
X132250D01*
Y180512D01*
D02*
G37*
G36*
X122962D02*
X122750D01*
Y177250D01*
X126012D01*
Y177462D01*
X125773Y178356D01*
X125310Y179156D01*
X124656Y179810D01*
X123855Y180272D01*
X122962Y180512D01*
D02*
G37*
G36*
X122250D02*
X122038D01*
X121144Y180272D01*
X120344Y179810D01*
X119690Y179156D01*
X119228Y178356D01*
X118988Y177462D01*
Y177250D01*
X122250D01*
Y180512D01*
D02*
G37*
G36*
X212962D02*
X212038D01*
X211144Y180272D01*
X210344Y179810D01*
X209690Y179156D01*
X209227Y178356D01*
X208988Y177462D01*
Y176538D01*
X209227Y175645D01*
X209690Y174844D01*
X210344Y174190D01*
X211144Y173728D01*
X212038Y173488D01*
X212962D01*
X213856Y173728D01*
X214656Y174190D01*
X215310Y174844D01*
X215773Y175645D01*
X216012Y176538D01*
Y177462D01*
X215773Y178356D01*
X215310Y179156D01*
X214656Y179810D01*
X213856Y180272D01*
X212962Y180512D01*
D02*
G37*
G36*
X206012Y176750D02*
X202750D01*
Y173488D01*
X202962D01*
X203855Y173728D01*
X204656Y174190D01*
X205310Y174844D01*
X205772Y175645D01*
X206012Y176538D01*
Y176750D01*
D02*
G37*
G36*
X202250D02*
X198988D01*
Y176538D01*
X199227Y175645D01*
X199690Y174844D01*
X200344Y174190D01*
X201145Y173728D01*
X202038Y173488D01*
X202250D01*
Y176750D01*
D02*
G37*
G36*
X196012D02*
X192750D01*
Y173488D01*
X192962D01*
X193856Y173728D01*
X194656Y174190D01*
X195310Y174844D01*
X195773Y175645D01*
X196012Y176538D01*
Y176750D01*
D02*
G37*
G36*
X192250D02*
X188988D01*
Y176538D01*
X189227Y175645D01*
X189690Y174844D01*
X190344Y174190D01*
X191145Y173728D01*
X192038Y173488D01*
X192250D01*
Y176750D01*
D02*
G37*
G36*
X182250D02*
X178988D01*
Y176538D01*
X179227Y175645D01*
X179690Y174844D01*
X180344Y174190D01*
X181144Y173728D01*
X182038Y173488D01*
X182250D01*
Y176750D01*
D02*
G37*
G36*
X176012D02*
X172750D01*
Y173488D01*
X172962D01*
X173855Y173728D01*
X174656Y174190D01*
X175310Y174844D01*
X175773Y175645D01*
X176012Y176538D01*
Y176750D01*
D02*
G37*
G36*
X172250D02*
X168988D01*
Y176538D01*
X169228Y175645D01*
X169690Y174844D01*
X170344Y174190D01*
X171144Y173728D01*
X172038Y173488D01*
X172250D01*
Y176750D01*
D02*
G37*
G36*
X166012D02*
X162750D01*
Y173488D01*
X162962D01*
X163856Y173728D01*
X164656Y174190D01*
X165310Y174844D01*
X165772Y175645D01*
X166012Y176538D01*
Y176750D01*
D02*
G37*
G36*
X162250D02*
X158988D01*
Y176538D01*
X159228Y175645D01*
X159690Y174844D01*
X160344Y174190D01*
X161144Y173728D01*
X162038Y173488D01*
X162250D01*
Y176750D01*
D02*
G37*
G36*
X156012D02*
X152750D01*
Y173488D01*
X152962D01*
X153856Y173728D01*
X154656Y174190D01*
X155310Y174844D01*
X155772Y175645D01*
X156012Y176538D01*
Y176750D01*
D02*
G37*
G36*
X152250D02*
X148988D01*
Y176538D01*
X149227Y175645D01*
X149690Y174844D01*
X150344Y174190D01*
X151145Y173728D01*
X152038Y173488D01*
X152250D01*
Y176750D01*
D02*
G37*
G36*
X146012D02*
X142750D01*
Y173488D01*
X142962D01*
X143856Y173728D01*
X144656Y174190D01*
X145310Y174844D01*
X145773Y175645D01*
X146012Y176538D01*
Y176750D01*
D02*
G37*
G36*
X142250D02*
X138988D01*
Y176538D01*
X139227Y175645D01*
X139690Y174844D01*
X140344Y174190D01*
X141145Y173728D01*
X142038Y173488D01*
X142250D01*
Y176750D01*
D02*
G37*
G36*
X136012D02*
X132750D01*
Y173488D01*
X132962D01*
X133855Y173728D01*
X134656Y174190D01*
X135310Y174844D01*
X135773Y175645D01*
X136012Y176538D01*
Y176750D01*
D02*
G37*
G36*
X132250D02*
X128988D01*
Y176538D01*
X129227Y175645D01*
X129690Y174844D01*
X130344Y174190D01*
X131144Y173728D01*
X132038Y173488D01*
X132250D01*
Y176750D01*
D02*
G37*
G36*
X126012D02*
X122750D01*
Y173488D01*
X122962D01*
X123855Y173728D01*
X124656Y174190D01*
X125310Y174844D01*
X125773Y175645D01*
X126012Y176538D01*
Y176750D01*
D02*
G37*
G36*
X122250D02*
X118988D01*
Y176538D01*
X119228Y175645D01*
X119690Y174844D01*
X120344Y174190D01*
X121144Y173728D01*
X122038Y173488D01*
X122250D01*
Y176750D01*
D02*
G37*
G36*
X188406Y150484D02*
X186171D01*
Y148250D01*
X188406D01*
Y150484D01*
D02*
G37*
G36*
Y147750D02*
X186171D01*
Y145516D01*
X188406D01*
Y147750D01*
D02*
G37*
%LPD*%
D17*
X176079Y155079D02*
X186762Y165762D01*
X176079Y148000D02*
Y155079D01*
X182500Y187000D02*
X186762Y182738D01*
Y165762D02*
Y182738D01*
D18*
X171158Y148000D02*
D03*
X176079D02*
D03*
X181000D02*
D03*
D19*
X185921D02*
D03*
D20*
X212500Y187000D02*
D03*
D21*
Y177000D02*
D03*
X202500Y187000D02*
D03*
Y177000D02*
D03*
X192500Y187000D02*
D03*
Y177000D02*
D03*
X182500Y187000D02*
D03*
Y177000D02*
D03*
X172500Y187000D02*
D03*
Y177000D02*
D03*
X162500Y187000D02*
D03*
Y177000D02*
D03*
X152500Y187000D02*
D03*
Y177000D02*
D03*
X142500Y187000D02*
D03*
Y177000D02*
D03*
X132500Y187000D02*
D03*
Y177000D02*
D03*
X122500Y187000D02*
D03*
Y177000D02*
D03*
M02*
