M48
;Layer_Color=9474304
;FILE_FORMAT=2:4
INCH,TZ
;TYPE=PLATED
T01F00S00C0.0197
T02F00S00C0.0276
T03F00S00C0.0315
T05F00S00C0.0320
T06F00S00C0.0362
T07F00S00C0.0906
;TYPE=NON_PLATED
T08F00S00C0.0374
%
T01
X12600Y48550
Y49042
X36442Y72700
X36934
X37426
X37919
T02
X18650Y59250
Y60038
Y60825
Y61613
Y62400
X19437
Y61613
Y60825
Y60038
Y59250
Y63187
X18650
Y63975
Y64762
Y65550
Y66337
Y67124
Y67912
Y68699
Y69487
Y70274
Y71061
Y71849
X19437
Y71061
Y70274
Y69487
Y68699
Y67912
Y67124
Y66337
Y65550
Y64762
Y63975
T03
X15070Y34370
Y36930
T05
X12200Y50300
Y51300
Y52300
Y53300
X15200
Y52300
Y51300
Y50300
T06
X17333Y43085
Y44070
Y44857
Y45841
T07
X18400Y41877
Y47050
T08
X20183Y51004
Y52736
M30
