M48
;Layer_Color=9474304
;FILE_FORMAT=2:4
INCH,TZ
;TYPE=PLATED
T01F00S00C0.0197
T02F00S00C0.0276
T03F00S00C0.0315
T05F00S00C0.0320
T06F00S00C0.0362
T07F00S00C0.0906
;TYPE=NON_PLATED
T08F00S00C0.0374
%
T01
X52000Y13700
Y14192
X65616Y73609
X66108
X66600
X67092
T02
X19150Y59426
Y60213
Y61000
Y61788
X19937
Y61000
Y60213
Y59426
Y62575
Y63363
X19150
Y62575
Y64150
Y64937
Y65725
Y66512
Y67300
Y68087
Y68874
Y69662
Y70449
Y71237
Y72024
X19937
Y71237
Y70449
Y69662
Y68874
Y68087
Y67300
Y66512
Y65725
Y64937
Y64150
T03
X60050Y13170
Y15730
T05
X51600Y15450
X54600
Y16450
Y17450
Y18450
X51600
Y17450
Y16450
T06
X20259Y14033
X21243
X22030
X23015
T07
X19050Y15100
X24223
T08
X16430Y16583
X14698
M30
