M48
;Layer_Color=9474304
;FILE_FORMAT=2:4
INCH,TZ
;TYPE=PLATED
T01F00S00C0.0118
T02F00S00C0.0197
T03F00S00C0.0276
T04F00S00C0.0315
T06F00S00C0.0320
T07F00S00C0.0362
T08F00S00C0.0906
T09F00S00C0.1575
;TYPE=NON_PLATED
T10F00S00C0.0374
%
T01
X7400Y5450
X7500Y6900
X6966Y8720
X5800Y8500
X7485Y9800
X5945Y11516
X13100Y11500
X13200Y12900
X15300Y12800
X16250Y12550
X16200Y13100
X16250Y11250
X15800Y10507
X14900Y10300
X13848Y10049
X14300Y9000
X12760Y9100
X11350Y8800
X10860Y8900
X11213Y7991
X10596Y7573
X10200Y6800
X11450
X11750Y6550
X12100Y6000
X12600Y5500
X13700Y6300
X13250Y7000
X13050Y7200
X13400Y7450
X14800Y7800
X17000Y6300
X17700Y5650
X19283Y6813
X19500Y7000
X19687Y7200
X19950Y7450
X20300
X21350Y8450
X22700Y9543
X23000Y10100
X23366Y11230
X25050Y11350
X24450Y12500
X26024Y12559
X26900Y11800
X26350Y10600
X25800Y9000
X27283Y9016
X24750Y9600
X24232Y13986
X23889Y13734
X23250Y13700
X22900Y13950
X22500Y14200
X22050Y14350
X22200Y14650
X22150Y15257
X20837Y15400
Y14743
X20250
X20050Y15257
X20463Y14200
X20487Y13757
X21900Y13700
X22000Y13950
X22800Y16350
X23100Y16563
X23750Y16941
X23550Y17150
X22969Y17728
X22728Y17541
X22500Y18400
X23200Y18350
Y18600
X23600Y18700
X23387Y18153
X23613Y19500
X22400
X21950Y19100
X20702Y19500
X20162Y19100
Y18800
X20963Y18000
X20850Y17300
X21150Y16750
X20327
X19800Y16650
X19950Y20463
X20350Y20650
X20600Y20500
X21150Y20950
X21300Y21250
X21850Y21300
X21613Y20918
X22600Y20500
X22800Y20300
X23200Y20850
X23563Y20984
X23000Y21300
X23550Y22800
X23800Y23850
X24150Y23663
X25300Y21800
X24800Y20681
X25050Y19900
X25400
X26822Y20162
X26822Y20426
X27200Y20900
X27220Y19860
Y19595
X26700Y19500
X26250Y18100
Y16900
X25750Y16550
X25250Y16375
X25750Y17250
X26742Y15217
X26350Y13700
X24750Y14650
X24450Y15000
X23900Y15300
X28159Y19094
X28684Y19817
X28684Y20076
X29950Y20750
X30323Y19626
X30323Y19365
X29450Y22800
X30400Y23950
X31200
X31093Y24616
X31250Y25100
X31300Y25500
X31250Y25950
X31300Y26400
X31250Y26800
X29450Y27450
X30600Y28900
X22110Y28200
X21510Y24850
X21050Y23600
X20850Y23050
X20500Y22887
X20250Y21350
X19831Y21459
X19800Y21148
X26280Y21063
X27894Y22028
X19400Y22700
X19600Y23050
X19370Y23760
X18650Y22400
X18400Y22000
X18247Y22800
X16998Y23622
X16010Y25400
X16007Y25797
X16010Y26200
Y26600
X15760Y26400
Y26000
X15757Y25597
X14660Y27250
X14550Y21045
X15580Y21437
X15900Y21620
X16250Y21050
X16960Y20851
X17218Y19900
X17475Y19900
X16270Y19961
X13800Y19800
X13250Y20450
X13150Y21250
X11700Y21900
X13343Y18307
X13652Y17896
X13500Y17700
Y17400
X13522Y17116
X13400Y16900
X13533Y16604
X14550Y16350
X12200Y16600
X11200Y15800
X11083Y15128
X12300Y14500
X12901Y17864
X16351Y17196
X17700Y17100
X18800Y17353
X19400Y17350
X19787Y16987
X19187Y16485
X19263Y15407
X19700Y15257
X19470Y14692
X19000Y13850
X18494Y14341
X18400Y15000
X18445Y15787
X18300Y16200
X16791Y15463
X18613Y18328
X18686Y18817
X19000Y18600
X18903Y20100
X19213Y21050
X19200Y21450
X19787Y19700
X7000Y20700
X6966Y18599
X6416Y17794
X5800Y18400
X6443Y16187
X7000Y16300
X6400Y14700
X15310Y29800
X16201Y29941
X18360Y29500
X20100Y32800
X22382Y31811
X23810Y32800
X26110Y32100
X26610Y31800
X26700Y30800
X27000
X27300
Y30500
X27000
X26700
X26610Y33700
T02
X24614Y23280
X25106
X25598
X26090
X15120Y33370
Y33862
T03
X8023Y7976
Y8763
Y9551
Y10338
X8810
Y9551
Y8763
Y7976
Y11126
X8023
Y11913
Y12700
Y13488
X8810
Y12700
Y11913
Y14275
Y15063
X8023
Y15850
Y16637
Y17425
Y18212
Y19000
Y19787
Y20574
X8810
Y19787
Y19000
Y18212
Y17425
Y16637
Y15850
X8023Y14275
T04
X9610Y2220
Y4780
X26821Y25069
X26800Y28200
T06
X16194Y30882
X17194
X18194
X19194
Y33881
X18194
X17194
X16194
T07
X27756Y11024
Y12008
Y12795
Y13780
T08
X28823Y9815
Y14988
T09
X2362Y2756
X2756Y20079
T10
X30512Y18819
Y20551
M30
