M48
;Layer_Color=9474304
;FILE_FORMAT=2:4
INCH,TZ
;TYPE=PLATED
T01F00S00C0.0118
T02F00S00C0.0197
T03F00S00C0.0276
T04F00S00C0.0315
T06F00S00C0.0320
T07F00S00C0.0362
T08F00S00C0.0906
T09F00S00C0.1575
;TYPE=NON_PLATED
T10F00S00C0.0374
%
T01
X7400Y5450
X6966Y8720
X10860Y8900
X11350Y8800
X11213Y7991
X11450Y6800
X11750Y6550
X13050Y7200
X13250Y7000
X13400Y7450
X13700Y6300
X17100
X17700Y5650
X19283Y6813
X19500Y7000
X19687Y7200
X15800Y10500
X16250Y11250
Y12550
X16200Y13100
X12760Y9100
X19950Y7450
X20300
X21350Y8450
X22700Y9600
X24750
X25050Y11350
X24450Y12500
X26350Y10600
Y13700
X24750Y14650
X24450Y15000
X25250Y16375
X25750Y16550
Y17250
X26250Y16900
Y18100
X25250Y17700
X23387
X22969Y17728
X22728Y17541
X22500Y18400
X23200Y18350
Y18596
X23600Y18700
X23387Y18153
X23550Y17150
X23750Y16941
X23100Y16563
X22800Y16350
X22150Y15000
X22200Y14650
X22050Y14350
X22000Y13950
X21900Y13700
X22500Y14200
X22900Y13950
X23250Y13700
X20487Y13757
X20463Y14200
X20250Y14800
X20837Y14750
Y15400
X20050Y15250
X19800Y16650
X20327Y16750
X21150
X20850Y17300
X20963Y18000
X20162Y18800
Y19100
X20702Y19500
X20600Y20500
X20350Y20650
X19950Y20463
X19800Y21148
X19831Y21459
X20250Y21350
X21300Y21250
X21150Y20950
X21613Y20918
X21850Y21300
X23000
X23200Y20850
X22600Y20500
X22800Y20300
X22400Y19500
X21950Y19100
X23613Y19500
X25050Y19900
X24800Y20681
X26822Y20426
X26822Y20162
X27220Y19860
Y19595
X26700Y19500
X28684Y19817
X28684Y20076
X29950Y20750
X30323Y19626
X30323Y19365
X29450Y22800
X30400Y23950
X31200
X31250Y25100
Y25950
X31300Y26400
X31250Y26800
X29450Y27450
X26760Y25000
X24150Y23663
X23800Y23850
X23550Y22800
X20850Y23050
X20500Y22887
X21050Y23600
X21510Y24850
X22110Y28200
X19600Y23050
X19400Y22700
X18650Y22400
X18400Y22000
X19200Y21450
X19213Y21050
X18903Y20100
X19787Y19700
X19000Y18600
X18686Y18817
X18613Y18328
X18800Y17353
X19400Y17350
X19787Y16987
X19187Y16485
X19263Y15407
X19700Y15050
X19470Y14692
X19000Y13850
X18300Y16200
X17700Y17138
X17425Y19900
X17100Y20851
X16250Y21050
X15900Y21620
X15580Y21437
X14550Y21045
X13150Y21250
X13250Y20450
X13500Y18150
Y17900
Y17650
Y17400
Y17100
X13499Y16853
X13500Y16600
X14550Y16350
X11250Y16600
X6416Y17794
X6966Y18599
X6400Y14700
X15757Y25597
X15760Y26000
Y26400
X16010Y26600
Y26200
X16007Y25797
X16010Y25400
X14660Y27250
X15310Y29800
X18360Y29500
X20100Y32800
X23810Y32800
X26110Y32100
X26610Y31800
X26710Y30800
X26860Y30650
X27010Y30500
X27310
X27160Y30650
X27010Y30800
X27310
X26710Y30500
X26610Y33700
T02
X24614Y23280
X25106
X25598
X26090
X15120Y33370
Y33862
T03
X8023Y7976
Y8763
Y9551
Y10338
X8810
Y9551
Y8763
Y7976
Y11126
X8023
Y11913
Y12700
Y13488
X8810
Y12700
Y11913
Y14275
Y15063
X8023
Y15850
Y16637
Y17425
Y18212
Y19000
Y19787
Y20574
X8810
Y19787
Y19000
Y18212
Y17425
Y16637
Y15850
X8023Y14275
T04
X9610Y2220
Y4780
T06
X16194Y30882
X17194
X18194
X19194
Y33881
X18194
X17194
X16194
T07
X27756Y11024
Y12008
Y12795
Y13780
T08
X28823Y9815
Y14988
T09
X2362Y2756
X2756Y20079
T10
X30512Y18819
Y20551
M30
