G04*
G04 #@! TF.GenerationSoftware,Altium Limited,Altium Designer,24.5.2 (23)*
G04*
G04 Layer_Color=65535*
%FSLAX25Y25*%
%MOIN*%
G70*
G04*
G04 #@! TF.SameCoordinates,3888050E-FDCC-460D-A68E-6E6C29DBF4DB*
G04*
G04*
G04 #@! TF.FilePolarity,Positive*
G04*
G01*
G75*
%ADD10C,0.00787*%
%ADD11C,0.00500*%
%ADD12C,0.00800*%
%ADD13C,0.01181*%
%ADD14C,0.00600*%
%ADD15C,0.01000*%
D10*
X209055Y599567D02*
X208268D01*
X209055D01*
X116610Y649992D02*
X115823D01*
X116610D01*
X115898Y633268D02*
X115110D01*
X115898D01*
X149594Y652579D02*
X148807D01*
X149594D01*
X150079Y631153D02*
X149291D01*
X150079D01*
Y615654D02*
X149291D01*
X150079D01*
X603319Y281213D02*
X602531D01*
X603319D01*
X575260Y202417D02*
X574472D01*
X575260D01*
X520394Y128535D02*
X519606D01*
X520394D01*
X672709Y463681D02*
X671921D01*
X672709D01*
X646972Y461130D02*
X646185D01*
X646972D01*
X694004Y369945D02*
X693217D01*
X694004D01*
X599965Y696716D02*
X599177D01*
X599965D01*
X586154Y670094D02*
X585366D01*
X586154D01*
X678732Y133756D02*
X677945D01*
X678732D01*
X680894Y178382D02*
X680106D01*
X680894D01*
X666732Y264256D02*
X665945D01*
X666732D01*
X659209Y290598D02*
X658421D01*
X659209D01*
Y306098D02*
X658421D01*
X659209D01*
Y321598D02*
X658421D01*
X659209D01*
X664130Y300236D02*
X663343D01*
X664130D01*
X671063Y742000D02*
X670276D01*
X671063D01*
X598866Y509724D02*
X598079D01*
X598866D01*
X630394Y167004D02*
X629606D01*
X630394D01*
X162335Y146933D02*
X161547D01*
X162335D01*
X694996Y563543D02*
X694209D01*
X694996D01*
X617413Y216996D02*
X616626D01*
X617413D01*
X141866Y440480D02*
X141079D01*
X141866D01*
X132146Y409500D02*
X131358D01*
X132146D01*
X187094Y301492D02*
X186307D01*
X187094D01*
X667051Y222697D02*
X666264D01*
X667051D01*
X209055Y670567D02*
X208268D01*
X209055D01*
D11*
X145815Y580969D02*
X145185D01*
X145815D01*
X526590Y128000D02*
X525961D01*
X526590D01*
X624122Y144500D02*
X624101Y145502D01*
X624037Y146503D01*
X623931Y147500D01*
X623782Y148492D01*
X623592Y149477D01*
X623360Y150452D01*
X623087Y151417D01*
X622773Y152369D01*
X622419Y153308D01*
X622025Y154230D01*
X621593Y155135D01*
X621122Y156020D01*
X620615Y156885D01*
X620071Y157728D01*
X619492Y158546D01*
X618879Y159340D01*
X618232Y160107D01*
X617554Y160845D01*
X616845Y161554D01*
X616107Y162232D01*
X615340Y162879D01*
X614546Y163492D01*
X613728Y164071D01*
X612885Y164615D01*
X612020Y165122D01*
X611135Y165593D01*
X610230Y166025D01*
X609308Y166419D01*
X608369Y166773D01*
X607417Y167087D01*
X606452Y167360D01*
X605477Y167592D01*
X604492Y167782D01*
X603500Y167931D01*
X602503Y168037D01*
X601503Y168101D01*
X600500Y168122D01*
X599497Y168101D01*
X598497Y168037D01*
X597500Y167931D01*
X596508Y167782D01*
X595523Y167592D01*
X594548Y167360D01*
X593583Y167087D01*
X592630Y166773D01*
X591692Y166419D01*
X590770Y166025D01*
X589865Y165593D01*
X588980Y165122D01*
X588115Y164615D01*
X587272Y164071D01*
X586453Y163492D01*
X585660Y162879D01*
X584894Y162232D01*
X584155Y161554D01*
X583446Y160845D01*
X582768Y160107D01*
X582121Y159340D01*
X581508Y158546D01*
X580929Y157728D01*
X580385Y156885D01*
X579878Y156020D01*
X579407Y155135D01*
X578975Y154230D01*
X578581Y153308D01*
X578227Y152369D01*
X577913Y151417D01*
X577640Y150452D01*
X577408Y149477D01*
X577218Y148492D01*
X577069Y147500D01*
X576963Y146503D01*
X576899Y145502D01*
X576878Y144500D01*
X576899Y143497D01*
X576963Y142497D01*
X577069Y141499D01*
X577218Y140508D01*
X577408Y139523D01*
X577640Y138548D01*
X577913Y137583D01*
X578227Y136630D01*
X578581Y135692D01*
X578975Y134770D01*
X579407Y133865D01*
X579878Y132980D01*
X580385Y132115D01*
X580929Y131272D01*
X581508Y130454D01*
X582121Y129660D01*
X582768Y128893D01*
X583446Y128155D01*
X584155Y127446D01*
X584894Y126768D01*
X585660Y126121D01*
X586454Y125508D01*
X587272Y124929D01*
X588115Y124385D01*
X588980Y123878D01*
X589865Y123407D01*
X590770Y122975D01*
X591692Y122581D01*
X592631Y122227D01*
X593583Y121913D01*
X594548Y121640D01*
X595523Y121408D01*
X596508Y121218D01*
X597500Y121069D01*
X598497Y120963D01*
X599498Y120899D01*
X600500Y120878D01*
X601503Y120899D01*
X602503Y120963D01*
X603501Y121069D01*
X604492Y121218D01*
X605477Y121408D01*
X606452Y121640D01*
X607417Y121913D01*
X608369Y122227D01*
X609308Y122581D01*
X610230Y122975D01*
X611135Y123407D01*
X612020Y123878D01*
X612885Y124385D01*
X613728Y124929D01*
X614546Y125508D01*
X615340Y126121D01*
X616107Y126768D01*
X616845Y127446D01*
X617554Y128155D01*
X618232Y128894D01*
X618879Y129660D01*
X619492Y130454D01*
X620071Y131272D01*
X620615Y132115D01*
X621122Y132980D01*
X621593Y133865D01*
X622025Y134770D01*
X622419Y135692D01*
X622773Y136631D01*
X623087Y137583D01*
X623360Y138548D01*
X623592Y139523D01*
X623782Y140508D01*
X623931Y141500D01*
X624037Y142497D01*
X624101Y143498D01*
X624122Y144500D01*
X619327Y408697D02*
X618539D01*
X619327D01*
X619721D02*
X618933D01*
X619721D01*
X619883D02*
X619048Y409179D01*
Y408215D01*
X619883Y408697D01*
X620207D02*
X619767Y409459D01*
X618887D01*
X618446Y408697D01*
X618887Y407935D01*
X619767D01*
X620207Y408697D01*
X212008Y585197D02*
X215945Y581260D01*
X237992D01*
X215945Y607244D02*
X237992D01*
X212008Y603307D02*
X215945Y607244D01*
X212008Y598661D02*
Y603307D01*
Y585197D02*
Y589843D01*
X237992Y598661D02*
Y607244D01*
Y581260D02*
Y589843D01*
X146996Y574551D02*
Y577937D01*
X144004Y574551D02*
Y577937D01*
X122909Y640110D02*
X129209D01*
X122909Y652394D02*
X129209D01*
X123339Y608169D02*
X140661D01*
X123339Y635335D02*
X140661D01*
X153866Y640358D02*
X160165D01*
X153866Y654996D02*
X160165D01*
X154350Y618933D02*
X160650D01*
X154350Y633571D02*
X160650D01*
X154350Y603433D02*
X160650D01*
X154350Y618071D02*
X160650D01*
X601409Y290988D02*
Y312012D01*
X622590Y290988D02*
Y312012D01*
X601409Y290988D02*
X602650D01*
X601409Y312012D02*
X602650D01*
X621350D02*
X622590D01*
X621350Y290988D02*
X622590D01*
X578547Y204169D02*
X579807D01*
X578547Y194760D02*
X579807D01*
X583193Y204169D02*
X584453D01*
X583193Y194760D02*
X584453D01*
X511831Y131095D02*
X524429D01*
X511831Y147827D02*
X524429D01*
X511831Y131095D02*
Y147827D01*
X524429Y131095D02*
Y147827D01*
X529307Y129496D02*
X532693D01*
X529307Y126504D02*
X532693D01*
X679335Y579744D02*
X683744D01*
X679335Y572736D02*
X683744D01*
X654008Y456398D02*
X657945Y460335D01*
X654008Y434350D02*
Y456398D01*
X679992Y434350D02*
Y456398D01*
X676055Y460335D02*
X679992Y456398D01*
X671410Y460335D02*
X676055D01*
X657945D02*
X662591D01*
X671410Y434350D02*
X679992D01*
X654008D02*
X662591D01*
X643626Y464968D02*
X644787D01*
X658213D02*
X659374D01*
X643626Y480717D02*
X644787D01*
X658213D02*
X659374D01*
X643626Y464968D02*
Y466130D01*
X659374Y464968D02*
Y466130D01*
X643626Y479555D02*
Y480717D01*
X659374Y479555D02*
Y480717D01*
X668610Y391795D02*
X682390D01*
X668610Y386913D02*
Y391795D01*
Y366205D02*
X682390D01*
X668610D02*
Y371087D01*
X609177Y698528D02*
Y700654D01*
Y645535D02*
Y647661D01*
X664295Y698528D02*
Y700654D01*
Y645535D02*
Y647661D01*
X609177Y700654D02*
X611303D01*
X609177Y645535D02*
X611303D01*
X662169Y700654D02*
X664295D01*
X662169Y645535D02*
X664295D01*
X601272Y667535D02*
Y672653D01*
X587728Y667535D02*
Y672653D01*
X680823Y123917D02*
X686177D01*
X680823Y133083D02*
X686177D01*
X683142Y168858D02*
X688496D01*
X683142Y178024D02*
X688496D01*
X672323Y256917D02*
X677677D01*
X672323Y266083D02*
X677677D01*
X647850Y302819D02*
X654150D01*
X647850Y288181D02*
X654150D01*
X647850Y318319D02*
X654150D01*
X647850Y303681D02*
X654150D01*
X647850Y333819D02*
X654150D01*
X647850Y319181D02*
X654150D01*
X677004Y291575D02*
X681256D01*
Y288425D02*
Y291575D01*
Y288425D02*
X686768D01*
Y341575D01*
X681256D02*
X686768D01*
X681256Y338425D02*
Y341575D01*
X677004Y338425D02*
X681256D01*
X650252Y728024D02*
Y740622D01*
Y728024D02*
X676827D01*
Y740622D01*
X650252D02*
X676827D01*
X609524Y519571D02*
Y535910D01*
Y542602D02*
Y550476D01*
X576500Y558941D02*
X589697D01*
X609524Y557016D02*
Y558941D01*
X600000D02*
X609524D01*
X562476Y521516D02*
Y558941D01*
X566303D01*
X627244Y153047D02*
Y158953D01*
X632756Y153047D02*
Y158953D01*
X170799Y161854D02*
Y170949D01*
Y183311D02*
Y188862D01*
X140484Y161854D02*
Y170949D01*
Y183311D02*
Y188862D01*
X170799D01*
X242213Y136354D02*
Y142299D01*
Y160331D02*
Y191472D01*
X190520D02*
X242213D01*
X190520Y160331D02*
Y191472D01*
Y136354D02*
Y142299D01*
Y136354D02*
X242213D01*
X649130Y569252D02*
X649232D01*
X688894Y542874D02*
Y557331D01*
Y523189D02*
Y527126D01*
X649130Y542874D02*
Y569252D01*
Y523189D02*
Y527126D01*
Y523189D02*
X688894D01*
X656902Y569252D02*
X669705D01*
X677374D02*
X683090D01*
X633949Y240618D02*
X634342D01*
Y224870D02*
Y240618D01*
X633949Y224870D02*
X634342D01*
X614657Y240618D02*
X615051D01*
X614657Y224870D02*
Y240618D01*
Y224870D02*
X615051D01*
X148165Y430579D02*
X154465D01*
X148165Y442902D02*
X154465D01*
X142776Y397689D02*
X152224D01*
X142776Y421311D02*
X152224D01*
X192665Y302673D02*
X193335D01*
X192665Y294406D02*
X193335D01*
X672642Y224524D02*
X677996D01*
X672642Y215358D02*
X677996D01*
X237992Y652260D02*
Y660843D01*
Y669661D02*
Y678244D01*
X212008Y656197D02*
Y660843D01*
Y669661D02*
Y674307D01*
X215945Y678244D01*
X237992D01*
X215945Y652260D02*
X237992D01*
X212008Y656197D02*
X215945Y652260D01*
D12*
X512000Y184500D02*
X511500Y185366D01*
X510500D01*
X510000Y184500D01*
X510500Y183634D01*
X511500D01*
X512000Y184500D01*
X616999Y520001D02*
X614001D01*
Y521501D01*
X614500Y522001D01*
X615500D01*
X616000Y521501D01*
Y520001D01*
Y521001D02*
X616999Y522001D01*
Y524500D02*
X614001D01*
X615500Y523000D01*
Y525000D01*
X616999Y527999D02*
Y525999D01*
X615000Y527999D01*
X614500D01*
X614001Y527499D01*
Y526499D01*
X614500Y525999D01*
X606499Y133500D02*
Y131501D01*
Y159000D02*
Y157001D01*
X607499Y158000D02*
X605500D01*
X582001Y668094D02*
X584000Y665095D01*
Y668094D02*
X582001Y665095D01*
X585000D02*
X585999D01*
X585499D01*
Y668094D01*
X585000Y667594D01*
X583500Y696846D02*
X586000D01*
X586500Y697346D01*
Y698345D01*
X586000Y698845D01*
X583500D01*
X586500Y699845D02*
Y700844D01*
Y700345D01*
X583500D01*
X584000Y699845D01*
X583500Y702344D02*
Y704343D01*
X584000D01*
X586000Y702344D01*
X586500D01*
X601251Y709094D02*
Y706595D01*
X601751Y706095D01*
X602751D01*
X603251Y706595D01*
Y709094D01*
X604250Y706095D02*
X605250D01*
X604750D01*
Y709094D01*
X604250Y708594D01*
X608749Y709094D02*
X607749Y708594D01*
X606749Y707594D01*
Y706595D01*
X607249Y706095D01*
X608249D01*
X608749Y706595D01*
Y707095D01*
X608249Y707594D01*
X606749D01*
X624501Y291944D02*
X627000D01*
X627499Y292444D01*
Y293444D01*
X627000Y293944D01*
X624501D01*
X627499Y294943D02*
Y295943D01*
Y295443D01*
X624501D01*
X625000Y294943D01*
X624501Y299442D02*
Y297442D01*
X626000D01*
X625500Y298442D01*
Y298942D01*
X626000Y299442D01*
X627000D01*
X627499Y298942D01*
Y297942D01*
X627000Y297442D01*
X666700Y231299D02*
Y228800D01*
X667200Y228300D01*
X668199D01*
X668699Y228800D01*
Y231299D01*
X669699Y228300D02*
X670699D01*
X670199D01*
Y231299D01*
X669699Y230799D01*
X673698Y228300D02*
Y231299D01*
X672198Y229800D01*
X674198D01*
X671251Y271000D02*
Y268500D01*
X671751Y268001D01*
X672751D01*
X673251Y268500D01*
Y271000D01*
X674250Y268001D02*
X675250D01*
X674750D01*
Y271000D01*
X674250Y270500D01*
X676749D02*
X677249Y271000D01*
X678249D01*
X678749Y270500D01*
Y270000D01*
X678249Y269500D01*
X677749D01*
X678249D01*
X678749Y269000D01*
Y268500D01*
X678249Y268001D01*
X677249D01*
X676749Y268500D01*
X668590Y138255D02*
Y135756D01*
X669090Y135256D01*
X670089D01*
X670589Y135756D01*
Y138255D01*
X671589Y135256D02*
X672588D01*
X672089D01*
Y138255D01*
X671589Y137756D01*
X676087Y135256D02*
X674088D01*
X676087Y137256D01*
Y137756D01*
X675588Y138255D01*
X674588D01*
X674088Y137756D01*
X673751Y183881D02*
Y181382D01*
X674251Y180882D01*
X675251D01*
X675750Y181382D01*
Y183881D01*
X676750Y180882D02*
X677750D01*
X677250D01*
Y183881D01*
X676750Y183382D01*
X679249Y180882D02*
X680249D01*
X679749D01*
Y183881D01*
X679249Y183382D01*
X637251Y488342D02*
Y485843D01*
X637751Y485343D01*
X638751D01*
X639251Y485843D01*
Y488342D01*
X640250Y485343D02*
X641250D01*
X640750D01*
Y488342D01*
X640250Y487842D01*
X642749D02*
X643249Y488342D01*
X644249D01*
X644749Y487842D01*
Y485843D01*
X644249Y485343D01*
X643249D01*
X642749Y485843D01*
Y487842D01*
X117001Y639252D02*
Y636752D01*
X117501Y636252D01*
X118500D01*
X119000Y636752D01*
Y639252D01*
X120000Y636752D02*
X120500Y636252D01*
X121499D01*
X121999Y636752D01*
Y638752D01*
X121499Y639252D01*
X120500D01*
X120000Y638752D01*
Y638252D01*
X120500Y637752D01*
X121999D01*
X116501Y656251D02*
Y653752D01*
X117001Y653253D01*
X118000D01*
X118500Y653752D01*
Y656251D01*
X119500Y655752D02*
X120000Y656251D01*
X120999D01*
X121499Y655752D01*
Y655252D01*
X120999Y654752D01*
X121499Y654252D01*
Y653752D01*
X120999Y653253D01*
X120000D01*
X119500Y653752D01*
Y654252D01*
X120000Y654752D01*
X119500Y655252D01*
Y655752D01*
X120000Y654752D02*
X120999D01*
X587500Y194509D02*
X590000D01*
X590499Y195009D01*
Y196008D01*
X590000Y196508D01*
X587500D01*
Y197508D02*
Y199507D01*
X588000D01*
X590000Y197508D01*
X590499D01*
X619000Y417499D02*
Y415000D01*
X619500Y414500D01*
X620500D01*
X620999Y415000D01*
Y417499D01*
X623998D02*
X622999Y416999D01*
X621999Y416000D01*
Y415000D01*
X622499Y414500D01*
X623498D01*
X623998Y415000D01*
Y415500D01*
X623498Y416000D01*
X621999D01*
X507001Y193500D02*
Y191000D01*
X507501Y190500D01*
X508500D01*
X509000Y191000D01*
Y193500D01*
X511999D02*
X510000D01*
Y192000D01*
X510999Y192500D01*
X511499D01*
X511999Y192000D01*
Y191000D01*
X511499Y190500D01*
X510500D01*
X510000Y191000D01*
X186700Y309599D02*
Y307100D01*
X187200Y306600D01*
X188199D01*
X188699Y307100D01*
Y309599D01*
X191199Y306600D02*
Y309599D01*
X189699Y308100D01*
X191698D01*
X662001Y364501D02*
X664500D01*
X664999Y365001D01*
Y366000D01*
X664500Y366500D01*
X662001D01*
X662500Y367500D02*
X662001Y368000D01*
Y368999D01*
X662500Y369499D01*
X663000D01*
X663500Y368999D01*
Y368499D01*
Y368999D01*
X664000Y369499D01*
X664500D01*
X664999Y368999D01*
Y368000D01*
X664500Y367500D01*
X141500Y449299D02*
Y446800D01*
X142000Y446300D01*
X142999D01*
X143499Y446800D01*
Y449299D01*
X146498Y446300D02*
X144499D01*
X146498Y448299D01*
Y448799D01*
X145999Y449299D01*
X144999D01*
X144499Y448799D01*
X614400Y253199D02*
Y250700D01*
X614900Y250200D01*
X615900D01*
X616399Y250700D01*
Y253199D01*
X617399Y250200D02*
X618399D01*
X617899D01*
Y253199D01*
X617399Y252699D01*
X562799Y566699D02*
X562299Y567199D01*
X561300D01*
X560800Y566699D01*
Y566199D01*
X561300Y565699D01*
X562299D01*
X562799Y565200D01*
Y564700D01*
X562299Y564200D01*
X561300D01*
X560800Y564700D01*
X563799Y567199D02*
Y564200D01*
X565299D01*
X565798Y564700D01*
Y566699D01*
X565299Y567199D01*
X563799D01*
X566798Y564200D02*
X567798D01*
X567298D01*
Y567199D01*
X566798Y566699D01*
X643500Y320001D02*
X640500D01*
Y321501D01*
X641000Y322001D01*
X642000D01*
X642500Y321501D01*
Y320001D01*
Y321001D02*
X643500Y322001D01*
Y324500D02*
X640500D01*
X642000Y323000D01*
Y325000D01*
X640500Y325999D02*
Y327999D01*
X641000D01*
X643000Y325999D01*
X643500D01*
Y304001D02*
X640500D01*
Y305501D01*
X641000Y306001D01*
X642000D01*
X642500Y305501D01*
Y304001D01*
Y305001D02*
X643500Y306001D01*
Y308500D02*
X640500D01*
X642000Y307000D01*
Y309000D01*
X640500Y311999D02*
X641000Y310999D01*
X642000Y309999D01*
X643000D01*
X643500Y310499D01*
Y311499D01*
X643000Y311999D01*
X642500D01*
X642000Y311499D01*
Y309999D01*
X643500Y288501D02*
X640500D01*
Y290001D01*
X641000Y290501D01*
X642000D01*
X642500Y290001D01*
Y288501D01*
Y289501D02*
X643500Y290501D01*
Y293000D02*
X640500D01*
X642000Y291500D01*
Y293500D01*
X640500Y296499D02*
Y294499D01*
X642000D01*
X641500Y295499D01*
Y295999D01*
X642000Y296499D01*
X643000D01*
X643500Y295999D01*
Y294999D01*
X643000Y294499D01*
X626500Y721596D02*
X623500D01*
Y723095D01*
X624000Y723595D01*
X625000D01*
X625500Y723095D01*
Y721596D01*
Y722596D02*
X626500Y723595D01*
Y726094D02*
X623500D01*
X625000Y724595D01*
Y726594D01*
X626500Y729093D02*
X623500D01*
X625000Y727594D01*
Y729593D01*
X578001Y636095D02*
Y639094D01*
X579501D01*
X580001Y638594D01*
Y637595D01*
X579501Y637095D01*
X578001D01*
X579001D02*
X580001Y636095D01*
X582500D02*
Y639094D01*
X581000Y637595D01*
X583000D01*
X583999Y638594D02*
X584499Y639094D01*
X585499D01*
X585999Y638594D01*
Y638094D01*
X585499Y637595D01*
X584999D01*
X585499D01*
X585999Y637095D01*
Y636595D01*
X585499Y636095D01*
X584499D01*
X583999Y636595D01*
X638509Y122501D02*
Y125499D01*
X640008D01*
X640508Y125000D01*
Y124000D01*
X640008Y123500D01*
X638509D01*
X639509D02*
X640508Y122501D01*
X643008D02*
Y125499D01*
X641508Y124000D01*
X643507D01*
X644507Y122501D02*
X645507D01*
X645007D01*
Y125499D01*
X644507Y125000D01*
X638509Y128500D02*
Y131500D01*
X640009D01*
X640509Y131000D01*
Y130000D01*
X640009Y129500D01*
X638509D01*
X639509D02*
X640509Y128500D01*
X643008D02*
Y131500D01*
X641508Y130000D01*
X643507D01*
X644507Y131000D02*
X645007Y131500D01*
X646007D01*
X646507Y131000D01*
Y129000D01*
X646007Y128500D01*
X645007D01*
X644507Y129000D01*
Y131000D01*
X683819Y206440D02*
X686818D01*
Y204940D01*
X686319Y204440D01*
X685319D01*
X684819Y204940D01*
Y206440D01*
Y205440D02*
X683819Y204440D01*
X686319Y203441D02*
X686818Y202941D01*
Y201941D01*
X686319Y201441D01*
X685819D01*
X685319Y201941D01*
Y202441D01*
Y201941D01*
X684819Y201441D01*
X684319D01*
X683819Y201941D01*
Y202941D01*
X684319Y203441D01*
Y200442D02*
X683819Y199942D01*
Y198942D01*
X684319Y198442D01*
X686319D01*
X686818Y198942D01*
Y199942D01*
X686319Y200442D01*
X685819D01*
X685319Y199942D01*
Y198442D01*
X659320Y209941D02*
Y212941D01*
X660820D01*
X661319Y212441D01*
Y211441D01*
X660820Y210941D01*
X659320D01*
X660320D02*
X661319Y209941D01*
X662319Y212441D02*
X662819Y212941D01*
X663819D01*
X664319Y212441D01*
Y211941D01*
X663819Y211441D01*
X663319D01*
X663819D01*
X664319Y210941D01*
Y210441D01*
X663819Y209941D01*
X662819D01*
X662319Y210441D01*
X665318Y212441D02*
X665818Y212941D01*
X666818D01*
X667318Y212441D01*
Y211941D01*
X666818Y211441D01*
X667318Y210941D01*
Y210441D01*
X666818Y209941D01*
X665818D01*
X665318Y210441D01*
Y210941D01*
X665818Y211441D01*
X665318Y211941D01*
Y212441D01*
X665818Y211441D02*
X666818D01*
X659320Y203941D02*
Y206941D01*
X660820D01*
X661319Y206441D01*
Y205441D01*
X660820Y204941D01*
X659320D01*
X660320D02*
X661319Y203941D01*
X662319Y206441D02*
X662819Y206941D01*
X663819D01*
X664319Y206441D01*
Y205941D01*
X663819Y205441D01*
X663319D01*
X663819D01*
X664319Y204941D01*
Y204441D01*
X663819Y203941D01*
X662819D01*
X662319Y204441D01*
X665318Y206941D02*
X667318D01*
Y206441D01*
X665318Y204441D01*
Y203941D01*
X689819Y206440D02*
X692818D01*
Y204940D01*
X692319Y204440D01*
X691319D01*
X690819Y204940D01*
Y206440D01*
Y205440D02*
X689819Y204440D01*
X692319Y203441D02*
X692818Y202941D01*
Y201941D01*
X692319Y201441D01*
X691819D01*
X691319Y201941D01*
Y202441D01*
Y201941D01*
X690819Y201441D01*
X690319D01*
X689819Y201941D01*
Y202941D01*
X690319Y203441D01*
X692818Y198442D02*
X692319Y199442D01*
X691319Y200442D01*
X690319D01*
X689819Y199942D01*
Y198942D01*
X690319Y198442D01*
X690819D01*
X691319Y198942D01*
Y200442D01*
X686500Y239501D02*
X683500D01*
Y241001D01*
X684000Y241501D01*
X685000D01*
X685500Y241001D01*
Y239501D01*
Y240501D02*
X686500Y241501D01*
X684000Y242500D02*
X683500Y243000D01*
Y244000D01*
X684000Y244500D01*
X684500D01*
X685000Y244000D01*
Y243500D01*
Y244000D01*
X685500Y244500D01*
X686000D01*
X686500Y244000D01*
Y243000D01*
X686000Y242500D01*
X683500Y247499D02*
Y245499D01*
X685000D01*
X684500Y246499D01*
Y246999D01*
X685000Y247499D01*
X686000D01*
X686500Y246999D01*
Y245999D01*
X686000Y245499D01*
X659501Y250500D02*
Y253500D01*
X661001D01*
X661501Y253000D01*
Y252000D01*
X661001Y251500D01*
X659501D01*
X660501D02*
X661501Y250500D01*
X662500Y253000D02*
X663000Y253500D01*
X664000D01*
X664500Y253000D01*
Y252500D01*
X664000Y252000D01*
X663500D01*
X664000D01*
X664500Y251500D01*
Y251000D01*
X664000Y250500D01*
X663000D01*
X662500Y251000D01*
X666999Y250500D02*
Y253500D01*
X665499Y252000D01*
X667499D01*
X659993Y245500D02*
Y248499D01*
X661493D01*
X661993Y248000D01*
Y247000D01*
X661493Y246500D01*
X659993D01*
X660993D02*
X661993Y245500D01*
X662992Y248000D02*
X663492Y248499D01*
X664492D01*
X664992Y248000D01*
Y247500D01*
X664492Y247000D01*
X663992D01*
X664492D01*
X664992Y246500D01*
Y246000D01*
X664492Y245500D01*
X663492D01*
X662992Y246000D01*
X665991Y248000D02*
X666491Y248499D01*
X667491D01*
X667991Y248000D01*
Y247500D01*
X667491Y247000D01*
X666991D01*
X667491D01*
X667991Y246500D01*
Y246000D01*
X667491Y245500D01*
X666491D01*
X665991Y246000D01*
X692499Y239501D02*
X689501D01*
Y241001D01*
X690000Y241501D01*
X691000D01*
X691500Y241001D01*
Y239501D01*
Y240501D02*
X692499Y241501D01*
X690000Y242500D02*
X689501Y243000D01*
Y244000D01*
X690000Y244500D01*
X690500D01*
X691000Y244000D01*
Y243500D01*
Y244000D01*
X691500Y244500D01*
X692000D01*
X692499Y244000D01*
Y243000D01*
X692000Y242500D01*
X692499Y247499D02*
Y245499D01*
X690500Y247499D01*
X690000D01*
X689501Y246999D01*
Y245999D01*
X690000Y245499D01*
X662840Y118756D02*
Y121755D01*
X664339D01*
X664839Y121256D01*
Y120256D01*
X664339Y119756D01*
X662840D01*
X663839D02*
X664839Y118756D01*
X665839Y121256D02*
X666339Y121755D01*
X667338D01*
X667838Y121256D01*
Y120756D01*
X667338Y120256D01*
X666838D01*
X667338D01*
X667838Y119756D01*
Y119256D01*
X667338Y118756D01*
X666339D01*
X665839Y119256D01*
X668838Y118756D02*
X669837D01*
X669338D01*
Y121755D01*
X668838Y121256D01*
X669338Y124765D02*
X666339D01*
Y126265D01*
X666839Y126764D01*
X667839D01*
X668338Y126265D01*
Y124765D01*
Y125765D02*
X669338Y126764D01*
X666839Y127764D02*
X666339Y128264D01*
Y129264D01*
X666839Y129763D01*
X667339D01*
X667839Y129264D01*
Y128764D01*
Y129264D01*
X668338Y129763D01*
X668838D01*
X669338Y129264D01*
Y128264D01*
X668838Y127764D01*
X666839Y130763D02*
X666339Y131263D01*
Y132263D01*
X666839Y132763D01*
X668838D01*
X669338Y132263D01*
Y131263D01*
X668838Y130763D01*
X666839D01*
X661840Y112256D02*
Y115255D01*
X663339D01*
X663839Y114756D01*
Y113756D01*
X663339Y113256D01*
X661840D01*
X662840D02*
X663839Y112256D01*
X666838D02*
X664839D01*
X666838Y114256D01*
Y114756D01*
X666338Y115255D01*
X665339D01*
X664839Y114756D01*
X667838Y112756D02*
X668338Y112256D01*
X669338D01*
X669837Y112756D01*
Y114756D01*
X669338Y115255D01*
X668338D01*
X667838Y114756D01*
Y114256D01*
X668338Y113756D01*
X669837D01*
X691838Y111757D02*
X688839D01*
Y113257D01*
X689339Y113757D01*
X690339D01*
X690838Y113257D01*
Y111757D01*
Y112757D02*
X691838Y113757D01*
Y116756D02*
Y114756D01*
X689839Y116756D01*
X689339D01*
X688839Y116256D01*
Y115256D01*
X689339Y114756D01*
Y117755D02*
X688839Y118255D01*
Y119255D01*
X689339Y119755D01*
X689839D01*
X690339Y119255D01*
X690838Y119755D01*
X691338D01*
X691838Y119255D01*
Y118255D01*
X691338Y117755D01*
X690838D01*
X690339Y118255D01*
X689839Y117755D01*
X689339D01*
X690339Y118255D02*
Y119255D01*
X664001Y162382D02*
Y165381D01*
X665501D01*
X666001Y164882D01*
Y163882D01*
X665501Y163382D01*
X664001D01*
X665001D02*
X666001Y162382D01*
X669000D02*
X667000D01*
X669000Y164382D01*
Y164882D01*
X668500Y165381D01*
X667500D01*
X667000Y164882D01*
X669999Y165381D02*
X671999D01*
Y164882D01*
X669999Y162882D01*
Y162382D01*
X671499Y168383D02*
X668501D01*
Y169883D01*
X669000Y170382D01*
X670000D01*
X670500Y169883D01*
Y168383D01*
Y169383D02*
X671499Y170382D01*
Y173382D02*
Y171382D01*
X669500Y173382D01*
X669000D01*
X668501Y172882D01*
Y171882D01*
X669000Y171382D01*
X668501Y176381D02*
X669000Y175381D01*
X670000Y174381D01*
X671000D01*
X671499Y174881D01*
Y175881D01*
X671000Y176381D01*
X670500D01*
X670000Y175881D01*
Y174381D01*
X664001Y156382D02*
Y159381D01*
X665501D01*
X666001Y158882D01*
Y157882D01*
X665501Y157382D01*
X664001D01*
X665001D02*
X666001Y156382D01*
X669000D02*
X667000D01*
X669000Y158382D01*
Y158882D01*
X668500Y159381D01*
X667500D01*
X667000Y158882D01*
X671999Y159381D02*
X669999D01*
Y157882D01*
X670999Y158382D01*
X671499D01*
X671999Y157882D01*
Y156882D01*
X671499Y156382D01*
X670499D01*
X669999Y156882D01*
X694499Y156383D02*
X691501D01*
Y157883D01*
X692000Y158382D01*
X693000D01*
X693500Y157883D01*
Y156383D01*
Y157383D02*
X694499Y158382D01*
Y161382D02*
Y159382D01*
X692500Y161382D01*
X692000D01*
X691501Y160882D01*
Y159882D01*
X692000Y159382D01*
X694499Y163881D02*
X691501D01*
X693000Y162381D01*
Y164381D01*
X665000Y487100D02*
Y490099D01*
X666500D01*
X666999Y489599D01*
Y488599D01*
X666500Y488100D01*
X665000D01*
X666000D02*
X666999Y487100D01*
X669998D02*
X667999D01*
X669998Y489099D01*
Y489599D01*
X669498Y490099D01*
X668499D01*
X667999Y489599D01*
X670998D02*
X671498Y490099D01*
X672498D01*
X672997Y489599D01*
Y489099D01*
X672498Y488599D01*
X671998D01*
X672498D01*
X672997Y488100D01*
Y487600D01*
X672498Y487100D01*
X671498D01*
X670998Y487600D01*
X650000Y495844D02*
X647001D01*
Y497343D01*
X647500Y497843D01*
X648500D01*
X649000Y497343D01*
Y495844D01*
Y496843D02*
X650000Y497843D01*
Y500842D02*
Y498843D01*
X648000Y500842D01*
X647500D01*
X647001Y500342D01*
Y499343D01*
X647500Y498843D01*
X650000Y503841D02*
Y501842D01*
X648000Y503841D01*
X647500D01*
X647001Y503341D01*
Y502342D01*
X647500Y501842D01*
X167999Y604753D02*
X165000D01*
Y606253D01*
X165500Y606752D01*
X166500D01*
X167000Y606253D01*
Y604753D01*
Y605753D02*
X167999Y606752D01*
Y609752D02*
Y607752D01*
X166000Y609752D01*
X165500D01*
X165000Y609252D01*
Y608252D01*
X165500Y607752D01*
X167999Y610751D02*
Y611751D01*
Y611251D01*
X165000D01*
X165500Y610751D01*
X167999Y619753D02*
X165000D01*
Y621253D01*
X165500Y621753D01*
X166500D01*
X167000Y621253D01*
Y619753D01*
Y620753D02*
X167999Y621753D01*
Y624752D02*
Y622752D01*
X166000Y624752D01*
X165500D01*
X165000Y624252D01*
Y623252D01*
X165500Y622752D01*
Y625751D02*
X165000Y626251D01*
Y627251D01*
X165500Y627751D01*
X167500D01*
X167999Y627251D01*
Y626251D01*
X167500Y625751D01*
X165500D01*
X140999Y581995D02*
X138001D01*
Y583495D01*
X138500Y583995D01*
X139500D01*
X140000Y583495D01*
Y581995D01*
Y582995D02*
X140999Y583995D01*
Y584994D02*
Y585994D01*
Y585494D01*
X138001D01*
X138500Y584994D01*
X140500Y587494D02*
X140999Y587993D01*
Y588993D01*
X140500Y589493D01*
X138500D01*
X138001Y588993D01*
Y587993D01*
X138500Y587494D01*
X139000D01*
X139500Y587993D01*
Y589493D01*
X167499Y641503D02*
X164500D01*
Y643003D01*
X165000Y643503D01*
X166000D01*
X166500Y643003D01*
Y641503D01*
Y642503D02*
X167499Y643503D01*
Y644502D02*
Y645502D01*
Y645002D01*
X164500D01*
X165000Y644502D01*
Y647001D02*
X164500Y647501D01*
Y648501D01*
X165000Y649001D01*
X165500D01*
X166000Y648501D01*
X166500Y649001D01*
X167000D01*
X167499Y648501D01*
Y647501D01*
X167000Y647001D01*
X166500D01*
X166000Y647501D01*
X165500Y647001D01*
X165000D01*
X166000Y647501D02*
Y648501D01*
X134500Y582495D02*
X131500D01*
Y583995D01*
X132000Y584495D01*
X133000D01*
X133500Y583995D01*
Y582495D01*
Y583495D02*
X134500Y584495D01*
Y585494D02*
Y586494D01*
Y585994D01*
X131500D01*
X132000Y585494D01*
X131500Y587993D02*
Y589993D01*
X132000D01*
X134000Y587993D01*
X134500D01*
X585999Y218259D02*
X583001D01*
Y219759D01*
X583500Y220258D01*
X584500D01*
X585000Y219759D01*
Y218259D01*
Y219259D02*
X585999Y220258D01*
Y221258D02*
Y222258D01*
Y221758D01*
X583001D01*
X583500Y221258D01*
X583001Y225757D02*
X583500Y224757D01*
X584500Y223757D01*
X585500D01*
X585999Y224257D01*
Y225257D01*
X585500Y225757D01*
X585000D01*
X584500Y225257D01*
Y223757D01*
X635263Y376771D02*
X632264D01*
Y378270D01*
X632764Y378770D01*
X633764D01*
X634264Y378270D01*
Y376771D01*
Y377771D02*
X635263Y378770D01*
Y379770D02*
Y380770D01*
Y380270D01*
X632264D01*
X632764Y379770D01*
X632264Y384268D02*
Y382269D01*
X633764D01*
X633264Y383269D01*
Y383769D01*
X633764Y384268D01*
X634763D01*
X635263Y383769D01*
Y382769D01*
X634763Y382269D01*
X621764Y385268D02*
X624763D01*
Y383769D01*
X624263Y383269D01*
X623264D01*
X622764Y383769D01*
Y385268D01*
Y384269D02*
X621764Y383269D01*
Y382269D02*
Y381270D01*
Y381770D01*
X624763D01*
X624263Y382269D01*
X621764Y378271D02*
X624763D01*
X623264Y379770D01*
Y377771D01*
X539751Y132001D02*
Y135000D01*
X541251D01*
X541751Y134500D01*
Y133500D01*
X541251Y133000D01*
X539751D01*
X540751D02*
X541751Y132001D01*
X542750D02*
X543750D01*
X543250D01*
Y135000D01*
X542750Y134500D01*
X545249D02*
X545749Y135000D01*
X546749D01*
X547249Y134500D01*
Y134000D01*
X546749Y133500D01*
X546249D01*
X546749D01*
X547249Y133000D01*
Y132500D01*
X546749Y132001D01*
X545749D01*
X545249Y132500D01*
X539751Y138001D02*
Y140999D01*
X541251D01*
X541751Y140500D01*
Y139500D01*
X541251Y139000D01*
X539751D01*
X540751D02*
X541751Y138001D01*
X542750D02*
X543750D01*
X543250D01*
Y140999D01*
X542750Y140500D01*
X547249Y138001D02*
X545249D01*
X547249Y140000D01*
Y140500D01*
X546749Y140999D01*
X545749D01*
X545249Y140500D01*
X514000Y198300D02*
Y201299D01*
X515499D01*
X515999Y200799D01*
Y199800D01*
X515499Y199300D01*
X514000D01*
X515000D02*
X515999Y198300D01*
X516999D02*
X517999D01*
X517499D01*
Y201299D01*
X516999Y200799D01*
X519498Y198300D02*
X520498D01*
X519998D01*
Y201299D01*
X519498Y200799D01*
X210300Y292200D02*
Y295199D01*
X211800D01*
X212299Y294699D01*
Y293700D01*
X211800Y293200D01*
X210300D01*
X211300D02*
X212299Y292200D01*
X213299D02*
X214299D01*
X213799D01*
Y295199D01*
X213299Y294699D01*
X215798D02*
X216298Y295199D01*
X217298D01*
X217798Y294699D01*
Y292700D01*
X217298Y292200D01*
X216298D01*
X215798Y292700D01*
Y294699D01*
X137500Y284300D02*
Y287299D01*
X138999D01*
X139499Y286799D01*
Y285800D01*
X138999Y285300D01*
X137500D01*
X138500D02*
X139499Y284300D01*
X140499Y284800D02*
X140999Y284300D01*
X141999D01*
X142498Y284800D01*
Y286799D01*
X141999Y287299D01*
X140999D01*
X140499Y286799D01*
Y286299D01*
X140999Y285800D01*
X142498D01*
X163000Y291800D02*
Y294799D01*
X164499D01*
X164999Y294299D01*
Y293300D01*
X164499Y292800D01*
X163000D01*
X164000D02*
X164999Y291800D01*
X165999Y294299D02*
X166499Y294799D01*
X167499D01*
X167998Y294299D01*
Y293799D01*
X167499Y293300D01*
X167998Y292800D01*
Y292300D01*
X167499Y291800D01*
X166499D01*
X165999Y292300D01*
Y292800D01*
X166499Y293300D01*
X165999Y293799D01*
Y294299D01*
X166499Y293300D02*
X167499D01*
X184000Y279300D02*
Y282299D01*
X185500D01*
X185999Y281799D01*
Y280800D01*
X185500Y280300D01*
X184000D01*
X185000D02*
X185999Y279300D01*
X186999Y282299D02*
X188998D01*
Y281799D01*
X186999Y279800D01*
Y279300D01*
X161000Y269300D02*
Y272299D01*
X162499D01*
X162999Y271799D01*
Y270799D01*
X162499Y270300D01*
X161000D01*
X162000D02*
X162999Y269300D01*
X165998Y272299D02*
X164999Y271799D01*
X163999Y270799D01*
Y269800D01*
X164499Y269300D01*
X165499D01*
X165998Y269800D01*
Y270300D01*
X165499Y270799D01*
X163999D01*
X674539Y594241D02*
X671540D01*
Y595741D01*
X672040Y596240D01*
X673039D01*
X673539Y595741D01*
Y594241D01*
Y595241D02*
X674539Y596240D01*
X671540Y599239D02*
Y597240D01*
X673039D01*
X672540Y598240D01*
Y598739D01*
X673039Y599239D01*
X674039D01*
X674539Y598739D01*
Y597740D01*
X674039Y597240D01*
X633000Y198745D02*
X630000D01*
Y200244D01*
X630500Y200744D01*
X631500D01*
X632000Y200244D01*
Y198745D01*
Y199745D02*
X633000Y200744D01*
Y203243D02*
X630000D01*
X631500Y201744D01*
Y203743D01*
X624500Y198745D02*
X621500D01*
Y200244D01*
X622000Y200744D01*
X623000D01*
X623500Y200244D01*
Y198745D01*
Y199745D02*
X624500Y200744D01*
X622000Y201744D02*
X621500Y202244D01*
Y203243D01*
X622000Y203743D01*
X622500D01*
X623000Y203243D01*
Y202744D01*
Y203243D01*
X623500Y203743D01*
X624000D01*
X624500Y203243D01*
Y202244D01*
X624000Y201744D01*
X618500Y198245D02*
X615500D01*
Y199744D01*
X616000Y200244D01*
X617000D01*
X617500Y199744D01*
Y198245D01*
Y199245D02*
X618500Y200244D01*
Y203243D02*
Y201244D01*
X616500Y203243D01*
X616000D01*
X615500Y202744D01*
Y201744D01*
X616000Y201244D01*
X693047Y585740D02*
Y582741D01*
X691547D01*
X691047Y583241D01*
Y584240D01*
X691547Y584740D01*
X693047D01*
X692047D02*
X691047Y585740D01*
X690048D02*
X689048D01*
X689548D01*
Y582741D01*
X690048Y583241D01*
X642000Y138500D02*
Y140500D01*
X641500Y140999D01*
X640501D01*
X640001Y140500D01*
Y138500D01*
X640501Y138001D01*
X641500D01*
X641001Y139000D02*
X642000Y138001D01*
X641500D02*
X642000Y138500D01*
X644999Y138001D02*
X643000D01*
X644999Y140000D01*
Y140500D01*
X644499Y140999D01*
X643500D01*
X643000Y140500D01*
X653399Y590500D02*
Y592499D01*
X652900Y592999D01*
X651900D01*
X651400Y592499D01*
Y590500D01*
X651900Y590000D01*
X652900D01*
X652400Y591000D02*
X653399Y590000D01*
X652900D02*
X653399Y590500D01*
X654399Y590000D02*
X655399D01*
X654899D01*
Y592999D01*
X654399Y592499D01*
X124300Y344499D02*
Y341500D01*
X126299D01*
X129298D02*
X127299D01*
X129298Y343499D01*
Y343999D01*
X128799Y344499D01*
X127799D01*
X127299Y343999D01*
X131800Y428199D02*
Y425200D01*
X133799D01*
X134799D02*
X135799D01*
X135299D01*
Y428199D01*
X134799Y427699D01*
X662500Y340500D02*
Y339500D01*
Y340000D01*
X665000D01*
X665499Y339500D01*
Y339001D01*
X665000Y338501D01*
X662500Y341500D02*
Y343499D01*
X663000D01*
X665000Y341500D01*
X665499D01*
X651999Y748599D02*
X651000D01*
X651500D01*
Y746100D01*
X651000Y745600D01*
X650500D01*
X650000Y746100D01*
X654998Y748599D02*
X653999Y748099D01*
X652999Y747099D01*
Y746100D01*
X653499Y745600D01*
X654498D01*
X654998Y746100D01*
Y746600D01*
X654498Y747099D01*
X652999D01*
X187899Y734199D02*
X186900D01*
X187399D01*
Y731700D01*
X186900Y731200D01*
X186400D01*
X185900Y731700D01*
X190898Y734199D02*
X188899D01*
Y732699D01*
X189899Y733199D01*
X190399D01*
X190898Y732699D01*
Y731700D01*
X190399Y731200D01*
X189399D01*
X188899Y731700D01*
X185099Y198399D02*
X184100D01*
X184599D01*
Y195900D01*
X184100Y195400D01*
X183600D01*
X183100Y195900D01*
X187599Y195400D02*
Y198399D01*
X186099Y196899D01*
X188098D01*
X135899Y195699D02*
X134900D01*
X135399D01*
Y193200D01*
X134900Y192700D01*
X134400D01*
X133900Y193200D01*
X136899Y195199D02*
X137399Y195699D01*
X138399D01*
X138898Y195199D01*
Y194699D01*
X138399Y194200D01*
X137899D01*
X138399D01*
X138898Y193700D01*
Y193200D01*
X138399Y192700D01*
X137399D01*
X136899Y193200D01*
X513500Y128499D02*
X512500D01*
X513000D01*
Y126000D01*
X512500Y125501D01*
X512001D01*
X511501Y126000D01*
X516499Y125501D02*
X514500D01*
X516499Y127500D01*
Y128000D01*
X515999Y128499D01*
X515000D01*
X514500Y128000D01*
X647999Y576099D02*
X647000D01*
X647500D01*
Y573600D01*
X647000Y573100D01*
X646500D01*
X646000Y573600D01*
X648999Y573100D02*
X649999D01*
X649499D01*
Y576099D01*
X648999Y575599D01*
X593001Y639594D02*
X591001D01*
Y638095D01*
X592001D01*
X591001D01*
Y636595D01*
X594000Y639594D02*
Y636595D01*
X595500D01*
X595999Y637095D01*
Y637595D01*
X595500Y638095D01*
X594000D01*
X595500D01*
X595999Y638594D01*
Y639094D01*
X595500Y639594D01*
X594000D01*
X596999Y636595D02*
X597999D01*
X597499D01*
Y639594D01*
X596999Y639094D01*
X692040Y574240D02*
Y572241D01*
X693539D01*
Y573241D01*
Y572241D01*
X695039D01*
Y575240D02*
Y576239D01*
Y575740D01*
X692040D01*
X692540Y575240D01*
X626500Y173599D02*
Y170600D01*
X627999D01*
X628499Y171100D01*
Y173099D01*
X627999Y173599D01*
X626500D01*
X629499Y173099D02*
X629999Y173599D01*
X630999D01*
X631498Y173099D01*
Y172599D01*
X630999Y172099D01*
X630499D01*
X630999D01*
X631498Y171600D01*
Y171100D01*
X630999Y170600D01*
X629999D01*
X629499Y171100D01*
X144000Y583245D02*
X147000D01*
Y584744D01*
X146500Y585244D01*
X144500D01*
X144000Y584744D01*
Y583245D01*
X147000Y588243D02*
Y586244D01*
X145000Y588243D01*
X144500D01*
X144000Y587744D01*
Y586744D01*
X144500Y586244D01*
X536001Y129499D02*
Y126500D01*
X537500D01*
X538000Y127000D01*
Y129000D01*
X537500Y129499D01*
X536001D01*
X539000Y126500D02*
X539999D01*
X539500D01*
Y129499D01*
X539000Y129000D01*
X582013Y679594D02*
X581513Y680094D01*
X580513D01*
X580013Y679594D01*
Y677595D01*
X580513Y677095D01*
X581513D01*
X582013Y677595D01*
X585011Y680094D02*
X583012D01*
Y678594D01*
X584012Y679094D01*
X584512D01*
X585011Y678594D01*
Y677595D01*
X584512Y677095D01*
X583512D01*
X583012Y677595D01*
X586011Y679594D02*
X586511Y680094D01*
X587511D01*
X588011Y679594D01*
Y679094D01*
X587511Y678594D01*
X587011D01*
X587511D01*
X588011Y678095D01*
Y677595D01*
X587511Y677095D01*
X586511D01*
X586011Y677595D01*
X613500Y618595D02*
X613000Y618095D01*
Y617096D01*
X613500Y616596D01*
X615500D01*
X616000Y617096D01*
Y618095D01*
X615500Y618595D01*
X613000Y621594D02*
Y619595D01*
X614500D01*
X614000Y620595D01*
Y621094D01*
X614500Y621594D01*
X615500D01*
X616000Y621094D01*
Y620095D01*
X615500Y619595D01*
X616000Y624593D02*
Y622594D01*
X614000Y624593D01*
X613500D01*
X613000Y624093D01*
Y623094D01*
X613500Y622594D01*
X661500Y620083D02*
X661000Y619583D01*
Y618584D01*
X661500Y618084D01*
X663500D01*
X664000Y618584D01*
Y619583D01*
X663500Y620083D01*
X661000Y623082D02*
Y621083D01*
X662500D01*
X662000Y622083D01*
Y622582D01*
X662500Y623082D01*
X663500D01*
X664000Y622582D01*
Y621583D01*
X663500Y621083D01*
X664000Y624082D02*
Y625082D01*
Y624582D01*
X661000D01*
X661500Y624082D01*
X687001Y700094D02*
X686501Y700594D01*
X685501D01*
X685001Y700094D01*
Y698095D01*
X685501Y697595D01*
X686501D01*
X687001Y698095D01*
X690000Y700594D02*
X688000D01*
Y699094D01*
X689000Y699594D01*
X689500D01*
X690000Y699094D01*
Y698095D01*
X689500Y697595D01*
X688500D01*
X688000Y698095D01*
X690999Y700094D02*
X691499Y700594D01*
X692499D01*
X692999Y700094D01*
Y698095D01*
X692499Y697595D01*
X691499D01*
X690999Y698095D01*
Y700094D01*
X612000Y723595D02*
X611501Y723095D01*
Y722096D01*
X612000Y721596D01*
X614000D01*
X614500Y722096D01*
Y723095D01*
X614000Y723595D01*
X614500Y726094D02*
X611501D01*
X613000Y724595D01*
Y726594D01*
X614000Y727594D02*
X614500Y728094D01*
Y729093D01*
X614000Y729593D01*
X612000D01*
X611501Y729093D01*
Y728094D01*
X612000Y727594D01*
X612500D01*
X613000Y728094D01*
Y729593D01*
X582513Y687594D02*
X582013Y688094D01*
X581013D01*
X580513Y687594D01*
Y685595D01*
X581013Y685095D01*
X582013D01*
X582513Y685595D01*
X585012Y685095D02*
Y688094D01*
X583512Y686594D01*
X585511D01*
X586511Y687594D02*
X587011Y688094D01*
X588011D01*
X588511Y687594D01*
Y687094D01*
X588011Y686594D01*
X588511Y686095D01*
Y685595D01*
X588011Y685095D01*
X587011D01*
X586511Y685595D01*
Y686095D01*
X587011Y686594D01*
X586511Y687094D01*
Y687594D01*
X587011Y686594D02*
X588011D01*
X655500Y617095D02*
X655000Y616595D01*
Y615596D01*
X655500Y615096D01*
X657500D01*
X658000Y615596D01*
Y616595D01*
X657500Y617095D01*
X658000Y619594D02*
X655000D01*
X656500Y618095D01*
Y620094D01*
X655000Y621094D02*
Y623093D01*
X655500D01*
X657500Y621094D01*
X658000D01*
X686989Y694094D02*
X686489Y694594D01*
X685489D01*
X684990Y694094D01*
Y692095D01*
X685489Y691595D01*
X686489D01*
X686989Y692095D01*
X689488Y691595D02*
Y694594D01*
X687989Y693094D01*
X689988D01*
X692987Y694594D02*
X691987Y694094D01*
X690988Y693094D01*
Y692095D01*
X691487Y691595D01*
X692487D01*
X692987Y692095D01*
Y692595D01*
X692487Y693094D01*
X690988D01*
X580001Y629594D02*
X579501Y630094D01*
X578501D01*
X578001Y629594D01*
Y627595D01*
X578501Y627095D01*
X579501D01*
X580001Y627595D01*
X582500Y627095D02*
Y630094D01*
X581000Y628594D01*
X583000D01*
X585999Y630094D02*
X583999D01*
Y628594D01*
X584999Y629094D01*
X585499D01*
X585999Y628594D01*
Y627595D01*
X585499Y627095D01*
X584499D01*
X583999Y627595D01*
X580001Y634094D02*
X579501Y634594D01*
X578501D01*
X578001Y634094D01*
Y632095D01*
X578501Y631595D01*
X579501D01*
X580001Y632095D01*
X582500Y631595D02*
Y634594D01*
X581000Y633095D01*
X583000D01*
X585499Y631595D02*
Y634594D01*
X583999Y633095D01*
X585999D01*
X593001Y630094D02*
X592501Y630594D01*
X591501D01*
X591001Y630094D01*
Y628095D01*
X591501Y627595D01*
X592501D01*
X593001Y628095D01*
X595500Y627595D02*
Y630594D01*
X594000Y629095D01*
X596000D01*
X596999Y630094D02*
X597499Y630594D01*
X598499D01*
X598999Y630094D01*
Y629594D01*
X598499Y629095D01*
X597999D01*
X598499D01*
X598999Y628595D01*
Y628095D01*
X598499Y627595D01*
X597499D01*
X596999Y628095D01*
X593001Y634594D02*
X592501Y635094D01*
X591501D01*
X591001Y634594D01*
Y632595D01*
X591501Y632095D01*
X592501D01*
X593001Y632595D01*
X595500Y632095D02*
Y635094D01*
X594000Y633595D01*
X596000D01*
X598999Y632095D02*
X596999D01*
X598999Y634094D01*
Y634594D01*
X598499Y635094D01*
X597499D01*
X596999Y634594D01*
X590000Y502001D02*
X589501Y501501D01*
Y500501D01*
X590000Y500001D01*
X592000D01*
X592499Y500501D01*
Y501501D01*
X592000Y502001D01*
X592499Y504500D02*
X589501D01*
X591000Y503000D01*
Y504999D01*
X592499Y505999D02*
Y506999D01*
Y506499D01*
X589501D01*
X590000Y505999D01*
X596000Y299694D02*
X595501Y299194D01*
Y298194D01*
X596000Y297694D01*
X598000D01*
X598499Y298194D01*
Y299194D01*
X598000Y299694D01*
X598499Y302193D02*
X595501D01*
X597000Y300693D01*
Y302693D01*
X596000Y303692D02*
X595501Y304192D01*
Y305192D01*
X596000Y305692D01*
X598000D01*
X598499Y305192D01*
Y304192D01*
X598000Y303692D01*
X596000D01*
X685320Y228941D02*
X684820Y229440D01*
X683820D01*
X683320Y228941D01*
Y226941D01*
X683820Y226441D01*
X684820D01*
X685320Y226941D01*
X686319Y228941D02*
X686819Y229440D01*
X687819D01*
X688319Y228941D01*
Y228441D01*
X687819Y227941D01*
X687319D01*
X687819D01*
X688319Y227441D01*
Y226941D01*
X687819Y226441D01*
X686819D01*
X686319Y226941D01*
X689318D02*
X689818Y226441D01*
X690818D01*
X691318Y226941D01*
Y228941D01*
X690818Y229440D01*
X689818D01*
X689318Y228941D01*
Y228441D01*
X689818Y227941D01*
X691318D01*
X685001Y270500D02*
X684501Y271000D01*
X683501D01*
X683001Y270500D01*
Y268500D01*
X683501Y268001D01*
X684501D01*
X685001Y268500D01*
X686000Y270500D02*
X686500Y271000D01*
X687500D01*
X688000Y270500D01*
Y270000D01*
X687500Y269500D01*
X687000D01*
X687500D01*
X688000Y269000D01*
Y268500D01*
X687500Y268001D01*
X686500D01*
X686000Y268500D01*
X688999Y270500D02*
X689499Y271000D01*
X690499D01*
X690999Y270500D01*
Y270000D01*
X690499Y269500D01*
X690999Y269000D01*
Y268500D01*
X690499Y268001D01*
X689499D01*
X688999Y268500D01*
Y269000D01*
X689499Y269500D01*
X688999Y270000D01*
Y270500D01*
X689499Y269500D02*
X690499D01*
X681599Y145599D02*
X681100Y146099D01*
X680100D01*
X679600Y145599D01*
Y143600D01*
X680100Y143100D01*
X681100D01*
X681599Y143600D01*
X682599Y145599D02*
X683099Y146099D01*
X684098D01*
X684598Y145599D01*
Y145099D01*
X684098Y144599D01*
X683599D01*
X684098D01*
X684598Y144100D01*
Y143600D01*
X684098Y143100D01*
X683099D01*
X682599Y143600D01*
X685598Y146099D02*
X687597D01*
Y145599D01*
X685598Y143600D01*
Y143100D01*
X683489Y188382D02*
X682989Y188881D01*
X681989D01*
X681490Y188382D01*
Y186382D01*
X681989Y185882D01*
X682989D01*
X683489Y186382D01*
X684488Y188382D02*
X684988Y188881D01*
X685988D01*
X686488Y188382D01*
Y187882D01*
X685988Y187382D01*
X685488D01*
X685988D01*
X686488Y186882D01*
Y186382D01*
X685988Y185882D01*
X684988D01*
X684488Y186382D01*
X689487Y188881D02*
X688487Y188382D01*
X687488Y187382D01*
Y186382D01*
X687987Y185882D01*
X688987D01*
X689487Y186382D01*
Y186882D01*
X688987Y187382D01*
X687488D01*
X680013Y476342D02*
X679513Y476842D01*
X678513D01*
X678013Y476342D01*
Y474343D01*
X678513Y473843D01*
X679513D01*
X680013Y474343D01*
X681012Y476342D02*
X681512Y476842D01*
X682512D01*
X683011Y476342D01*
Y475842D01*
X682512Y475343D01*
X682012D01*
X682512D01*
X683011Y474843D01*
Y474343D01*
X682512Y473843D01*
X681512D01*
X681012Y474343D01*
X686011Y476842D02*
X684011D01*
Y475343D01*
X685011Y475842D01*
X685511D01*
X686011Y475343D01*
Y474343D01*
X685511Y473843D01*
X684511D01*
X684011Y474343D01*
X679489Y470342D02*
X678989Y470842D01*
X677989D01*
X677490Y470342D01*
Y468343D01*
X677989Y467843D01*
X678989D01*
X679489Y468343D01*
X680488Y470342D02*
X680988Y470842D01*
X681988D01*
X682488Y470342D01*
Y469842D01*
X681988Y469343D01*
X681488D01*
X681988D01*
X682488Y468843D01*
Y468343D01*
X681988Y467843D01*
X680988D01*
X680488Y468343D01*
X684987Y467843D02*
Y470842D01*
X683488Y469343D01*
X685487D01*
X647618Y445858D02*
X648118Y446357D01*
Y447357D01*
X647618Y447857D01*
X645618D01*
X645119Y447357D01*
Y446357D01*
X645618Y445858D01*
X647618Y444858D02*
X648118Y444358D01*
Y443358D01*
X647618Y442859D01*
X647118D01*
X646618Y443358D01*
Y443858D01*
Y443358D01*
X646118Y442859D01*
X645618D01*
X645119Y443358D01*
Y444358D01*
X645618Y444858D01*
X647618Y441859D02*
X648118Y441359D01*
Y440359D01*
X647618Y439860D01*
X647118D01*
X646618Y440359D01*
Y440859D01*
Y440359D01*
X646118Y439860D01*
X645618D01*
X645119Y440359D01*
Y441359D01*
X645618Y441859D01*
X683000Y435343D02*
X682501Y434843D01*
Y433844D01*
X683000Y433344D01*
X685000D01*
X685499Y433844D01*
Y434843D01*
X685000Y435343D01*
X683000Y436343D02*
X682501Y436843D01*
Y437842D01*
X683000Y438342D01*
X683500D01*
X684000Y437842D01*
Y437343D01*
Y437842D01*
X684500Y438342D01*
X685000D01*
X685499Y437842D01*
Y436843D01*
X685000Y436343D01*
X685499Y441341D02*
Y439342D01*
X683500Y441341D01*
X683000D01*
X682501Y440841D01*
Y439842D01*
X683000Y439342D01*
X623000Y473842D02*
X622501Y474342D01*
X621501D01*
X621001Y473842D01*
Y471843D01*
X621501Y471343D01*
X622501D01*
X623000Y471843D01*
X624000Y473842D02*
X624500Y474342D01*
X625500D01*
X625999Y473842D01*
Y473342D01*
X625500Y472843D01*
X625000D01*
X625500D01*
X625999Y472343D01*
Y471843D01*
X625500Y471343D01*
X624500D01*
X624000Y471843D01*
X626999Y471343D02*
X627999D01*
X627499D01*
Y474342D01*
X626999Y473842D01*
X622001Y466842D02*
X621501Y467342D01*
X620501D01*
X620001Y466842D01*
Y464843D01*
X620501Y464343D01*
X621501D01*
X622001Y464843D01*
X623000Y466842D02*
X623500Y467342D01*
X624500D01*
X625000Y466842D01*
Y466342D01*
X624500Y465842D01*
X624000D01*
X624500D01*
X625000Y465343D01*
Y464843D01*
X624500Y464343D01*
X623500D01*
X623000Y464843D01*
X625999Y466842D02*
X626499Y467342D01*
X627499D01*
X627999Y466842D01*
Y464843D01*
X627499Y464343D01*
X626499D01*
X625999Y464843D01*
Y466842D01*
X139501Y652252D02*
X139001Y652751D01*
X138001D01*
X137501Y652252D01*
Y650252D01*
X138001Y649753D01*
X139001D01*
X139501Y650252D01*
X142500Y649753D02*
X140500D01*
X142500Y651752D01*
Y652252D01*
X142000Y652751D01*
X141000D01*
X140500Y652252D01*
X143499Y650252D02*
X143999Y649753D01*
X144999D01*
X145499Y650252D01*
Y652252D01*
X144999Y652751D01*
X143999D01*
X143499Y652252D01*
Y651752D01*
X143999Y651252D01*
X145499D01*
X139501Y656752D02*
X139001Y657252D01*
X138001D01*
X137501Y656752D01*
Y654752D01*
X138001Y654252D01*
X139001D01*
X139501Y654752D01*
X142500Y654252D02*
X140500D01*
X142500Y656252D01*
Y656752D01*
X142000Y657252D01*
X141000D01*
X140500Y656752D01*
X143499D02*
X143999Y657252D01*
X144999D01*
X145499Y656752D01*
Y656252D01*
X144999Y655752D01*
X145499Y655252D01*
Y654752D01*
X144999Y654252D01*
X143999D01*
X143499Y654752D01*
Y655252D01*
X143999Y655752D01*
X143499Y656252D01*
Y656752D01*
X143999Y655752D02*
X144999D01*
X160799Y731799D02*
X160300Y732299D01*
X159300D01*
X158800Y731799D01*
Y729800D01*
X159300Y729300D01*
X160300D01*
X160799Y729800D01*
X163798Y729300D02*
X161799D01*
X163798Y731299D01*
Y731799D01*
X163299Y732299D01*
X162299D01*
X161799Y731799D01*
X164798Y732299D02*
X166797D01*
Y731799D01*
X164798Y729800D01*
Y729300D01*
X160799Y708799D02*
X160300Y709299D01*
X159300D01*
X158800Y708799D01*
Y706800D01*
X159300Y706300D01*
X160300D01*
X160799Y706800D01*
X163798Y706300D02*
X161799D01*
X163798Y708299D01*
Y708799D01*
X163299Y709299D01*
X162299D01*
X161799Y708799D01*
X166797Y709299D02*
X165798Y708799D01*
X164798Y707799D01*
Y706800D01*
X165298Y706300D01*
X166298D01*
X166797Y706800D01*
Y707300D01*
X166298Y707799D01*
X164798D01*
X162799Y686299D02*
X162300Y686799D01*
X161300D01*
X160800Y686299D01*
Y684300D01*
X161300Y683800D01*
X162300D01*
X162799Y684300D01*
X165798Y683800D02*
X163799D01*
X165798Y685799D01*
Y686299D01*
X165299Y686799D01*
X164299D01*
X163799Y686299D01*
X168797Y686799D02*
X166798D01*
Y685299D01*
X167798Y685799D01*
X168298D01*
X168797Y685299D01*
Y684300D01*
X168298Y683800D01*
X167298D01*
X166798Y684300D01*
X226012Y576752D02*
X225513Y577251D01*
X224513D01*
X224013Y576752D01*
Y574752D01*
X224513Y574253D01*
X225513D01*
X226012Y574752D01*
X229012Y574253D02*
X227012D01*
X229012Y576252D01*
Y576752D01*
X228512Y577251D01*
X227512D01*
X227012Y576752D01*
X231511Y574253D02*
Y577251D01*
X230011Y575752D01*
X232011D01*
X212989Y642252D02*
X212489Y642752D01*
X211489D01*
X210989Y642252D01*
Y640252D01*
X211489Y639752D01*
X212489D01*
X212989Y640252D01*
X215988Y639752D02*
X213988D01*
X215988Y641752D01*
Y642252D01*
X215488Y642752D01*
X214488D01*
X213988Y642252D01*
X216988D02*
X217487Y642752D01*
X218487D01*
X218987Y642252D01*
Y641752D01*
X218487Y641252D01*
X217987D01*
X218487D01*
X218987Y640752D01*
Y640252D01*
X218487Y639752D01*
X217487D01*
X216988Y640252D01*
X210599Y684599D02*
X210100Y685099D01*
X209100D01*
X208600Y684599D01*
Y682600D01*
X209100Y682100D01*
X210100D01*
X210599Y682600D01*
X213598Y682100D02*
X211599D01*
X213598Y684099D01*
Y684599D01*
X213099Y685099D01*
X212099D01*
X211599Y684599D01*
X216597Y682100D02*
X214598D01*
X216597Y684099D01*
Y684599D01*
X216098Y685099D01*
X215098D01*
X214598Y684599D01*
X241000Y583252D02*
X240500Y582753D01*
Y581753D01*
X241000Y581253D01*
X243000D01*
X243499Y581753D01*
Y582753D01*
X243000Y583252D01*
X243499Y586251D02*
Y584252D01*
X241500Y586251D01*
X241000D01*
X240500Y585752D01*
Y584752D01*
X241000Y584252D01*
X243499Y587251D02*
Y588251D01*
Y587751D01*
X240500D01*
X241000Y587251D01*
X125500Y584745D02*
X125001Y584245D01*
Y583245D01*
X125500Y582745D01*
X127500D01*
X127999Y583245D01*
Y584245D01*
X127500Y584745D01*
X127999Y587744D02*
Y585744D01*
X126000Y587744D01*
X125500D01*
X125001Y587244D01*
Y586244D01*
X125500Y585744D01*
Y588743D02*
X125001Y589243D01*
Y590243D01*
X125500Y590743D01*
X127500D01*
X127999Y590243D01*
Y589243D01*
X127500Y588743D01*
X125500D01*
X146099Y146699D02*
X145599Y147199D01*
X144600D01*
X144100Y146699D01*
Y144700D01*
X144600Y144200D01*
X145599D01*
X146099Y144700D01*
X147099Y144200D02*
X148099D01*
X147599D01*
Y147199D01*
X147099Y146699D01*
X149598Y144700D02*
X150098Y144200D01*
X151098D01*
X151598Y144700D01*
Y146699D01*
X151098Y147199D01*
X150098D01*
X149598Y146699D01*
Y146199D01*
X150098Y145700D01*
X151598D01*
X577500Y220258D02*
X577001Y219759D01*
Y218759D01*
X577500Y218259D01*
X579500D01*
X579999Y218759D01*
Y219759D01*
X579500Y220258D01*
X579999Y221258D02*
Y222258D01*
Y221758D01*
X577001D01*
X577500Y221258D01*
Y223757D02*
X577001Y224257D01*
Y225257D01*
X577500Y225757D01*
X578000D01*
X578500Y225257D01*
X579000Y225757D01*
X579500D01*
X579999Y225257D01*
Y224257D01*
X579500Y223757D01*
X579000D01*
X578500Y224257D01*
X578000Y223757D01*
X577500D01*
X578500Y224257D02*
Y225257D01*
X541762Y146000D02*
X541263Y146500D01*
X540263D01*
X539763Y146000D01*
Y144000D01*
X540263Y143500D01*
X541263D01*
X541762Y144000D01*
X542762Y143500D02*
X543762D01*
X543262D01*
Y146500D01*
X542762Y146000D01*
X545261Y146500D02*
X547261D01*
Y146000D01*
X545261Y144000D01*
Y143500D01*
X539799Y200899D02*
X539299Y201399D01*
X538300D01*
X537800Y200899D01*
Y198900D01*
X538300Y198400D01*
X539299D01*
X539799Y198900D01*
X540799Y198400D02*
X541799D01*
X541299D01*
Y201399D01*
X540799Y200899D01*
X545298Y201399D02*
X544298Y200899D01*
X543298Y199899D01*
Y198900D01*
X543798Y198400D01*
X544798D01*
X545298Y198900D01*
Y199400D01*
X544798Y199899D01*
X543298D01*
X188199Y340399D02*
X187699Y340899D01*
X186700D01*
X186200Y340399D01*
Y338400D01*
X186700Y337900D01*
X187699D01*
X188199Y338400D01*
X189199Y337900D02*
X190199D01*
X189699D01*
Y340899D01*
X189199Y340399D01*
X193698Y340899D02*
X191698D01*
Y339400D01*
X192698Y339899D01*
X193198D01*
X193698Y339400D01*
Y338400D01*
X193198Y337900D01*
X192198D01*
X191698Y338400D01*
X675749Y395000D02*
X676249Y394500D01*
X677249D01*
X677749Y395000D01*
Y397000D01*
X677249Y397499D01*
X676249D01*
X675749Y397000D01*
X674750Y397499D02*
X673750D01*
X674250D01*
Y394500D01*
X674750Y395000D01*
X670751Y397499D02*
Y394500D01*
X672251Y396000D01*
X670251D01*
X676249Y361000D02*
X676749Y360501D01*
X677749D01*
X678249Y361000D01*
Y363000D01*
X677749Y363499D01*
X676749D01*
X676249Y363000D01*
X675250Y363499D02*
X674250D01*
X674750D01*
Y360501D01*
X675250Y361000D01*
X672751D02*
X672251Y360501D01*
X671251D01*
X670751Y361000D01*
Y361500D01*
X671251Y362000D01*
X671751D01*
X671251D01*
X670751Y362500D01*
Y363000D01*
X671251Y363499D01*
X672251D01*
X672751Y363000D01*
X203199Y261399D02*
X202699Y261899D01*
X201700D01*
X201200Y261399D01*
Y259400D01*
X201700Y258900D01*
X202699D01*
X203199Y259400D01*
X204199Y258900D02*
X205199D01*
X204699D01*
Y261899D01*
X204199Y261399D01*
X208698Y258900D02*
X206698D01*
X208698Y260899D01*
Y261399D01*
X208198Y261899D01*
X207198D01*
X206698Y261399D01*
X148599Y247299D02*
X148100Y247799D01*
X147100D01*
X146600Y247299D01*
Y245300D01*
X147100Y244800D01*
X148100D01*
X148599Y245300D01*
X149599Y244800D02*
X150599D01*
X150099D01*
Y247799D01*
X149599Y247299D01*
X152098Y244800D02*
X153098D01*
X152598D01*
Y247799D01*
X152098Y247299D01*
X175299Y254299D02*
X174800Y254799D01*
X173800D01*
X173300Y254299D01*
Y252300D01*
X173800Y251800D01*
X174800D01*
X175299Y252300D01*
X176299Y251800D02*
X177299D01*
X176799D01*
Y254799D01*
X176299Y254299D01*
X178798D02*
X179298Y254799D01*
X180298D01*
X180798Y254299D01*
Y252300D01*
X180298Y251800D01*
X179298D01*
X178798Y252300D01*
Y254299D01*
X166799Y315399D02*
X166299Y315899D01*
X165300D01*
X164800Y315399D01*
Y313400D01*
X165300Y312900D01*
X166299D01*
X166799Y313400D01*
X167799D02*
X168299Y312900D01*
X169299D01*
X169798Y313400D01*
Y315399D01*
X169299Y315899D01*
X168299D01*
X167799Y315399D01*
Y314899D01*
X168299Y314400D01*
X169798D01*
X165299Y339299D02*
X164799Y339799D01*
X163800D01*
X163300Y339299D01*
Y337300D01*
X163800Y336800D01*
X164799D01*
X165299Y337300D01*
X166299Y339299D02*
X166799Y339799D01*
X167799D01*
X168298Y339299D01*
Y338799D01*
X167799Y338299D01*
X168298Y337800D01*
Y337300D01*
X167799Y336800D01*
X166799D01*
X166299Y337300D01*
Y337800D01*
X166799Y338299D01*
X166299Y338799D01*
Y339299D01*
X166799Y338299D02*
X167799D01*
X211299Y324399D02*
X210800Y324899D01*
X209800D01*
X209300Y324399D01*
Y322400D01*
X209800Y321900D01*
X210800D01*
X211299Y322400D01*
X212299Y324899D02*
X214298D01*
Y324399D01*
X212299Y322400D01*
Y321900D01*
X191099Y424799D02*
X190600Y425299D01*
X189600D01*
X189100Y424799D01*
Y422800D01*
X189600Y422300D01*
X190600D01*
X191099Y422800D01*
X194098Y425299D02*
X193099Y424799D01*
X192099Y423800D01*
Y422800D01*
X192599Y422300D01*
X193599D01*
X194098Y422800D01*
Y423300D01*
X193599Y423800D01*
X192099D01*
X170799Y427299D02*
X170299Y427799D01*
X169300D01*
X168800Y427299D01*
Y425300D01*
X169300Y424800D01*
X170299D01*
X170799Y425300D01*
X173798Y427799D02*
X171799D01*
Y426299D01*
X172799Y426799D01*
X173299D01*
X173798Y426299D01*
Y425300D01*
X173299Y424800D01*
X172299D01*
X171799Y425300D01*
X187299Y448399D02*
X186800Y448899D01*
X185800D01*
X185300Y448399D01*
Y446400D01*
X185800Y445900D01*
X186800D01*
X187299Y446400D01*
X189799Y445900D02*
Y448899D01*
X188299Y447400D01*
X190298D01*
X170299Y448399D02*
X169799Y448899D01*
X168800D01*
X168300Y448399D01*
Y446400D01*
X168800Y445900D01*
X169799D01*
X170299Y446400D01*
X171299Y448399D02*
X171799Y448899D01*
X172799D01*
X173298Y448399D01*
Y447899D01*
X172799Y447400D01*
X172299D01*
X172799D01*
X173298Y446900D01*
Y446400D01*
X172799Y445900D01*
X171799D01*
X171299Y446400D01*
X170799Y404899D02*
X170299Y405399D01*
X169300D01*
X168800Y404899D01*
Y402900D01*
X169300Y402400D01*
X170299D01*
X170799Y402900D01*
X173798Y402400D02*
X171799D01*
X173798Y404399D01*
Y404899D01*
X173299Y405399D01*
X172299D01*
X171799Y404899D01*
X691051Y589241D02*
X691551Y588741D01*
X692551D01*
X693050Y589241D01*
Y591240D01*
X692551Y591740D01*
X691551D01*
X691051Y591240D01*
X690052Y591740D02*
X689052D01*
X689552D01*
Y588741D01*
X690052Y589241D01*
X577499Y133498D02*
X574501D01*
Y131998D01*
X575000Y131499D01*
X575500D01*
X576000Y131998D01*
Y133498D01*
Y131998D01*
X576500Y131499D01*
X577000D01*
X577499Y131998D01*
Y133498D01*
Y130499D02*
X575000D01*
X574501Y129999D01*
Y128999D01*
X575000Y128499D01*
X577499D01*
Y127500D02*
Y125501D01*
X577000D01*
X575000Y127500D01*
X574501D01*
Y125501D01*
X577499Y124501D02*
Y122501D01*
X577000D01*
X575000Y124501D01*
X574501D01*
Y122501D01*
Y121502D02*
Y120502D01*
Y121002D01*
X577499D01*
X577000Y121502D01*
D13*
X230736Y133638D02*
X230146Y134228D01*
X229555Y133638D01*
X230146Y133047D01*
X230736Y133638D01*
D14*
X671269Y575402D02*
X670518Y575835D01*
Y574969D01*
X671269Y575402D01*
X518500Y151252D02*
X543500D01*
X518500Y187748D02*
X543500D01*
X629200Y133600D02*
Y137100D01*
Y145400D02*
X632400D01*
X629200Y141900D02*
Y145400D01*
Y133600D02*
X630800D01*
X632400D01*
X596800Y705494D02*
Y708994D01*
X593600Y697194D02*
X596800D01*
Y700695D01*
X595200Y708994D02*
X596800D01*
X593600D02*
X595200D01*
X652339Y572040D02*
X666739D01*
X652339D02*
Y573292D01*
Y586440D02*
X666739D01*
Y585189D02*
Y586440D01*
Y572040D02*
Y573292D01*
X652339Y585189D02*
Y586440D01*
D15*
X144500Y338039D02*
X153000D01*
Y308039D02*
Y338039D01*
X144500Y308039D02*
X153000D01*
X124000Y338039D02*
X132500D01*
X124000Y308039D02*
Y338039D01*
Y308039D02*
X132500D01*
X185594Y727917D02*
X205279D01*
Y586579D02*
Y727917D01*
X185594Y586579D02*
X205279D01*
X185594D02*
Y727917D01*
M02*
