G04*
G04 #@! TF.GenerationSoftware,Altium Limited,Altium Designer,24.5.2 (23)*
G04*
G04 Layer_Color=16711935*
%FSLAX25Y25*%
%MOIN*%
G70*
G04*
G04 #@! TF.SameCoordinates,1FAC9CCE-155D-40C8-9A78-5E955FD1C98E*
G04*
G04*
G04 #@! TF.FilePolarity,Negative*
G04*
G01*
G75*
%ADD64C,0.28150*%
%ADD65C,0.05740*%
%ADD66R,0.03937X0.03937*%
%ADD67C,0.03937*%
%ADD68R,0.05791X0.05791*%
%ADD69C,0.05791*%
%ADD70R,0.04559X0.04559*%
%ADD71C,0.04559*%
%ADD72C,0.05591*%
%ADD73R,0.05591X0.05591*%
%ADD74R,0.06213X0.06213*%
%ADD75C,0.06213*%
%ADD76C,0.13646*%
%ADD77O,0.13465X0.06929*%
%ADD78O,0.10693X0.05543*%
%ADD79C,0.04331*%
D64*
X23622Y27559D02*
D03*
X27559Y200787D02*
D03*
D65*
X96102Y22205D02*
D03*
Y47795D02*
D03*
D66*
X151202Y333700D02*
D03*
D67*
Y338621D02*
D03*
D68*
X191944Y338815D02*
D03*
D69*
X181944D02*
D03*
Y308815D02*
D03*
X191944D02*
D03*
X171944Y338815D02*
D03*
X161944D02*
D03*
X171944Y308815D02*
D03*
X161944D02*
D03*
D70*
X246139Y232800D02*
D03*
D71*
X251060D02*
D03*
X255981D02*
D03*
X260902D02*
D03*
D72*
X80228Y150626D02*
D03*
Y158500D02*
D03*
Y166374D02*
D03*
Y174248D02*
D03*
Y182122D02*
D03*
Y189996D02*
D03*
Y197870D02*
D03*
Y205744D02*
D03*
X88102Y150626D02*
D03*
Y158500D02*
D03*
Y166374D02*
D03*
Y174248D02*
D03*
Y182122D02*
D03*
Y189996D02*
D03*
Y197870D02*
D03*
X80228Y142752D02*
D03*
Y79760D02*
D03*
Y87634D02*
D03*
Y95508D02*
D03*
Y103382D02*
D03*
Y111256D02*
D03*
Y119130D02*
D03*
Y127004D02*
D03*
Y134878D02*
D03*
X88102Y79760D02*
D03*
Y87634D02*
D03*
Y95508D02*
D03*
Y103382D02*
D03*
Y111256D02*
D03*
Y119130D02*
D03*
Y127004D02*
D03*
Y134878D02*
D03*
Y142752D02*
D03*
D73*
Y205744D02*
D03*
D74*
X277559Y110236D02*
D03*
D75*
Y120079D02*
D03*
Y127953D02*
D03*
Y137795D02*
D03*
D76*
X288228Y98150D02*
D03*
Y149882D02*
D03*
D77*
X316929Y338386D02*
D03*
Y299409D02*
D03*
D78*
X288189Y336811D02*
D03*
Y323425D02*
D03*
Y302953D02*
D03*
D79*
X305118Y205512D02*
D03*
Y188189D02*
D03*
M02*
