G04*
G04 #@! TF.GenerationSoftware,Altium Limited,Altium Designer,24.5.2 (23)*
G04*
G04 Layer_Color=65535*
%FSLAX25Y25*%
%MOIN*%
G70*
G04*
G04 #@! TF.SameCoordinates,1FAC9CCE-155D-40C8-9A78-5E955FD1C98E*
G04*
G04*
G04 #@! TF.FilePolarity,Positive*
G04*
G01*
G75*
%ADD10C,0.00787*%
%ADD11C,0.00500*%
%ADD12C,0.00000*%
%ADD13C,0.01181*%
%ADD14C,0.00600*%
%ADD15C,0.01000*%
%ADD16C,0.00800*%
D10*
X162316Y107429D02*
X161528D01*
X162316D01*
Y125429D02*
X161528D01*
X162316D01*
X70252Y186661D02*
X69465D01*
X70252D01*
Y87661D02*
X69465D01*
X70252D01*
X65311Y10654D02*
X64524D01*
X65311D01*
X164004Y269201D02*
X163216D01*
X164004D01*
X216535Y278055D02*
X215747D01*
X216535D01*
X236748Y276500D02*
X235961D01*
X236748D01*
X97158Y140315D02*
X96370D01*
X97158D01*
X246784Y226894D02*
X245997D01*
X246784D01*
X288779Y344488D02*
X287992D01*
X288779D01*
X286614Y190551D02*
X285827D01*
X286614D01*
X110311Y183098D02*
X109524D01*
X110311D01*
X145492Y163484D02*
X144705D01*
X145492D01*
X110327Y162717D02*
X109539D01*
X110327D01*
X110311Y200598D02*
X109524D01*
X110311D01*
X127799Y90697D02*
X127012D01*
X127799D01*
X129835Y100685D02*
X129047D01*
X129835D01*
X130339Y204760D02*
X129551D01*
X130339D01*
X175631Y212622D02*
X174843D01*
X175631D01*
X193236Y121000D02*
X192449D01*
X193236D01*
X251421Y152713D02*
X250634D01*
X251421D01*
X161831Y185000D02*
X161044D01*
X161831D01*
X233393Y334425D02*
X232606D01*
X233393D01*
X324413Y268378D02*
X323626D01*
X324413D01*
X202032Y112264D02*
X201245D01*
X202032D01*
X272997Y202386D02*
X272210D01*
X272997D01*
X223236Y121000D02*
X222449D01*
X223236D01*
X208161Y120984D02*
X207374D01*
X208161D01*
D11*
X73110Y126000D02*
X72480D01*
X73110D01*
X119724Y35000D02*
X119703Y36003D01*
X119639Y37003D01*
X119533Y38000D01*
X119385Y38992D01*
X119194Y39977D01*
X118962Y40952D01*
X118689Y41917D01*
X118375Y42869D01*
X118021Y43808D01*
X117628Y44730D01*
X117195Y45635D01*
X116725Y46520D01*
X116217Y47385D01*
X115673Y48228D01*
X115094Y49046D01*
X114481Y49840D01*
X113835Y50607D01*
X113156Y51345D01*
X112447Y52054D01*
X111709Y52732D01*
X110942Y53379D01*
X110149Y53992D01*
X109330Y54571D01*
X108488Y55115D01*
X107623Y55622D01*
X106737Y56093D01*
X105832Y56525D01*
X104910Y56919D01*
X103972Y57273D01*
X103019Y57587D01*
X102055Y57860D01*
X101079Y58092D01*
X100094Y58282D01*
X99103Y58431D01*
X98106Y58537D01*
X97105Y58601D01*
X96102Y58622D01*
X95100Y58601D01*
X94099Y58537D01*
X93102Y58431D01*
X92110Y58282D01*
X91126Y58092D01*
X90150Y57860D01*
X89185Y57587D01*
X88233Y57273D01*
X87295Y56919D01*
X86372Y56525D01*
X85468Y56093D01*
X84582Y55622D01*
X83717Y55115D01*
X82875Y54571D01*
X82056Y53992D01*
X81262Y53379D01*
X80496Y52732D01*
X79757Y52054D01*
X79048Y51345D01*
X78370Y50607D01*
X77724Y49840D01*
X77110Y49046D01*
X76531Y48228D01*
X75987Y47385D01*
X75480Y46520D01*
X75010Y45635D01*
X74577Y44730D01*
X74184Y43808D01*
X73830Y42869D01*
X73516Y41917D01*
X73242Y40952D01*
X73010Y39977D01*
X72820Y38992D01*
X72672Y38000D01*
X72565Y37003D01*
X72502Y36002D01*
X72480Y35000D01*
X72502Y33997D01*
X72565Y32997D01*
X72672Y31999D01*
X72820Y31008D01*
X73010Y30023D01*
X73242Y29048D01*
X73516Y28083D01*
X73830Y27130D01*
X74184Y26192D01*
X74577Y25270D01*
X75010Y24365D01*
X75480Y23480D01*
X75987Y22615D01*
X76531Y21772D01*
X77110Y20954D01*
X77724Y20160D01*
X78370Y19394D01*
X79048Y18655D01*
X79757Y17946D01*
X80496Y17267D01*
X81263Y16621D01*
X82056Y16008D01*
X82875Y15429D01*
X83717Y14885D01*
X84582Y14378D01*
X85468Y13907D01*
X86373Y13475D01*
X87295Y13081D01*
X88233Y12727D01*
X89185Y12413D01*
X90150Y12140D01*
X91126Y11908D01*
X92110Y11718D01*
X93102Y11569D01*
X94099Y11463D01*
X95100Y11399D01*
X96102Y11378D01*
X97105Y11399D01*
X98106Y11463D01*
X99103Y11569D01*
X100095Y11718D01*
X101079Y11908D01*
X102055Y12140D01*
X103019Y12413D01*
X103972Y12727D01*
X104910Y13081D01*
X105832Y13475D01*
X106737Y13907D01*
X107623Y14378D01*
X108488Y14885D01*
X109330Y15429D01*
X110149Y16008D01*
X110942Y16621D01*
X111709Y17268D01*
X112447Y17946D01*
X113156Y18655D01*
X113835Y19394D01*
X114481Y20160D01*
X115094Y20954D01*
X115673Y21772D01*
X116217Y22615D01*
X116725Y23480D01*
X117195Y24365D01*
X117628Y25270D01*
X118021Y26192D01*
X118375Y27131D01*
X118689Y28083D01*
X118962Y29048D01*
X119194Y30023D01*
X119385Y31008D01*
X119533Y32000D01*
X119639Y32997D01*
X119703Y33997D01*
X119724Y35000D01*
X192247Y330815D02*
X191961Y331790D01*
X191193Y332455D01*
X190188Y332599D01*
X189264Y332177D01*
X188715Y331323D01*
Y330307D01*
X189264Y329452D01*
X190188Y329030D01*
X191193Y329175D01*
X191961Y329840D01*
X192247Y330815D01*
X157142Y324400D02*
X156512D01*
X157142D01*
X254428Y113737D02*
X253987Y114499D01*
X253107D01*
X252667Y113737D01*
X253107Y112975D01*
X253987D01*
X254428Y113737D01*
X254104D02*
X253269Y114219D01*
Y113255D01*
X254104Y113737D01*
X253941D02*
X253153D01*
X253941D01*
X253547D02*
X252760D01*
X253547D01*
X150583Y105602D02*
X155938D01*
X150583Y114768D02*
X155938D01*
X150583Y123602D02*
X155938D01*
X150583Y132768D02*
X155938D01*
X71685Y175323D02*
Y180677D01*
X62520Y175323D02*
Y180677D01*
X71685Y76323D02*
Y81677D01*
X62520Y76323D02*
Y81677D01*
X66378Y127496D02*
X69764D01*
X66378Y124504D02*
X69764D01*
X67673Y18705D02*
Y24611D01*
X62161Y18705D02*
Y24611D01*
X162429Y275165D02*
Y275835D01*
X170697Y275165D02*
Y275835D01*
X222834Y268154D02*
X229133D01*
X222834Y280476D02*
X229133D01*
X247378Y264689D02*
X256827D01*
X247378Y288311D02*
X256827D01*
X100110Y125945D02*
X104047Y122008D01*
X126095D01*
X104047Y147992D02*
X126095D01*
X100110Y144055D02*
X104047Y147992D01*
X100110Y139409D02*
Y144055D01*
Y125945D02*
Y130591D01*
X126095Y139409D02*
Y147992D01*
Y122008D02*
Y130591D01*
X143033Y327794D02*
X155632D01*
X143033Y344527D02*
X155632D01*
X143033Y327794D02*
Y344527D01*
X155632Y327794D02*
Y344527D01*
X240233Y228272D02*
X266808D01*
X240233D02*
Y240871D01*
X266808D01*
Y228272D02*
Y240871D01*
X273583Y98169D02*
Y149862D01*
X279528D01*
X297559D02*
X328701D01*
Y98169D02*
Y149862D01*
X297559Y98169D02*
X328701D01*
X273583D02*
X279528D01*
X282677Y327260D02*
Y332976D01*
Y306787D02*
Y319591D01*
X328740Y299016D02*
Y338780D01*
X324803Y299016D02*
X328740D01*
X282677D02*
X309055D01*
X324803Y338780D02*
X328740D01*
X294598D02*
X309055D01*
X282677Y299016D02*
Y299118D01*
X328150Y181693D02*
Y212008D01*
X322598D02*
X328150D01*
X301142D02*
X310236D01*
X322598Y181693D02*
X328150D01*
X301142D02*
X310236D01*
X98953Y195319D02*
X105252D01*
X98953Y180681D02*
X105252D01*
X119941Y188583D02*
X137264D01*
X119941Y161417D02*
X137264D01*
X98969Y174937D02*
X105268D01*
X98969Y160299D02*
X105268D01*
X98953Y212819D02*
X105252D01*
X98953Y198181D02*
X105252D01*
X129197Y86858D02*
X130358D01*
X114610D02*
X115772D01*
X129197Y71110D02*
X130358D01*
X114610D02*
X115772D01*
X130358Y85697D02*
Y86858D01*
X114610Y85697D02*
Y86858D01*
X130358Y71110D02*
Y72272D01*
X114610Y71110D02*
Y72272D01*
X122158Y118992D02*
X126095Y115055D01*
X100110Y118992D02*
X122158D01*
X100110Y93008D02*
X122158D01*
X126095Y96945D01*
Y101591D01*
Y110409D02*
Y115055D01*
X100110Y93008D02*
Y101591D01*
Y110409D02*
Y118992D01*
X116953Y214642D02*
X123252D01*
X116953Y202358D02*
X123252D01*
X184843Y214433D02*
Y216559D01*
Y161441D02*
Y163567D01*
X239961Y214433D02*
Y216559D01*
Y161441D02*
Y163567D01*
X184843Y216559D02*
X186969D01*
X184843Y161441D02*
X186969D01*
X237835Y216559D02*
X239961D01*
X237835Y161441D02*
X239961D01*
X205063Y125665D02*
Y131965D01*
X190425Y125665D02*
Y131965D01*
X249512Y162488D02*
Y183512D01*
X270693Y162488D02*
Y183512D01*
X249512Y162488D02*
X250752D01*
X249512Y183512D02*
X250752D01*
X269453D02*
X270693D01*
X269453Y162488D02*
X270693D01*
X176950Y182441D02*
Y187559D01*
X163406Y182441D02*
Y187559D01*
X211149Y309425D02*
Y323205D01*
Y309425D02*
X216031D01*
X236739D02*
Y323205D01*
X231858Y309425D02*
X236739D01*
X274803Y232382D02*
Y236209D01*
Y232382D02*
X312228D01*
X274803Y269906D02*
Y279429D01*
X276728D01*
X274803Y246406D02*
Y259602D01*
X283268Y279429D02*
X291142D01*
X297835D02*
X314173D01*
X270598Y328295D02*
Y332705D01*
X277606Y328295D02*
Y332705D01*
X150409Y322904D02*
X153795D01*
X150409Y325896D02*
X153795D01*
X192977Y94744D02*
Y98996D01*
X189828Y94744D02*
X192977D01*
X189828Y89232D02*
Y94744D01*
Y89232D02*
X242977D01*
Y94744D01*
X239828D02*
X242977D01*
X239828D02*
Y98996D01*
X276284Y204138D02*
X277544D01*
X276284Y194728D02*
X277544D01*
X280930Y204138D02*
X282190D01*
X280930Y194728D02*
X282190D01*
X235063Y125665D02*
Y131965D01*
X220425Y125665D02*
Y131965D01*
X219988Y125650D02*
Y131949D01*
X205351Y125650D02*
Y131949D01*
D12*
X197448Y339075D02*
X196948Y339941D01*
X195948D01*
X195448Y339075D01*
X195948Y338209D01*
X196948D01*
X197448Y339075D01*
D13*
X271457Y110236D02*
X270866Y110827D01*
X270276Y110236D01*
X270866Y109646D01*
X271457Y110236D01*
D14*
X274283Y319544D02*
X273533Y319977D01*
Y319111D01*
X274283Y319544D01*
X70817Y37458D02*
Y39058D01*
Y35858D02*
Y37458D01*
X59017Y35858D02*
X62517D01*
X59017D02*
Y39058D01*
X67317Y35858D02*
X70817D01*
X158696Y311315D02*
Y336315D01*
X195192Y311315D02*
Y336315D01*
X176902Y230400D02*
Y233900D01*
X173702Y222100D02*
X176902D01*
Y225600D01*
X175302Y233900D02*
X176902D01*
X173702D02*
X175302D01*
X246544Y318615D02*
X250044D01*
X258344Y315415D02*
Y318615D01*
X254844D02*
X258344D01*
X246544Y317015D02*
Y318615D01*
Y315415D02*
Y317015D01*
X262744Y301115D02*
X263996D01*
X275893Y315515D02*
X277144D01*
X262744D02*
X263996D01*
X262744Y301115D02*
Y315515D01*
X275893Y301115D02*
X277144D01*
Y315515D01*
D15*
X213063Y263500D02*
Y272000D01*
X183063Y263500D02*
X213063D01*
X183063D02*
Y272000D01*
X213063Y284000D02*
Y292500D01*
X183063D02*
X213063D01*
X183063Y284000D02*
Y292500D01*
X94008Y72083D02*
Y213421D01*
X74323D02*
X94008D01*
X74323Y72083D02*
Y213421D01*
Y72083D02*
X94008D01*
D16*
X90103Y20500D02*
Y22499D01*
X89103Y21500D02*
X91102D01*
X90103Y46000D02*
Y47999D01*
X100619Y191074D02*
X103618D01*
Y189574D01*
X103118Y189074D01*
X102118D01*
X101618Y189574D01*
Y191074D01*
Y190074D02*
X100619Y189074D01*
Y186075D02*
Y188075D01*
X102618Y186075D01*
X103118D01*
X103618Y186575D01*
Y187575D01*
X103118Y188075D01*
X100619Y185076D02*
Y184076D01*
Y184576D01*
X103618D01*
X103118Y185076D01*
X100619Y171617D02*
X103618D01*
Y170117D01*
X103118Y169618D01*
X102118D01*
X101618Y170117D01*
Y171617D01*
Y170617D02*
X100619Y169618D01*
Y166619D02*
Y168618D01*
X102618Y166619D01*
X103118D01*
X103618Y167118D01*
Y168118D01*
X103118Y168618D01*
Y165619D02*
X103618Y165119D01*
Y164119D01*
X103118Y163619D01*
X101119D01*
X100619Y164119D01*
Y165119D01*
X101119Y165619D01*
X103118D01*
X172177Y183501D02*
X170178Y186500D01*
Y183501D02*
X172177Y186500D01*
X169178D02*
X168178D01*
X168678D01*
Y183501D01*
X169178Y184000D01*
X176102Y231749D02*
X173603D01*
X173103Y231249D01*
Y230249D01*
X173603Y229749D01*
X176102D01*
X173103Y228750D02*
Y227750D01*
Y228250D01*
X176102D01*
X175602Y228750D01*
X176102Y224251D02*
X175602Y225251D01*
X174602Y226251D01*
X173603D01*
X173103Y225751D01*
Y224751D01*
X173603Y224251D01*
X174102D01*
X174602Y224751D01*
Y226251D01*
X189154Y210999D02*
Y208500D01*
X189653Y208000D01*
X190653D01*
X191153Y208500D01*
Y210999D01*
X192153Y208000D02*
X193152D01*
X192652D01*
Y210999D01*
X192153Y210500D01*
X196651Y210999D02*
X194652D01*
Y209500D01*
X195651Y210000D01*
X196151D01*
X196651Y209500D01*
Y208500D01*
X196151Y208000D01*
X195152D01*
X194652Y208500D01*
X256354Y174999D02*
Y172500D01*
X256853Y172001D01*
X257853D01*
X258353Y172500D01*
Y174999D01*
X259353Y172001D02*
X260352D01*
X259853D01*
Y174999D01*
X259353Y174500D01*
X263351Y172001D02*
Y174999D01*
X261852Y173500D01*
X263851D01*
X154602Y112749D02*
X152103D01*
X151603Y112249D01*
Y111249D01*
X152103Y110749D01*
X154602D01*
X151603Y109750D02*
Y108750D01*
Y109250D01*
X154602D01*
X154102Y109750D01*
Y107251D02*
X154602Y106751D01*
Y105751D01*
X154102Y105251D01*
X153602D01*
X153102Y105751D01*
Y106251D01*
Y105751D01*
X152603Y105251D01*
X152103D01*
X151603Y105751D01*
Y106751D01*
X152103Y107251D01*
X154602Y131749D02*
X152103D01*
X151603Y131249D01*
Y130249D01*
X152103Y129749D01*
X154602D01*
X151603Y128750D02*
Y127750D01*
Y128250D01*
X154602D01*
X154102Y128750D01*
X151603Y124251D02*
Y126251D01*
X153602Y124251D01*
X154102D01*
X154602Y124751D01*
Y125751D01*
X154102Y126251D01*
X70036Y176342D02*
Y178841D01*
X69537Y179341D01*
X68537D01*
X68037Y178841D01*
Y176342D01*
X67037Y179341D02*
X66038D01*
X66537D01*
Y176342D01*
X67037Y176842D01*
X64538Y179341D02*
X63538D01*
X64038D01*
Y176342D01*
X64538Y176842D01*
X71536Y77842D02*
Y80342D01*
X71036Y80841D01*
X70037D01*
X69537Y80342D01*
Y77842D01*
X68537Y80841D02*
X67537D01*
X68037D01*
Y77842D01*
X68537Y78342D01*
X66038D02*
X65538Y77842D01*
X64539D01*
X64039Y78342D01*
Y80342D01*
X64539Y80841D01*
X65538D01*
X66038Y80342D01*
Y78342D01*
X123984Y81483D02*
X121484D01*
X120985Y80984D01*
Y79984D01*
X121484Y79484D01*
X123984D01*
X121484Y78484D02*
X120985Y77984D01*
Y76985D01*
X121484Y76485D01*
X123484D01*
X123984Y76985D01*
Y77984D01*
X123484Y78484D01*
X122984D01*
X122484Y77984D01*
Y76485D01*
X131303Y177161D02*
X128804D01*
X128304Y176661D01*
Y175661D01*
X128804Y175161D01*
X131303D01*
X130803Y174162D02*
X131303Y173662D01*
Y172662D01*
X130803Y172162D01*
X130303D01*
X129803Y172662D01*
X129303Y172162D01*
X128804D01*
X128304Y172662D01*
Y173662D01*
X128804Y174162D01*
X129303D01*
X129803Y173662D01*
X130303Y174162D01*
X130803D01*
X129803Y173662D02*
Y172662D01*
X121602Y210999D02*
X119103D01*
X118603Y210499D01*
Y209500D01*
X119103Y209000D01*
X121602D01*
Y208000D02*
Y206001D01*
X121102D01*
X119103Y208000D01*
X118603D01*
X277580Y197481D02*
X280079D01*
X280579Y197981D01*
Y198981D01*
X280079Y199480D01*
X277580D01*
Y202480D02*
X278080Y201480D01*
X279080Y200480D01*
X280079D01*
X280579Y200980D01*
Y201980D01*
X280079Y202480D01*
X279579D01*
X279080Y201980D01*
Y200480D01*
X261103Y107301D02*
X263602D01*
X264102Y107801D01*
Y108800D01*
X263602Y109300D01*
X261103D01*
Y112299D02*
Y110300D01*
X262602D01*
X262103Y111300D01*
Y111799D01*
X262602Y112299D01*
X263602D01*
X264102Y111799D01*
Y110800D01*
X263602Y110300D01*
X167444Y328814D02*
X164945D01*
X164445Y328314D01*
Y327315D01*
X164945Y326815D01*
X167444D01*
X164445Y324316D02*
X167444D01*
X165944Y325815D01*
Y323816D01*
X164064Y276999D02*
Y274500D01*
X164564Y274001D01*
X165563D01*
X166063Y274500D01*
Y276999D01*
X167063Y276500D02*
X167563Y276999D01*
X168562D01*
X169062Y276500D01*
Y276000D01*
X168562Y275500D01*
X168062D01*
X168562D01*
X169062Y275000D01*
Y274500D01*
X168562Y274001D01*
X167563D01*
X167063Y274500D01*
X234944Y321814D02*
X232445D01*
X231945Y321314D01*
Y320315D01*
X232445Y319815D01*
X234944D01*
X231945Y316816D02*
Y318815D01*
X233944Y316816D01*
X234444D01*
X234944Y317316D01*
Y318315D01*
X234444Y318815D01*
X224484Y272316D02*
X226983D01*
X227483Y272815D01*
Y273815D01*
X226983Y274315D01*
X224484D01*
X227483Y275315D02*
Y276314D01*
Y275815D01*
X224484D01*
X224984Y275315D01*
X282788Y271240D02*
X282288Y271740D01*
X281288D01*
X280788Y271240D01*
Y270740D01*
X281288Y270240D01*
X282288D01*
X282788Y269740D01*
Y269240D01*
X282288Y268741D01*
X281288D01*
X280788Y269240D01*
X283788Y271740D02*
Y268741D01*
X285287D01*
X285787Y269240D01*
Y271240D01*
X285287Y271740D01*
X283788D01*
X286787Y268741D02*
X287786D01*
X287286D01*
Y271740D01*
X286787Y271240D01*
X239902Y124494D02*
X236903D01*
Y125993D01*
X237403Y126493D01*
X238402D01*
X238902Y125993D01*
Y124494D01*
Y125493D02*
X239902Y126493D01*
X236903Y129492D02*
Y127492D01*
X238402D01*
X237902Y128492D01*
Y128992D01*
X238402Y129492D01*
X239402D01*
X239902Y128992D01*
Y127992D01*
X239402Y127492D01*
X236903Y132491D02*
X237403Y131491D01*
X238402Y130492D01*
X239402D01*
X239902Y130991D01*
Y131991D01*
X239402Y132491D01*
X238902D01*
X238402Y131991D01*
Y130492D01*
X223246Y127315D02*
Y130315D01*
X224745D01*
X225245Y129815D01*
Y128815D01*
X224745Y128315D01*
X223246D01*
X224245D02*
X225245Y127315D01*
X228244Y130315D02*
X226244D01*
Y128815D01*
X227244Y129315D01*
X227744D01*
X228244Y128815D01*
Y127815D01*
X227744Y127315D01*
X226744D01*
X226244Y127815D01*
X231243Y130315D02*
X229244D01*
Y128815D01*
X230243Y129315D01*
X230743D01*
X231243Y128815D01*
Y127815D01*
X230743Y127315D01*
X229743D01*
X229244Y127815D01*
X208171Y127300D02*
Y130299D01*
X209670D01*
X210170Y129799D01*
Y128799D01*
X209670Y128299D01*
X208171D01*
X209170D02*
X210170Y127300D01*
X213169Y130299D02*
X211170D01*
Y128799D01*
X212169Y129299D01*
X212669D01*
X213169Y128799D01*
Y127799D01*
X212669Y127300D01*
X211670D01*
X211170Y127799D01*
X215668Y127300D02*
Y130299D01*
X214169Y128799D01*
X216168D01*
X193245Y127315D02*
Y130315D01*
X194745D01*
X195245Y129815D01*
Y128815D01*
X194745Y128315D01*
X193245D01*
X194245D02*
X195245Y127315D01*
X198244Y130315D02*
X196245D01*
Y128815D01*
X197244Y129315D01*
X197744D01*
X198244Y128815D01*
Y127815D01*
X197744Y127315D01*
X196744D01*
X196245Y127815D01*
X199244Y129815D02*
X199743Y130315D01*
X200743D01*
X201243Y129815D01*
Y129315D01*
X200743Y128815D01*
X200243D01*
X200743D01*
X201243Y128315D01*
Y127815D01*
X200743Y127315D01*
X199743D01*
X199244Y127815D01*
X201902Y227501D02*
X198903D01*
Y229001D01*
X199403Y229501D01*
X200402D01*
X200902Y229001D01*
Y227501D01*
Y228501D02*
X201902Y229501D01*
X198903Y232500D02*
Y230500D01*
X200402D01*
X199902Y231500D01*
Y232000D01*
X200402Y232500D01*
X201402D01*
X201902Y232000D01*
Y231000D01*
X201402Y230500D01*
X201902Y235499D02*
Y233499D01*
X199902Y235499D01*
X199403D01*
X198903Y234999D01*
Y233999D01*
X199403Y233499D01*
X160649Y173461D02*
Y170462D01*
X159149D01*
X158649Y170961D01*
Y171961D01*
X159149Y172461D01*
X160649D01*
X159649D02*
X158649Y173461D01*
X155650Y170462D02*
X157650D01*
Y171961D01*
X156650Y171461D01*
X156150D01*
X155650Y171961D01*
Y172961D01*
X156150Y173461D01*
X157150D01*
X157650Y172961D01*
X154650Y173461D02*
X153651D01*
X154151D01*
Y170462D01*
X154650Y170961D01*
X301101Y286500D02*
Y283501D01*
X299602D01*
X299102Y284000D01*
Y285000D01*
X299602Y285500D01*
X301101D01*
X300101D02*
X299102Y286500D01*
X296103Y283501D02*
X298102D01*
Y285000D01*
X297102Y284500D01*
X296603D01*
X296103Y285000D01*
Y286000D01*
X296603Y286500D01*
X297602D01*
X298102Y286000D01*
X295103Y284000D02*
X294603Y283501D01*
X293603D01*
X293104Y284000D01*
Y286000D01*
X293603Y286500D01*
X294603D01*
X295103Y286000D01*
Y284000D01*
X59760Y55472D02*
X62759D01*
Y53972D01*
X62259Y53473D01*
X61259D01*
X60759Y53972D01*
Y55472D01*
Y54472D02*
X59760Y53473D01*
Y50973D02*
X62759D01*
X61259Y52473D01*
Y50473D01*
X60259Y49474D02*
X59760Y48974D01*
Y47974D01*
X60259Y47474D01*
X62259D01*
X62759Y47974D01*
Y48974D01*
X62259Y49474D01*
X61759D01*
X61259Y48974D01*
Y47474D01*
X71075Y47844D02*
X68076D01*
Y49344D01*
X68576Y49844D01*
X69576D01*
X70075Y49344D01*
Y47844D01*
Y48844D02*
X71075Y49844D01*
Y52343D02*
X68076D01*
X69576Y50844D01*
Y52843D01*
X68576Y53843D02*
X68076Y54342D01*
Y55342D01*
X68576Y55842D01*
X69076D01*
X69576Y55342D01*
X70075Y55842D01*
X70575D01*
X71075Y55342D01*
Y54342D01*
X70575Y53843D01*
X70075D01*
X69576Y54342D01*
X69076Y53843D01*
X68576D01*
X69576Y54342D02*
Y55342D01*
X136289Y117842D02*
Y120841D01*
X137788D01*
X138288Y120342D01*
Y119342D01*
X137788Y118842D01*
X136289D01*
X137288D02*
X138288Y117842D01*
X140787D02*
Y120841D01*
X139288Y119342D01*
X141287D01*
X142287Y120841D02*
X144286D01*
Y120342D01*
X142287Y118342D01*
Y117842D01*
X148289D02*
Y120841D01*
X149788D01*
X150288Y120342D01*
Y119342D01*
X149788Y118842D01*
X148289D01*
X149288D02*
X150288Y117842D01*
X152787D02*
Y120841D01*
X151288Y119342D01*
X153287D01*
X156286Y120841D02*
X155286Y120342D01*
X154287Y119342D01*
Y118342D01*
X154787Y117842D01*
X155786D01*
X156286Y118342D01*
Y118842D01*
X155786Y119342D01*
X154287D01*
X63104Y109501D02*
Y112499D01*
X64603D01*
X65103Y112000D01*
Y111000D01*
X64603Y110500D01*
X63104D01*
X64103D02*
X65103Y109501D01*
X67602D02*
Y112499D01*
X66103Y111000D01*
X68102D01*
X71101Y112499D02*
X69102D01*
Y111000D01*
X70101Y111500D01*
X70601D01*
X71101Y111000D01*
Y110000D01*
X70601Y109501D01*
X69602D01*
X69102Y110000D01*
X143916Y114158D02*
Y111159D01*
X142417D01*
X141917Y111659D01*
Y112658D01*
X142417Y113158D01*
X143916D01*
X142916D02*
X141917Y114158D01*
X139418D02*
Y111159D01*
X140917Y112658D01*
X138918D01*
X136418Y114158D02*
Y111159D01*
X137918Y112658D01*
X135919D01*
X136281Y135842D02*
Y138841D01*
X137780D01*
X138280Y138341D01*
Y137342D01*
X137780Y136842D01*
X136281D01*
X137281D02*
X138280Y135842D01*
X140779D02*
Y138841D01*
X139280Y137342D01*
X141279D01*
X142279Y138341D02*
X142779Y138841D01*
X143779D01*
X144278Y138341D01*
Y137842D01*
X143779Y137342D01*
X143279D01*
X143779D01*
X144278Y136842D01*
Y136342D01*
X143779Y135842D01*
X142779D01*
X142279Y136342D01*
X148289Y135842D02*
Y138841D01*
X149788D01*
X150288Y138341D01*
Y137342D01*
X149788Y136842D01*
X148289D01*
X149288D02*
X150288Y135842D01*
X152787D02*
Y138841D01*
X151288Y137342D01*
X153287D01*
X156286Y135842D02*
X154287D01*
X156286Y137842D01*
Y138341D01*
X155786Y138841D01*
X154787D01*
X154287Y138341D01*
X63604Y117500D02*
Y120500D01*
X65103D01*
X65603Y120000D01*
Y119000D01*
X65103Y118500D01*
X63604D01*
X64603D02*
X65603Y117500D01*
X68102D02*
Y120500D01*
X66602Y119000D01*
X68602D01*
X69602Y117500D02*
X70601D01*
X70101D01*
Y120500D01*
X69602Y120000D01*
X143916Y132158D02*
Y129159D01*
X142417D01*
X141917Y129658D01*
Y130658D01*
X142417Y131158D01*
X143916D01*
X142916D02*
X141917Y132158D01*
X139418D02*
Y129159D01*
X140917Y130658D01*
X138918D01*
X137918Y129658D02*
X137418Y129159D01*
X136418D01*
X135919Y129658D01*
Y131658D01*
X136418Y132158D01*
X137418D01*
X137918Y131658D01*
Y129658D01*
X63316Y195659D02*
Y198658D01*
X64816D01*
X65316Y198158D01*
Y197158D01*
X64816Y196658D01*
X63316D01*
X64316D02*
X65316Y195659D01*
X66315Y198158D02*
X66815Y198658D01*
X67815D01*
X68315Y198158D01*
Y197658D01*
X67815Y197158D01*
X67315D01*
X67815D01*
X68315Y196658D01*
Y196159D01*
X67815Y195659D01*
X66815D01*
X66315Y196159D01*
X69314D02*
X69814Y195659D01*
X70814D01*
X71314Y196159D01*
Y198158D01*
X70814Y198658D01*
X69814D01*
X69314Y198158D01*
Y197658D01*
X69814Y197158D01*
X71314D01*
X70684Y191841D02*
Y188842D01*
X69184D01*
X68684Y189342D01*
Y190342D01*
X69184Y190842D01*
X70684D01*
X69684D02*
X68684Y191841D01*
X67685Y189342D02*
X67185Y188842D01*
X66185D01*
X65685Y189342D01*
Y189842D01*
X66185Y190342D01*
X66685D01*
X66185D01*
X65685Y190842D01*
Y191341D01*
X66185Y191841D01*
X67185D01*
X67685Y191341D01*
X64686Y189342D02*
X64186Y188842D01*
X63186D01*
X62686Y189342D01*
Y189842D01*
X63186Y190342D01*
X62686Y190842D01*
Y191341D01*
X63186Y191841D01*
X64186D01*
X64686Y191341D01*
Y190842D01*
X64186Y190342D01*
X64686Y189842D01*
Y189342D01*
X64186Y190342D02*
X63186D01*
X70684Y203841D02*
Y200842D01*
X69184D01*
X68684Y201342D01*
Y202342D01*
X69184Y202842D01*
X70684D01*
X69684D02*
X68684Y203841D01*
X67685Y201342D02*
X67185Y200842D01*
X66185D01*
X65685Y201342D01*
Y201842D01*
X66185Y202342D01*
X66685D01*
X66185D01*
X65685Y202842D01*
Y203342D01*
X66185Y203841D01*
X67185D01*
X67685Y203342D01*
X64686Y200842D02*
X62686D01*
Y201342D01*
X64686Y203342D01*
Y203841D01*
X56761Y180676D02*
X59760D01*
Y179176D01*
X59260Y178677D01*
X58261D01*
X57761Y179176D01*
Y180676D01*
Y179676D02*
X56761Y178677D01*
X59260Y177677D02*
X59760Y177177D01*
Y176177D01*
X59260Y175678D01*
X58760D01*
X58261Y176177D01*
Y176677D01*
Y176177D01*
X57761Y175678D01*
X57261D01*
X56761Y176177D01*
Y177177D01*
X57261Y177677D01*
X59760Y172678D02*
X59260Y173678D01*
X58261Y174678D01*
X57261D01*
X56761Y174178D01*
Y173178D01*
X57261Y172678D01*
X57761D01*
X58261Y173178D01*
Y174678D01*
X62411Y102659D02*
Y105658D01*
X63910D01*
X64410Y105158D01*
Y104158D01*
X63910Y103658D01*
X62411D01*
X63411D02*
X64410Y102659D01*
X65410Y105158D02*
X65910Y105658D01*
X66909D01*
X67409Y105158D01*
Y104658D01*
X66909Y104158D01*
X66409D01*
X66909D01*
X67409Y103658D01*
Y103158D01*
X66909Y102659D01*
X65910D01*
X65410Y103158D01*
X70408Y105658D02*
X68409D01*
Y104158D01*
X69409Y104658D01*
X69908D01*
X70408Y104158D01*
Y103158D01*
X69908Y102659D01*
X68909D01*
X68409Y103158D01*
X71778Y93341D02*
Y90342D01*
X70279D01*
X69779Y90842D01*
Y91842D01*
X70279Y92342D01*
X71778D01*
X70779D02*
X69779Y93341D01*
X68779Y90842D02*
X68279Y90342D01*
X67280D01*
X66780Y90842D01*
Y91342D01*
X67280Y91842D01*
X67780D01*
X67280D01*
X66780Y92342D01*
Y92842D01*
X67280Y93341D01*
X68279D01*
X68779Y92842D01*
X64281Y93341D02*
Y90342D01*
X65780Y91842D01*
X63781D01*
X71786Y99341D02*
Y96342D01*
X70287D01*
X69787Y96842D01*
Y97842D01*
X70287Y98342D01*
X71786D01*
X70786D02*
X69787Y99341D01*
X68787Y96842D02*
X68287Y96342D01*
X67288D01*
X66788Y96842D01*
Y97342D01*
X67288Y97842D01*
X67787D01*
X67288D01*
X66788Y98342D01*
Y98842D01*
X67288Y99341D01*
X68287D01*
X68787Y98842D01*
X65788Y96842D02*
X65288Y96342D01*
X64289D01*
X63789Y96842D01*
Y97342D01*
X64289Y97842D01*
X64788D01*
X64289D01*
X63789Y98342D01*
Y98842D01*
X64289Y99341D01*
X65288D01*
X65788Y98842D01*
X56603Y81999D02*
X59602D01*
Y80499D01*
X59102Y79999D01*
X58102D01*
X57603Y80499D01*
Y81999D01*
Y80999D02*
X56603Y79999D01*
X59102Y79000D02*
X59602Y78500D01*
Y77500D01*
X59102Y77000D01*
X58602D01*
X58102Y77500D01*
Y78000D01*
Y77500D01*
X57603Y77000D01*
X57103D01*
X56603Y77500D01*
Y78500D01*
X57103Y79000D01*
X56603Y74001D02*
Y76001D01*
X58602Y74001D01*
X59102D01*
X59602Y74501D01*
Y75501D01*
X59102Y76001D01*
X101788Y70842D02*
Y73841D01*
X103288D01*
X103788Y73342D01*
Y72342D01*
X103288Y71842D01*
X101788D01*
X102788D02*
X103788Y70842D01*
X104788Y73342D02*
X105287Y73841D01*
X106287D01*
X106787Y73342D01*
Y72842D01*
X106287Y72342D01*
X105787D01*
X106287D01*
X106787Y71842D01*
Y71342D01*
X106287Y70842D01*
X105287D01*
X104788Y71342D01*
X107787Y70842D02*
X108786D01*
X108286D01*
Y73841D01*
X107787Y73342D01*
X124063Y65838D02*
X127062D01*
Y64338D01*
X126562Y63838D01*
X125562D01*
X125062Y64338D01*
Y65838D01*
Y64838D02*
X124063Y63838D01*
X126562Y62839D02*
X127062Y62339D01*
Y61339D01*
X126562Y60839D01*
X126062D01*
X125562Y61339D01*
Y61839D01*
Y61339D01*
X125062Y60839D01*
X124563D01*
X124063Y61339D01*
Y62339D01*
X124563Y62839D01*
X126562Y59840D02*
X127062Y59340D01*
Y58340D01*
X126562Y57840D01*
X124563D01*
X124063Y58340D01*
Y59340D01*
X124563Y59840D01*
X126562D01*
X136686Y71842D02*
Y74841D01*
X138186D01*
X138686Y74341D01*
Y73342D01*
X138186Y72842D01*
X136686D01*
X137686D02*
X138686Y71842D01*
X141685D02*
X139685D01*
X141685Y73842D01*
Y74341D01*
X141185Y74841D01*
X140185D01*
X139685Y74341D01*
X142684Y72342D02*
X143184Y71842D01*
X144184D01*
X144684Y72342D01*
Y74341D01*
X144184Y74841D01*
X143184D01*
X142684Y74341D01*
Y73842D01*
X143184Y73342D01*
X144684D01*
X123787Y191843D02*
X120788D01*
Y193343D01*
X121288Y193842D01*
X122287D01*
X122787Y193343D01*
Y191843D01*
Y192843D02*
X123787Y193842D01*
Y196842D02*
Y194842D01*
X121788Y196842D01*
X121288D01*
X120788Y196342D01*
Y195342D01*
X121288Y194842D01*
Y197841D02*
X120788Y198341D01*
Y199341D01*
X121288Y199840D01*
X121788D01*
X122287Y199341D01*
X122787Y199840D01*
X123287D01*
X123787Y199341D01*
Y198341D01*
X123287Y197841D01*
X122787D01*
X122287Y198341D01*
X121788Y197841D01*
X121288D01*
X122287Y198341D02*
Y199341D01*
X129787Y191851D02*
X126788D01*
Y193351D01*
X127288Y193850D01*
X128287D01*
X128787Y193351D01*
Y191851D01*
Y192851D02*
X129787Y193850D01*
Y196849D02*
Y194850D01*
X127788Y196849D01*
X127288D01*
X126788Y196350D01*
Y195350D01*
X127288Y194850D01*
X126788Y197849D02*
Y199848D01*
X127288D01*
X129287Y197849D01*
X129787D01*
X135787Y190851D02*
X132788D01*
Y192350D01*
X133288Y192850D01*
X134287D01*
X134787Y192350D01*
Y190851D01*
Y191851D02*
X135787Y192850D01*
Y195849D02*
Y193850D01*
X133788Y195849D01*
X133288D01*
X132788Y195350D01*
Y194350D01*
X133288Y193850D01*
X132788Y198848D02*
X133288Y197849D01*
X134287Y196849D01*
X135287D01*
X135787Y197349D01*
Y198348D01*
X135287Y198848D01*
X134787D01*
X134287Y198348D01*
Y196849D01*
X133103Y159499D02*
X136102D01*
Y157999D01*
X135602Y157499D01*
X134602D01*
X134102Y157999D01*
Y159499D01*
Y158499D02*
X133103Y157499D01*
Y154500D02*
Y156500D01*
X135102Y154500D01*
X135602D01*
X136102Y155000D01*
Y156000D01*
X135602Y156500D01*
X136102Y151501D02*
Y153501D01*
X134602D01*
X135102Y152501D01*
Y152001D01*
X134602Y151501D01*
X133603D01*
X133103Y152001D01*
Y153001D01*
X133603Y153501D01*
X127103Y158499D02*
X130102D01*
Y156999D01*
X129602Y156499D01*
X128602D01*
X128103Y156999D01*
Y158499D01*
Y157499D02*
X127103Y156499D01*
Y153500D02*
Y155500D01*
X129102Y153500D01*
X129602D01*
X130102Y154000D01*
Y155000D01*
X129602Y155500D01*
X127103Y151001D02*
X130102D01*
X128602Y152501D01*
Y150501D01*
X121103Y158499D02*
X124102D01*
Y156999D01*
X123602Y156499D01*
X122602D01*
X122102Y156999D01*
Y158499D01*
Y157499D02*
X121103Y156499D01*
Y153500D02*
Y155500D01*
X123102Y153500D01*
X123602D01*
X124102Y154000D01*
Y155000D01*
X123602Y155500D01*
Y152501D02*
X124102Y152001D01*
Y151001D01*
X123602Y150501D01*
X123102D01*
X122602Y151001D01*
Y151501D01*
Y151001D01*
X122102Y150501D01*
X121603D01*
X121103Y151001D01*
Y152001D01*
X121603Y152501D01*
X139103Y158491D02*
X142102D01*
Y156991D01*
X141602Y156491D01*
X140602D01*
X140103Y156991D01*
Y158491D01*
Y157491D02*
X139103Y156491D01*
Y153492D02*
Y155492D01*
X141102Y153492D01*
X141602D01*
X142102Y153992D01*
Y154992D01*
X141602Y155492D01*
X139103Y150493D02*
Y152493D01*
X141102Y150493D01*
X141602D01*
X142102Y150993D01*
Y151993D01*
X141602Y152493D01*
X63539Y129342D02*
Y132341D01*
X65038D01*
X65538Y131842D01*
Y130842D01*
X65038Y130342D01*
X63539D01*
X64538D02*
X65538Y129342D01*
X66538D02*
X67537D01*
X67037D01*
Y132341D01*
X66538Y131842D01*
X69037Y129842D02*
X69537Y129342D01*
X70536D01*
X71036Y129842D01*
Y131842D01*
X70536Y132341D01*
X69537D01*
X69037Y131842D01*
Y131342D01*
X69537Y130842D01*
X71036D01*
X100603Y208749D02*
X103602D01*
Y207249D01*
X103102Y206749D01*
X102102D01*
X101602Y207249D01*
Y208749D01*
Y207749D02*
X100603Y206749D01*
Y205750D02*
Y204750D01*
Y205250D01*
X103602D01*
X103102Y205750D01*
Y203251D02*
X103602Y202751D01*
Y201751D01*
X103102Y201251D01*
X102602D01*
X102102Y201751D01*
X101602Y201251D01*
X101103D01*
X100603Y201751D01*
Y202751D01*
X101103Y203251D01*
X101602D01*
X102102Y202751D01*
X102602Y203251D01*
X103102D01*
X102102Y202751D02*
Y201751D01*
X63354Y141500D02*
Y144500D01*
X64853D01*
X65353Y144000D01*
Y143000D01*
X64853Y142500D01*
X63354D01*
X64353D02*
X65353Y141500D01*
X66353D02*
X67352D01*
X66852D01*
Y144500D01*
X66353Y144000D01*
X68852Y144500D02*
X70851D01*
Y144000D01*
X68852Y142000D01*
Y141500D01*
X283579Y208732D02*
X280580D01*
Y210231D01*
X281080Y210731D01*
X282080D01*
X282579Y210231D01*
Y208732D01*
Y209731D02*
X283579Y210731D01*
Y211731D02*
Y212730D01*
Y212230D01*
X280580D01*
X281080Y211731D01*
X280580Y216229D02*
X281080Y215229D01*
X282080Y214230D01*
X283079D01*
X283579Y214730D01*
Y215729D01*
X283079Y216229D01*
X282579D01*
X282080Y215729D01*
Y214230D01*
X269302Y93443D02*
X266303D01*
Y94943D01*
X266803Y95443D01*
X267802D01*
X268302Y94943D01*
Y93443D01*
Y94443D02*
X269302Y95443D01*
Y96442D02*
Y97442D01*
Y96942D01*
X266303D01*
X266803Y96442D01*
X266303Y100941D02*
Y98942D01*
X267802D01*
X267302Y99941D01*
Y100441D01*
X267802Y100941D01*
X268802D01*
X269302Y100441D01*
Y99441D01*
X268802Y98942D01*
X259002Y92936D02*
X256003D01*
Y94435D01*
X256503Y94935D01*
X257502D01*
X258002Y94435D01*
Y92936D01*
Y93935D02*
X259002Y94935D01*
Y95935D02*
Y96934D01*
Y96434D01*
X256003D01*
X256503Y95935D01*
X259002Y99933D02*
X256003D01*
X257502Y98434D01*
Y100433D01*
X147150Y317401D02*
Y320399D01*
X148649D01*
X149149Y319900D01*
Y318900D01*
X148649Y318400D01*
X147150D01*
X148149D02*
X149149Y317401D01*
X150149D02*
X151148D01*
X150648D01*
Y320399D01*
X150149Y319900D01*
X152648D02*
X153148Y320399D01*
X154147D01*
X154647Y319900D01*
Y319400D01*
X154147Y318900D01*
X153647D01*
X154147D01*
X154647Y318400D01*
Y317900D01*
X154147Y317401D01*
X153148D01*
X152648Y317900D01*
X147142Y311701D02*
Y314700D01*
X148641D01*
X149141Y314200D01*
Y313200D01*
X148641Y312700D01*
X147142D01*
X148142D02*
X149141Y311701D01*
X150141D02*
X151140D01*
X150641D01*
Y314700D01*
X150141Y314200D01*
X154639Y311701D02*
X152640D01*
X154639Y313700D01*
Y314200D01*
X154139Y314700D01*
X153140D01*
X152640Y314200D01*
X199445Y339556D02*
X202444D01*
Y338056D01*
X201944Y337557D01*
X200944D01*
X200444Y338056D01*
Y339556D01*
Y338556D02*
X199445Y337557D01*
Y336557D02*
Y335557D01*
Y336057D01*
X202444D01*
X201944Y336557D01*
X199445Y334058D02*
Y333058D01*
Y333558D01*
X202444D01*
X201944Y334058D01*
X157358Y294564D02*
X160357D01*
Y293064D01*
X159857Y292564D01*
X158858D01*
X158358Y293064D01*
Y294564D01*
Y293564D02*
X157358Y292564D01*
Y291565D02*
Y290565D01*
Y291065D01*
X160357D01*
X159857Y291565D01*
Y289066D02*
X160357Y288566D01*
Y287566D01*
X159857Y287066D01*
X157858D01*
X157358Y287566D01*
Y288566D01*
X157858Y289066D01*
X159857D01*
X145366Y293306D02*
X148365D01*
Y291807D01*
X147865Y291307D01*
X146865D01*
X146366Y291807D01*
Y293306D01*
Y292307D02*
X145366Y291307D01*
X145866Y290307D02*
X145366Y289807D01*
Y288808D01*
X145866Y288308D01*
X147865D01*
X148365Y288808D01*
Y289807D01*
X147865Y290307D01*
X147365D01*
X146865Y289807D01*
Y288308D01*
X150072Y279000D02*
Y281999D01*
X151571D01*
X152071Y281500D01*
Y280500D01*
X151571Y280000D01*
X150072D01*
X151071D02*
X152071Y279000D01*
X153071Y281500D02*
X153570Y281999D01*
X154570D01*
X155070Y281500D01*
Y281000D01*
X154570Y280500D01*
X155070Y280000D01*
Y279500D01*
X154570Y279000D01*
X153570D01*
X153071Y279500D01*
Y280000D01*
X153570Y280500D01*
X153071Y281000D01*
Y281500D01*
X153570Y280500D02*
X154570D01*
X173056Y287501D02*
Y290499D01*
X174555D01*
X175055Y290000D01*
Y289000D01*
X174555Y288500D01*
X173056D01*
X174056D02*
X175055Y287501D01*
X176055Y290499D02*
X178054D01*
Y290000D01*
X176055Y288000D01*
Y287501D01*
X178054Y296499D02*
Y293500D01*
X176555D01*
X176055Y294000D01*
Y295000D01*
X176555Y295500D01*
X178054D01*
X177055D02*
X176055Y296499D01*
X173056Y293500D02*
X174056Y294000D01*
X175055Y295000D01*
Y296000D01*
X174555Y296499D01*
X173556D01*
X173056Y296000D01*
Y295500D01*
X173556Y295000D01*
X175055D01*
X151072Y271001D02*
Y274000D01*
X152571D01*
X153071Y273500D01*
Y272500D01*
X152571Y272000D01*
X151072D01*
X152071D02*
X153071Y271001D01*
X156070Y274000D02*
X154071D01*
Y272500D01*
X155070Y273000D01*
X155570D01*
X156070Y272500D01*
Y271500D01*
X155570Y271001D01*
X154570D01*
X154071Y271500D01*
X256944Y300056D02*
X253945D01*
Y301555D01*
X254445Y302055D01*
X255444D01*
X255944Y301555D01*
Y300056D01*
Y301056D02*
X256944Y302055D01*
Y304555D02*
X253945D01*
X255444Y303055D01*
Y305054D01*
X247945Y305574D02*
X250944D01*
Y304075D01*
X250444Y303575D01*
X249444D01*
X248944Y304075D01*
Y305574D01*
Y304574D02*
X247945Y303575D01*
X250444Y302575D02*
X250944Y302075D01*
Y301075D01*
X250444Y300576D01*
X249944D01*
X249444Y301075D01*
Y301575D01*
Y301075D01*
X248944Y300576D01*
X248445D01*
X247945Y301075D01*
Y302075D01*
X248445Y302575D01*
X250445Y330814D02*
X253444D01*
Y329315D01*
X252944Y328815D01*
X251944D01*
X251444Y329315D01*
Y330814D01*
Y329815D02*
X250445Y328815D01*
Y325816D02*
Y327815D01*
X252444Y325816D01*
X252944D01*
X253444Y326316D01*
Y327315D01*
X252944Y327815D01*
X256445Y330314D02*
X259444D01*
Y328815D01*
X258944Y328315D01*
X257944D01*
X257444Y328815D01*
Y330314D01*
Y329315D02*
X256445Y328315D01*
Y327315D02*
Y326316D01*
Y326815D01*
X259444D01*
X258944Y327315D01*
X65232Y38816D02*
X63233D01*
X62733Y38317D01*
Y37317D01*
X63233Y36817D01*
X65232D01*
X65732Y37317D01*
Y38317D01*
X64732Y37817D02*
X65732Y38816D01*
Y38317D02*
X65232Y38816D01*
X63233Y39816D02*
X62733Y40316D01*
Y41316D01*
X63233Y41816D01*
X63732D01*
X64232Y41316D01*
Y40816D01*
Y41316D01*
X64732Y41816D01*
X65232D01*
X65732Y41316D01*
Y40316D01*
X65232Y39816D01*
X252444Y315075D02*
Y317074D01*
X251944Y317574D01*
X250945D01*
X250445Y317074D01*
Y315075D01*
X250945Y314575D01*
X251944D01*
X251445Y315575D02*
X252444Y314575D01*
X251944D02*
X252444Y315075D01*
X255443Y314575D02*
X253444D01*
X255443Y316575D01*
Y317074D01*
X254944Y317574D01*
X253944D01*
X253444Y317074D01*
X269944Y306315D02*
Y308315D01*
X269444Y308815D01*
X268445D01*
X267945Y308315D01*
Y306315D01*
X268445Y305816D01*
X269444D01*
X268945Y306815D02*
X269944Y305816D01*
X269444D02*
X269944Y306315D01*
X270944Y305816D02*
X271944D01*
X271444D01*
Y308815D01*
X270944Y308315D01*
X210562Y290499D02*
X207563D01*
Y288500D01*
Y285501D02*
Y287500D01*
X209563Y285501D01*
X210063D01*
X210562Y286001D01*
Y287000D01*
X210063Y287500D01*
X247603Y285500D02*
Y282501D01*
X249602D01*
X250602D02*
X251602D01*
X251102D01*
Y285500D01*
X250602Y285000D01*
X215902Y99499D02*
X214903D01*
X215403D01*
Y97000D01*
X214903Y96500D01*
X214403D01*
X213903Y97000D01*
X216902Y99499D02*
X218902D01*
Y99000D01*
X216902Y97000D01*
Y96500D01*
X243560Y239799D02*
X242561D01*
X243060D01*
Y237300D01*
X242561Y236801D01*
X242061D01*
X241561Y237300D01*
X246559Y239799D02*
X245560Y239300D01*
X244560Y238300D01*
Y237300D01*
X245060Y236801D01*
X246059D01*
X246559Y237300D01*
Y237800D01*
X246059Y238300D01*
X244560D01*
X79102Y73627D02*
X80102D01*
X79602D01*
Y76126D01*
X80102Y76626D01*
X80602D01*
X81102Y76126D01*
X76103Y73627D02*
X78102D01*
Y75126D01*
X77103Y74626D01*
X76603D01*
X76103Y75126D01*
Y76126D01*
X76603Y76626D01*
X77603D01*
X78102Y76126D01*
X289351Y135208D02*
X288351D01*
X288851D01*
Y132709D01*
X288351Y132209D01*
X287851D01*
X287351Y132709D01*
X291850Y132209D02*
Y135208D01*
X290350Y133709D01*
X292350D01*
X304851Y196677D02*
X303851D01*
X304351D01*
Y194177D01*
X303851Y193678D01*
X303351D01*
X302851Y194177D01*
X305850Y196177D02*
X306350Y196677D01*
X307350D01*
X307850Y196177D01*
Y195677D01*
X307350Y195177D01*
X306850D01*
X307350D01*
X307850Y194677D01*
Y194177D01*
X307350Y193678D01*
X306350D01*
X305850Y194177D01*
X144715Y331161D02*
Y330161D01*
Y330661D01*
X147214D01*
X147714Y330161D01*
Y329661D01*
X147214Y329161D01*
X147714Y334160D02*
Y332160D01*
X145714Y334160D01*
X145214D01*
X144715Y333660D01*
Y332660D01*
X145214Y332160D01*
X297351Y332740D02*
Y331740D01*
Y332240D01*
X299850D01*
X300350Y331740D01*
Y331241D01*
X299850Y330741D01*
X300350Y333740D02*
Y334739D01*
Y334240D01*
X297351D01*
X297851Y333740D01*
X168903Y173500D02*
X166903D01*
Y172000D01*
X167903D01*
X166903D01*
Y170501D01*
X169903Y173500D02*
Y170501D01*
X171402D01*
X171902Y171000D01*
Y171500D01*
X171402Y172000D01*
X169903D01*
X171402D01*
X171902Y172500D01*
Y173000D01*
X171402Y173500D01*
X169903D01*
X172902Y170501D02*
X173901D01*
X173401D01*
Y173500D01*
X172902Y173000D01*
X272603Y330500D02*
Y328501D01*
X274102D01*
Y329500D01*
Y328501D01*
X275602D01*
Y331500D02*
Y332499D01*
Y331999D01*
X272603D01*
X273103Y331500D01*
X63576Y19344D02*
X66575D01*
Y20843D01*
X66075Y21343D01*
X64076D01*
X63576Y20843D01*
Y19344D01*
X64076Y22343D02*
X63576Y22843D01*
Y23843D01*
X64076Y24342D01*
X64576D01*
X65075Y23843D01*
Y23343D01*
Y23843D01*
X65575Y24342D01*
X66075D01*
X66575Y23843D01*
Y22843D01*
X66075Y22343D01*
X70912Y124815D02*
Y127814D01*
X69412D01*
X68913Y127315D01*
Y125315D01*
X69412Y124815D01*
X70912D01*
X65914Y127814D02*
X67913D01*
X65914Y125815D01*
Y125315D01*
X66413Y124815D01*
X67413D01*
X67913Y125315D01*
X143403Y325999D02*
Y323001D01*
X144903D01*
X145402Y323500D01*
Y325500D01*
X144903Y325999D01*
X143403D01*
X146402Y323001D02*
X147402D01*
X146902D01*
Y325999D01*
X146402Y325500D01*
X189403Y144489D02*
X188903Y143989D01*
Y142989D01*
X189403Y142490D01*
X191402D01*
X191902Y142989D01*
Y143989D01*
X191402Y144489D01*
X188903Y147488D02*
Y145489D01*
X190402D01*
X189902Y146488D01*
Y146988D01*
X190402Y147488D01*
X191402D01*
X191902Y146988D01*
Y145988D01*
X191402Y145489D01*
X189403Y148488D02*
X188903Y148987D01*
Y149987D01*
X189403Y150487D01*
X189902D01*
X190402Y149987D01*
Y149487D01*
Y149987D01*
X190902Y150487D01*
X191402D01*
X191902Y149987D01*
Y148987D01*
X191402Y148488D01*
X167903Y195500D02*
X167403Y196000D01*
X166403D01*
X165904Y195500D01*
Y193500D01*
X166403Y193000D01*
X167403D01*
X167903Y193500D01*
X170902Y196000D02*
X168903D01*
Y194500D01*
X169902Y195000D01*
X170402D01*
X170902Y194500D01*
Y193500D01*
X170402Y193000D01*
X169403D01*
X168903Y193500D01*
X173901Y193000D02*
X171902D01*
X173901Y195000D01*
Y195500D01*
X173401Y196000D01*
X172402D01*
X171902Y195500D01*
X167403Y204500D02*
X166903Y204999D01*
X165903D01*
X165403Y204500D01*
Y202500D01*
X165903Y202000D01*
X166903D01*
X167403Y202500D01*
X170402Y204999D02*
X168403D01*
Y203500D01*
X169402Y204000D01*
X169902D01*
X170402Y203500D01*
Y202500D01*
X169902Y202000D01*
X168902D01*
X168403Y202500D01*
X171402Y202000D02*
X172401D01*
X171901D01*
Y204999D01*
X171402Y204500D01*
X188402Y233499D02*
X188902Y233999D01*
Y234999D01*
X188402Y235499D01*
X186403D01*
X185903Y234999D01*
Y233999D01*
X186403Y233499D01*
X188902Y230500D02*
Y232500D01*
X187402D01*
X187902Y231500D01*
Y231000D01*
X187402Y230500D01*
X186403D01*
X185903Y231000D01*
Y232000D01*
X186403Y232500D01*
X188402Y229501D02*
X188902Y229001D01*
Y228001D01*
X188402Y227501D01*
X186403D01*
X185903Y228001D01*
Y229001D01*
X186403Y229501D01*
X188402D01*
X236903Y144512D02*
X236403Y144013D01*
Y143013D01*
X236903Y142513D01*
X238902D01*
X239402Y143013D01*
Y144013D01*
X238902Y144512D01*
X239402Y147012D02*
X236403D01*
X237902Y145512D01*
Y147511D01*
X238902Y148511D02*
X239402Y149011D01*
Y150011D01*
X238902Y150511D01*
X236903D01*
X236403Y150011D01*
Y149011D01*
X236903Y148511D01*
X237403D01*
X237902Y149011D01*
Y150511D01*
X256902Y212500D02*
X257401Y212000D01*
X258401D01*
X258901Y212500D01*
Y214500D01*
X258401Y215000D01*
X257401D01*
X256902Y214500D01*
X254402Y215000D02*
Y212000D01*
X255902Y213500D01*
X253903D01*
X252903Y212500D02*
X252403Y212000D01*
X251403D01*
X250904Y212500D01*
Y213000D01*
X251403Y213500D01*
X250904Y214000D01*
Y214500D01*
X251403Y215000D01*
X252403D01*
X252903Y214500D01*
Y214000D01*
X252403Y213500D01*
X252903Y213000D01*
Y212500D01*
X252403Y213500D02*
X251403D01*
X229903Y144501D02*
X229403Y144001D01*
Y143001D01*
X229903Y142501D01*
X231902D01*
X232402Y143001D01*
Y144001D01*
X231902Y144501D01*
X232402Y147000D02*
X229403D01*
X230902Y145500D01*
Y147500D01*
X229403Y148499D02*
Y150499D01*
X229903D01*
X231902Y148499D01*
X232402D01*
X252415Y208500D02*
X251915Y208999D01*
X250915D01*
X250415Y208500D01*
Y206500D01*
X250915Y206000D01*
X251915D01*
X252415Y206500D01*
X254914Y206000D02*
Y208999D01*
X253415Y207500D01*
X255414D01*
X258413Y208999D02*
X257413Y208500D01*
X256414Y207500D01*
Y206500D01*
X256913Y206000D01*
X257913D01*
X258413Y206500D01*
Y207000D01*
X257913Y207500D01*
X256414D01*
X158402Y165000D02*
X158902Y164500D01*
X159901D01*
X160401Y165000D01*
Y167000D01*
X159901Y167499D01*
X158902D01*
X158402Y167000D01*
X155903Y167499D02*
Y164500D01*
X157402Y166000D01*
X155403D01*
X152404Y164500D02*
X154403D01*
Y166000D01*
X153403Y165500D01*
X152903D01*
X152404Y166000D01*
Y167000D01*
X152903Y167499D01*
X153903D01*
X154403Y167000D01*
X158402Y159000D02*
X158902Y158501D01*
X159901D01*
X160401Y159000D01*
Y161000D01*
X159901Y161500D01*
X158902D01*
X158402Y161000D01*
X155903Y161500D02*
Y158501D01*
X157402Y160000D01*
X155403D01*
X152903Y161500D02*
Y158501D01*
X154403Y160000D01*
X152404D01*
X167903Y161000D02*
X167403Y161500D01*
X166403D01*
X165904Y161000D01*
Y159000D01*
X166403Y158501D01*
X167403D01*
X167903Y159000D01*
X170402Y158501D02*
Y161500D01*
X168903Y160000D01*
X170902D01*
X171902Y161000D02*
X172402Y161500D01*
X173401D01*
X173901Y161000D01*
Y160500D01*
X173401Y160000D01*
X172901D01*
X173401D01*
X173901Y159500D01*
Y159000D01*
X173401Y158501D01*
X172402D01*
X171902Y159000D01*
X167903Y167000D02*
X167403Y167499D01*
X166403D01*
X165904Y167000D01*
Y165000D01*
X166403Y164500D01*
X167403D01*
X167903Y165000D01*
X170402Y164500D02*
Y167499D01*
X168903Y166000D01*
X170902D01*
X173901Y164500D02*
X171902D01*
X173901Y166500D01*
Y167000D01*
X173401Y167499D01*
X172402D01*
X171902Y167000D01*
X307603Y286000D02*
X307103Y286500D01*
X306103D01*
X305604Y286000D01*
Y284000D01*
X306103Y283501D01*
X307103D01*
X307603Y284000D01*
X310102Y283501D02*
Y286500D01*
X308602Y285000D01*
X310602D01*
X311602Y283501D02*
X312601D01*
X312101D01*
Y286500D01*
X311602Y286000D01*
X253115Y196000D02*
X252615Y196500D01*
X251615D01*
X251115Y196000D01*
Y194000D01*
X251615Y193500D01*
X252615D01*
X253115Y194000D01*
X255614Y193500D02*
Y196500D01*
X254115Y195000D01*
X256114D01*
X257114Y196000D02*
X257613Y196500D01*
X258613D01*
X259113Y196000D01*
Y194000D01*
X258613Y193500D01*
X257613D01*
X257114Y194000D01*
Y196000D01*
X142113Y106000D02*
X142613Y105500D01*
X143613D01*
X144113Y106000D01*
Y108000D01*
X143613Y108500D01*
X142613D01*
X142113Y108000D01*
X141114Y106000D02*
X140614Y105500D01*
X139614D01*
X139114Y106000D01*
Y106500D01*
X139614Y107000D01*
X140114D01*
X139614D01*
X139114Y107500D01*
Y108000D01*
X139614Y108500D01*
X140614D01*
X141114Y108000D01*
X138115D02*
X137615Y108500D01*
X136615D01*
X136116Y108000D01*
Y106000D01*
X136615Y105500D01*
X137615D01*
X138115Y106000D01*
Y106500D01*
X137615Y107000D01*
X136116D01*
X142113Y124000D02*
X142613Y123501D01*
X143613D01*
X144113Y124000D01*
Y126000D01*
X143613Y126499D01*
X142613D01*
X142113Y126000D01*
X141114Y124000D02*
X140614Y123501D01*
X139614D01*
X139114Y124000D01*
Y124500D01*
X139614Y125000D01*
X140114D01*
X139614D01*
X139114Y125500D01*
Y126000D01*
X139614Y126499D01*
X140614D01*
X141114Y126000D01*
X138115Y124000D02*
X137615Y123501D01*
X136615D01*
X136116Y124000D01*
Y124500D01*
X136615Y125000D01*
X136116Y125500D01*
Y126000D01*
X136615Y126499D01*
X137615D01*
X138115Y126000D01*
Y125500D01*
X137615Y125000D01*
X138115Y124500D01*
Y124000D01*
X137615Y125000D02*
X136615D01*
X64918Y167658D02*
X64418Y168158D01*
X63419D01*
X62919Y167658D01*
Y165658D01*
X63419Y165159D01*
X64418D01*
X64918Y165658D01*
X65918Y167658D02*
X66417Y168158D01*
X67417D01*
X67917Y167658D01*
Y167158D01*
X67417Y166658D01*
X66917D01*
X67417D01*
X67917Y166158D01*
Y165658D01*
X67417Y165159D01*
X66417D01*
X65918Y165658D01*
X68917Y168158D02*
X70916D01*
Y167658D01*
X68917Y165658D01*
Y165159D01*
X68102Y68000D02*
X68602Y67501D01*
X69601D01*
X70101Y68000D01*
Y70000D01*
X69601Y70499D01*
X68602D01*
X68102Y70000D01*
X67102Y68000D02*
X66602Y67501D01*
X65602D01*
X65103Y68000D01*
Y68500D01*
X65602Y69000D01*
X66102D01*
X65602D01*
X65103Y69500D01*
Y70000D01*
X65602Y70499D01*
X66602D01*
X67102Y70000D01*
X62104Y67501D02*
X63103Y68000D01*
X64103Y69000D01*
Y70000D01*
X63603Y70499D01*
X62603D01*
X62104Y70000D01*
Y69500D01*
X62603Y69000D01*
X64103D01*
X107102Y77500D02*
X107601Y77000D01*
X108601D01*
X109101Y77500D01*
Y79500D01*
X108601Y80000D01*
X107601D01*
X107102Y79500D01*
X106102Y77500D02*
X105602Y77000D01*
X104603D01*
X104103Y77500D01*
Y78000D01*
X104603Y78500D01*
X105102D01*
X104603D01*
X104103Y79000D01*
Y79500D01*
X104603Y80000D01*
X105602D01*
X106102Y79500D01*
X101104Y77000D02*
X103103D01*
Y78500D01*
X102103Y78000D01*
X101603D01*
X101104Y78500D01*
Y79500D01*
X101603Y80000D01*
X102603D01*
X103103Y79500D01*
X104103Y85500D02*
X103603Y86000D01*
X102603D01*
X102104Y85500D01*
Y83500D01*
X102603Y83000D01*
X103603D01*
X104103Y83500D01*
X105103Y85500D02*
X105603Y86000D01*
X106602D01*
X107102Y85500D01*
Y85000D01*
X106602Y84500D01*
X106102D01*
X106602D01*
X107102Y84000D01*
Y83500D01*
X106602Y83000D01*
X105603D01*
X105103Y83500D01*
X109601Y83000D02*
Y86000D01*
X108102Y84500D01*
X110101D01*
X137102Y92000D02*
X137601Y91501D01*
X138601D01*
X139101Y92000D01*
Y94000D01*
X138601Y94499D01*
X137601D01*
X137102Y94000D01*
X136102Y92000D02*
X135602Y91501D01*
X134602D01*
X134103Y92000D01*
Y92500D01*
X134602Y93000D01*
X135102D01*
X134602D01*
X134103Y93500D01*
Y94000D01*
X134602Y94499D01*
X135602D01*
X136102Y94000D01*
X133103Y92000D02*
X132603Y91501D01*
X131604D01*
X131104Y92000D01*
Y92500D01*
X131604Y93000D01*
X132103D01*
X131604D01*
X131104Y93500D01*
Y94000D01*
X131604Y94499D01*
X132603D01*
X133103Y94000D01*
X115103Y115500D02*
X114603Y115999D01*
X113603D01*
X113104Y115500D01*
Y113500D01*
X113603Y113001D01*
X114603D01*
X115103Y113500D01*
X116103Y115500D02*
X116603Y115999D01*
X117602D01*
X118102Y115500D01*
Y115000D01*
X117602Y114500D01*
X117102D01*
X117602D01*
X118102Y114000D01*
Y113500D01*
X117602Y113001D01*
X116603D01*
X116103Y113500D01*
X121101Y113001D02*
X119102D01*
X121101Y115000D01*
Y115500D01*
X120601Y115999D01*
X119602D01*
X119102Y115500D01*
X138733Y80524D02*
X138233Y81024D01*
X137233D01*
X136733Y80524D01*
Y78525D01*
X137233Y78025D01*
X138233D01*
X138733Y78525D01*
X139732Y80524D02*
X140232Y81024D01*
X141232D01*
X141732Y80524D01*
Y80024D01*
X141232Y79524D01*
X140732D01*
X141232D01*
X141732Y79024D01*
Y78525D01*
X141232Y78025D01*
X140232D01*
X139732Y78525D01*
X142731Y78025D02*
X143731D01*
X143231D01*
Y81024D01*
X142731Y80524D01*
X138221Y86524D02*
X137721Y87024D01*
X136722D01*
X136222Y86524D01*
Y84525D01*
X136722Y84025D01*
X137721D01*
X138221Y84525D01*
X139221Y86524D02*
X139720Y87024D01*
X140720D01*
X141220Y86524D01*
Y86024D01*
X140720Y85524D01*
X140220D01*
X140720D01*
X141220Y85024D01*
Y84525D01*
X140720Y84025D01*
X139720D01*
X139221Y84525D01*
X142220Y86524D02*
X142719Y87024D01*
X143719D01*
X144219Y86524D01*
Y84525D01*
X143719Y84025D01*
X142719D01*
X142220Y84525D01*
Y86524D01*
X125102Y217000D02*
X125601Y216500D01*
X126601D01*
X127101Y217000D01*
Y219000D01*
X126601Y219499D01*
X125601D01*
X125102Y219000D01*
X122103Y219499D02*
X124102D01*
X122103Y217500D01*
Y217000D01*
X122602Y216500D01*
X123602D01*
X124102Y217000D01*
X121103Y219000D02*
X120603Y219499D01*
X119604D01*
X119104Y219000D01*
Y217000D01*
X119604Y216500D01*
X120603D01*
X121103Y217000D01*
Y217500D01*
X120603Y218000D01*
X119104D01*
X115603Y153001D02*
X115103Y152501D01*
Y151501D01*
X115603Y151001D01*
X117602D01*
X118102Y151501D01*
Y152501D01*
X117602Y153001D01*
X118102Y156000D02*
Y154000D01*
X116103Y156000D01*
X115603D01*
X115103Y155500D01*
Y154500D01*
X115603Y154000D01*
Y156999D02*
X115103Y157499D01*
Y158499D01*
X115603Y158999D01*
X116103D01*
X116602Y158499D01*
X117102Y158999D01*
X117602D01*
X118102Y158499D01*
Y157499D01*
X117602Y156999D01*
X117102D01*
X116602Y157499D01*
X116103Y156999D01*
X115603D01*
X116602Y157499D02*
Y158499D01*
X121602Y124500D02*
X122102Y124001D01*
X123101D01*
X123601Y124500D01*
Y126500D01*
X123101Y126999D01*
X122102D01*
X121602Y126500D01*
X118603Y126999D02*
X120602D01*
X118603Y125000D01*
Y124500D01*
X119103Y124001D01*
X120102D01*
X120602Y124500D01*
X117603Y126999D02*
X116604D01*
X117103D01*
Y124001D01*
X117603Y124500D01*
X64788Y137841D02*
X64288Y138341D01*
X63288D01*
X62789Y137841D01*
Y135842D01*
X63288Y135342D01*
X64288D01*
X64788Y135842D01*
X67787Y135342D02*
X65788D01*
X67787Y137342D01*
Y137841D01*
X67287Y138341D01*
X66288D01*
X65788Y137841D01*
X68787D02*
X69287Y138341D01*
X70286D01*
X70786Y137841D01*
Y135842D01*
X70286Y135342D01*
X69287D01*
X68787Y135842D01*
Y137841D01*
X258053Y121200D02*
X257553Y121700D01*
X256553D01*
X256054Y121200D01*
Y119200D01*
X256553Y118701D01*
X257553D01*
X258053Y119200D01*
X259053Y118701D02*
X260052D01*
X259553D01*
Y121700D01*
X259053Y121200D01*
X261552Y119200D02*
X262052Y118701D01*
X263051D01*
X263551Y119200D01*
Y121200D01*
X263051Y121700D01*
X262052D01*
X261552Y121200D01*
Y120700D01*
X262052Y120200D01*
X263551D01*
X275080Y210731D02*
X274580Y210231D01*
Y209231D01*
X275080Y208732D01*
X277079D01*
X277579Y209231D01*
Y210231D01*
X277079Y210731D01*
X277579Y211731D02*
Y212730D01*
Y212230D01*
X274580D01*
X275080Y211731D01*
Y214230D02*
X274580Y214730D01*
Y215729D01*
X275080Y216229D01*
X275580D01*
X276080Y215729D01*
X276579Y216229D01*
X277079D01*
X277579Y215729D01*
Y214730D01*
X277079Y214230D01*
X276579D01*
X276080Y214730D01*
X275580Y214230D01*
X275080D01*
X276080Y214730D02*
Y215729D01*
X149641Y308200D02*
X149141Y308699D01*
X148142D01*
X147642Y308200D01*
Y306200D01*
X148142Y305700D01*
X149141D01*
X149641Y306200D01*
X150641Y305700D02*
X151640D01*
X151141D01*
Y308699D01*
X150641Y308200D01*
X153140Y308699D02*
X155139D01*
Y308200D01*
X153140Y306200D01*
Y305700D01*
X199944Y310565D02*
X199445Y310066D01*
Y309066D01*
X199944Y308566D01*
X201944D01*
X202444Y309066D01*
Y310066D01*
X201944Y310565D01*
X202444Y311565D02*
Y312565D01*
Y312065D01*
X199445D01*
X199944Y311565D01*
X199445Y316064D02*
X199944Y315064D01*
X200944Y314064D01*
X201944D01*
X202444Y314564D01*
Y315564D01*
X201944Y316064D01*
X201444D01*
X200944Y315564D01*
Y314064D01*
X166063Y292261D02*
X166562Y292761D01*
Y293761D01*
X166063Y294261D01*
X164063D01*
X163564Y293761D01*
Y292761D01*
X164063Y292261D01*
X163564Y291262D02*
Y290262D01*
Y290762D01*
X166562D01*
X166063Y291262D01*
X166562Y286763D02*
Y288762D01*
X165063D01*
X165563Y287763D01*
Y287263D01*
X165063Y286763D01*
X164063D01*
X163564Y287263D01*
Y288263D01*
X164063Y288762D01*
X215195Y339815D02*
X214695Y340315D01*
X213695D01*
X213195Y339815D01*
Y337815D01*
X213695Y337316D01*
X214695D01*
X215195Y337815D01*
X216195Y337316D02*
X217194D01*
X216694D01*
Y340315D01*
X216195Y339815D01*
X220193Y337316D02*
Y340315D01*
X218694Y338815D01*
X220693D01*
X228183Y339815D02*
X227683Y340315D01*
X226683D01*
X226184Y339815D01*
Y337815D01*
X226683Y337316D01*
X227683D01*
X228183Y337815D01*
X229183Y337316D02*
X230182D01*
X229682D01*
Y340315D01*
X229183Y339815D01*
X231682D02*
X232182Y340315D01*
X233181D01*
X233681Y339815D01*
Y339315D01*
X233181Y338815D01*
X232681D01*
X233181D01*
X233681Y338315D01*
Y337815D01*
X233181Y337316D01*
X232182D01*
X231682Y337815D01*
X153865Y292576D02*
X154365Y293076D01*
Y294076D01*
X153865Y294576D01*
X151866D01*
X151366Y294076D01*
Y293076D01*
X151866Y292576D01*
X151366Y291577D02*
Y290577D01*
Y291077D01*
X154365D01*
X153865Y291577D01*
X151366Y287078D02*
Y289077D01*
X153365Y287078D01*
X153865D01*
X154365Y287578D01*
Y288578D01*
X153865Y289077D01*
X203875Y249815D02*
X204375Y249315D01*
X205374D01*
X205874Y249815D01*
Y251815D01*
X205374Y252314D01*
X204375D01*
X203875Y251815D01*
X202875Y252314D02*
X201875D01*
X202375D01*
Y249315D01*
X202875Y249815D01*
X200376Y252314D02*
X199376D01*
X199876D01*
Y249315D01*
X200376Y249815D01*
X203375Y257815D02*
X203874Y257315D01*
X204874D01*
X205374Y257815D01*
Y259815D01*
X204874Y260314D01*
X203874D01*
X203375Y259815D01*
X202375Y260314D02*
X201375D01*
X201875D01*
Y257315D01*
X202375Y257815D01*
X199876D02*
X199376Y257315D01*
X198376D01*
X197877Y257815D01*
Y259815D01*
X198376Y260314D01*
X199376D01*
X199876Y259815D01*
Y257815D01*
X167889Y266315D02*
X167389Y266814D01*
X166390D01*
X165890Y266315D01*
Y264315D01*
X166390Y263815D01*
X167389D01*
X167889Y264315D01*
X168889D02*
X169389Y263815D01*
X170388D01*
X170888Y264315D01*
Y266315D01*
X170388Y266814D01*
X169389D01*
X168889Y266315D01*
Y265815D01*
X169389Y265315D01*
X170888D01*
X168618Y259315D02*
X168118Y259815D01*
X167118D01*
X166618Y259315D01*
Y257315D01*
X167118Y256816D01*
X168118D01*
X168618Y257315D01*
X169617Y259315D02*
X170117Y259815D01*
X171117D01*
X171617Y259315D01*
Y258815D01*
X171117Y258315D01*
X171617Y257815D01*
Y257315D01*
X171117Y256816D01*
X170117D01*
X169617Y257315D01*
Y257815D01*
X170117Y258315D01*
X169617Y258815D01*
Y259315D01*
X170117Y258315D02*
X171117D01*
X176563Y278988D02*
X176063Y278488D01*
Y277489D01*
X176563Y276989D01*
X178563D01*
X179062Y277489D01*
Y278488D01*
X178563Y278988D01*
X176063Y279988D02*
Y281987D01*
X176563D01*
X178563Y279988D01*
X179062D01*
X258102Y250000D02*
X258602Y249500D01*
X259602D01*
X260102Y250000D01*
Y252000D01*
X259602Y252500D01*
X258602D01*
X258102Y252000D01*
X255103Y249500D02*
X256103Y250000D01*
X257102Y251000D01*
Y252000D01*
X256603Y252500D01*
X255603D01*
X255103Y252000D01*
Y251500D01*
X255603Y251000D01*
X257102D01*
X258102Y258000D02*
X258602Y257501D01*
X259602D01*
X260102Y258000D01*
Y260000D01*
X259602Y260500D01*
X258602D01*
X258102Y260000D01*
X255103Y257501D02*
X257102D01*
Y259000D01*
X256103Y258500D01*
X255603D01*
X255103Y259000D01*
Y260000D01*
X255603Y260500D01*
X256603D01*
X257102Y260000D01*
X223496Y257815D02*
X222996Y258314D01*
X221996D01*
X221496Y257815D01*
Y255815D01*
X221996Y255315D01*
X222996D01*
X223496Y255815D01*
X225995Y255315D02*
Y258314D01*
X224495Y256815D01*
X226495D01*
X224495Y261815D02*
X224995Y261315D01*
X225995D01*
X226495Y261815D01*
Y263815D01*
X225995Y264315D01*
X224995D01*
X224495Y263815D01*
X223496Y261815D02*
X222996Y261315D01*
X221996D01*
X221496Y261815D01*
Y262315D01*
X221996Y262815D01*
X222496D01*
X221996D01*
X221496Y263315D01*
Y263815D01*
X221996Y264315D01*
X222996D01*
X223496Y263815D01*
X265944Y327815D02*
X266444Y328315D01*
Y329314D01*
X265944Y329814D01*
X263945D01*
X263445Y329314D01*
Y328315D01*
X263945Y327815D01*
X263445Y324816D02*
Y326815D01*
X265444Y324816D01*
X265944D01*
X266444Y325316D01*
Y326315D01*
X265944Y326815D01*
X231472Y282815D02*
X231972Y282315D01*
X232971D01*
X233471Y282815D01*
Y284815D01*
X232971Y285314D01*
X231972D01*
X231472Y284815D01*
X230472Y285314D02*
X229472D01*
X229972D01*
Y282315D01*
X230472Y282815D01*
X109418Y28160D02*
X112417D01*
Y29660D01*
X111917Y30160D01*
X111417D01*
X110917Y29660D01*
Y28160D01*
Y29660D01*
X110417Y30160D01*
X109918D01*
X109418Y29660D01*
Y28160D01*
Y31159D02*
X111917D01*
X112417Y31659D01*
Y32659D01*
X111917Y33159D01*
X109418D01*
Y34158D02*
Y36158D01*
X109918D01*
X111917Y34158D01*
X112417D01*
Y36158D01*
X109418Y37157D02*
Y39157D01*
X109918D01*
X111917Y37157D01*
X112417D01*
Y39157D01*
Y40156D02*
Y41156D01*
Y40656D01*
X109418D01*
X109918Y40156D01*
M02*
