G04*
G04 #@! TF.GenerationSoftware,Altium Limited,Altium Designer,24.5.2 (23)*
G04*
G04 Layer_Physical_Order=3*
G04 Layer_Color=16440176*
%FSLAX25Y25*%
%MOIN*%
G70*
G04*
G04 #@! TF.SameCoordinates,1FAC9CCE-155D-40C8-9A78-5E955FD1C98E*
G04*
G04*
G04 #@! TF.FilePolarity,Positive*
G04*
G01*
G75*
%ADD14C,0.00600*%
%ADD128C,0.00585*%
%ADD130C,0.27559*%
%ADD131C,0.05150*%
%ADD132R,0.03347X0.03347*%
%ADD133C,0.03347*%
%ADD134R,0.05200X0.05200*%
%ADD135C,0.05200*%
%ADD136R,0.03969X0.03969*%
%ADD137C,0.03969*%
%ADD138C,0.05000*%
%ADD139R,0.05000X0.05000*%
%ADD140R,0.05622X0.05622*%
%ADD141C,0.05622*%
%ADD142C,0.13055*%
%ADD143O,0.13071X0.06535*%
%ADD144O,0.10299X0.05150*%
%ADD145C,0.03740*%
%ADD146C,0.01772*%
%ADD147C,0.00421*%
G36*
X325119Y79543D02*
X212708D01*
X212679Y79537D01*
X212649Y79541D01*
X212526Y79507D01*
X212401Y79482D01*
X212376Y79465D01*
X212347Y79457D01*
X212247Y79379D01*
X212140Y79308D01*
X212124Y79283D01*
X212100Y79265D01*
X176422Y37926D01*
X176359Y37815D01*
X176288Y37709D01*
X176283Y37679D01*
X176268Y37654D01*
X176252Y37527D01*
X176227Y37402D01*
Y803D01*
X803D01*
X803Y185039D01*
X803Y227544D01*
X136946D01*
X137253Y227605D01*
X137513Y227779D01*
X137687Y228039D01*
X137748Y228347D01*
Y352338D01*
X325119D01*
Y79543D01*
D02*
G37*
%LPC*%
G36*
X162444Y342201D02*
Y339315D01*
X165330D01*
X165112Y340127D01*
X164665Y340903D01*
X164032Y341536D01*
X163257Y341983D01*
X162444Y342201D01*
D02*
G37*
G36*
X161444D02*
X160632Y341983D01*
X159857Y341536D01*
X159223Y340903D01*
X158776Y340127D01*
X158558Y339315D01*
X161444D01*
Y342201D01*
D02*
G37*
G36*
X151702Y341091D02*
Y339121D01*
X153672D01*
X153299Y340022D01*
X152603Y340718D01*
X151702Y341091D01*
D02*
G37*
G36*
X150702Y341091D02*
X149801Y340718D01*
X149106Y340022D01*
X148732Y339121D01*
X150702D01*
Y341091D01*
D02*
G37*
G36*
X194944Y341815D02*
X188944D01*
Y335815D01*
X194944D01*
Y341815D01*
D02*
G37*
G36*
X182339D02*
X181549D01*
X180786Y341611D01*
X180102Y341216D01*
X179544Y340657D01*
X179149Y339973D01*
X178944Y339210D01*
Y338420D01*
X179149Y337657D01*
X179544Y336973D01*
X180102Y336414D01*
X180786Y336019D01*
X181549Y335815D01*
X182339D01*
X183102Y336019D01*
X183786Y336414D01*
X184345Y336973D01*
X184740Y337657D01*
X184944Y338420D01*
Y339210D01*
X184740Y339973D01*
X184345Y340657D01*
X183786Y341216D01*
X183102Y341611D01*
X182339Y341815D01*
D02*
G37*
G36*
X172339D02*
X171549D01*
X170786Y341611D01*
X170102Y341216D01*
X169544Y340657D01*
X169149Y339973D01*
X168944Y339210D01*
Y338420D01*
X169149Y337657D01*
X169544Y336973D01*
X170102Y336414D01*
X170786Y336019D01*
X171549Y335815D01*
X172339D01*
X173102Y336019D01*
X173786Y336414D01*
X174345Y336973D01*
X174740Y337657D01*
X174944Y338420D01*
Y339210D01*
X174740Y339973D01*
X174345Y340657D01*
X173786Y341216D01*
X173102Y341611D01*
X172339Y341815D01*
D02*
G37*
G36*
X165330Y338315D02*
X162444D01*
Y335429D01*
X163257Y335647D01*
X164032Y336094D01*
X164665Y336727D01*
X165112Y337503D01*
X165330Y338315D01*
D02*
G37*
G36*
X161444D02*
X158558D01*
X158776Y337503D01*
X159223Y336727D01*
X159857Y336094D01*
X160632Y335647D01*
X161444Y335429D01*
Y338315D01*
D02*
G37*
G36*
X266416Y338575D02*
X265789D01*
X265210Y338335D01*
X264767Y337892D01*
X264528Y337313D01*
Y336687D01*
X264767Y336108D01*
X265210Y335665D01*
X265789Y335425D01*
X266416D01*
X266995Y335665D01*
X267438Y336108D01*
X267677Y336687D01*
Y337313D01*
X267438Y337892D01*
X266995Y338335D01*
X266416Y338575D01*
D02*
G37*
G36*
X320197Y342085D02*
X313662D01*
X312704Y341959D01*
X311812Y341589D01*
X311046Y341002D01*
X310458Y340235D01*
X310088Y339343D01*
X309962Y338386D01*
X310088Y337428D01*
X310458Y336536D01*
X311046Y335770D01*
X311812Y335182D01*
X312704Y334812D01*
X313662Y334686D01*
X320197D01*
X321154Y334812D01*
X322047Y335182D01*
X322813Y335770D01*
X323401Y336536D01*
X323770Y337428D01*
X323896Y338386D01*
X323770Y339343D01*
X323401Y340235D01*
X322813Y341002D01*
X322047Y341589D01*
X321154Y341959D01*
X320197Y342085D01*
D02*
G37*
G36*
X290764Y339811D02*
X285614D01*
X284838Y339709D01*
X284114Y339409D01*
X283493Y338933D01*
X283016Y338311D01*
X282716Y337587D01*
X282614Y336811D01*
X282716Y336034D01*
X283016Y335311D01*
X283493Y334689D01*
X284114Y334212D01*
X284838Y333913D01*
X285614Y333810D01*
X290764D01*
X291540Y333913D01*
X292264Y334212D01*
X292885Y334689D01*
X293362Y335311D01*
X293662Y336034D01*
X293764Y336811D01*
X293662Y337587D01*
X293362Y338311D01*
X292885Y338933D01*
X292264Y339409D01*
X291540Y339709D01*
X290764Y339811D01*
D02*
G37*
G36*
X153672Y338121D02*
X151202D01*
X148732D01*
X149106Y337220D01*
X149801Y336525D01*
X150710Y336148D01*
X150649Y335773D01*
X149129D01*
Y331627D01*
X153276D01*
Y335773D01*
X151755D01*
X151694Y336148D01*
X152603Y336525D01*
X153299Y337220D01*
X153672Y338121D01*
D02*
G37*
G36*
X201313Y329575D02*
X200687D01*
X200108Y329335D01*
X199665Y328892D01*
X199425Y328313D01*
Y327687D01*
X199665Y327108D01*
X200108Y326665D01*
X200687Y326425D01*
X201313D01*
X201892Y326665D01*
X202335Y327108D01*
X202575Y327687D01*
Y328313D01*
X202335Y328892D01*
X201892Y329335D01*
X201313Y329575D01*
D02*
G37*
G36*
X238416Y329575D02*
X237789D01*
X237210Y329335D01*
X236767Y328892D01*
X236528Y328313D01*
Y327687D01*
X236767Y327108D01*
X237210Y326665D01*
X237789Y326425D01*
X238416D01*
X238995Y326665D01*
X239438Y327108D01*
X239677Y327687D01*
Y328313D01*
X239438Y328892D01*
X238995Y329335D01*
X238416Y329575D01*
D02*
G37*
G36*
X290764Y326829D02*
X288689D01*
Y323925D01*
X294102D01*
X294052Y324306D01*
X293712Y325127D01*
X293171Y325832D01*
X292466Y326373D01*
X291645Y326713D01*
X290764Y326829D01*
D02*
G37*
G36*
X287689D02*
X285614D01*
X284733Y326713D01*
X283912Y326373D01*
X283207Y325832D01*
X282666Y325127D01*
X282326Y324306D01*
X282276Y323925D01*
X287689D01*
Y326829D01*
D02*
G37*
G36*
X294102Y322925D02*
X288689D01*
Y320021D01*
X290764D01*
X291645Y320137D01*
X292466Y320477D01*
X293171Y321018D01*
X293712Y321723D01*
X294052Y322544D01*
X294102Y322925D01*
D02*
G37*
G36*
X287689D02*
X282276D01*
X282326Y322544D01*
X282666Y321723D01*
X283207Y321018D01*
X283912Y320477D01*
X284733Y320137D01*
X285614Y320021D01*
X287689D01*
Y322925D01*
D02*
G37*
G36*
X316535Y328165D02*
X309449D01*
X309142Y328104D01*
X308881Y327930D01*
X308707Y327669D01*
X308646Y327362D01*
Y320276D01*
X308707Y319968D01*
X308881Y319708D01*
X309142Y319534D01*
X309449Y319473D01*
X316535D01*
X316843Y319534D01*
X317103Y319708D01*
X317277Y319968D01*
X317338Y320276D01*
Y327362D01*
X317277Y327669D01*
X317103Y327930D01*
X316843Y328104D01*
X316535Y328165D01*
D02*
G37*
G36*
X261416Y322575D02*
X260789D01*
X260210Y322335D01*
X259767Y321892D01*
X259528Y321313D01*
Y320687D01*
X259767Y320108D01*
X260210Y319665D01*
X260789Y319425D01*
X261416D01*
X261995Y319665D01*
X262438Y320108D01*
X262677Y320687D01*
Y321313D01*
X262438Y321892D01*
X261995Y322335D01*
X261416Y322575D01*
D02*
G37*
G36*
X266416Y319575D02*
X265789D01*
X265210Y319335D01*
X264767Y318892D01*
X264528Y318313D01*
Y317687D01*
X264767Y317108D01*
X265210Y316665D01*
X265789Y316425D01*
X266416D01*
X266995Y316665D01*
X267438Y317108D01*
X267677Y317687D01*
Y318313D01*
X267438Y318892D01*
X266995Y319335D01*
X266416Y319575D01*
D02*
G37*
G36*
X192339Y311815D02*
X191549D01*
X190786Y311611D01*
X190102Y311216D01*
X189544Y310657D01*
X189149Y309973D01*
X188944Y309210D01*
Y308420D01*
X189149Y307657D01*
X189544Y306973D01*
X190102Y306414D01*
X190786Y306019D01*
X191549Y305815D01*
X192339D01*
X193102Y306019D01*
X193786Y306414D01*
X194345Y306973D01*
X194740Y307657D01*
X194944Y308420D01*
Y309210D01*
X194740Y309973D01*
X194345Y310657D01*
X193786Y311216D01*
X193102Y311611D01*
X192339Y311815D01*
D02*
G37*
G36*
X162339D02*
X161549D01*
X160786Y311611D01*
X160102Y311216D01*
X159544Y310657D01*
X159149Y309973D01*
X158944Y309210D01*
Y308420D01*
X159149Y307657D01*
X159544Y306973D01*
X160102Y306414D01*
X160786Y306019D01*
X161549Y305815D01*
X162339D01*
X163102Y306019D01*
X163786Y306414D01*
X164345Y306973D01*
X164740Y307657D01*
X164944Y308420D01*
Y309210D01*
X164740Y309973D01*
X164345Y310657D01*
X163786Y311216D01*
X163102Y311611D01*
X162339Y311815D01*
D02*
G37*
G36*
X290764Y306357D02*
X288689D01*
Y303453D01*
X294102D01*
X294052Y303834D01*
X293712Y304655D01*
X293171Y305360D01*
X292466Y305901D01*
X291645Y306241D01*
X290764Y306357D01*
D02*
G37*
G36*
X287689D02*
X285614D01*
X284733Y306241D01*
X283912Y305901D01*
X283207Y305360D01*
X282666Y304655D01*
X282326Y303834D01*
X282276Y303453D01*
X287689D01*
Y306357D01*
D02*
G37*
G36*
X267416Y309575D02*
X266789D01*
X266210Y309335D01*
X265767Y308892D01*
X265528Y308313D01*
Y307687D01*
X265767Y307108D01*
X266139Y306736D01*
X266180Y306495D01*
X266138Y306262D01*
X265764Y305889D01*
X265524Y305310D01*
Y304683D01*
X265764Y304105D01*
X266207Y303662D01*
X266786Y303422D01*
X267412D01*
X267991Y303662D01*
X268361Y304032D01*
X268599Y304075D01*
X268837Y304032D01*
X269207Y303662D01*
X269786Y303422D01*
X270412D01*
X270991Y303662D01*
X271361Y304032D01*
X271599Y304075D01*
X271837Y304032D01*
X272207Y303662D01*
X272786Y303422D01*
X273412D01*
X273991Y303662D01*
X274434Y304105D01*
X274674Y304683D01*
Y305310D01*
X274434Y305889D01*
X274064Y306259D01*
X274021Y306497D01*
X274064Y306735D01*
X274434Y307105D01*
X274674Y307683D01*
Y308310D01*
X274434Y308889D01*
X273991Y309332D01*
X273412Y309572D01*
X272786D01*
X272207Y309332D01*
X271837Y308962D01*
X271599Y308919D01*
X271361Y308962D01*
X270991Y309332D01*
X270412Y309572D01*
X269786D01*
X269207Y309332D01*
X268840Y308965D01*
X268598Y308921D01*
X268363Y308966D01*
X267994Y309335D01*
X267416Y309575D01*
D02*
G37*
G36*
X294102Y302453D02*
X288689D01*
Y299549D01*
X290764D01*
X291645Y299665D01*
X292466Y300005D01*
X293171Y300546D01*
X293712Y301251D01*
X294052Y302072D01*
X294102Y302453D01*
D02*
G37*
G36*
X287689D02*
X282276D01*
X282326Y302072D01*
X282666Y301251D01*
X283207Y300546D01*
X283912Y300005D01*
X284733Y299665D01*
X285614Y299549D01*
X287689D01*
Y302453D01*
D02*
G37*
G36*
X153416Y299575D02*
X152789D01*
X152210Y299335D01*
X151767Y298892D01*
X151528Y298313D01*
Y297687D01*
X151767Y297108D01*
X152210Y296665D01*
X152789Y296425D01*
X153416D01*
X153995Y296665D01*
X154437Y297108D01*
X154677Y297687D01*
Y298313D01*
X154437Y298892D01*
X153995Y299335D01*
X153416Y299575D01*
D02*
G37*
G36*
X320197Y303109D02*
X313662D01*
X312704Y302983D01*
X311812Y302613D01*
X311046Y302025D01*
X310458Y301259D01*
X310088Y300367D01*
X309962Y299409D01*
X310088Y298452D01*
X310458Y297560D01*
X311046Y296794D01*
X311812Y296206D01*
X312704Y295836D01*
X313662Y295710D01*
X320197D01*
X321154Y295836D01*
X322047Y296206D01*
X322813Y296794D01*
X323401Y297560D01*
X323770Y298452D01*
X323896Y299409D01*
X323770Y300367D01*
X323401Y301259D01*
X322813Y302025D01*
X322047Y302613D01*
X321154Y302983D01*
X320197Y303109D01*
D02*
G37*
G36*
X183916Y296575D02*
X183289D01*
X182710Y296335D01*
X182267Y295892D01*
X182028Y295313D01*
Y294687D01*
X182267Y294108D01*
X182710Y293665D01*
X183289Y293425D01*
X183916D01*
X184494Y293665D01*
X184938Y294108D01*
X185177Y294687D01*
Y295313D01*
X184938Y295892D01*
X184494Y296335D01*
X183916Y296575D01*
D02*
G37*
G36*
X221416Y283575D02*
X220789D01*
X220210Y283335D01*
X219767Y282892D01*
X219528Y282313D01*
Y281687D01*
X219767Y281108D01*
X220210Y280665D01*
X220789Y280425D01*
X221416D01*
X221994Y280665D01*
X222438Y281108D01*
X222677Y281687D01*
Y282313D01*
X222438Y282892D01*
X221994Y283335D01*
X221416Y283575D01*
D02*
G37*
G36*
X146916Y274075D02*
X146289D01*
X145710Y273835D01*
X145267Y273392D01*
X145028Y272813D01*
Y272187D01*
X145267Y271608D01*
X145710Y271165D01*
X146289Y270925D01*
X146916D01*
X147494Y271165D01*
X147938Y271608D01*
X148177Y272187D01*
Y272813D01*
X147938Y273392D01*
X147494Y273835D01*
X146916Y274075D01*
D02*
G37*
G36*
X312813Y269575D02*
X312187D01*
X311608Y269335D01*
X311165Y268892D01*
X310925Y268313D01*
Y267687D01*
X311165Y267108D01*
X311608Y266665D01*
X312187Y266425D01*
X312813D01*
X313392Y266665D01*
X313835Y267108D01*
X314075Y267687D01*
Y268313D01*
X313835Y268892D01*
X313392Y269335D01*
X312813Y269575D01*
D02*
G37*
G36*
X160416Y267575D02*
X159789D01*
X159210Y267335D01*
X158767Y266892D01*
X158528Y266313D01*
Y265754D01*
X158344Y265565D01*
X158188Y265462D01*
X157916Y265575D01*
X157289D01*
X156710Y265335D01*
X156267Y264892D01*
X156028Y264313D01*
Y263687D01*
X156267Y263108D01*
X156710Y262665D01*
X157289Y262425D01*
X157916D01*
X158188Y262538D01*
X158344Y262435D01*
X158528Y262246D01*
Y261754D01*
X158344Y261565D01*
X158188Y261462D01*
X157916Y261575D01*
X157289D01*
X156710Y261335D01*
X156267Y260892D01*
X156028Y260313D01*
Y259687D01*
X156267Y259108D01*
X156710Y258665D01*
X157289Y258425D01*
X157916D01*
X158163Y258528D01*
X158347Y258389D01*
X158493Y258231D01*
Y257720D01*
X158309Y257531D01*
X158153Y257428D01*
X157881Y257540D01*
X157255D01*
X156676Y257300D01*
X156233Y256857D01*
X155993Y256279D01*
Y255652D01*
X156233Y255073D01*
X156676Y254630D01*
X157255Y254391D01*
X157881D01*
X158178Y254513D01*
X158313Y254436D01*
X158528Y254225D01*
Y253687D01*
X158767Y253108D01*
X159210Y252665D01*
X159789Y252425D01*
X160416D01*
X160995Y252665D01*
X161437Y253108D01*
X161677Y253687D01*
Y254313D01*
X161437Y254892D01*
X160995Y255335D01*
X160416Y255575D01*
X159789D01*
X159493Y255452D01*
X159357Y255529D01*
X159143Y255740D01*
Y256211D01*
X159326Y256400D01*
X159483Y256503D01*
X159755Y256391D01*
X160381D01*
X160960Y256630D01*
X161403Y257073D01*
X161643Y257652D01*
Y258279D01*
X161403Y258857D01*
X160960Y259300D01*
X160381Y259540D01*
X159755D01*
X159507Y259438D01*
X159323Y259576D01*
X159177Y259734D01*
Y260246D01*
X159361Y260435D01*
X159517Y260538D01*
X159789Y260425D01*
X160416D01*
X160995Y260665D01*
X161437Y261108D01*
X161677Y261687D01*
Y262313D01*
X161437Y262892D01*
X160995Y263335D01*
X160416Y263575D01*
X159789D01*
X159517Y263462D01*
X159361Y263565D01*
X159177Y263754D01*
Y264246D01*
X159361Y264435D01*
X159517Y264538D01*
X159789Y264425D01*
X160416D01*
X160995Y264665D01*
X161437Y265108D01*
X161677Y265687D01*
Y266313D01*
X161437Y266892D01*
X160995Y267335D01*
X160416Y267575D01*
D02*
G37*
G36*
X313313Y265575D02*
X312687D01*
X312108Y265335D01*
X311665Y264892D01*
X311425Y264313D01*
Y263687D01*
X311665Y263108D01*
X312108Y262665D01*
X312687Y262425D01*
X313313D01*
X313892Y262665D01*
X314335Y263108D01*
X314575Y263687D01*
Y264313D01*
X314335Y264892D01*
X313892Y265335D01*
X313313Y265575D01*
D02*
G37*
G36*
X312813Y261075D02*
X312187D01*
X311608Y260835D01*
X311165Y260392D01*
X310925Y259813D01*
Y259187D01*
X311165Y258608D01*
X311608Y258165D01*
X312187Y257925D01*
X312813D01*
X313392Y258165D01*
X313835Y258608D01*
X314075Y259187D01*
Y259813D01*
X313835Y260392D01*
X313392Y260835D01*
X312813Y261075D01*
D02*
G37*
G36*
Y252575D02*
X312187D01*
X311608Y252335D01*
X311165Y251892D01*
X310925Y251313D01*
Y250687D01*
X311165Y250108D01*
X311608Y249665D01*
X312187Y249425D01*
X312813D01*
X313392Y249665D01*
X313835Y250108D01*
X314075Y250687D01*
Y251313D01*
X313835Y251892D01*
X313392Y252335D01*
X312813Y252575D01*
D02*
G37*
G36*
X267916Y251575D02*
X267289D01*
X266710Y251335D01*
X266267Y250892D01*
X266028Y250313D01*
Y249687D01*
X266267Y249108D01*
X266710Y248665D01*
X267289Y248425D01*
X267916D01*
X268495Y248665D01*
X268937Y249108D01*
X269177Y249687D01*
Y250313D01*
X268937Y250892D01*
X268495Y251335D01*
X267916Y251575D01*
D02*
G37*
G36*
X215416Y250075D02*
X214789D01*
X214210Y249835D01*
X213767Y249392D01*
X213528Y248813D01*
Y248187D01*
X213767Y247608D01*
X214210Y247165D01*
X214789Y246925D01*
X215416D01*
X215995Y247165D01*
X216438Y247608D01*
X216677Y248187D01*
Y248813D01*
X216438Y249392D01*
X215995Y249835D01*
X215416Y250075D01*
D02*
G37*
G36*
X312313Y241075D02*
X311687D01*
X311108Y240835D01*
X310665Y240392D01*
X310425Y239813D01*
Y239187D01*
X310665Y238608D01*
X311108Y238165D01*
X311687Y237925D01*
X312313D01*
X312892Y238165D01*
X313335Y238608D01*
X313575Y239187D01*
Y239813D01*
X313335Y240392D01*
X312892Y240835D01*
X312313Y241075D01*
D02*
G37*
G36*
X304313D02*
X303687D01*
X303108Y240835D01*
X302665Y240392D01*
X302425Y239813D01*
Y239187D01*
X302665Y238608D01*
X303108Y238165D01*
X303687Y237925D01*
X304313D01*
X304892Y238165D01*
X305335Y238608D01*
X305575Y239187D01*
Y239813D01*
X305335Y240392D01*
X304892Y240835D01*
X304313Y241075D01*
D02*
G37*
G36*
X210813Y237575D02*
X210187D01*
X209608Y237335D01*
X209165Y236892D01*
X208925Y236313D01*
Y235687D01*
X209165Y235108D01*
X209608Y234665D01*
X210187Y234425D01*
X210813D01*
X211392Y234665D01*
X211835Y235108D01*
X212075Y235687D01*
Y236313D01*
X211835Y236892D01*
X211392Y237335D01*
X210813Y237575D01*
D02*
G37*
G36*
X260402Y235548D02*
X259828Y235395D01*
X259193Y235028D01*
X258674Y234509D01*
X258449Y234119D01*
X258004Y234148D01*
X258002Y234151D01*
X257332Y234821D01*
X256455Y235184D01*
X255507D01*
X254631Y234821D01*
X253960Y234151D01*
X253737Y233612D01*
X253304D01*
X253081Y234151D01*
X252411Y234821D01*
X251534Y235184D01*
X250586D01*
X249709Y234821D01*
X249039Y234151D01*
X248923Y233871D01*
X248523Y233950D01*
Y235184D01*
X243754D01*
Y230416D01*
X248523D01*
Y231650D01*
X248923Y231729D01*
X249039Y231449D01*
X249709Y230779D01*
X250346Y230515D01*
Y210166D01*
X248492Y208311D01*
X248313Y208385D01*
X247687D01*
X247108Y208145D01*
X246665Y207702D01*
X246425Y207123D01*
Y206497D01*
X246665Y205918D01*
X247108Y205475D01*
X247687Y205235D01*
X248313D01*
X248892Y205475D01*
X249335Y205918D01*
X249575Y206497D01*
Y207123D01*
X249501Y207302D01*
X251565Y209366D01*
X251719Y209597D01*
X251774Y209870D01*
Y230515D01*
X252411Y230779D01*
X253081Y231449D01*
X253304Y231987D01*
X253737D01*
X253960Y231449D01*
X254631Y230779D01*
X255507Y230416D01*
X256455D01*
X257332Y230779D01*
X258002Y231449D01*
X258004Y231452D01*
X258449Y231481D01*
X258674Y231090D01*
X259193Y230572D01*
X259828Y230205D01*
X260402Y230051D01*
Y232800D01*
X260903D01*
D01*
X260402D01*
Y235548D01*
D02*
G37*
G36*
X261403Y235548D02*
Y233300D01*
X263651D01*
X263497Y233875D01*
X263130Y234509D01*
X262612Y235028D01*
X261977Y235395D01*
X261403Y235548D01*
D02*
G37*
G36*
X263651Y232300D02*
X261403D01*
Y230051D01*
X261977Y230205D01*
X262612Y230572D01*
X263130Y231090D01*
X263497Y231725D01*
X263651Y232300D01*
D02*
G37*
G36*
X208813Y232075D02*
X208187D01*
X207608Y231835D01*
X207165Y231392D01*
X206925Y230813D01*
Y230187D01*
X207165Y229608D01*
X207608Y229165D01*
X208187Y228925D01*
X208813D01*
X209392Y229165D01*
X209835Y229608D01*
X210075Y230187D01*
Y230813D01*
X209835Y231392D01*
X209392Y231835D01*
X208813Y232075D01*
D02*
G37*
G36*
X238313Y240075D02*
X237687D01*
X237108Y239835D01*
X236665Y239392D01*
X236425Y238813D01*
Y238187D01*
X236665Y237608D01*
X237108Y237165D01*
X237286Y237091D01*
Y228848D01*
X236886Y228768D01*
X236835Y228892D01*
X236392Y229335D01*
X235813Y229575D01*
X235187D01*
X234608Y229335D01*
X234165Y228892D01*
X233925Y228313D01*
Y227687D01*
X234165Y227108D01*
X234608Y226665D01*
X235187Y226425D01*
X235813D01*
X236392Y226665D01*
X236835Y227108D01*
X236886Y227232D01*
X237286Y227152D01*
Y196589D01*
X236886Y196389D01*
X236438Y196575D01*
X235812D01*
X235233Y196335D01*
X234988Y196090D01*
X234589Y196256D01*
Y206625D01*
X234534Y206898D01*
X234380Y207130D01*
X233501Y208008D01*
X233575Y208187D01*
Y208813D01*
X233335Y209392D01*
X232892Y209835D01*
X232313Y210075D01*
X231687D01*
X231108Y209835D01*
X230989Y209716D01*
X230589Y209881D01*
Y211539D01*
X230892Y211665D01*
X231335Y212108D01*
X231575Y212687D01*
Y213313D01*
X231335Y213892D01*
X230892Y214335D01*
X230313Y214575D01*
X229687D01*
X229108Y214335D01*
X228665Y213892D01*
X228425Y213313D01*
Y212687D01*
X228665Y212108D01*
X229108Y211665D01*
X229161Y211643D01*
Y204589D01*
X228761Y204389D01*
X228313Y204575D01*
X227944D01*
X227661Y204661D01*
X227575Y204944D01*
Y205313D01*
X227335Y205892D01*
X226892Y206335D01*
X226313Y206575D01*
X225687D01*
X225108Y206335D01*
X224665Y205892D01*
X224425Y205313D01*
Y204687D01*
X224665Y204108D01*
X225108Y203665D01*
X225687Y203425D01*
X226056D01*
X226339Y203339D01*
X226425Y203056D01*
Y202687D01*
X226665Y202108D01*
X227108Y201665D01*
X227286Y201591D01*
Y179796D01*
X226589Y179098D01*
X226434Y178866D01*
X226379Y178593D01*
Y176732D01*
X226114Y176466D01*
X225714Y176632D01*
Y182591D01*
X225892Y182665D01*
X226335Y183108D01*
X226575Y183687D01*
Y184313D01*
X226335Y184892D01*
X225892Y185335D01*
X225313Y185575D01*
X224687D01*
X224108Y185335D01*
X223665Y184892D01*
X223425Y184313D01*
Y183687D01*
X223665Y183108D01*
X224108Y182665D01*
X224286Y182591D01*
Y143409D01*
X224108Y143335D01*
X223665Y142892D01*
X223425Y142313D01*
Y141687D01*
X223665Y141108D01*
X224108Y140665D01*
X224687Y140425D01*
X225313D01*
X225892Y140665D01*
X226335Y141108D01*
X226575Y141687D01*
Y142313D01*
X226335Y142892D01*
X225892Y143335D01*
X225714Y143409D01*
Y174184D01*
X226114Y174350D01*
X226391Y174073D01*
X226969Y173833D01*
X227596D01*
X228175Y174073D01*
X228618Y174516D01*
X228857Y175095D01*
Y175491D01*
X229239Y175766D01*
X229379Y175708D01*
X230005D01*
X230584Y175948D01*
X230886Y176250D01*
X231286Y176084D01*
Y167238D01*
X231248Y167200D01*
X230687D01*
X230108Y166960D01*
X229665Y166517D01*
X229425Y165938D01*
Y165312D01*
X229665Y164733D01*
X230108Y164290D01*
X230687Y164050D01*
X231313D01*
X231892Y164290D01*
X232335Y164733D01*
X232575Y165312D01*
Y165938D01*
X232408Y166341D01*
X232505Y166438D01*
X232659Y166669D01*
X232714Y166942D01*
Y175411D01*
X233114Y175611D01*
X233561Y175425D01*
X234188D01*
X234767Y175665D01*
X235210Y176108D01*
X235450Y176687D01*
Y177313D01*
X235210Y177892D01*
X234767Y178335D01*
X234188Y178575D01*
X233561D01*
X233114Y178389D01*
X232714Y178589D01*
Y179937D01*
X233114Y180136D01*
X233561Y179951D01*
X234188D01*
X234767Y180191D01*
X235210Y180633D01*
X235450Y181212D01*
Y181839D01*
X235210Y182418D01*
X234767Y182861D01*
X234589Y182934D01*
Y185619D01*
X234988Y185784D01*
X235108Y185665D01*
X235687Y185425D01*
X236313D01*
X236892Y185665D01*
X236917Y185690D01*
X237286Y185537D01*
Y173979D01*
X236216Y172908D01*
X235813Y173075D01*
X235187D01*
X234608Y172835D01*
X234165Y172392D01*
X233925Y171813D01*
Y171187D01*
X234165Y170608D01*
X234608Y170165D01*
X235187Y169925D01*
X235577D01*
X235864Y169757D01*
X235925Y169556D01*
Y169095D01*
X236165Y168517D01*
X236608Y168073D01*
X237187Y167834D01*
X237813D01*
X238392Y168073D01*
X238835Y168517D01*
X239075Y169095D01*
Y169722D01*
X238974Y169965D01*
X242005Y172995D01*
X242159Y173227D01*
X242214Y173500D01*
Y235216D01*
X242392Y235290D01*
X242835Y235733D01*
X243075Y236312D01*
Y236939D01*
X242835Y237517D01*
X242392Y237960D01*
X241813Y238200D01*
X241187D01*
X240608Y237960D01*
X240165Y237517D01*
X239925Y236939D01*
Y236312D01*
X240165Y235733D01*
X240608Y235290D01*
X240786Y235216D01*
Y173796D01*
X237927Y170936D01*
X237813Y170983D01*
X237423D01*
X237136Y171151D01*
X237075Y171353D01*
Y171748D01*
X238505Y173178D01*
X238659Y173410D01*
X238714Y173683D01*
Y237091D01*
X238892Y237165D01*
X239335Y237608D01*
X239575Y238187D01*
Y238813D01*
X239335Y239392D01*
X238892Y239835D01*
X238313Y240075D01*
D02*
G37*
G36*
X196313Y232075D02*
X195687D01*
X195108Y231835D01*
X194665Y231392D01*
X194425Y230813D01*
Y230187D01*
X194665Y229608D01*
X195108Y229165D01*
X195286Y229091D01*
Y228463D01*
X194917Y228310D01*
X194892Y228335D01*
X194313Y228575D01*
X193687D01*
X193108Y228335D01*
X192665Y227892D01*
X192425Y227313D01*
Y226687D01*
X192665Y226108D01*
X193108Y225665D01*
X193286Y225591D01*
Y215960D01*
X192917Y215807D01*
X192892Y215832D01*
X192313Y216072D01*
X191687D01*
X191108Y215832D01*
X190665Y215389D01*
X190425Y214810D01*
Y214183D01*
X190665Y213605D01*
X191108Y213162D01*
X191687Y212922D01*
X192313D01*
X192892Y213162D01*
X192917Y213186D01*
X193286Y213033D01*
Y212089D01*
X192886Y211889D01*
X192438Y212075D01*
X191812D01*
X191233Y211835D01*
X190790Y211392D01*
X190550Y210813D01*
Y210187D01*
X190790Y209608D01*
X191233Y209165D01*
X191411Y209091D01*
Y187381D01*
X191012Y187216D01*
X190892Y187335D01*
X190363Y187554D01*
X190307Y187585D01*
X190069Y187975D01*
X190077Y188015D01*
Y199820D01*
X190365Y200108D01*
X190605Y200687D01*
Y201313D01*
X190365Y201892D01*
X189922Y202335D01*
X189344Y202575D01*
X188717D01*
X188138Y202335D01*
X187695Y201892D01*
X187614Y201695D01*
X187214Y201775D01*
Y222591D01*
X187392Y222665D01*
X187835Y223108D01*
X188075Y223687D01*
Y224313D01*
X187835Y224892D01*
X187392Y225335D01*
X186813Y225575D01*
X186187D01*
X185608Y225335D01*
X185165Y224892D01*
X184925Y224313D01*
Y223687D01*
X185165Y223108D01*
X185608Y222665D01*
X185786Y222591D01*
Y220848D01*
X185386Y220768D01*
X185335Y220892D01*
X184892Y221335D01*
X184313Y221575D01*
X183687D01*
X183108Y221335D01*
X182665Y220892D01*
X182425Y220313D01*
Y219687D01*
X182665Y219108D01*
X183108Y218665D01*
X183286Y218591D01*
Y185393D01*
X183341Y185120D01*
X183495Y184888D01*
X184621Y183762D01*
X184550Y183592D01*
Y182965D01*
X184790Y182386D01*
X185233Y181943D01*
X185812Y181704D01*
X186438D01*
X186886Y181889D01*
X187286Y181690D01*
Y174942D01*
X187108Y174868D01*
X186665Y174425D01*
X186425Y173846D01*
Y173220D01*
X186665Y172641D01*
X187108Y172198D01*
X187687Y171958D01*
X188313D01*
X188892Y172198D01*
X188917Y172223D01*
X189286Y172070D01*
Y139909D01*
X189108Y139835D01*
X188665Y139392D01*
X188425Y138813D01*
Y138187D01*
X188665Y137608D01*
X189108Y137165D01*
X189687Y136925D01*
X190313D01*
X190892Y137165D01*
X191335Y137608D01*
X191511Y138034D01*
X191911Y137954D01*
Y69430D01*
X191498Y69017D01*
X191259Y68439D01*
Y67812D01*
X191498Y67233D01*
X191941Y66790D01*
X192520Y66550D01*
X193147D01*
X193726Y66790D01*
X194168Y67233D01*
X194408Y67812D01*
Y68108D01*
X194687Y68425D01*
X195313D01*
X195892Y68665D01*
X196335Y69108D01*
X196575Y69687D01*
Y70313D01*
X196944Y70425D01*
X197188D01*
X197767Y70665D01*
X198210Y71108D01*
X198450Y71687D01*
Y72313D01*
X198210Y72892D01*
X197767Y73335D01*
X197589Y73409D01*
Y73954D01*
X197988Y74034D01*
X198165Y73608D01*
X198608Y73165D01*
X199187Y72925D01*
X199813D01*
X200392Y73165D01*
X200835Y73608D01*
X201050Y74127D01*
X201135Y74141D01*
X201364D01*
X201450Y74127D01*
X201665Y73608D01*
X202108Y73165D01*
X202687Y72925D01*
X203313D01*
X203892Y73165D01*
X204335Y73608D01*
X204575Y74187D01*
Y74813D01*
X204335Y75392D01*
X203892Y75835D01*
X203706Y75912D01*
Y130804D01*
X210741Y137839D01*
X210894Y138068D01*
X210948Y138339D01*
Y152023D01*
X210948Y152023D01*
X210894Y152293D01*
X210741Y152522D01*
X209841Y153422D01*
X209950Y153684D01*
Y154310D01*
X209710Y154889D01*
X209267Y155332D01*
X208688Y155572D01*
X208062D01*
X207614Y155386D01*
X207214Y155585D01*
Y171537D01*
X207583Y171690D01*
X207608Y171665D01*
X208187Y171425D01*
X208813D01*
X209392Y171665D01*
X209835Y172108D01*
X210075Y172687D01*
Y173313D01*
X209835Y173892D01*
X209392Y174335D01*
X208813Y174575D01*
X208187D01*
X207608Y174335D01*
X207583Y174310D01*
X207214Y174463D01*
Y193425D01*
X207338D01*
X207917Y193665D01*
X208360Y194108D01*
X208599Y194687D01*
Y195313D01*
X208360Y195892D01*
X207917Y196335D01*
X207338Y196575D01*
X206711D01*
X206263Y196389D01*
X205863Y196589D01*
Y203425D01*
X206313D01*
X206892Y203665D01*
X207335Y204108D01*
X207575Y204687D01*
Y205313D01*
X207335Y205892D01*
X206892Y206335D01*
X206313Y206575D01*
X205687D01*
X205474Y206487D01*
X205074Y206754D01*
Y206813D01*
X204834Y207392D01*
X204391Y207835D01*
X203812Y208075D01*
X203186D01*
X202738Y207889D01*
X202338Y208089D01*
Y211280D01*
X202289Y211525D01*
X202291Y211564D01*
X202516Y211925D01*
X202813D01*
X203392Y212165D01*
X203835Y212608D01*
X204075Y213187D01*
Y213813D01*
X203835Y214392D01*
X203392Y214835D01*
X202813Y215075D01*
X202187D01*
X201608Y214835D01*
X201165Y214392D01*
X200925Y213813D01*
Y213554D01*
X200525Y213388D01*
X199814Y214099D01*
X199888Y214277D01*
Y214904D01*
X199648Y215483D01*
X199205Y215926D01*
X198626Y216165D01*
X198000D01*
X197421Y215926D01*
X197114Y215618D01*
X196714Y215784D01*
Y229091D01*
X196892Y229165D01*
X197335Y229608D01*
X197575Y230187D01*
Y230813D01*
X197335Y231392D01*
X196892Y231835D01*
X196313Y232075D01*
D02*
G37*
G36*
X182339Y311815D02*
X181549D01*
X180786Y311611D01*
X180102Y311216D01*
X179544Y310657D01*
X179149Y309973D01*
X178944Y309210D01*
Y308420D01*
X179149Y307657D01*
X179544Y306973D01*
X180102Y306414D01*
X180786Y306019D01*
X181549Y305815D01*
X182339D01*
X183102Y306019D01*
X183501Y306249D01*
X204286Y285464D01*
Y230284D01*
X204108Y230210D01*
X203665Y229767D01*
X203425Y229188D01*
Y228561D01*
X203665Y227983D01*
X204108Y227540D01*
X204687Y227300D01*
X205313D01*
X205892Y227540D01*
X206335Y227983D01*
X206575Y228561D01*
Y229188D01*
X206335Y229767D01*
X205892Y230210D01*
X205714Y230284D01*
Y285759D01*
X205659Y286032D01*
X205505Y286264D01*
X184510Y307259D01*
X184740Y307657D01*
X184944Y308420D01*
Y309210D01*
X184740Y309973D01*
X184345Y310657D01*
X183786Y311216D01*
X183102Y311611D01*
X182339Y311815D01*
D02*
G37*
G36*
X294813Y276075D02*
X294187D01*
X293608Y275835D01*
X293165Y275392D01*
X292925Y274813D01*
Y274187D01*
X293165Y273608D01*
X293608Y273165D01*
X293786Y273091D01*
Y229409D01*
X293608Y229335D01*
X293165Y228892D01*
X292925Y228313D01*
Y227687D01*
X293165Y227108D01*
X293608Y226665D01*
X294187Y226425D01*
X294813D01*
X295392Y226665D01*
X295835Y227108D01*
X296075Y227687D01*
Y228313D01*
X295835Y228892D01*
X295392Y229335D01*
X295214Y229409D01*
Y273091D01*
X295392Y273165D01*
X295835Y273608D01*
X296075Y274187D01*
Y274813D01*
X295835Y275392D01*
X295392Y275835D01*
X294813Y276075D01*
D02*
G37*
G36*
X131813Y214075D02*
X131187D01*
X130608Y213835D01*
X130165Y213392D01*
X129925Y212813D01*
Y212187D01*
X130165Y211608D01*
X130608Y211165D01*
X131187Y210925D01*
X131813D01*
X132392Y211165D01*
X132835Y211608D01*
X133075Y212187D01*
Y212813D01*
X132835Y213392D01*
X132392Y213835D01*
X131813Y214075D01*
D02*
G37*
G36*
X218813Y214575D02*
X218187D01*
X217608Y214335D01*
X217165Y213892D01*
X216925Y213313D01*
Y212687D01*
X217165Y212108D01*
X217608Y211665D01*
X217786Y211591D01*
Y210271D01*
X217734Y210239D01*
X217386Y210148D01*
X217017Y210517D01*
X216439Y210757D01*
X215812D01*
X215233Y210517D01*
X214790Y210074D01*
X214550Y209495D01*
Y208869D01*
X214790Y208290D01*
X215233Y207847D01*
X215411Y207773D01*
Y139875D01*
X215466Y139602D01*
X215620Y139370D01*
X217499Y137492D01*
X217425Y137313D01*
Y136687D01*
X217665Y136108D01*
X218108Y135665D01*
X218687Y135425D01*
X219313D01*
X219892Y135665D01*
X220335Y136108D01*
X220575Y136687D01*
Y137313D01*
X220335Y137892D01*
X220662Y138069D01*
X220892Y138165D01*
X221335Y138608D01*
X221575Y139187D01*
Y139813D01*
X221335Y140392D01*
X220892Y140835D01*
X220313Y141075D01*
X219687D01*
X219508Y141001D01*
X218214Y142296D01*
Y189253D01*
X218614Y189477D01*
X218786Y189370D01*
Y144500D01*
X218841Y144227D01*
X218995Y143995D01*
X218999Y143992D01*
X218925Y143813D01*
Y143187D01*
X219165Y142608D01*
X219608Y142165D01*
X220187Y141925D01*
X220813D01*
X221392Y142165D01*
X221835Y142608D01*
X222075Y143187D01*
Y143813D01*
X221835Y144392D01*
X221702Y144525D01*
X221868Y144925D01*
X222313D01*
X222892Y145165D01*
X223335Y145608D01*
X223575Y146187D01*
Y146813D01*
X223335Y147392D01*
X222892Y147835D01*
X222313Y148075D01*
X222013D01*
X221933Y148475D01*
X222392Y148665D01*
X222835Y149108D01*
X223075Y149687D01*
Y150313D01*
X222835Y150892D01*
X222392Y151335D01*
X221813Y151575D01*
X221187D01*
X220608Y151335D01*
X220583Y151310D01*
X220214Y151463D01*
Y189591D01*
X220392Y189665D01*
X220835Y190108D01*
X221075Y190687D01*
Y191313D01*
X220835Y191892D01*
X220392Y192335D01*
X219813Y192575D01*
X219187D01*
X218608Y192335D01*
X218583Y192310D01*
X218214Y192463D01*
Y206704D01*
X219005Y207495D01*
X219159Y207727D01*
X219214Y208000D01*
Y211591D01*
X219392Y211665D01*
X219835Y212108D01*
X220075Y212687D01*
Y213313D01*
X219835Y213892D01*
X219392Y214335D01*
X218813Y214575D01*
D02*
G37*
G36*
X162813Y212075D02*
X162187D01*
X161608Y211835D01*
X161165Y211392D01*
X160925Y210813D01*
Y210187D01*
X161165Y209608D01*
X161608Y209165D01*
X162187Y208925D01*
X162813D01*
X163392Y209165D01*
X163835Y209608D01*
X164075Y210187D01*
Y210813D01*
X163835Y211392D01*
X163392Y211835D01*
X162813Y212075D01*
D02*
G37*
G36*
X290148Y314714D02*
X177129D01*
X176856Y314659D01*
X176625Y314505D01*
X173501Y311381D01*
X173102Y311611D01*
X172339Y311815D01*
X171549D01*
X170786Y311611D01*
X170102Y311216D01*
X169544Y310657D01*
X169149Y309973D01*
X168944Y309210D01*
Y308420D01*
X169149Y307657D01*
X169544Y306973D01*
X170102Y306414D01*
X170786Y306019D01*
X171549Y305815D01*
X172339D01*
X173102Y306019D01*
X173786Y306414D01*
X174345Y306973D01*
X174740Y307657D01*
X174944Y308420D01*
Y309210D01*
X174740Y309973D01*
X174510Y310371D01*
X177425Y313286D01*
X289829D01*
X289841Y313227D01*
X289995Y312995D01*
X298786Y304204D01*
Y208909D01*
X298608Y208835D01*
X298165Y208392D01*
X297925Y207813D01*
Y207187D01*
X298165Y206608D01*
X298608Y206165D01*
X299187Y205925D01*
X299813D01*
X300392Y206165D01*
X300835Y206608D01*
X301075Y207187D01*
Y207813D01*
X300835Y208392D01*
X300392Y208835D01*
X300214Y208909D01*
Y304500D01*
X300159Y304773D01*
X300005Y305005D01*
X291177Y313832D01*
X291159Y313922D01*
X291005Y314153D01*
X290653Y314505D01*
X290422Y314659D01*
X290148Y314714D01*
D02*
G37*
G36*
X132813Y206075D02*
X132187D01*
X131608Y205835D01*
X131165Y205392D01*
X130925Y204813D01*
Y204187D01*
X131165Y203608D01*
X131608Y203165D01*
X132187Y202925D01*
X132813D01*
X133392Y203165D01*
X133835Y203608D01*
X134075Y204187D01*
Y204813D01*
X133835Y205392D01*
X133392Y205835D01*
X132813Y206075D01*
D02*
G37*
G36*
X91002Y208644D02*
X85202D01*
Y202844D01*
X91002D01*
Y208644D01*
D02*
G37*
G36*
X80610D02*
X79847D01*
X79109Y208446D01*
X78448Y208065D01*
X77908Y207525D01*
X77526Y206863D01*
X77328Y206126D01*
Y205362D01*
X77526Y204625D01*
X77908Y203963D01*
X78448Y203423D01*
X79109Y203042D01*
X79847Y202844D01*
X80610D01*
X81348Y203042D01*
X82009Y203423D01*
X82549Y203963D01*
X82931Y204625D01*
X83128Y205362D01*
Y206126D01*
X82931Y206863D01*
X82549Y207525D01*
X82009Y208065D01*
X81348Y208446D01*
X80610Y208644D01*
D02*
G37*
G36*
X305494Y208366D02*
X304742D01*
X304016Y208172D01*
X303366Y207796D01*
X302834Y207264D01*
X302458Y206613D01*
X302264Y205888D01*
Y205136D01*
X302458Y204410D01*
X302834Y203759D01*
X303366Y203228D01*
X304016Y202852D01*
X304742Y202657D01*
X305494D01*
X306220Y202852D01*
X306871Y203228D01*
X307402Y203759D01*
X307778Y204410D01*
X307973Y205136D01*
Y205888D01*
X307778Y206613D01*
X307402Y207264D01*
X306871Y207796D01*
X306220Y208172D01*
X305494Y208366D01*
D02*
G37*
G36*
X268536Y205836D02*
X267910D01*
X267331Y205597D01*
X266888Y205154D01*
X266648Y204575D01*
Y203948D01*
X266888Y203369D01*
X267314Y202943D01*
X266888Y202516D01*
X266648Y201938D01*
Y201311D01*
X266888Y200732D01*
X267331Y200289D01*
X267910Y200050D01*
X268536D01*
X269115Y200289D01*
X269558Y200732D01*
X269798Y201311D01*
Y201867D01*
X275623D01*
X278729Y198761D01*
X278563Y198361D01*
X273777D01*
Y198913D01*
X273537Y199492D01*
X273095Y199935D01*
X272516Y200175D01*
X271889D01*
X271310Y199935D01*
X270867Y199492D01*
X270628Y198913D01*
Y198287D01*
X270867Y197708D01*
X271298Y197277D01*
X270867Y196846D01*
X270628Y196267D01*
Y195641D01*
X270867Y195062D01*
X271310Y194619D01*
X271889Y194379D01*
X272516D01*
X273095Y194619D01*
X273537Y195062D01*
X273777Y195641D01*
Y196196D01*
X284103D01*
X286229Y194070D01*
X286430Y193936D01*
X286668Y193888D01*
X301657D01*
Y193333D01*
X301897Y192754D01*
X302340Y192311D01*
X302919Y192071D01*
X303545D01*
X304124Y192311D01*
X304567Y192754D01*
X304807Y193333D01*
Y193959D01*
X304567Y194538D01*
X304150Y194955D01*
X304568Y195372D01*
X304807Y195951D01*
Y196578D01*
X304568Y197156D01*
X304124Y197599D01*
X303546Y197839D01*
X302919D01*
X302340Y197599D01*
X301897Y197156D01*
X301658Y196578D01*
Y196053D01*
X287477D01*
X287300Y196278D01*
X287421Y196706D01*
X287729Y196834D01*
X288172Y197276D01*
X288411Y197855D01*
Y198482D01*
X288172Y199061D01*
X287766Y199466D01*
X288172Y199872D01*
X288412Y200451D01*
Y201078D01*
X288172Y201656D01*
X287729Y202099D01*
X287150Y202339D01*
X286524D01*
X285945Y202099D01*
X285502Y201656D01*
X285262Y201078D01*
Y200576D01*
X279976D01*
X276702Y203849D01*
X276500Y203984D01*
X276262Y204032D01*
X269798D01*
Y204575D01*
X269558Y205154D01*
X269115Y205597D01*
X268536Y205836D01*
D02*
G37*
G36*
X88484Y200770D02*
X87721D01*
X86983Y200572D01*
X86322Y200190D01*
X85782Y199651D01*
X85400Y198989D01*
X85202Y198252D01*
Y197488D01*
X85400Y196751D01*
X85782Y196089D01*
X86322Y195549D01*
X86983Y195168D01*
X87721Y194970D01*
X88484D01*
X89222Y195168D01*
X89883Y195549D01*
X90423Y196089D01*
X90805Y196751D01*
X91002Y197488D01*
Y198252D01*
X90805Y198989D01*
X90423Y199651D01*
X89883Y200190D01*
X89222Y200572D01*
X88484Y200770D01*
D02*
G37*
G36*
X80610D02*
X79847D01*
X79109Y200572D01*
X78448Y200190D01*
X77908Y199651D01*
X77526Y198989D01*
X77328Y198252D01*
Y197488D01*
X77526Y196751D01*
X77908Y196089D01*
X78448Y195549D01*
X79109Y195168D01*
X79847Y194970D01*
X80610D01*
X81348Y195168D01*
X82009Y195549D01*
X82549Y196089D01*
X82931Y196751D01*
X83128Y197488D01*
Y198252D01*
X82931Y198989D01*
X82549Y199651D01*
X82009Y200190D01*
X81348Y200572D01*
X80610Y200770D01*
D02*
G37*
G36*
X267313Y196575D02*
X266687D01*
X266108Y196335D01*
X265665Y195892D01*
X265425Y195313D01*
Y194687D01*
X265665Y194108D01*
X266108Y193665D01*
X266687Y193425D01*
X267313D01*
X267892Y193665D01*
X268335Y194108D01*
X268575Y194687D01*
Y195313D01*
X268335Y195892D01*
X267892Y196335D01*
X267313Y196575D01*
D02*
G37*
G36*
X224313D02*
X223687D01*
X223108Y196335D01*
X222665Y195892D01*
X222425Y195313D01*
Y194687D01*
X222665Y194108D01*
X223108Y193665D01*
X223687Y193425D01*
X224313D01*
X224892Y193665D01*
X225335Y194108D01*
X225575Y194687D01*
Y195313D01*
X225335Y195892D01*
X224892Y196335D01*
X224313Y196575D01*
D02*
G37*
G36*
X88484Y192896D02*
X87721D01*
X86983Y192698D01*
X86322Y192316D01*
X85782Y191777D01*
X85400Y191115D01*
X85202Y190378D01*
Y189614D01*
X85400Y188877D01*
X85782Y188215D01*
X86322Y187675D01*
X86983Y187294D01*
X87721Y187096D01*
X88484D01*
X89222Y187294D01*
X89883Y187675D01*
X90423Y188215D01*
X90805Y188877D01*
X91002Y189614D01*
Y190378D01*
X90805Y191115D01*
X90423Y191777D01*
X89883Y192316D01*
X89222Y192698D01*
X88484Y192896D01*
D02*
G37*
G36*
X80610D02*
X79847D01*
X79109Y192698D01*
X78448Y192316D01*
X77908Y191777D01*
X77526Y191115D01*
X77328Y190378D01*
Y189614D01*
X77526Y188877D01*
X77908Y188215D01*
X78448Y187675D01*
X79109Y187294D01*
X79847Y187096D01*
X80610D01*
X81348Y187294D01*
X82009Y187675D01*
X82549Y188215D01*
X82931Y188877D01*
X83128Y189614D01*
Y190378D01*
X82931Y191115D01*
X82549Y191777D01*
X82009Y192316D01*
X81348Y192698D01*
X80610Y192896D01*
D02*
G37*
G36*
X28675Y214967D02*
X26443D01*
X24239Y214618D01*
X22116Y213928D01*
X20127Y212915D01*
X18322Y211603D01*
X16744Y210025D01*
X15432Y208219D01*
X14418Y206230D01*
X13729Y204108D01*
X13379Y201903D01*
Y199671D01*
X13729Y197467D01*
X14418Y195344D01*
X15432Y193356D01*
X16744Y191550D01*
X18322Y189972D01*
X20127Y188660D01*
X22116Y187647D01*
X24239Y186957D01*
X26443Y186608D01*
X28675D01*
X30879Y186957D01*
X33002Y187647D01*
X34991Y188660D01*
X36796Y189972D01*
X38375Y191550D01*
X39687Y193356D01*
X40700Y195344D01*
X41389Y197467D01*
X41739Y199671D01*
Y201903D01*
X41389Y204108D01*
X40700Y206230D01*
X39687Y208219D01*
X38375Y210025D01*
X36796Y211603D01*
X34991Y212915D01*
X33002Y213928D01*
X30879Y214618D01*
X28675Y214967D01*
D02*
G37*
G36*
X305494Y191043D02*
X304742D01*
X304016Y190849D01*
X303366Y190473D01*
X302834Y189942D01*
X302458Y189291D01*
X302264Y188565D01*
Y187813D01*
X302458Y187087D01*
X302834Y186436D01*
X303366Y185905D01*
X304016Y185529D01*
X304742Y185335D01*
X305494D01*
X306220Y185529D01*
X306871Y185905D01*
X307402Y186436D01*
X307778Y187087D01*
X307973Y187813D01*
Y188565D01*
X307778Y189291D01*
X307402Y189942D01*
X306871Y190473D01*
X306220Y190849D01*
X305494Y191043D01*
D02*
G37*
G36*
X69975Y187569D02*
X69348D01*
X68769Y187329D01*
X68326Y186886D01*
X68087Y186307D01*
Y185681D01*
X68326Y185102D01*
X68769Y184659D01*
X69348Y184419D01*
X69975D01*
X70553Y184659D01*
X70996Y185102D01*
X71236Y185681D01*
Y186307D01*
X70996Y186886D01*
X70553Y187329D01*
X69975Y187569D01*
D02*
G37*
G36*
X80728Y185404D02*
Y182622D01*
X83511D01*
X83303Y183396D01*
X82869Y184148D01*
X82255Y184763D01*
X81502Y185197D01*
X80728Y185404D01*
D02*
G37*
G36*
X79728Y185404D02*
X78955Y185197D01*
X78202Y184763D01*
X77588Y184148D01*
X77153Y183396D01*
X76946Y182622D01*
X79728D01*
Y185404D01*
D02*
G37*
G36*
X213313Y214075D02*
X212687D01*
X212108Y213835D01*
X211665Y213392D01*
X211425Y212813D01*
Y212187D01*
X211665Y211608D01*
X211798Y211475D01*
X211632Y211075D01*
X211187D01*
X210608Y210835D01*
X210165Y210392D01*
X209925Y209813D01*
Y209187D01*
X210165Y208608D01*
X210608Y208165D01*
X210786Y208091D01*
Y181589D01*
X210386Y181389D01*
X209939Y181575D01*
X209312D01*
X208733Y181335D01*
X208290Y180892D01*
X208050Y180313D01*
Y179687D01*
X208290Y179108D01*
X208733Y178665D01*
X209312Y178425D01*
X209939D01*
X210386Y178611D01*
X210786Y178411D01*
Y168909D01*
X210608Y168835D01*
X210165Y168392D01*
X209925Y167813D01*
Y167187D01*
X210165Y166608D01*
X210608Y166165D01*
X211187Y165925D01*
X211813D01*
X212261Y166111D01*
X212661Y165911D01*
Y115963D01*
X212715Y115690D01*
X212786Y115584D01*
Y85909D01*
X212608Y85835D01*
X212165Y85392D01*
X211925Y84813D01*
Y84187D01*
X212165Y83608D01*
X212608Y83165D01*
X213187Y82925D01*
X213813D01*
X214392Y83165D01*
X214835Y83608D01*
X215075Y84187D01*
Y84813D01*
X214835Y85392D01*
X214392Y85835D01*
X214214Y85909D01*
Y115838D01*
X214159Y116111D01*
X214089Y116217D01*
Y211361D01*
X214335Y211608D01*
X214575Y212187D01*
Y212813D01*
X214335Y213392D01*
X213892Y213835D01*
X213313Y214075D01*
D02*
G37*
G36*
X262813Y182575D02*
X262187D01*
X261608Y182335D01*
X261165Y181892D01*
X260925Y181313D01*
Y180687D01*
X261165Y180108D01*
X261608Y179665D01*
X262187Y179425D01*
X262813D01*
X263392Y179665D01*
X263835Y180108D01*
X264075Y180687D01*
Y181313D01*
X263835Y181892D01*
X263392Y182335D01*
X262813Y182575D01*
D02*
G37*
G36*
X88484Y185022D02*
X87721D01*
X86983Y184824D01*
X86322Y184442D01*
X85782Y183903D01*
X85400Y183241D01*
X85202Y182504D01*
Y181740D01*
X85400Y181003D01*
X85782Y180341D01*
X86322Y179801D01*
X86983Y179420D01*
X87721Y179222D01*
X88484D01*
X89222Y179420D01*
X89883Y179801D01*
X90423Y180341D01*
X90805Y181003D01*
X91002Y181740D01*
Y182504D01*
X90805Y183241D01*
X90423Y183903D01*
X89883Y184442D01*
X89222Y184824D01*
X88484Y185022D01*
D02*
G37*
G36*
X79728Y181622D02*
X76946D01*
X77153Y180848D01*
X77588Y180096D01*
X78202Y179481D01*
X78955Y179047D01*
X79728Y178840D01*
Y181622D01*
D02*
G37*
G36*
X83511D02*
X80728D01*
Y178840D01*
X81502Y179047D01*
X82255Y179481D01*
X82869Y180096D01*
X83303Y180848D01*
X83511Y181622D01*
D02*
G37*
G36*
X64475Y179516D02*
X63848D01*
X63270Y179276D01*
X62827Y178833D01*
X62587Y178254D01*
Y177628D01*
X62827Y177049D01*
X63270Y176606D01*
X63848Y176366D01*
X64475D01*
X65054Y176606D01*
X65497Y177049D01*
X65736Y177628D01*
Y178254D01*
X65497Y178833D01*
X65054Y179276D01*
X64475Y179516D01*
D02*
G37*
G36*
X250813Y200575D02*
X250187D01*
X249608Y200335D01*
X249165Y199892D01*
X248925Y199313D01*
Y198687D01*
X249165Y198108D01*
X249608Y197665D01*
X249794Y197588D01*
Y114912D01*
X249608Y114835D01*
X249165Y114392D01*
X248925Y113813D01*
Y113187D01*
X249165Y112608D01*
X249608Y112165D01*
X250187Y111925D01*
X250813D01*
X251392Y112165D01*
X251835Y112608D01*
X252075Y113187D01*
Y113813D01*
X251835Y114392D01*
X251392Y114835D01*
X251206Y114912D01*
Y162295D01*
X251575Y162448D01*
X251608Y162415D01*
X252187Y162176D01*
X252813D01*
X253392Y162415D01*
X253835Y162858D01*
X254075Y163437D01*
Y164064D01*
X253835Y164643D01*
X253392Y165085D01*
X252813Y165325D01*
X252187D01*
X251608Y165085D01*
X251575Y165053D01*
X251206Y165206D01*
Y175544D01*
X251575Y175697D01*
X251608Y175665D01*
X252187Y175425D01*
X252813D01*
X253392Y175665D01*
X253835Y176108D01*
X254075Y176687D01*
Y177313D01*
X253835Y177892D01*
X253392Y178335D01*
X252813Y178575D01*
X252187D01*
X251608Y178335D01*
X251575Y178303D01*
X251206Y178456D01*
Y197588D01*
X251392Y197665D01*
X251835Y198108D01*
X252075Y198687D01*
Y199313D01*
X251835Y199892D01*
X251392Y200335D01*
X250813Y200575D01*
D02*
G37*
G36*
X88602Y177530D02*
Y174748D01*
X91385D01*
X91177Y175522D01*
X90743Y176274D01*
X90129Y176889D01*
X89376Y177323D01*
X88602Y177530D01*
D02*
G37*
G36*
X87602Y177530D02*
X86829Y177323D01*
X86076Y176889D01*
X85462Y176274D01*
X85027Y175522D01*
X84820Y174748D01*
X87602D01*
Y177530D01*
D02*
G37*
G36*
X80728D02*
Y174748D01*
X83511D01*
X83303Y175522D01*
X82869Y176274D01*
X82255Y176889D01*
X81502Y177323D01*
X80728Y177530D01*
D02*
G37*
G36*
X79728Y177530D02*
X78955Y177323D01*
X78202Y176889D01*
X77588Y176274D01*
X77153Y175522D01*
X76946Y174748D01*
X79728D01*
Y177530D01*
D02*
G37*
G36*
X91385Y173748D02*
X88602D01*
Y170966D01*
X89376Y171173D01*
X90129Y171607D01*
X90743Y172222D01*
X91177Y172974D01*
X91385Y173748D01*
D02*
G37*
G36*
X79728Y173748D02*
X76946D01*
X77153Y172974D01*
X77588Y172222D01*
X78202Y171607D01*
X78955Y171173D01*
X79728Y170966D01*
Y173748D01*
D02*
G37*
G36*
X83511D02*
X80728D01*
Y170966D01*
X81502Y171173D01*
X82255Y171607D01*
X82869Y172222D01*
X83303Y172974D01*
X83511Y173748D01*
D02*
G37*
G36*
X87602Y173748D02*
X84820D01*
X85027Y172974D01*
X85462Y172222D01*
X86076Y171607D01*
X86829Y171173D01*
X87602Y170966D01*
Y173748D01*
D02*
G37*
G36*
X257813Y174075D02*
X257187D01*
X256608Y173835D01*
X256165Y173392D01*
X255925Y172813D01*
Y172187D01*
X256165Y171608D01*
X256608Y171165D01*
X257187Y170925D01*
X257813D01*
X258392Y171165D01*
X258835Y171608D01*
X259075Y172187D01*
Y172813D01*
X258835Y173392D01*
X258392Y173835D01*
X257813Y174075D01*
D02*
G37*
G36*
X174564Y200575D02*
X173937D01*
X173358Y200335D01*
X172915Y199892D01*
X172676Y199313D01*
Y198687D01*
X172915Y198108D01*
X173358Y197665D01*
X173537Y197591D01*
Y174127D01*
X173591Y173854D01*
X173746Y173622D01*
X175499Y171869D01*
X175425Y171690D01*
Y171064D01*
X175665Y170485D01*
X176108Y170042D01*
X176687Y169802D01*
X177313D01*
X177892Y170042D01*
X178335Y170485D01*
X178575Y171064D01*
Y171690D01*
X178335Y172269D01*
X177892Y172712D01*
X177313Y172952D01*
X176687D01*
X176508Y172878D01*
X174964Y174422D01*
Y197591D01*
X175143Y197665D01*
X175585Y198108D01*
X175825Y198687D01*
Y199313D01*
X175585Y199892D01*
X175143Y200335D01*
X174564Y200575D01*
D02*
G37*
G36*
X262813Y170575D02*
X262187D01*
X261608Y170335D01*
X261165Y169892D01*
X260925Y169313D01*
Y168687D01*
X261165Y168108D01*
X261608Y167665D01*
X262187Y167425D01*
X262813D01*
X263392Y167665D01*
X263835Y168108D01*
X264075Y168687D01*
Y169313D01*
X263835Y169892D01*
X263392Y170335D01*
X262813Y170575D01*
D02*
G37*
G36*
X88602Y169656D02*
Y166874D01*
X91385D01*
X91177Y167648D01*
X90743Y168400D01*
X90129Y169015D01*
X89376Y169449D01*
X88602Y169656D01*
D02*
G37*
G36*
X87602Y169656D02*
X86829Y169449D01*
X86076Y169015D01*
X85462Y168400D01*
X85027Y167648D01*
X84820Y166874D01*
X87602D01*
Y169656D01*
D02*
G37*
G36*
X135313Y183075D02*
X134687D01*
X134108Y182835D01*
X133665Y182392D01*
X133425Y181813D01*
Y181187D01*
X133665Y180608D01*
X134023Y180250D01*
X133665Y179892D01*
X133425Y179313D01*
Y178687D01*
X133665Y178108D01*
X134023Y177750D01*
X133665Y177392D01*
X133425Y176813D01*
Y176187D01*
X133665Y175608D01*
X134023Y175250D01*
X133665Y174892D01*
X133425Y174313D01*
Y173687D01*
X133665Y173108D01*
X134035Y172738D01*
X134078Y172500D01*
X134035Y172262D01*
X133665Y171892D01*
X133425Y171313D01*
Y170687D01*
X133665Y170108D01*
X134003Y169770D01*
X133651Y169418D01*
X133411Y168839D01*
Y168212D01*
X133651Y167634D01*
X134029Y167256D01*
X133665Y166892D01*
X133425Y166313D01*
Y165687D01*
X133665Y165108D01*
X134108Y164665D01*
X134687Y164425D01*
X135313D01*
X135892Y164665D01*
X136335Y165108D01*
X136575Y165687D01*
Y166313D01*
X136335Y166892D01*
X135957Y167270D01*
X136321Y167634D01*
X136561Y168212D01*
Y168839D01*
X136321Y169418D01*
X135983Y169756D01*
X136335Y170108D01*
X136575Y170687D01*
Y171313D01*
X136335Y171892D01*
X135965Y172262D01*
X135922Y172500D01*
X135965Y172738D01*
X136335Y173108D01*
X136575Y173687D01*
Y174313D01*
X136335Y174892D01*
X135977Y175250D01*
X136335Y175608D01*
X136575Y176187D01*
Y176813D01*
X136335Y177392D01*
X135977Y177750D01*
X136335Y178108D01*
X136575Y178687D01*
Y179313D01*
X136335Y179892D01*
X135977Y180250D01*
X136335Y180608D01*
X136575Y181187D01*
Y181813D01*
X136335Y182392D01*
X135892Y182835D01*
X135313Y183075D01*
D02*
G37*
G36*
X112813Y167575D02*
X112187D01*
X111608Y167335D01*
X111165Y166892D01*
X110925Y166313D01*
Y165687D01*
X111165Y165108D01*
X111608Y164665D01*
X112187Y164425D01*
X112813D01*
X113392Y164665D01*
X113835Y165108D01*
X114075Y165687D01*
Y166313D01*
X113835Y166892D01*
X113392Y167335D01*
X112813Y167575D01*
D02*
G37*
G36*
X257813Y167075D02*
X257187D01*
X256608Y166835D01*
X256165Y166392D01*
X255925Y165813D01*
Y165187D01*
X256165Y164608D01*
X256608Y164165D01*
X257187Y163925D01*
X257813D01*
X258392Y164165D01*
X258835Y164608D01*
X259075Y165187D01*
Y165813D01*
X258835Y166392D01*
X258392Y166835D01*
X257813Y167075D01*
D02*
G37*
G36*
X80610Y169274D02*
X79847D01*
X79109Y169076D01*
X78448Y168694D01*
X77908Y168155D01*
X77526Y167493D01*
X77328Y166756D01*
Y165992D01*
X77526Y165255D01*
X77908Y164593D01*
X78448Y164053D01*
X79109Y163672D01*
X79847Y163474D01*
X80610D01*
X81348Y163672D01*
X82009Y164053D01*
X82549Y164593D01*
X82931Y165255D01*
X83128Y165992D01*
Y166756D01*
X82931Y167493D01*
X82549Y168155D01*
X82009Y168694D01*
X81348Y169076D01*
X80610Y169274D01*
D02*
G37*
G36*
X91385Y165874D02*
X88602D01*
Y163092D01*
X89376Y163299D01*
X90129Y163733D01*
X90743Y164348D01*
X91177Y165100D01*
X91385Y165874D01*
D02*
G37*
G36*
X87602D02*
X84820D01*
X85027Y165100D01*
X85462Y164348D01*
X86076Y163733D01*
X86829Y163299D01*
X87602Y163092D01*
Y165874D01*
D02*
G37*
G36*
X228313Y165075D02*
X227687D01*
X227108Y164835D01*
X226665Y164392D01*
X226425Y163813D01*
Y163187D01*
X226665Y162608D01*
X227108Y162165D01*
X227687Y161925D01*
X228313D01*
X228892Y162165D01*
X229335Y162608D01*
X229575Y163187D01*
Y163813D01*
X229335Y164392D01*
X228892Y164835D01*
X228313Y165075D01*
D02*
G37*
G36*
X145813Y212025D02*
X145187D01*
X144608Y211785D01*
X144165Y211343D01*
X143925Y210764D01*
Y210137D01*
X144165Y209558D01*
X144608Y209115D01*
X144786Y209042D01*
Y164909D01*
X144608Y164835D01*
X144165Y164392D01*
X143925Y163813D01*
Y163187D01*
X144165Y162608D01*
X144608Y162165D01*
X145187Y161925D01*
X145813D01*
X146392Y162165D01*
X146835Y162608D01*
X147075Y163187D01*
Y163813D01*
X146835Y164392D01*
X146392Y164835D01*
X146214Y164909D01*
Y209042D01*
X146392Y209115D01*
X146835Y209558D01*
X147075Y210137D01*
Y210764D01*
X146835Y211343D01*
X146392Y211785D01*
X145813Y212025D01*
D02*
G37*
G36*
X183313Y163575D02*
X182687D01*
X182108Y163335D01*
X181665Y162892D01*
X181425Y162313D01*
Y161687D01*
X181499Y161508D01*
X176630Y156639D01*
X176475Y156408D01*
X176421Y156134D01*
Y57965D01*
X176108Y57835D01*
X175665Y57392D01*
X175425Y56813D01*
Y56187D01*
X175665Y55608D01*
X176108Y55165D01*
X176687Y54925D01*
X177313D01*
X177892Y55165D01*
X178335Y55608D01*
X178575Y56187D01*
Y56813D01*
X178335Y57392D01*
X177892Y57835D01*
X177848Y57853D01*
Y155839D01*
X182508Y160499D01*
X182687Y160425D01*
X183313D01*
X183892Y160665D01*
X184335Y161108D01*
X184575Y161687D01*
Y162313D01*
X184335Y162892D01*
X183892Y163335D01*
X183313Y163575D01*
D02*
G37*
G36*
X88484Y161400D02*
X87721D01*
X86983Y161202D01*
X86322Y160820D01*
X85782Y160281D01*
X85400Y159619D01*
X85202Y158882D01*
Y158118D01*
X85400Y157381D01*
X85782Y156719D01*
X86322Y156179D01*
X86983Y155798D01*
X87721Y155600D01*
X88484D01*
X89222Y155798D01*
X89883Y156179D01*
X90423Y156719D01*
X90805Y157381D01*
X91002Y158118D01*
Y158882D01*
X90805Y159619D01*
X90423Y160281D01*
X89883Y160820D01*
X89222Y161202D01*
X88484Y161400D01*
D02*
G37*
G36*
X80610D02*
X79847D01*
X79109Y161202D01*
X78448Y160820D01*
X77908Y160281D01*
X77526Y159619D01*
X77328Y158882D01*
Y158118D01*
X77526Y157381D01*
X77908Y156719D01*
X78448Y156179D01*
X79109Y155798D01*
X79847Y155600D01*
X80610D01*
X81348Y155798D01*
X82009Y156179D01*
X82549Y156719D01*
X82931Y157381D01*
X83128Y158118D01*
Y158882D01*
X82931Y159619D01*
X82549Y160281D01*
X82009Y160820D01*
X81348Y161202D01*
X80610Y161400D01*
D02*
G37*
G36*
X288950Y157210D02*
X288728D01*
Y150382D01*
X295556D01*
Y150604D01*
X295274Y152019D01*
X294722Y153353D01*
X293920Y154553D01*
X292899Y155574D01*
X291699Y156376D01*
X290366Y156928D01*
X288950Y157210D01*
D02*
G37*
G36*
X287728D02*
X287507D01*
X286091Y156928D01*
X284757Y156376D01*
X283557Y155574D01*
X282537Y154553D01*
X281735Y153353D01*
X281183Y152019D01*
X280901Y150604D01*
Y150382D01*
X287728D01*
Y157210D01*
D02*
G37*
G36*
X88484Y153526D02*
X87721D01*
X86983Y153328D01*
X86322Y152946D01*
X85782Y152407D01*
X85400Y151745D01*
X85202Y151008D01*
Y150244D01*
X85400Y149507D01*
X85782Y148845D01*
X86322Y148305D01*
X86983Y147924D01*
X87721Y147726D01*
X88484D01*
X89222Y147924D01*
X89883Y148305D01*
X90423Y148845D01*
X90805Y149507D01*
X91002Y150244D01*
Y151008D01*
X90805Y151745D01*
X90423Y152407D01*
X89883Y152946D01*
X89222Y153328D01*
X88484Y153526D01*
D02*
G37*
G36*
X80610D02*
X79847D01*
X79109Y153328D01*
X78448Y152946D01*
X77908Y152407D01*
X77526Y151745D01*
X77328Y151008D01*
Y150244D01*
X77526Y149507D01*
X77908Y148845D01*
X78448Y148305D01*
X79109Y147924D01*
X79847Y147726D01*
X80610D01*
X81348Y147924D01*
X82009Y148305D01*
X82549Y148845D01*
X82931Y149507D01*
X83128Y150244D01*
Y151008D01*
X82931Y151745D01*
X82549Y152407D01*
X82009Y152946D01*
X81348Y153328D01*
X80610Y153526D01*
D02*
G37*
G36*
X64313Y148575D02*
X63687D01*
X63108Y148335D01*
X62665Y147892D01*
X62425Y147313D01*
Y146687D01*
X62665Y146108D01*
X63108Y145665D01*
X63687Y145425D01*
X64313D01*
X64892Y145665D01*
X65335Y146108D01*
X65575Y146687D01*
Y147313D01*
X65335Y147892D01*
X64892Y148335D01*
X64313Y148575D01*
D02*
G37*
G36*
X295556Y149382D02*
X288728D01*
Y142554D01*
X288950D01*
X290366Y142836D01*
X291699Y143388D01*
X292899Y144190D01*
X293920Y145211D01*
X294722Y146411D01*
X295274Y147745D01*
X295556Y149160D01*
Y149382D01*
D02*
G37*
G36*
X287728D02*
X280901D01*
Y149160D01*
X281183Y147745D01*
X281735Y146411D01*
X282537Y145211D01*
X283557Y144190D01*
X284757Y143388D01*
X286091Y142836D01*
X287507Y142554D01*
X287728D01*
Y149382D01*
D02*
G37*
G36*
X88484Y145652D02*
X87721D01*
X86983Y145454D01*
X86322Y145072D01*
X85782Y144533D01*
X85400Y143871D01*
X85202Y143134D01*
Y142370D01*
X85400Y141633D01*
X85782Y140971D01*
X86322Y140431D01*
X86983Y140050D01*
X87721Y139852D01*
X88484D01*
X89222Y140050D01*
X89883Y140431D01*
X90423Y140971D01*
X90805Y141633D01*
X91002Y142370D01*
Y143134D01*
X90805Y143871D01*
X90423Y144533D01*
X89883Y145072D01*
X89222Y145454D01*
X88484Y145652D01*
D02*
G37*
G36*
X80610D02*
X79847D01*
X79109Y145454D01*
X78448Y145072D01*
X77908Y144533D01*
X77526Y143871D01*
X77328Y143134D01*
Y142370D01*
X77526Y141633D01*
X77908Y140971D01*
X78448Y140431D01*
X79109Y140050D01*
X79847Y139852D01*
X80610D01*
X81348Y140050D01*
X82009Y140431D01*
X82549Y140971D01*
X82931Y141633D01*
X83128Y142370D01*
Y143134D01*
X82931Y143871D01*
X82549Y144533D01*
X82009Y145072D01*
X81348Y145454D01*
X80610Y145652D01*
D02*
G37*
G36*
X278059Y141400D02*
Y138295D01*
X281163D01*
X280924Y139189D01*
X280449Y140013D01*
X279776Y140685D01*
X278953Y141160D01*
X278059Y141400D01*
D02*
G37*
G36*
X277059D02*
X276165Y141160D01*
X275342Y140685D01*
X274670Y140013D01*
X274194Y139189D01*
X273955Y138295D01*
X277059D01*
Y141400D01*
D02*
G37*
G36*
X229313Y141075D02*
X228687D01*
X228108Y140835D01*
X227665Y140392D01*
X227425Y139813D01*
Y139187D01*
X227665Y138608D01*
X228108Y138165D01*
X228687Y137925D01*
X229313D01*
X229892Y138165D01*
X230335Y138608D01*
X230575Y139187D01*
Y139813D01*
X230335Y140392D01*
X229892Y140835D01*
X229313Y141075D01*
D02*
G37*
G36*
X232813Y138575D02*
X232187D01*
X231608Y138335D01*
X231165Y137892D01*
X230925Y137313D01*
Y136687D01*
X231165Y136108D01*
X231608Y135665D01*
X232187Y135425D01*
X232813D01*
X233392Y135665D01*
X233835Y136108D01*
X234075Y136687D01*
Y137313D01*
X233835Y137892D01*
X233392Y138335D01*
X232813Y138575D01*
D02*
G37*
G36*
X281163Y137295D02*
X278059D01*
Y134191D01*
X278953Y134430D01*
X279776Y134906D01*
X280449Y135578D01*
X280924Y136402D01*
X281163Y137295D01*
D02*
G37*
G36*
X277059D02*
X273955D01*
X274194Y136402D01*
X274670Y135578D01*
X275342Y134906D01*
X276165Y134430D01*
X277059Y134191D01*
Y137295D01*
D02*
G37*
G36*
X88484Y137778D02*
X87721D01*
X86983Y137580D01*
X86322Y137198D01*
X85782Y136659D01*
X85400Y135997D01*
X85202Y135260D01*
Y134496D01*
X85400Y133759D01*
X85782Y133097D01*
X86322Y132557D01*
X86983Y132176D01*
X87721Y131978D01*
X88484D01*
X89222Y132176D01*
X89883Y132557D01*
X90423Y133097D01*
X90805Y133759D01*
X91002Y134496D01*
Y135260D01*
X90805Y135997D01*
X90423Y136659D01*
X89883Y137198D01*
X89222Y137580D01*
X88484Y137778D01*
D02*
G37*
G36*
X80610D02*
X79847D01*
X79109Y137580D01*
X78448Y137198D01*
X77908Y136659D01*
X77526Y135997D01*
X77328Y135260D01*
Y134496D01*
X77526Y133759D01*
X77908Y133097D01*
X78448Y132557D01*
X79109Y132176D01*
X79847Y131978D01*
X80610D01*
X81348Y132176D01*
X82009Y132557D01*
X82549Y133097D01*
X82931Y133759D01*
X83128Y134496D01*
Y135260D01*
X82931Y135997D01*
X82549Y136659D01*
X82009Y137198D01*
X81348Y137580D01*
X80610Y137778D01*
D02*
G37*
G36*
X162313Y132575D02*
X161687D01*
X161108Y132335D01*
X160665Y131892D01*
X160425Y131313D01*
Y130687D01*
X160665Y130108D01*
X161108Y129665D01*
X161687Y129425D01*
X162313D01*
X162892Y129665D01*
X163335Y130108D01*
X163575Y130687D01*
Y131313D01*
X163335Y131892D01*
X162892Y132335D01*
X162313Y132575D01*
D02*
G37*
G36*
X88602Y130286D02*
Y127504D01*
X91385D01*
X91177Y128278D01*
X90743Y129030D01*
X90129Y129645D01*
X89376Y130079D01*
X88602Y130286D01*
D02*
G37*
G36*
X87602Y130286D02*
X86829Y130079D01*
X86076Y129645D01*
X85462Y129030D01*
X85027Y128278D01*
X84820Y127504D01*
X87602D01*
Y130286D01*
D02*
G37*
G36*
X277982Y131164D02*
X277136D01*
X276320Y130945D01*
X275587Y130522D01*
X274990Y129924D01*
X274567Y129192D01*
X274348Y128375D01*
Y127530D01*
X274567Y126713D01*
X274990Y125981D01*
X275587Y125383D01*
X276320Y124961D01*
X277136Y124742D01*
X277982D01*
X278798Y124961D01*
X279531Y125383D01*
X280129Y125981D01*
X280551Y126713D01*
X280770Y127530D01*
Y128375D01*
X280551Y129192D01*
X280129Y129924D01*
X279531Y130522D01*
X278798Y130945D01*
X277982Y131164D01*
D02*
G37*
G36*
X80610Y129904D02*
X79847D01*
X79109Y129706D01*
X78448Y129324D01*
X77908Y128785D01*
X77526Y128123D01*
X77328Y127386D01*
Y126622D01*
X77526Y125885D01*
X77908Y125223D01*
X78448Y124683D01*
X79109Y124302D01*
X79847Y124104D01*
X80610D01*
X81348Y124302D01*
X82009Y124683D01*
X82549Y125223D01*
X82931Y125885D01*
X83128Y126622D01*
Y127386D01*
X82931Y128123D01*
X82549Y128785D01*
X82009Y129324D01*
X81348Y129706D01*
X80610Y129904D01*
D02*
G37*
G36*
X159313Y217775D02*
X158687D01*
X158108Y217535D01*
X157665Y217092D01*
X157425Y216513D01*
Y215887D01*
X157665Y215308D01*
X158108Y214865D01*
X158386Y214750D01*
Y128900D01*
X158441Y128627D01*
X158595Y128395D01*
X160999Y125992D01*
X160925Y125813D01*
Y125187D01*
X161165Y124608D01*
X161608Y124165D01*
X162187Y123925D01*
X162813D01*
X163392Y124165D01*
X163835Y124608D01*
X164075Y125187D01*
Y125813D01*
X163835Y126392D01*
X163392Y126835D01*
X162813Y127075D01*
X162187D01*
X162008Y127001D01*
X159814Y129196D01*
Y214832D01*
X159892Y214865D01*
X160335Y215308D01*
X160575Y215887D01*
Y216513D01*
X160335Y217092D01*
X159892Y217535D01*
X159313Y217775D01*
D02*
G37*
G36*
X91385Y126504D02*
X88602D01*
Y123722D01*
X89376Y123929D01*
X90129Y124363D01*
X90743Y124978D01*
X91177Y125730D01*
X91385Y126504D01*
D02*
G37*
G36*
X87602D02*
X84820D01*
X85027Y125730D01*
X85462Y124978D01*
X86076Y124363D01*
X86829Y123929D01*
X87602Y123722D01*
Y126504D01*
D02*
G37*
G36*
X244813Y151575D02*
X244187D01*
X243608Y151335D01*
X243165Y150892D01*
X242925Y150313D01*
Y149687D01*
X243165Y149108D01*
X243608Y148665D01*
X243786Y148591D01*
Y126409D01*
X243608Y126335D01*
X243165Y125892D01*
X242925Y125313D01*
Y124687D01*
X243165Y124108D01*
X243608Y123665D01*
X244187Y123425D01*
X244813D01*
X245392Y123665D01*
X245835Y124108D01*
X246075Y124687D01*
Y125313D01*
X245835Y125892D01*
X245392Y126335D01*
X245214Y126409D01*
Y148591D01*
X245392Y148665D01*
X245835Y149108D01*
X246075Y149687D01*
Y150313D01*
X245835Y150892D01*
X245392Y151335D01*
X244813Y151575D01*
D02*
G37*
G36*
X277982Y123290D02*
X277136D01*
X276320Y123071D01*
X275587Y122648D01*
X274990Y122050D01*
X274567Y121318D01*
X274348Y120501D01*
Y119656D01*
X274567Y118839D01*
X274990Y118107D01*
X275587Y117509D01*
X276320Y117087D01*
X277136Y116868D01*
X277982D01*
X278798Y117087D01*
X279531Y117509D01*
X280129Y118107D01*
X280551Y118839D01*
X280770Y119656D01*
Y120501D01*
X280551Y121318D01*
X280129Y122050D01*
X279531Y122648D01*
X278798Y123071D01*
X277982Y123290D01*
D02*
G37*
G36*
X88484Y122030D02*
X87721D01*
X86983Y121832D01*
X86322Y121450D01*
X85782Y120911D01*
X85400Y120249D01*
X85202Y119512D01*
Y118748D01*
X85400Y118011D01*
X85782Y117349D01*
X86322Y116809D01*
X86983Y116428D01*
X87721Y116230D01*
X88484D01*
X89222Y116428D01*
X89883Y116809D01*
X90423Y117349D01*
X90805Y118011D01*
X91002Y118748D01*
Y119512D01*
X90805Y120249D01*
X90423Y120911D01*
X89883Y121450D01*
X89222Y121832D01*
X88484Y122030D01*
D02*
G37*
G36*
X80610D02*
X79847D01*
X79109Y121832D01*
X78448Y121450D01*
X77908Y120911D01*
X77526Y120249D01*
X77328Y119512D01*
Y118748D01*
X77526Y118011D01*
X77908Y117349D01*
X78448Y116809D01*
X79109Y116428D01*
X79847Y116230D01*
X80610D01*
X81348Y116428D01*
X82009Y116809D01*
X82549Y117349D01*
X82931Y118011D01*
X83128Y118748D01*
Y119512D01*
X82931Y120249D01*
X82549Y120911D01*
X82009Y121450D01*
X81348Y121832D01*
X80610Y122030D01*
D02*
G37*
G36*
X162813Y114075D02*
X162187D01*
X161608Y113835D01*
X161165Y113392D01*
X160925Y112813D01*
Y112187D01*
X161165Y111608D01*
X161608Y111165D01*
X162187Y110925D01*
X162813D01*
X163392Y111165D01*
X163835Y111608D01*
X164075Y112187D01*
Y112813D01*
X163835Y113392D01*
X163392Y113835D01*
X162813Y114075D01*
D02*
G37*
G36*
X88484Y114156D02*
X87721D01*
X86983Y113958D01*
X86322Y113576D01*
X85782Y113037D01*
X85400Y112375D01*
X85202Y111638D01*
Y110874D01*
X85400Y110137D01*
X85782Y109475D01*
X86322Y108935D01*
X86983Y108554D01*
X87721Y108356D01*
X88484D01*
X89222Y108554D01*
X89883Y108935D01*
X90423Y109475D01*
X90805Y110137D01*
X91002Y110874D01*
Y111638D01*
X90805Y112375D01*
X90423Y113037D01*
X89883Y113576D01*
X89222Y113958D01*
X88484Y114156D01*
D02*
G37*
G36*
X80610D02*
X79847D01*
X79109Y113958D01*
X78448Y113576D01*
X77908Y113037D01*
X77526Y112375D01*
X77328Y111638D01*
Y110874D01*
X77526Y110137D01*
X77908Y109475D01*
X78448Y108935D01*
X79109Y108554D01*
X79847Y108356D01*
X80610D01*
X81348Y108554D01*
X82009Y108935D01*
X82549Y109475D01*
X82931Y110137D01*
X83128Y110874D01*
Y111638D01*
X82931Y112375D01*
X82549Y113037D01*
X82009Y113576D01*
X81348Y113958D01*
X80610Y114156D01*
D02*
G37*
G36*
X280770Y113447D02*
X274348D01*
Y107025D01*
X280770D01*
Y113447D01*
D02*
G37*
G36*
X263813Y138575D02*
X263187D01*
X262608Y138335D01*
X262165Y137892D01*
X261925Y137313D01*
Y136687D01*
X262165Y136108D01*
X262608Y135665D01*
X262794Y135588D01*
Y107412D01*
X262608Y107335D01*
X262165Y106892D01*
X261925Y106313D01*
Y105687D01*
X262165Y105108D01*
X262608Y104665D01*
X263187Y104425D01*
X263813D01*
X264392Y104665D01*
X264835Y105108D01*
X265075Y105687D01*
Y106313D01*
X264835Y106892D01*
X264392Y107335D01*
X264206Y107412D01*
Y135588D01*
X264392Y135665D01*
X264835Y136108D01*
X265075Y136687D01*
Y137313D01*
X264835Y137892D01*
X264392Y138335D01*
X263813Y138575D01*
D02*
G37*
G36*
X156113Y215950D02*
X155487D01*
X154908Y215710D01*
X154465Y215267D01*
X154225Y214688D01*
Y214061D01*
X154465Y213483D01*
X154908Y213040D01*
X155086Y212966D01*
Y107200D01*
X155141Y106927D01*
X155295Y106695D01*
X156499Y105492D01*
X156425Y105313D01*
Y104687D01*
X156665Y104108D01*
X157108Y103665D01*
X157687Y103425D01*
X158313D01*
X158892Y103665D01*
X159335Y104108D01*
X159575Y104687D01*
Y105313D01*
X159335Y105892D01*
X158892Y106335D01*
X158313Y106575D01*
X157687D01*
X157508Y106501D01*
X156514Y107496D01*
Y212966D01*
X156692Y213040D01*
X157135Y213483D01*
X157375Y214061D01*
Y214688D01*
X157135Y215267D01*
X156692Y215710D01*
X156113Y215950D01*
D02*
G37*
G36*
X88484Y106282D02*
X87721D01*
X86983Y106084D01*
X86322Y105702D01*
X85782Y105162D01*
X85400Y104501D01*
X85202Y103764D01*
Y103000D01*
X85400Y102262D01*
X85782Y101601D01*
X86322Y101061D01*
X86983Y100679D01*
X87721Y100482D01*
X88484D01*
X89222Y100679D01*
X89883Y101061D01*
X90423Y101601D01*
X90805Y102262D01*
X91002Y103000D01*
Y103764D01*
X90805Y104501D01*
X90423Y105162D01*
X89883Y105702D01*
X89222Y106084D01*
X88484Y106282D01*
D02*
G37*
G36*
X80610D02*
X79847D01*
X79109Y106084D01*
X78448Y105702D01*
X77908Y105162D01*
X77526Y104501D01*
X77328Y103764D01*
Y103000D01*
X77526Y102262D01*
X77908Y101601D01*
X78448Y101061D01*
X79109Y100679D01*
X79847Y100482D01*
X80610D01*
X81348Y100679D01*
X82009Y101061D01*
X82549Y101601D01*
X82931Y102262D01*
X83128Y103000D01*
Y103764D01*
X82931Y104501D01*
X82549Y105162D01*
X82009Y105702D01*
X81348Y106084D01*
X80610Y106282D01*
D02*
G37*
G36*
X288950Y105477D02*
X288728D01*
Y98650D01*
X295556D01*
Y98871D01*
X295274Y100287D01*
X294722Y101621D01*
X293920Y102821D01*
X292899Y103841D01*
X291699Y104643D01*
X290366Y105196D01*
X288950Y105477D01*
D02*
G37*
G36*
X287728D02*
X287507D01*
X286091Y105196D01*
X284757Y104643D01*
X283557Y103841D01*
X282537Y102821D01*
X281735Y101621D01*
X281183Y100287D01*
X280901Y98871D01*
Y98650D01*
X287728D01*
Y105477D01*
D02*
G37*
G36*
X247813Y148075D02*
X247187D01*
X246608Y147835D01*
X246165Y147392D01*
X245925Y146813D01*
Y146187D01*
X246165Y145608D01*
X246608Y145165D01*
X246786Y145091D01*
Y97409D01*
X246608Y97335D01*
X246165Y96892D01*
X245925Y96313D01*
Y95687D01*
X246165Y95108D01*
X246608Y94665D01*
X247187Y94425D01*
X247813D01*
X248392Y94665D01*
X248835Y95108D01*
X249075Y95687D01*
Y96313D01*
X248835Y96892D01*
X248392Y97335D01*
X248214Y97409D01*
Y145091D01*
X248392Y145165D01*
X248835Y145608D01*
X249075Y146187D01*
Y146813D01*
X248835Y147392D01*
X248392Y147835D01*
X247813Y148075D01*
D02*
G37*
G36*
X227313Y97575D02*
X226687D01*
X226108Y97335D01*
X225665Y96892D01*
X225425Y96313D01*
Y95687D01*
X225665Y95108D01*
X226108Y94665D01*
X226687Y94425D01*
X227313D01*
X227892Y94665D01*
X228335Y95108D01*
X228575Y95687D01*
Y96313D01*
X228335Y96892D01*
X227892Y97335D01*
X227313Y97575D01*
D02*
G37*
G36*
X88484Y98408D02*
X87721D01*
X86983Y98210D01*
X86322Y97828D01*
X85782Y97288D01*
X85400Y96627D01*
X85202Y95890D01*
Y95126D01*
X85400Y94388D01*
X85782Y93727D01*
X86322Y93187D01*
X86983Y92805D01*
X87721Y92608D01*
X88484D01*
X89222Y92805D01*
X89883Y93187D01*
X90423Y93727D01*
X90805Y94388D01*
X91002Y95126D01*
Y95890D01*
X90805Y96627D01*
X90423Y97288D01*
X89883Y97828D01*
X89222Y98210D01*
X88484Y98408D01*
D02*
G37*
G36*
X80610D02*
X79847D01*
X79109Y98210D01*
X78448Y97828D01*
X77908Y97288D01*
X77526Y96627D01*
X77328Y95890D01*
Y95126D01*
X77526Y94388D01*
X77908Y93727D01*
X78448Y93187D01*
X79109Y92805D01*
X79847Y92608D01*
X80610D01*
X81348Y92805D01*
X82009Y93187D01*
X82549Y93727D01*
X82931Y94388D01*
X83128Y95126D01*
Y95890D01*
X82931Y96627D01*
X82549Y97288D01*
X82009Y97828D01*
X81348Y98210D01*
X80610Y98408D01*
D02*
G37*
G36*
X295556Y97650D02*
X288728D01*
Y90822D01*
X288950D01*
X290366Y91104D01*
X291699Y91656D01*
X292899Y92458D01*
X293920Y93479D01*
X294722Y94679D01*
X295274Y96012D01*
X295556Y97428D01*
Y97650D01*
D02*
G37*
G36*
X287728D02*
X280901D01*
Y97428D01*
X281183Y96012D01*
X281735Y94679D01*
X282537Y93479D01*
X283557Y92458D01*
X284757Y91656D01*
X286091Y91104D01*
X287507Y90822D01*
X287728D01*
Y97650D01*
D02*
G37*
G36*
X127916Y92575D02*
X127289D01*
X126710Y92335D01*
X126267Y91892D01*
X126028Y91313D01*
Y90687D01*
X126267Y90108D01*
X126710Y89665D01*
X127289Y89425D01*
X127916D01*
X128495Y89665D01*
X128937Y90108D01*
X129177Y90687D01*
Y91313D01*
X128937Y91892D01*
X128495Y92335D01*
X127916Y92575D01*
D02*
G37*
G36*
X114000Y89618D02*
Y88500D01*
X115118D01*
X114929Y88955D01*
X114455Y89429D01*
X114000Y89618D01*
D02*
G37*
G36*
X113000D02*
X112545Y89429D01*
X112071Y88955D01*
X111882Y88500D01*
X113000D01*
Y89618D01*
D02*
G37*
G36*
X108916Y90575D02*
X108289D01*
X107710Y90335D01*
X107267Y89892D01*
X107028Y89313D01*
Y88687D01*
X107267Y88108D01*
X107710Y87665D01*
X108289Y87425D01*
X108916D01*
X109494Y87665D01*
X109938Y88108D01*
X110177Y88687D01*
Y89313D01*
X109938Y89892D01*
X109494Y90335D01*
X108916Y90575D01*
D02*
G37*
G36*
X115118Y87500D02*
X114000D01*
Y86382D01*
X114455Y86571D01*
X114929Y87045D01*
X115118Y87500D01*
D02*
G37*
G36*
X113000D02*
X111882D01*
X112071Y87045D01*
X112545Y86571D01*
X113000Y86382D01*
Y87500D01*
D02*
G37*
G36*
X69975Y88771D02*
X69348D01*
X68769Y88532D01*
X68326Y88089D01*
X68087Y87510D01*
Y86883D01*
X68326Y86305D01*
X68769Y85862D01*
X69348Y85622D01*
X69975D01*
X70553Y85862D01*
X70996Y86305D01*
X71236Y86883D01*
Y87510D01*
X70996Y88089D01*
X70553Y88532D01*
X69975Y88771D01*
D02*
G37*
G36*
X88484Y90534D02*
X87721D01*
X86983Y90336D01*
X86322Y89954D01*
X85782Y89414D01*
X85400Y88753D01*
X85202Y88016D01*
Y87252D01*
X85400Y86514D01*
X85782Y85853D01*
X86322Y85313D01*
X86983Y84931D01*
X87721Y84734D01*
X88484D01*
X89222Y84931D01*
X89883Y85313D01*
X90423Y85853D01*
X90805Y86514D01*
X91002Y87252D01*
Y88016D01*
X90805Y88753D01*
X90423Y89414D01*
X89883Y89954D01*
X89222Y90336D01*
X88484Y90534D01*
D02*
G37*
G36*
X80610D02*
X79847D01*
X79109Y90336D01*
X78448Y89954D01*
X77908Y89414D01*
X77526Y88753D01*
X77328Y88016D01*
Y87252D01*
X77526Y86514D01*
X77908Y85853D01*
X78448Y85313D01*
X79109Y84931D01*
X79847Y84734D01*
X80610D01*
X81348Y84931D01*
X82009Y85313D01*
X82549Y85853D01*
X82931Y86514D01*
X83128Y87252D01*
Y88016D01*
X82931Y88753D01*
X82549Y89414D01*
X82009Y89954D01*
X81348Y90336D01*
X80610Y90534D01*
D02*
G37*
G36*
X112634Y81530D02*
Y80412D01*
X113751D01*
X113563Y80867D01*
X113089Y81341D01*
X112634Y81530D01*
D02*
G37*
G36*
X111634D02*
X111179Y81341D01*
X110705Y80867D01*
X110516Y80412D01*
X111634D01*
Y81530D01*
D02*
G37*
G36*
X88602Y83042D02*
Y80260D01*
X91385D01*
X91177Y81033D01*
X90743Y81786D01*
X90129Y82400D01*
X89376Y82835D01*
X88602Y83042D01*
D02*
G37*
G36*
X87602Y83042D02*
X86829Y82835D01*
X86076Y82400D01*
X85462Y81786D01*
X85027Y81033D01*
X84820Y80260D01*
X87602D01*
Y83042D01*
D02*
G37*
G36*
X113751Y79412D02*
X112634D01*
Y78295D01*
X113089Y78483D01*
X113563Y78957D01*
X113751Y79412D01*
D02*
G37*
G36*
X111634D02*
X110516D01*
X110705Y78957D01*
X111179Y78483D01*
X111634Y78295D01*
Y79412D01*
D02*
G37*
G36*
X80610Y82660D02*
X79847D01*
X79109Y82462D01*
X78448Y82080D01*
X77908Y81540D01*
X77526Y80879D01*
X77328Y80142D01*
Y79378D01*
X77526Y78640D01*
X77908Y77979D01*
X78448Y77439D01*
X79109Y77057D01*
X79847Y76860D01*
X80610D01*
X81348Y77057D01*
X82009Y77439D01*
X82549Y77979D01*
X82931Y78640D01*
X83128Y79378D01*
Y80142D01*
X82931Y80879D01*
X82549Y81540D01*
X82009Y82080D01*
X81348Y82462D01*
X80610Y82660D01*
D02*
G37*
G36*
X91385Y79260D02*
X88602D01*
Y76477D01*
X89376Y76685D01*
X90129Y77119D01*
X90743Y77733D01*
X91177Y78486D01*
X91385Y79260D01*
D02*
G37*
G36*
X87602D02*
X84820D01*
X85027Y78486D01*
X85462Y77733D01*
X86076Y77119D01*
X86829Y76685D01*
X87602Y76477D01*
Y79260D01*
D02*
G37*
G36*
X134313Y76075D02*
X133687D01*
X133108Y75835D01*
X132665Y75392D01*
X132425Y74813D01*
Y74187D01*
X132665Y73608D01*
X133108Y73165D01*
X133687Y72925D01*
X134313D01*
X134892Y73165D01*
X135335Y73608D01*
X135575Y74187D01*
Y74813D01*
X135335Y75392D01*
X134892Y75835D01*
X134313Y76075D01*
D02*
G37*
G36*
X130813Y73575D02*
X130187D01*
X129608Y73335D01*
X129165Y72892D01*
X128925Y72313D01*
Y71687D01*
X129165Y71108D01*
X129608Y70665D01*
X130187Y70425D01*
X130556D01*
X130839Y70339D01*
X130925Y70056D01*
Y69687D01*
X131165Y69108D01*
X131608Y68665D01*
X132187Y68425D01*
X132813D01*
X133392Y68665D01*
X133835Y69108D01*
X134075Y69687D01*
Y70313D01*
X133835Y70892D01*
X133392Y71335D01*
X132813Y71575D01*
X132444D01*
X132161Y71661D01*
X132075Y71944D01*
Y72313D01*
X131835Y72892D01*
X131392Y73335D01*
X130813Y73575D01*
D02*
G37*
G36*
X114813Y69575D02*
X114187D01*
X113608Y69335D01*
X113165Y68892D01*
X112925Y68313D01*
Y67687D01*
X113165Y67108D01*
X113608Y66665D01*
X114187Y66425D01*
X114813D01*
X115392Y66665D01*
X115835Y67108D01*
X116075Y67687D01*
Y68313D01*
X115835Y68892D01*
X115392Y69335D01*
X114813Y69575D01*
D02*
G37*
G36*
X117813Y67075D02*
X117187D01*
X116608Y66835D01*
X116165Y66392D01*
X115925Y65813D01*
Y65187D01*
X116165Y64608D01*
X116608Y64165D01*
X117187Y63925D01*
X117813D01*
X118392Y64165D01*
X118835Y64608D01*
X119075Y65187D01*
Y65813D01*
X118835Y66392D01*
X118392Y66835D01*
X117813Y67075D01*
D02*
G37*
G36*
X171313Y210087D02*
X170687D01*
X170108Y209848D01*
X169665Y209405D01*
X169425Y208826D01*
Y208199D01*
X169665Y207621D01*
X170108Y207177D01*
X170286Y207104D01*
Y64409D01*
X170108Y64335D01*
X169665Y63892D01*
X169425Y63313D01*
Y62687D01*
X169665Y62108D01*
X170108Y61665D01*
X170687Y61425D01*
X171313D01*
X171892Y61665D01*
X172335Y62108D01*
X172575Y62687D01*
Y63313D01*
X172335Y63892D01*
X171892Y64335D01*
X171714Y64409D01*
Y207104D01*
X171892Y207177D01*
X172335Y207621D01*
X172575Y208199D01*
Y208826D01*
X172335Y209405D01*
X171892Y209848D01*
X171313Y210087D01*
D02*
G37*
G36*
X137313Y64575D02*
X136687D01*
X136108Y64335D01*
X135665Y63892D01*
X135425Y63313D01*
Y62687D01*
X135665Y62108D01*
X136108Y61665D01*
X136687Y61425D01*
X137313D01*
X137892Y61665D01*
X138335Y62108D01*
X138575Y62687D01*
Y63313D01*
X138335Y63892D01*
X137892Y64335D01*
X137313Y64575D01*
D02*
G37*
G36*
X74313Y56075D02*
X73687D01*
X73108Y55835D01*
X72665Y55392D01*
X72425Y54813D01*
Y54187D01*
X72665Y53608D01*
X73108Y53165D01*
X73687Y52925D01*
X74313D01*
X74892Y53165D01*
X75335Y53608D01*
X75575Y54187D01*
Y54813D01*
X75335Y55392D01*
X74892Y55835D01*
X74313Y56075D01*
D02*
G37*
G36*
X96494Y50770D02*
X95711D01*
X94954Y50567D01*
X94276Y50176D01*
X93722Y49622D01*
X93330Y48943D01*
X93128Y48187D01*
Y47404D01*
X93330Y46647D01*
X93722Y45969D01*
X94276Y45415D01*
X94954Y45023D01*
X95711Y44820D01*
X96494D01*
X97251Y45023D01*
X97929Y45415D01*
X98483Y45969D01*
X98874Y46647D01*
X99077Y47404D01*
Y48187D01*
X98874Y48943D01*
X98483Y49622D01*
X97929Y50176D01*
X97251Y50567D01*
X96494Y50770D01*
D02*
G37*
G36*
Y25180D02*
X95711D01*
X94954Y24977D01*
X94276Y24585D01*
X93722Y24031D01*
X93330Y23353D01*
X93128Y22596D01*
Y21813D01*
X93330Y21057D01*
X93722Y20378D01*
X94276Y19824D01*
X94954Y19433D01*
X95711Y19230D01*
X96494D01*
X97251Y19433D01*
X97929Y19824D01*
X98483Y20378D01*
X98874Y21057D01*
X99077Y21813D01*
Y22596D01*
X98874Y23353D01*
X98483Y24031D01*
X97929Y24585D01*
X97251Y24977D01*
X96494Y25180D01*
D02*
G37*
G36*
X24738Y41739D02*
X22506D01*
X20302Y41389D01*
X18179Y40700D01*
X16190Y39687D01*
X14385Y38375D01*
X12807Y36796D01*
X11495Y34991D01*
X10481Y33002D01*
X9792Y30879D01*
X9443Y28675D01*
Y26443D01*
X9792Y24239D01*
X10481Y22116D01*
X11495Y20127D01*
X12807Y18322D01*
X14385Y16744D01*
X16190Y15432D01*
X18179Y14418D01*
X20302Y13729D01*
X22506Y13379D01*
X24738D01*
X26942Y13729D01*
X29065Y14418D01*
X31054Y15432D01*
X32859Y16744D01*
X34438Y18322D01*
X35750Y20127D01*
X36763Y22116D01*
X37452Y24239D01*
X37802Y26443D01*
Y28675D01*
X37452Y30879D01*
X36763Y33002D01*
X35750Y34991D01*
X34438Y36796D01*
X32859Y38375D01*
X31054Y39687D01*
X29065Y40700D01*
X26942Y41389D01*
X24738Y41739D01*
D02*
G37*
%LPD*%
G36*
X231108Y207165D02*
X231687Y206925D01*
X232313D01*
X232492Y206999D01*
X233161Y206330D01*
Y187549D01*
X232761Y187350D01*
X232313Y187535D01*
X231687D01*
X231108Y187296D01*
X230989Y187176D01*
X230589Y187342D01*
Y207119D01*
X230989Y207284D01*
X231108Y207165D01*
D02*
G37*
G36*
X200911Y210984D02*
Y206007D01*
X200511Y205842D01*
X200392Y205960D01*
X199813Y206200D01*
X199187D01*
X198608Y205960D01*
X198165Y205517D01*
X197925Y204939D01*
Y204312D01*
X198165Y203733D01*
X198608Y203290D01*
X199036Y203113D01*
Y198589D01*
X198636Y198389D01*
X198188Y198575D01*
X197562D01*
X197114Y198389D01*
X196714Y198589D01*
Y210019D01*
X197083Y210172D01*
X197108Y210148D01*
X197687Y209908D01*
X198313D01*
X198892Y210148D01*
X199335Y210591D01*
X199575Y211169D01*
Y211754D01*
X199682Y211841D01*
X199943Y211951D01*
X200911Y210984D01*
D02*
G37*
G36*
X185786Y219152D02*
Y189316D01*
X185529Y189058D01*
X185289Y188480D01*
Y187853D01*
X185529Y187274D01*
X185972Y186831D01*
X186550Y186592D01*
X187177D01*
X187286Y186519D01*
Y184867D01*
X186886Y184668D01*
X186438Y184853D01*
X185812D01*
X185626Y184776D01*
X184714Y185688D01*
Y218591D01*
X184892Y218665D01*
X185335Y219108D01*
X185386Y219232D01*
X185786Y219152D01*
D02*
G37*
G36*
X195286Y225253D02*
Y175247D01*
X194886Y175023D01*
X194714Y175130D01*
Y225370D01*
X194886Y225477D01*
X195286Y225253D01*
D02*
G37*
G36*
Y172037D02*
Y153296D01*
X194196Y152206D01*
X194042Y151974D01*
X193987Y151701D01*
Y148463D01*
X193711Y148288D01*
X193339Y148467D01*
Y152657D01*
X193517Y152731D01*
X193960Y153174D01*
X194200Y153752D01*
Y154379D01*
X193960Y154958D01*
X193517Y155401D01*
X192938Y155640D01*
X192312D01*
X191733Y155401D01*
X191290Y154958D01*
X191114Y154532D01*
X190714Y154611D01*
Y163261D01*
X191114Y163460D01*
X191562Y163275D01*
X192188D01*
X192767Y163514D01*
X193210Y163957D01*
X193450Y164536D01*
Y165163D01*
X193210Y165741D01*
X192839Y166112D01*
Y171911D01*
X193239Y172111D01*
X193687Y171925D01*
X194313D01*
X194892Y172165D01*
X194917Y172190D01*
X195286Y172037D01*
D02*
G37*
G36*
X200687Y167672D02*
Y154075D01*
X200187D01*
X199608Y153835D01*
X199165Y153392D01*
X198925Y152813D01*
Y152187D01*
X199165Y151608D01*
X199608Y151165D01*
X200187Y150925D01*
X200813D01*
X201392Y151165D01*
X201835Y151608D01*
X202075Y152187D01*
Y152813D01*
X201979Y153044D01*
X202060Y153164D01*
X202114Y153437D01*
Y165911D01*
X202514Y166111D01*
X202962Y165925D01*
X203588D01*
X204036Y166111D01*
X204436Y165911D01*
Y148486D01*
X204036Y148407D01*
X203835Y148892D01*
X203392Y149335D01*
X202813Y149575D01*
X202187D01*
X201608Y149335D01*
X201165Y148892D01*
X200925Y148313D01*
Y147687D01*
X201028Y147439D01*
X196370Y142781D01*
X196215Y142550D01*
X196161Y142277D01*
Y73813D01*
X196114Y73783D01*
X195714Y74006D01*
Y143204D01*
X197505Y144995D01*
X197659Y145227D01*
X197714Y145500D01*
Y149091D01*
X197892Y149165D01*
X198335Y149608D01*
X198575Y150187D01*
Y150813D01*
X198335Y151392D01*
X197892Y151835D01*
X197313Y152075D01*
X196687D01*
X196624Y152049D01*
X196397Y152388D01*
X196505Y152495D01*
X196659Y152727D01*
X196714Y153000D01*
Y165037D01*
X197083Y165190D01*
X197108Y165165D01*
X197687Y164925D01*
X198313D01*
X198892Y165165D01*
X199335Y165608D01*
X199575Y166187D01*
Y166813D01*
X199501Y166992D01*
X200254Y167745D01*
X200287Y167793D01*
X200687Y167672D01*
D02*
G37*
G36*
X204436Y147514D02*
Y143575D01*
X204312D01*
X203733Y143335D01*
X203290Y142892D01*
X203050Y142313D01*
Y141687D01*
X203290Y141108D01*
X203733Y140665D01*
X204312Y140425D01*
X204939D01*
X205386Y140611D01*
X205786Y140411D01*
Y139500D01*
X205359Y139073D01*
X205180Y139147D01*
X204554D01*
X203975Y138907D01*
X203532Y138464D01*
X203292Y137885D01*
Y137259D01*
X203532Y136680D01*
X203975Y136237D01*
X204554Y135997D01*
X204922D01*
X205088Y135597D01*
X198995Y129505D01*
X198841Y129273D01*
X198786Y129000D01*
Y75909D01*
X198608Y75835D01*
X198165Y75392D01*
X197988Y74966D01*
X197589Y75046D01*
Y141981D01*
X202078Y146470D01*
X202187Y146425D01*
X202813D01*
X203392Y146665D01*
X203835Y147108D01*
X204036Y147593D01*
X204436Y147514D01*
D02*
G37*
G36*
X202294Y130262D02*
Y75912D01*
X202108Y75835D01*
X201665Y75392D01*
X201450Y74873D01*
X201364Y74859D01*
X201135D01*
X201050Y74873D01*
X200835Y75392D01*
X200392Y75835D01*
X200214Y75909D01*
Y128704D01*
X201924Y130415D01*
X202294Y130262D01*
D02*
G37*
G36*
X193809Y145589D02*
X194388Y145349D01*
X195014D01*
X195458Y145533D01*
X195685Y145194D01*
X194495Y144005D01*
X194341Y143773D01*
X194286Y143500D01*
Y71409D01*
X194108Y71335D01*
X193739Y70966D01*
X193392Y71057D01*
X193339Y71089D01*
Y145493D01*
X193739Y145659D01*
X193809Y145589D01*
D02*
G37*
D14*
X192099Y165074D02*
Y165911D01*
X191875Y164849D02*
X192099Y165074D01*
X231000Y165625D02*
Y165942D01*
X232000Y166942D01*
Y183500D01*
X294500Y228000D02*
Y274500D01*
X159100Y128900D02*
X162500Y125500D01*
X159100Y128900D02*
Y216100D01*
X171000Y63000D02*
Y208512D01*
X219500Y144500D02*
Y191000D01*
Y144500D02*
X220500Y143500D01*
X177000Y56500D02*
X177135Y56634D01*
Y156134D01*
X183000Y162000D01*
X194701Y146924D02*
Y151701D01*
X196000Y153000D01*
X155800Y107200D02*
Y214375D01*
X145500Y163500D02*
Y210450D01*
X211500Y167500D02*
Y209500D01*
X205150Y204063D02*
X206000Y204913D01*
X206500Y194158D02*
X207025Y194683D01*
X205150Y142842D02*
Y204063D01*
X207025Y194683D02*
Y195000D01*
X204625Y142317D02*
X205150Y142842D01*
X204625Y142000D02*
Y142317D01*
X206500Y139205D02*
Y194158D01*
X206000Y204913D02*
Y205000D01*
X229692Y177283D02*
X229875Y177466D01*
Y212875D01*
X184000Y185393D02*
X186114Y183278D01*
X188000Y186651D02*
X189364Y188015D01*
X186114Y183278D02*
X186125D01*
X188000Y173533D02*
Y186651D01*
X227093Y175597D02*
X227283Y175408D01*
X227093Y175597D02*
Y178593D01*
X244500Y125000D02*
Y150000D01*
X197750Y196875D02*
X197875Y197000D01*
X196000Y153000D02*
Y230500D01*
X197750Y171685D02*
Y196875D01*
X199724Y203713D02*
X199750Y203688D01*
Y168250D02*
Y203688D01*
X199500Y204625D02*
X199724Y204401D01*
Y203713D02*
Y204401D01*
X200500Y152500D02*
Y152537D01*
X201400Y153437D02*
Y187776D01*
X203275Y186999D02*
X203499Y187223D01*
Y206500D01*
X198000Y166500D02*
X199750Y168250D01*
X203275Y167500D02*
Y186999D01*
X201400Y187776D02*
X201624Y188000D01*
Y191000D02*
Y211280D01*
X200500Y152537D02*
X201400Y153437D01*
X217500Y142000D02*
X220000Y139500D01*
X218500Y208000D02*
Y213000D01*
X217500Y207000D02*
X218500Y208000D01*
X217500Y142000D02*
Y207000D01*
X213375Y115963D02*
X213500Y115838D01*
X213375Y115963D02*
Y211808D01*
X213500Y84500D02*
Y115838D01*
X196875Y142277D02*
X202500Y147902D01*
Y148000D01*
X196875Y72000D02*
Y142277D01*
X235817Y171500D02*
X238000Y173683D01*
Y238500D01*
X233875Y181526D02*
Y206625D01*
X227093Y178593D02*
X228000Y179500D01*
Y203000D01*
X192099Y165911D02*
X192125Y165937D01*
X190000Y138500D02*
Y186000D01*
X197000Y145500D02*
Y150500D01*
X195000Y143500D02*
X197000Y145500D01*
X197750Y171685D02*
X197774Y171661D01*
X198313Y214591D02*
X201624Y211280D01*
X204867Y137572D02*
X206500Y139205D01*
X195000Y70000D02*
Y143500D01*
X192625Y68334D02*
Y154066D01*
Y68334D02*
X192833Y68125D01*
X199500Y129000D02*
X208184Y137684D01*
X199500Y74500D02*
Y129000D01*
X208184Y137684D02*
Y147309D01*
X208375Y147500D01*
X194000Y173500D02*
Y227000D01*
X192125Y165937D02*
Y210500D01*
X235500Y171500D02*
X235817D01*
X237500Y169409D02*
Y169500D01*
X241500Y173500D01*
X225000Y142000D02*
Y184000D01*
X213000Y212183D02*
Y212500D01*
Y212183D02*
X213375Y211808D01*
X186640Y188391D02*
Y188964D01*
X186500Y189104D02*
X186640Y188964D01*
Y188391D02*
X186864Y188166D01*
X186500Y189104D02*
Y224000D01*
X197774Y169976D02*
Y171661D01*
Y169976D02*
X197875Y169875D01*
X189364Y188015D02*
Y200350D01*
X155800Y107200D02*
X158000Y105000D01*
X159000Y216200D02*
X159100Y216100D01*
X205000Y228875D02*
Y285759D01*
X216125Y139875D02*
Y209182D01*
Y139875D02*
X219000Y137000D01*
X181944Y308815D02*
X205000Y285759D01*
X241500Y173500D02*
Y236625D01*
X247500Y96000D02*
Y146500D01*
X184000Y185393D02*
Y220000D01*
X189030Y200683D02*
Y201000D01*
Y200683D02*
X189364Y200350D01*
X232000Y208500D02*
X233875Y206625D01*
X229875Y212875D02*
X230000Y213000D01*
X174250Y174127D02*
X177000Y171377D01*
X174250Y174127D02*
Y199000D01*
X248000Y206810D02*
X251060Y209870D01*
Y232800D01*
X290500Y313500D02*
X299500Y304500D01*
X177129Y314000D02*
X290148D01*
X290500Y313649D01*
Y313500D02*
Y313649D01*
X299500Y207500D02*
Y304500D01*
X171944Y308815D02*
X177129Y314000D01*
D128*
X263500Y106000D02*
Y137000D01*
X250500Y113500D02*
Y199000D01*
X203000Y74500D02*
Y131097D01*
X210242Y138339D02*
Y152023D01*
X208375Y153890D02*
X210242Y152023D01*
X208375Y153890D02*
Y153997D01*
X203000Y131097D02*
X210242Y138339D01*
D130*
X23622Y27559D02*
D03*
X27559Y200787D02*
D03*
D131*
X96102Y22205D02*
D03*
Y47795D02*
D03*
D132*
X151202Y333700D02*
D03*
D133*
Y338621D02*
D03*
D134*
X191944Y338815D02*
D03*
D135*
X181944D02*
D03*
Y308815D02*
D03*
X191944D02*
D03*
X171944Y338815D02*
D03*
X161944D02*
D03*
X171944Y308815D02*
D03*
X161944D02*
D03*
D136*
X246139Y232800D02*
D03*
D137*
X251060D02*
D03*
X255981D02*
D03*
X260902D02*
D03*
D138*
X80228Y150626D02*
D03*
Y158500D02*
D03*
Y166374D02*
D03*
Y174248D02*
D03*
Y182122D02*
D03*
Y189996D02*
D03*
Y197870D02*
D03*
Y205744D02*
D03*
X88102Y150626D02*
D03*
Y158500D02*
D03*
Y166374D02*
D03*
Y174248D02*
D03*
Y182122D02*
D03*
Y189996D02*
D03*
Y197870D02*
D03*
X80228Y142752D02*
D03*
Y79760D02*
D03*
Y87634D02*
D03*
Y95508D02*
D03*
Y103382D02*
D03*
Y111256D02*
D03*
Y119130D02*
D03*
Y127004D02*
D03*
Y134878D02*
D03*
X88102Y79760D02*
D03*
Y87634D02*
D03*
Y95508D02*
D03*
Y103382D02*
D03*
Y111256D02*
D03*
Y119130D02*
D03*
Y127004D02*
D03*
Y134878D02*
D03*
Y142752D02*
D03*
D139*
Y205744D02*
D03*
D140*
X277559Y110236D02*
D03*
D141*
Y120079D02*
D03*
Y127953D02*
D03*
Y137795D02*
D03*
D142*
X288228Y98150D02*
D03*
Y149882D02*
D03*
D143*
X316929Y338386D02*
D03*
Y299409D02*
D03*
D144*
X288189Y336811D02*
D03*
Y323425D02*
D03*
Y302953D02*
D03*
D145*
X305118Y205512D02*
D03*
Y188189D02*
D03*
D146*
X113500Y88000D02*
D03*
X112134Y79912D02*
D03*
X191875Y164849D02*
D03*
X252500Y163750D02*
D03*
X231000Y165625D02*
D03*
X294500Y228000D02*
D03*
X171000Y63000D02*
D03*
X221500Y150000D02*
D03*
X222000Y146500D02*
D03*
X177000Y56500D02*
D03*
X194701Y146924D02*
D03*
X155800Y214375D02*
D03*
X145500Y210450D02*
D03*
X162500Y210500D02*
D03*
X209625Y180000D02*
D03*
X208500Y173000D02*
D03*
X229692Y177283D02*
D03*
X186125Y183278D02*
D03*
X188000Y173533D02*
D03*
X227283Y175408D02*
D03*
X244500Y125000D02*
D03*
X197875Y197000D02*
D03*
X201624Y191000D02*
D03*
Y188000D02*
D03*
X199500Y204625D02*
D03*
X134986Y168526D02*
D03*
X219500Y191000D02*
D03*
X213500Y84500D02*
D03*
X202500Y148000D02*
D03*
X263500Y137000D02*
D03*
X250500Y113500D02*
D03*
Y199000D02*
D03*
X233875Y177000D02*
D03*
Y181526D02*
D03*
X211500Y167500D02*
D03*
X197000Y150500D02*
D03*
X203499Y206500D02*
D03*
X204625Y142000D02*
D03*
X196875Y72000D02*
D03*
X203000Y74500D02*
D03*
X199500D02*
D03*
X195000Y70000D02*
D03*
X134000Y74500D02*
D03*
X137000Y63000D02*
D03*
X192833Y68125D02*
D03*
X208375Y147500D02*
D03*
X238000Y238500D02*
D03*
X235500Y228000D02*
D03*
X192000Y214497D02*
D03*
X192125Y210500D02*
D03*
X198000Y211483D02*
D03*
X235500Y171500D02*
D03*
X237500Y169409D02*
D03*
X225000Y184000D02*
D03*
Y142000D02*
D03*
X211500Y209500D02*
D03*
X204867Y137572D02*
D03*
X208375Y153997D02*
D03*
X207025Y195000D02*
D03*
X203275Y167500D02*
D03*
X200500Y152500D02*
D03*
X198000Y166500D02*
D03*
X197875Y169875D02*
D03*
X194000Y173500D02*
D03*
X186864Y188166D02*
D03*
X190000Y186000D02*
D03*
X171000Y208512D02*
D03*
X131500Y212500D02*
D03*
X159000Y216200D02*
D03*
X198313Y214591D02*
D03*
X192625Y154066D02*
D03*
X205000Y228875D02*
D03*
X202500Y213500D02*
D03*
X213000Y212500D02*
D03*
X226000Y205000D02*
D03*
X252500Y177000D02*
D03*
X216125Y209182D02*
D03*
X218500Y213000D02*
D03*
X220500Y143500D02*
D03*
X190000Y138500D02*
D03*
X194000Y227000D02*
D03*
X236125Y195000D02*
D03*
X247500Y146500D02*
D03*
X244500Y150000D02*
D03*
X229000Y139500D02*
D03*
X232500Y137000D02*
D03*
X220000Y139500D02*
D03*
X228000Y203000D02*
D03*
X232000Y208500D02*
D03*
X186500Y224000D02*
D03*
X189030Y201000D02*
D03*
X184000Y220000D02*
D03*
X174250Y199000D02*
D03*
X177000Y171377D02*
D03*
X257500Y172500D02*
D03*
X206000Y205000D02*
D03*
X224000Y195000D02*
D03*
X230000Y213000D02*
D03*
X236000Y187000D02*
D03*
X232000Y185961D02*
D03*
X304000Y239500D02*
D03*
X312000D02*
D03*
X241500Y236625D02*
D03*
X135000Y176500D02*
D03*
X196000Y230500D02*
D03*
X69661Y87197D02*
D03*
X162000Y131000D02*
D03*
X183000Y162000D02*
D03*
X74000Y54500D02*
D03*
X158000Y105000D02*
D03*
X162500Y125500D02*
D03*
X145500Y163500D02*
D03*
X112500Y166000D02*
D03*
X162500Y112500D02*
D03*
X64000Y147000D02*
D03*
X69661Y185994D02*
D03*
X248000Y206810D02*
D03*
X132500Y204500D02*
D03*
X117500Y65500D02*
D03*
X257500Y165500D02*
D03*
X263500Y106000D02*
D03*
X130500Y72000D02*
D03*
X132500Y70000D02*
D03*
X114500Y68000D02*
D03*
X228000Y163500D02*
D03*
X262500Y169000D02*
D03*
X232000Y183500D02*
D03*
X262500Y181000D02*
D03*
X267000Y195000D02*
D03*
X247500Y96000D02*
D03*
X227000D02*
D03*
X219000Y137000D02*
D03*
X299500Y207500D02*
D03*
X210500Y236000D02*
D03*
X208500Y230500D02*
D03*
X294500Y274500D02*
D03*
X312500Y251000D02*
D03*
Y259500D02*
D03*
X313000Y264000D02*
D03*
X312500Y268000D02*
D03*
X135000Y166000D02*
D03*
Y171000D02*
D03*
Y174000D02*
D03*
Y179000D02*
D03*
Y181500D02*
D03*
X201000Y328000D02*
D03*
X64161Y177941D02*
D03*
X238102Y328000D02*
D03*
X261102Y321000D02*
D03*
X266102Y337000D02*
D03*
Y318000D02*
D03*
X268223Y201624D02*
D03*
X272202Y198600D02*
D03*
Y195954D02*
D03*
X303232Y196264D02*
D03*
X303232Y193646D02*
D03*
X286837Y200764D02*
D03*
X286836Y198169D02*
D03*
X268223Y204262D02*
D03*
X267602Y250000D02*
D03*
X215102Y248500D02*
D03*
X157602Y264000D02*
D03*
X146602Y272500D02*
D03*
X153102Y298000D02*
D03*
X221102Y282000D02*
D03*
X157568Y255965D02*
D03*
X157602Y260000D02*
D03*
X160102Y254000D02*
D03*
Y266000D02*
D03*
Y262000D02*
D03*
X160068Y257965D02*
D03*
X273099Y304997D02*
D03*
X270099D02*
D03*
X267099D02*
D03*
X267102Y308000D02*
D03*
X271599Y306497D02*
D03*
X268599D02*
D03*
X270099Y307997D02*
D03*
X273099D02*
D03*
X183602Y295000D02*
D03*
X108602Y89000D02*
D03*
X127602Y91000D02*
D03*
D147*
X284361Y196818D02*
X286668Y194510D01*
X303175Y193646D02*
X303232D01*
X303144Y196264D02*
X303232D01*
X268223Y201624D02*
X268280D01*
X269145Y202489D02*
X275881D01*
X284742Y197739D02*
X287050Y195431D01*
X302310D02*
X303144Y196264D01*
X272202Y195954D02*
X272260D01*
X273124Y196818D01*
X284361D01*
X272202Y198600D02*
X272263D01*
X287050Y195431D02*
X302310D01*
X273124Y197739D02*
X284742D01*
X272263Y198600D02*
X273124Y197739D01*
X302310Y194510D02*
X303175Y193646D01*
X286668Y194510D02*
X302310D01*
X285914Y199033D02*
X286779Y198169D01*
X275881Y202489D02*
X279337Y199033D01*
X285914D01*
X268223Y204262D02*
X268293D01*
X276262Y203409D02*
X279718Y199954D01*
X285915D02*
X286726Y200764D01*
X268293Y204262D02*
X269145Y203409D01*
X276262D01*
X286779Y198169D02*
X286836D01*
X268280Y201624D02*
X269145Y202489D01*
X279718Y199954D02*
X285915D01*
X286726Y200764D02*
X286837D01*
M02*
