G04*
G04 #@! TF.GenerationSoftware,Altium Limited,Altium Designer,24.5.2 (23)*
G04*
G04 Layer_Physical_Order=3*
G04 Layer_Color=16440176*
%FSLAX25Y25*%
%MOIN*%
G70*
G04*
G04 #@! TF.SameCoordinates,0E20A4CB-0F74-4F35-8983-D76818566807*
G04*
G04*
G04 #@! TF.FilePolarity,Positive*
G04*
G01*
G75*
%ADD124R,0.05622X0.05622*%
%ADD125C,0.05622*%
%ADD126C,0.13055*%
%ADD127R,0.03347X0.03347*%
%ADD128C,0.03347*%
%ADD129R,0.05200X0.05200*%
%ADD130C,0.05200*%
%ADD131C,0.05150*%
%ADD132C,0.03969*%
%ADD133R,0.03969X0.03969*%
%ADD134C,0.03740*%
%ADD135O,0.05150X0.10299*%
%ADD136O,0.06535X0.13071*%
%ADD137C,0.05000*%
%ADD138R,0.05000X0.05000*%
D124*
X173331Y430854D02*
D03*
D125*
Y440697D02*
D03*
Y448571D02*
D03*
Y458413D02*
D03*
D126*
X184000Y418768D02*
D03*
Y470500D02*
D03*
D127*
X126000Y485500D02*
D03*
D128*
Y490421D02*
D03*
D129*
X122000Y533000D02*
D03*
D130*
Y523000D02*
D03*
X152000D02*
D03*
Y533000D02*
D03*
X122000Y513000D02*
D03*
Y503000D02*
D03*
X152000Y513000D02*
D03*
Y503000D02*
D03*
D131*
X150705Y343705D02*
D03*
Y369295D02*
D03*
D132*
X364421Y727000D02*
D03*
X369342D02*
D03*
X374264D02*
D03*
D133*
X379185D02*
D03*
D134*
X201831Y510035D02*
D03*
Y527358D02*
D03*
D135*
X260043Y462240D02*
D03*
X280516D02*
D03*
X293902D02*
D03*
D136*
X256500Y433500D02*
D03*
X295476D02*
D03*
D137*
X186500Y655496D02*
D03*
Y663370D02*
D03*
Y671244D02*
D03*
Y679118D02*
D03*
Y686992D02*
D03*
Y694866D02*
D03*
Y702740D02*
D03*
Y710614D02*
D03*
Y718488D02*
D03*
X194374Y663370D02*
D03*
Y671244D02*
D03*
Y679118D02*
D03*
Y686992D02*
D03*
Y694866D02*
D03*
Y702740D02*
D03*
Y710614D02*
D03*
Y718488D02*
D03*
Y655496D02*
D03*
X186500Y600378D02*
D03*
Y608252D02*
D03*
Y616126D02*
D03*
Y624000D02*
D03*
Y631874D02*
D03*
Y639748D02*
D03*
Y647622D02*
D03*
X194374Y592504D02*
D03*
Y600378D02*
D03*
Y608252D02*
D03*
Y616126D02*
D03*
Y624000D02*
D03*
Y631874D02*
D03*
Y639748D02*
D03*
Y647622D02*
D03*
D138*
X186500Y592504D02*
D03*
M02*
