G04*
G04 #@! TF.GenerationSoftware,Altium Limited,Altium Designer,24.5.2 (23)*
G04*
G04 Layer_Physical_Order=2*
G04 Layer_Color=36540*
%FSLAX25Y25*%
%MOIN*%
G70*
G04*
G04 #@! TF.SameCoordinates,3888050E-FDCC-460D-A68E-6E6C29DBF4DB*
G04*
G04*
G04 #@! TF.FilePolarity,Positive*
G04*
G01*
G75*
%ADD120R,0.03347X0.03347*%
%ADD121C,0.03347*%
%ADD122R,0.05200X0.05200*%
%ADD123C,0.05200*%
%ADD124C,0.05150*%
%ADD125C,0.03969*%
%ADD126R,0.03969X0.03969*%
%ADD127C,0.03740*%
%ADD128C,0.13055*%
%ADD129C,0.05622*%
%ADD130R,0.05622X0.05622*%
%ADD131O,0.05150X0.10299*%
%ADD132O,0.06535X0.13071*%
%ADD133C,0.05000*%
%ADD134R,0.05000X0.05000*%
D120*
X520000Y137000D02*
D03*
D121*
Y141921D02*
D03*
D122*
X516000Y184500D02*
D03*
D123*
Y174500D02*
D03*
X546000D02*
D03*
Y184500D02*
D03*
X516000Y164500D02*
D03*
Y154500D02*
D03*
X546000Y164500D02*
D03*
Y154500D02*
D03*
D124*
X600500Y131705D02*
D03*
Y157295D02*
D03*
D125*
X656157Y736095D02*
D03*
X661079D02*
D03*
X666000D02*
D03*
D126*
X670921D02*
D03*
D127*
X164303Y165831D02*
D03*
X146980D02*
D03*
D128*
X190500Y151000D02*
D03*
X242232D02*
D03*
D129*
X202587Y140331D02*
D03*
X212429D02*
D03*
X220303D02*
D03*
D130*
X230146D02*
D03*
D131*
X653067Y563740D02*
D03*
X673539D02*
D03*
X686925D02*
D03*
D132*
X649524Y535000D02*
D03*
X688500D02*
D03*
D133*
X191500Y657248D02*
D03*
Y665122D02*
D03*
Y672996D02*
D03*
Y680870D02*
D03*
Y688744D02*
D03*
Y696618D02*
D03*
Y704492D02*
D03*
Y712366D02*
D03*
Y720240D02*
D03*
X199374Y665122D02*
D03*
Y672996D02*
D03*
Y680870D02*
D03*
Y688744D02*
D03*
Y696618D02*
D03*
Y704492D02*
D03*
Y712366D02*
D03*
Y720240D02*
D03*
Y657248D02*
D03*
X191500Y602130D02*
D03*
Y610004D02*
D03*
Y617878D02*
D03*
Y625752D02*
D03*
Y633626D02*
D03*
Y641500D02*
D03*
Y649374D02*
D03*
X199374Y594256D02*
D03*
Y602130D02*
D03*
Y610004D02*
D03*
Y617878D02*
D03*
Y625752D02*
D03*
Y633626D02*
D03*
Y641500D02*
D03*
Y649374D02*
D03*
D134*
X191500Y594256D02*
D03*
M02*
