G04*
G04 #@! TF.GenerationSoftware,Altium Limited,Altium Designer,24.5.2 (23)*
G04*
G04 Layer_Color=65535*
%FSLAX25Y25*%
%MOIN*%
G70*
G04*
G04 #@! TF.SameCoordinates,0E20A4CB-0F74-4F35-8983-D76818566807*
G04*
G04*
G04 #@! TF.FilePolarity,Positive*
G04*
G01*
G75*
%ADD10C,0.00787*%
%ADD11C,0.01181*%
%ADD12C,0.00500*%
%ADD13C,0.00800*%
%ADD14C,0.00600*%
%ADD15C,0.01000*%
D10*
X204055Y668815D02*
X203268D01*
X204055D01*
X134571Y156390D02*
X133783D01*
X134571D01*
X137654Y196405D02*
X136866D01*
X137654D01*
X131394Y213252D02*
X130606D01*
X131394D01*
X204055Y597815D02*
X203268D01*
X204055D01*
X120610Y631740D02*
X119823D01*
X120610D01*
X119898Y615016D02*
X119110D01*
X119898D01*
X153595Y634327D02*
X152807D01*
X153595D01*
X154079Y612902D02*
X153291D01*
X154079D01*
Y597402D02*
X153291D01*
X154079D01*
X201319Y117213D02*
X200532D01*
X201319D01*
X259260Y718917D02*
X258472D01*
X259260D01*
X126394Y477035D02*
X125606D01*
X126394D01*
X261209Y345839D02*
X260421D01*
X261209D01*
X235472Y343287D02*
X234685D01*
X235472D01*
X230587Y186890D02*
X229799D01*
X230587D01*
X308228Y687622D02*
X307441D01*
X308228D01*
X294417Y661000D02*
X293630D01*
X294417D01*
X281224Y144315D02*
X280437D01*
X281224D01*
X283756Y186882D02*
X282968D01*
X283756D01*
X280413Y278315D02*
X279626D01*
X280413D01*
X178685Y278264D02*
X177898D01*
X178685D01*
X163185D02*
X162398D01*
X163185D01*
X147685D02*
X146898D01*
X147685D01*
X169047Y283185D02*
X168260D01*
X169047D01*
X379327Y732905D02*
X378539D01*
X379327D01*
X310366Y526224D02*
X309579D01*
X310366D01*
X180598Y379004D02*
X179811D01*
X180598D01*
X183327Y512398D02*
X182539D01*
X183327D01*
X301972Y462043D02*
X301185D01*
X301972D01*
X313642Y382520D02*
X312854D01*
X313642D01*
X278913Y236315D02*
X278126D01*
X278913D01*
D11*
X167228Y430854D02*
X166638Y431445D01*
X166047Y430854D01*
X166638Y430264D01*
X167228Y430854D01*
D12*
X205315Y677779D02*
X204685D01*
X205315D01*
X132591Y476500D02*
X131961D01*
X132591D01*
X174327Y356500D02*
X174305Y357503D01*
X174242Y358503D01*
X174135Y359500D01*
X173987Y360492D01*
X173797Y361477D01*
X173565Y362452D01*
X173291Y363417D01*
X172977Y364369D01*
X172623Y365308D01*
X172230Y366230D01*
X171798Y367135D01*
X171327Y368020D01*
X170820Y368885D01*
X170276Y369728D01*
X169697Y370547D01*
X169083Y371340D01*
X168437Y372107D01*
X167759Y372845D01*
X167050Y373554D01*
X166311Y374232D01*
X165545Y374879D01*
X164751Y375492D01*
X163933Y376071D01*
X163090Y376615D01*
X162225Y377122D01*
X161339Y377593D01*
X160435Y378025D01*
X159512Y378419D01*
X158574Y378773D01*
X157622Y379087D01*
X156657Y379360D01*
X155681Y379592D01*
X154697Y379782D01*
X153705Y379931D01*
X152708Y380037D01*
X151707Y380101D01*
X150705Y380122D01*
X149702Y380101D01*
X148701Y380037D01*
X147704Y379931D01*
X146713Y379782D01*
X145728Y379592D01*
X144753Y379360D01*
X143788Y379087D01*
X142835Y378773D01*
X141897Y378419D01*
X140975Y378025D01*
X140070Y377593D01*
X139184Y377122D01*
X138320Y376615D01*
X137477Y376071D01*
X136658Y375492D01*
X135865Y374879D01*
X135098Y374232D01*
X134360Y373554D01*
X133651Y372845D01*
X132972Y372107D01*
X132326Y371340D01*
X131713Y370546D01*
X131134Y369728D01*
X130590Y368885D01*
X130082Y368020D01*
X129612Y367135D01*
X129180Y366230D01*
X128786Y365308D01*
X128432Y364369D01*
X128118Y363417D01*
X127845Y362452D01*
X127613Y361477D01*
X127422Y360492D01*
X127274Y359500D01*
X127168Y358503D01*
X127104Y357503D01*
X127083Y356500D01*
X127104Y355497D01*
X127168Y354497D01*
X127274Y353500D01*
X127422Y352508D01*
X127613Y351523D01*
X127845Y350548D01*
X128118Y349583D01*
X128432Y348630D01*
X128786Y347692D01*
X129180Y346770D01*
X129612Y345865D01*
X130082Y344980D01*
X130590Y344115D01*
X131134Y343272D01*
X131713Y342454D01*
X132326Y341660D01*
X132972Y340894D01*
X133651Y340155D01*
X134360Y339446D01*
X135098Y338768D01*
X135865Y338121D01*
X136658Y337508D01*
X137477Y336929D01*
X138320Y336385D01*
X139184Y335878D01*
X140070Y335407D01*
X140975Y334975D01*
X141897Y334581D01*
X142835Y334227D01*
X143788Y333913D01*
X144753Y333640D01*
X145728Y333408D01*
X146713Y333218D01*
X147704Y333069D01*
X148702Y332963D01*
X149702Y332899D01*
X150705Y332878D01*
X151707Y332899D01*
X152708Y332963D01*
X153705Y333069D01*
X154697Y333218D01*
X155682Y333408D01*
X156657Y333640D01*
X157622Y333913D01*
X158574Y334227D01*
X159512Y334581D01*
X160435Y334975D01*
X161339Y335407D01*
X162225Y335878D01*
X163090Y336385D01*
X163933Y336929D01*
X164751Y337508D01*
X165545Y338121D01*
X166311Y338768D01*
X167050Y339446D01*
X167759Y340155D01*
X168437Y340894D01*
X169084Y341660D01*
X169697Y342454D01*
X170276Y343272D01*
X170820Y344115D01*
X171327Y344980D01*
X171798Y345865D01*
X172230Y346770D01*
X172623Y347692D01*
X172977Y348631D01*
X173291Y349583D01*
X173565Y350548D01*
X173797Y351523D01*
X173987Y352508D01*
X174135Y353500D01*
X174242Y354497D01*
X174305Y355498D01*
X174327Y356500D01*
X213445Y276937D02*
X212657D01*
X213445D01*
X213839D02*
X213051D01*
X213839D01*
X214002D02*
X213166Y277419D01*
Y276455D01*
X214002Y276937D01*
X214325D02*
X213885Y277699D01*
X213005D01*
X212564Y276937D01*
X213005Y276175D01*
X213885D01*
X214325Y276937D01*
X207008Y654445D02*
X210945Y650508D01*
X232992D01*
X210945Y676492D02*
X232992D01*
X207008Y672555D02*
X210945Y676492D01*
X207008Y667909D02*
Y672555D01*
Y654445D02*
Y659091D01*
X232992Y667909D02*
Y676492D01*
Y650508D02*
Y659091D01*
X169354Y418787D02*
Y470480D01*
X175299D01*
X193331D02*
X224472D01*
Y418787D02*
Y470480D01*
X193331Y418787D02*
X224472D01*
X169354D02*
X175299D01*
X140142Y149303D02*
X140811D01*
X140142Y157571D02*
X140811D01*
X134839Y203098D02*
Y209398D01*
X147161Y203098D02*
Y209398D01*
X119189Y224276D02*
Y233724D01*
X142811Y224276D02*
Y233724D01*
X207008Y583445D02*
X210945Y579508D01*
X232992D01*
X210945Y605492D02*
X232992D01*
X207008Y601555D02*
X210945Y605492D01*
X207008Y596910D02*
Y601555D01*
Y583445D02*
Y588091D01*
X232992Y596910D02*
Y605492D01*
Y579508D02*
Y588091D01*
X203504Y680811D02*
Y684197D01*
X206496Y680811D02*
Y684197D01*
X126909Y621858D02*
X133209D01*
X126909Y634142D02*
X133209D01*
X127339Y589917D02*
X144661D01*
X127339Y617083D02*
X144661D01*
X157866Y622106D02*
X164165D01*
X157866Y636744D02*
X164165D01*
X158350Y600681D02*
X164650D01*
X158350Y615319D02*
X164650D01*
X158350Y585181D02*
X164650D01*
X158350Y599819D02*
X164650D01*
X199409Y126988D02*
Y148012D01*
X220590Y126988D02*
Y148012D01*
X199409Y126988D02*
X200650D01*
X199409Y148012D02*
X200650D01*
X219350D02*
X220590D01*
X219350Y126988D02*
X220590D01*
X262547Y720669D02*
X263807D01*
X262547Y711260D02*
X263807D01*
X267193Y720669D02*
X268453D01*
X267193Y711260D02*
X268453D01*
X117831Y479595D02*
X130429D01*
X117831Y496327D02*
X130429D01*
X117831Y479595D02*
Y496327D01*
X130429Y479595D02*
Y496327D01*
X135307Y477996D02*
X138693D01*
X135307Y475004D02*
X138693D01*
X286311Y478244D02*
X290721D01*
X286311Y471236D02*
X290721D01*
X242508Y338555D02*
X246445Y342492D01*
X242508Y316508D02*
Y338555D01*
X268492Y316508D02*
Y338555D01*
X264555Y342492D02*
X268492Y338555D01*
X259910Y342492D02*
X264555D01*
X246445D02*
X251091D01*
X259910Y316508D02*
X268492D01*
X242508D02*
X251091D01*
X232126Y347126D02*
X233287D01*
X246713D02*
X247874D01*
X232126Y362874D02*
X233287D01*
X246713D02*
X247874D01*
X232126Y347126D02*
Y348287D01*
X247874Y347126D02*
Y348287D01*
X232126Y361713D02*
Y362874D01*
X247874Y361713D02*
Y362874D01*
X205193Y208740D02*
X218972D01*
X205193Y203858D02*
Y208740D01*
Y183150D02*
X218972D01*
X205193D02*
Y188031D01*
X317441Y689433D02*
Y691559D01*
Y636441D02*
Y638567D01*
X372559Y689433D02*
Y691559D01*
Y636441D02*
Y638567D01*
X317441Y691559D02*
X319567D01*
X317441Y636441D02*
X319567D01*
X370433Y691559D02*
X372559D01*
X370433Y636441D02*
X372559D01*
X309535Y658441D02*
Y663559D01*
X295992Y658441D02*
Y663559D01*
X283315Y134476D02*
X288669D01*
X283315Y143642D02*
X288669D01*
X286004Y177358D02*
X291358D01*
X286004Y186524D02*
X291358D01*
X286004Y270976D02*
X291358D01*
X286004Y280142D02*
X291358D01*
X166071Y267299D02*
Y273598D01*
X180709Y267299D02*
Y273598D01*
X150571Y267299D02*
Y273598D01*
X165209Y267299D02*
Y273598D01*
X135071Y267299D02*
Y273598D01*
X149709Y267299D02*
Y273598D01*
X177315Y296453D02*
Y300705D01*
X180465D01*
Y306217D01*
X127315D02*
X180465D01*
X127315Y300705D02*
Y306217D01*
Y300705D02*
X130465D01*
Y296453D02*
Y300705D01*
X358516Y718929D02*
Y731528D01*
Y718929D02*
X385090D01*
Y731528D01*
X358516D02*
X385090D01*
X321024Y536071D02*
Y552410D01*
Y559102D02*
Y566976D01*
X288000Y575441D02*
X301197D01*
X321024Y573516D02*
Y575441D01*
X311500D02*
X321024D01*
X273976Y538016D02*
Y575441D01*
X277803D01*
X177449Y365047D02*
Y370953D01*
X182961Y365047D02*
Y370953D01*
X197854Y503539D02*
X206949D01*
X219311D02*
X224862D01*
X197854Y533854D02*
X206949D01*
X219311D02*
X224862D01*
Y503539D02*
Y533854D01*
X256106Y467752D02*
X256209D01*
X295870Y441374D02*
Y455831D01*
Y421689D02*
Y425626D01*
X256106Y441374D02*
Y467752D01*
Y421689D02*
Y425626D01*
Y421689D02*
X295870D01*
X263878Y467752D02*
X276681D01*
X284350D02*
X290067D01*
X289626Y399449D02*
Y399843D01*
X305374D01*
Y399449D02*
Y399843D01*
X289626Y380157D02*
Y380551D01*
Y380157D02*
X305374D01*
Y380551D01*
X284504Y238142D02*
X289858D01*
X284504Y228976D02*
X289858D01*
D13*
X118000Y533000D02*
X117500Y533866D01*
X116500D01*
X116000Y533000D01*
X116500Y532134D01*
X117500D01*
X118000Y533000D01*
X156704Y345500D02*
Y343501D01*
Y371000D02*
Y369001D01*
X157704Y370000D02*
X155705D01*
X290264Y658999D02*
X292264Y656001D01*
Y658999D02*
X290264Y656001D01*
X293264D02*
X294263D01*
X293763D01*
Y658999D01*
X293264Y658500D01*
X291764Y687751D02*
X294264D01*
X294763Y688251D01*
Y689251D01*
X294264Y689751D01*
X291764D01*
X294763Y690750D02*
Y691750D01*
Y691250D01*
X291764D01*
X292264Y690750D01*
X291764Y693249D02*
Y695249D01*
X292264D01*
X294264Y693249D01*
X294763D01*
X309515Y700000D02*
Y697500D01*
X310015Y697001D01*
X311015D01*
X311514Y697500D01*
Y700000D01*
X312514Y697001D02*
X313514D01*
X313014D01*
Y700000D01*
X312514Y699500D01*
X317013Y700000D02*
X316013Y699500D01*
X315013Y698500D01*
Y697500D01*
X315513Y697001D01*
X316513D01*
X317013Y697500D01*
Y698000D01*
X316513Y698500D01*
X315013D01*
X222500Y127944D02*
X225000D01*
X225500Y128444D01*
Y129444D01*
X225000Y129944D01*
X222500D01*
X225500Y130943D02*
Y131943D01*
Y131443D01*
X222500D01*
X223000Y130943D01*
X222500Y135442D02*
Y133442D01*
X224000D01*
X223500Y134442D01*
Y134942D01*
X224000Y135442D01*
X225000D01*
X225500Y134942D01*
Y133942D01*
X225000Y133442D01*
X278500Y244899D02*
Y242400D01*
X279000Y241900D01*
X279999D01*
X280499Y242400D01*
Y244899D01*
X281499Y241900D02*
X282499D01*
X281999D01*
Y244899D01*
X281499Y244399D01*
X285498Y241900D02*
Y244899D01*
X283998Y243400D01*
X285998D01*
X284932Y285059D02*
Y282559D01*
X285432Y282060D01*
X286432D01*
X286932Y282559D01*
Y285059D01*
X287931Y282060D02*
X288931D01*
X288431D01*
Y285059D01*
X287931Y284559D01*
X290430D02*
X290930Y285059D01*
X291930D01*
X292430Y284559D01*
Y284059D01*
X291930Y283559D01*
X291430D01*
X291930D01*
X292430Y283059D01*
Y282559D01*
X291930Y282060D01*
X290930D01*
X290430Y282559D01*
X271082Y148814D02*
Y146315D01*
X271582Y145816D01*
X272581D01*
X273081Y146315D01*
Y148814D01*
X274081Y145816D02*
X275081D01*
X274581D01*
Y148814D01*
X274081Y148315D01*
X278579Y145816D02*
X276580D01*
X278579Y147815D01*
Y148315D01*
X278080Y148814D01*
X277080D01*
X276580Y148315D01*
X276613Y192381D02*
Y189882D01*
X277113Y189382D01*
X278113D01*
X278613Y189882D01*
Y192381D01*
X279612Y189382D02*
X280612D01*
X280112D01*
Y192381D01*
X279612Y191882D01*
X282112Y189382D02*
X283111D01*
X282611D01*
Y192381D01*
X282112Y191882D01*
X225751Y370499D02*
Y368000D01*
X226251Y367500D01*
X227251D01*
X227751Y368000D01*
Y370499D01*
X228750Y367500D02*
X229750D01*
X229250D01*
Y370499D01*
X228750Y370000D01*
X231249D02*
X231749Y370499D01*
X232749D01*
X233249Y370000D01*
Y368000D01*
X232749Y367500D01*
X231749D01*
X231249Y368000D01*
Y370000D01*
X121001Y620999D02*
Y618500D01*
X121501Y618001D01*
X122500D01*
X123000Y618500D01*
Y620999D01*
X124000Y618500D02*
X124500Y618001D01*
X125499D01*
X125999Y618500D01*
Y620500D01*
X125499Y620999D01*
X124500D01*
X124000Y620500D01*
Y620000D01*
X124500Y619500D01*
X125999D01*
X120501Y637999D02*
Y635500D01*
X121001Y635001D01*
X122000D01*
X122500Y635500D01*
Y637999D01*
X123500Y637500D02*
X124000Y637999D01*
X124999D01*
X125499Y637500D01*
Y637000D01*
X124999Y636500D01*
X125499Y636000D01*
Y635500D01*
X124999Y635001D01*
X124000D01*
X123500Y635500D01*
Y636000D01*
X124000Y636500D01*
X123500Y637000D01*
Y637500D01*
X124000Y636500D02*
X124999D01*
X271500Y711009D02*
X274000D01*
X274500Y711509D01*
Y712508D01*
X274000Y713008D01*
X271500D01*
Y714008D02*
Y716007D01*
X272000D01*
X274000Y714008D01*
X274500D01*
X213100Y285799D02*
Y283300D01*
X213600Y282800D01*
X214599D01*
X215099Y283300D01*
Y285799D01*
X218098D02*
X217099Y285299D01*
X216099Y284299D01*
Y283300D01*
X216599Y282800D01*
X217599D01*
X218098Y283300D01*
Y283800D01*
X217599Y284299D01*
X216099D01*
X113001Y541999D02*
Y539500D01*
X113501Y539001D01*
X114500D01*
X115000Y539500D01*
Y541999D01*
X117999D02*
X116000D01*
Y540500D01*
X116999Y541000D01*
X117499D01*
X117999Y540500D01*
Y539500D01*
X117499Y539001D01*
X116500D01*
X116000Y539500D01*
X137976Y144938D02*
Y147437D01*
X137476Y147936D01*
X136476D01*
X135976Y147437D01*
Y144938D01*
X133477Y147936D02*
Y144938D01*
X134976Y146437D01*
X132977D01*
X198583Y181446D02*
X201082D01*
X201582Y181946D01*
Y182945D01*
X201082Y183445D01*
X198583D01*
X199083Y184445D02*
X198583Y184945D01*
Y185944D01*
X199083Y186444D01*
X199583D01*
X200083Y185944D01*
Y185444D01*
Y185944D01*
X200583Y186444D01*
X201082D01*
X201582Y185944D01*
Y184945D01*
X201082Y184445D01*
X129000Y201249D02*
X131500D01*
X132000Y201749D01*
Y202748D01*
X131500Y203248D01*
X129000D01*
X132000Y206247D02*
Y204248D01*
X130000Y206247D01*
X129500D01*
X129000Y205747D01*
Y204748D01*
X129500Y204248D01*
X283600Y406699D02*
Y404200D01*
X284100Y403700D01*
X285100D01*
X285599Y404200D01*
Y406699D01*
X286599Y403700D02*
X287599D01*
X287099D01*
Y406699D01*
X286599Y406199D01*
X274299Y583199D02*
X273799Y583699D01*
X272800D01*
X272300Y583199D01*
Y582699D01*
X272800Y582199D01*
X273799D01*
X274299Y581700D01*
Y581200D01*
X273799Y580700D01*
X272800D01*
X272300Y581200D01*
X275299Y583699D02*
Y580700D01*
X276799D01*
X277298Y581200D01*
Y583199D01*
X276799Y583699D01*
X275299D01*
X278298Y580700D02*
X279298D01*
X278798D01*
Y583699D01*
X278298Y583199D01*
X148889Y262948D02*
Y259949D01*
X147389D01*
X146889Y260449D01*
Y261449D01*
X147389Y261949D01*
X148889D01*
X147889D02*
X146889Y262948D01*
X144390D02*
Y259949D01*
X145889Y261449D01*
X143890D01*
X142890Y259949D02*
X140891D01*
Y260449D01*
X142890Y262449D01*
Y262948D01*
X164889D02*
Y259949D01*
X163389D01*
X162889Y260449D01*
Y261449D01*
X163389Y261949D01*
X164889D01*
X163889D02*
X162889Y262948D01*
X160390D02*
Y259949D01*
X161889Y261449D01*
X159890D01*
X156891Y259949D02*
X157891Y260449D01*
X158890Y261449D01*
Y262449D01*
X158391Y262948D01*
X157391D01*
X156891Y262449D01*
Y261949D01*
X157391Y261449D01*
X158890D01*
X180388Y262948D02*
Y259949D01*
X178889D01*
X178389Y260449D01*
Y261449D01*
X178889Y261949D01*
X180388D01*
X179389D02*
X178389Y262948D01*
X175890D02*
Y259949D01*
X177389Y261449D01*
X175390D01*
X172391Y259949D02*
X174390D01*
Y261449D01*
X173391Y260949D01*
X172891D01*
X172391Y261449D01*
Y262449D01*
X172891Y262948D01*
X173891D01*
X174390Y262449D01*
X334763Y712501D02*
X331764D01*
Y714001D01*
X332264Y714501D01*
X333264D01*
X333764Y714001D01*
Y712501D01*
Y713501D02*
X334763Y714501D01*
Y717000D02*
X331764D01*
X333264Y715500D01*
Y717500D01*
X334763Y719999D02*
X331764D01*
X333264Y718499D01*
Y720499D01*
X286265Y627001D02*
Y629999D01*
X287765D01*
X288264Y629500D01*
Y628500D01*
X287765Y628000D01*
X286265D01*
X287265D02*
X288264Y627001D01*
X290764D02*
Y629999D01*
X289264Y628500D01*
X291264D01*
X292263Y629500D02*
X292763Y629999D01*
X293763D01*
X294263Y629500D01*
Y629000D01*
X293763Y628500D01*
X293263D01*
X293763D01*
X294263Y628000D01*
Y627500D01*
X293763Y627001D01*
X292763D01*
X292263Y627500D01*
X328500Y536501D02*
X325500D01*
Y538001D01*
X326000Y538501D01*
X327000D01*
X327500Y538001D01*
Y536501D01*
Y537501D02*
X328500Y538501D01*
Y541000D02*
X325500D01*
X327000Y539500D01*
Y541500D01*
X328500Y544499D02*
Y542499D01*
X326500Y544499D01*
X326000D01*
X325500Y543999D01*
Y542999D01*
X326000Y542499D01*
X188714Y334501D02*
Y337499D01*
X190213D01*
X190713Y337000D01*
Y336000D01*
X190213Y335500D01*
X188714D01*
X189713D02*
X190713Y334501D01*
X193212D02*
Y337499D01*
X191713Y336000D01*
X193712D01*
X194712Y334501D02*
X195712D01*
X195212D01*
Y337499D01*
X194712Y337000D01*
X188714Y340500D02*
Y343499D01*
X190213D01*
X190713Y343000D01*
Y342000D01*
X190213Y341500D01*
X188714D01*
X189714D02*
X190713Y340500D01*
X193212D02*
Y343499D01*
X191713Y342000D01*
X193712D01*
X194712Y343000D02*
X195212Y343499D01*
X196212D01*
X196711Y343000D01*
Y341000D01*
X196212Y340500D01*
X195212D01*
X194712Y341000D01*
Y343000D01*
X295682Y220058D02*
X298681D01*
Y218558D01*
X298181Y218058D01*
X297181D01*
X296681Y218558D01*
Y220058D01*
Y219058D02*
X295682Y218058D01*
X298181Y217059D02*
X298681Y216559D01*
Y215559D01*
X298181Y215059D01*
X297681D01*
X297181Y215559D01*
Y216059D01*
Y215559D01*
X296681Y215059D01*
X296181D01*
X295682Y215559D01*
Y216559D01*
X296181Y217059D01*
Y214060D02*
X295682Y213560D01*
Y212560D01*
X296181Y212060D01*
X298181D01*
X298681Y212560D01*
Y213560D01*
X298181Y214060D01*
X297681D01*
X297181Y213560D01*
Y212060D01*
X271182Y223559D02*
Y226559D01*
X272682D01*
X273182Y226059D01*
Y225059D01*
X272682Y224559D01*
X271182D01*
X272182D02*
X273182Y223559D01*
X274181Y226059D02*
X274681Y226559D01*
X275681D01*
X276181Y226059D01*
Y225559D01*
X275681Y225059D01*
X275181D01*
X275681D01*
X276181Y224559D01*
Y224059D01*
X275681Y223559D01*
X274681D01*
X274181Y224059D01*
X277181Y226059D02*
X277680Y226559D01*
X278680D01*
X279180Y226059D01*
Y225559D01*
X278680Y225059D01*
X279180Y224559D01*
Y224059D01*
X278680Y223559D01*
X277680D01*
X277181Y224059D01*
Y224559D01*
X277680Y225059D01*
X277181Y225559D01*
Y226059D01*
X277680Y225059D02*
X278680D01*
X271182Y217560D02*
Y220559D01*
X272682D01*
X273182Y220059D01*
Y219059D01*
X272682Y218559D01*
X271182D01*
X272182D02*
X273182Y217560D01*
X274181Y220059D02*
X274681Y220559D01*
X275681D01*
X276181Y220059D01*
Y219559D01*
X275681Y219059D01*
X275181D01*
X275681D01*
X276181Y218559D01*
Y218059D01*
X275681Y217560D01*
X274681D01*
X274181Y218059D01*
X277181Y220559D02*
X279180D01*
Y220059D01*
X277181Y218059D01*
Y217560D01*
X301682Y220058D02*
X304681D01*
Y218558D01*
X304181Y218058D01*
X303181D01*
X302681Y218558D01*
Y220058D01*
Y219058D02*
X301682Y218058D01*
X304181Y217059D02*
X304681Y216559D01*
Y215559D01*
X304181Y215059D01*
X303681D01*
X303181Y215559D01*
Y216059D01*
Y215559D01*
X302681Y215059D01*
X302181D01*
X301682Y215559D01*
Y216559D01*
X302181Y217059D01*
X304681Y212060D02*
X304181Y213060D01*
X303181Y214060D01*
X302181D01*
X301682Y213560D01*
Y212560D01*
X302181Y212060D01*
X302681D01*
X303181Y212560D01*
Y214060D01*
X300181Y253560D02*
X297182D01*
Y255060D01*
X297681Y255560D01*
X298681D01*
X299181Y255060D01*
Y253560D01*
Y254560D02*
X300181Y255560D01*
X297681Y256559D02*
X297182Y257059D01*
Y258059D01*
X297681Y258559D01*
X298181D01*
X298681Y258059D01*
Y257559D01*
Y258059D01*
X299181Y258559D01*
X299681D01*
X300181Y258059D01*
Y257059D01*
X299681Y256559D01*
X297182Y261558D02*
Y259558D01*
X298681D01*
X298181Y260558D01*
Y261058D01*
X298681Y261558D01*
X299681D01*
X300181Y261058D01*
Y260058D01*
X299681Y259558D01*
X273182Y264560D02*
Y267559D01*
X274682D01*
X275182Y267059D01*
Y266059D01*
X274682Y265559D01*
X273182D01*
X274182D02*
X275182Y264560D01*
X276181Y267059D02*
X276681Y267559D01*
X277681D01*
X278181Y267059D01*
Y266559D01*
X277681Y266059D01*
X277181D01*
X277681D01*
X278181Y265559D01*
Y265059D01*
X277681Y264560D01*
X276681D01*
X276181Y265059D01*
X280680Y264560D02*
Y267559D01*
X279181Y266059D01*
X281180D01*
X273675Y259559D02*
Y262559D01*
X275174D01*
X275674Y262059D01*
Y261059D01*
X275174Y260559D01*
X273675D01*
X274674D02*
X275674Y259559D01*
X276674Y262059D02*
X277173Y262559D01*
X278173D01*
X278673Y262059D01*
Y261559D01*
X278173Y261059D01*
X277673D01*
X278173D01*
X278673Y260559D01*
Y260059D01*
X278173Y259559D01*
X277173D01*
X276674Y260059D01*
X279673Y262059D02*
X280172Y262559D01*
X281172D01*
X281672Y262059D01*
Y261559D01*
X281172Y261059D01*
X280672D01*
X281172D01*
X281672Y260559D01*
Y260059D01*
X281172Y259559D01*
X280172D01*
X279673Y260059D01*
X306181Y253560D02*
X303182D01*
Y255060D01*
X303681Y255560D01*
X304681D01*
X305181Y255060D01*
Y253560D01*
Y254560D02*
X306181Y255560D01*
X303681Y256559D02*
X303182Y257059D01*
Y258059D01*
X303681Y258559D01*
X304181D01*
X304681Y258059D01*
Y257559D01*
Y258059D01*
X305181Y258559D01*
X305681D01*
X306181Y258059D01*
Y257059D01*
X305681Y256559D01*
X306181Y261558D02*
Y259558D01*
X304181Y261558D01*
X303681D01*
X303182Y261058D01*
Y260058D01*
X303681Y259558D01*
X265332Y129315D02*
Y132315D01*
X266831D01*
X267331Y131815D01*
Y130815D01*
X266831Y130315D01*
X265332D01*
X266332D02*
X267331Y129315D01*
X268331Y131815D02*
X268831Y132315D01*
X269830D01*
X270330Y131815D01*
Y131315D01*
X269830Y130815D01*
X269331D01*
X269830D01*
X270330Y130315D01*
Y129815D01*
X269830Y129315D01*
X268831D01*
X268331Y129815D01*
X271330Y129315D02*
X272330D01*
X271830D01*
Y132315D01*
X271330Y131815D01*
X271830Y135324D02*
X268831D01*
Y136824D01*
X269331Y137323D01*
X270331D01*
X270830Y136824D01*
Y135324D01*
Y136324D02*
X271830Y137323D01*
X269331Y138323D02*
X268831Y138823D01*
Y139823D01*
X269331Y140322D01*
X269831D01*
X270331Y139823D01*
Y139323D01*
Y139823D01*
X270830Y140322D01*
X271330D01*
X271830Y139823D01*
Y138823D01*
X271330Y138323D01*
X269331Y141322D02*
X268831Y141822D01*
Y142822D01*
X269331Y143322D01*
X271330D01*
X271830Y142822D01*
Y141822D01*
X271330Y141322D01*
X269331D01*
X264332Y122816D02*
Y125814D01*
X265831D01*
X266331Y125315D01*
Y124315D01*
X265831Y123815D01*
X264332D01*
X265332D02*
X266331Y122816D01*
X269330D02*
X267331D01*
X269330Y124815D01*
Y125315D01*
X268831Y125814D01*
X267831D01*
X267331Y125315D01*
X270330Y123315D02*
X270830Y122816D01*
X271830D01*
X272329Y123315D01*
Y125315D01*
X271830Y125814D01*
X270830D01*
X270330Y125315D01*
Y124815D01*
X270830Y124315D01*
X272329D01*
X294330Y122316D02*
X291331D01*
Y123816D01*
X291831Y124316D01*
X292831D01*
X293331Y123816D01*
Y122316D01*
Y123316D02*
X294330Y124316D01*
Y127315D02*
Y125315D01*
X292331Y127315D01*
X291831D01*
X291331Y126815D01*
Y125815D01*
X291831Y125315D01*
Y128314D02*
X291331Y128814D01*
Y129814D01*
X291831Y130314D01*
X292331D01*
X292831Y129814D01*
X293331Y130314D01*
X293830D01*
X294330Y129814D01*
Y128814D01*
X293830Y128314D01*
X293331D01*
X292831Y128814D01*
X292331Y128314D01*
X291831D01*
X292831Y128814D02*
Y129814D01*
X266863Y170882D02*
Y173881D01*
X268363D01*
X268863Y173382D01*
Y172382D01*
X268363Y171882D01*
X266863D01*
X267863D02*
X268863Y170882D01*
X271862D02*
X269863D01*
X271862Y172882D01*
Y173382D01*
X271362Y173881D01*
X270362D01*
X269863Y173382D01*
X272862Y173881D02*
X274861D01*
Y173382D01*
X272862Y171382D01*
Y170882D01*
X274362Y176883D02*
X271363D01*
Y178383D01*
X271863Y178883D01*
X272862D01*
X273362Y178383D01*
Y176883D01*
Y177883D02*
X274362Y178883D01*
Y181882D02*
Y179882D01*
X272362Y181882D01*
X271863D01*
X271363Y181382D01*
Y180382D01*
X271863Y179882D01*
X271363Y184881D02*
X271863Y183881D01*
X272862Y182881D01*
X273862D01*
X274362Y183381D01*
Y184381D01*
X273862Y184881D01*
X273362D01*
X272862Y184381D01*
Y182881D01*
X266863Y164882D02*
Y167881D01*
X268363D01*
X268863Y167382D01*
Y166382D01*
X268363Y165882D01*
X266863D01*
X267863D02*
X268863Y164882D01*
X271862D02*
X269863D01*
X271862Y166882D01*
Y167382D01*
X271362Y167881D01*
X270362D01*
X269863Y167382D01*
X274861Y167881D02*
X272862D01*
Y166382D01*
X273861Y166882D01*
X274361D01*
X274861Y166382D01*
Y165382D01*
X274361Y164882D01*
X273361D01*
X272862Y165382D01*
X297362Y164883D02*
X294363D01*
Y166383D01*
X294863Y166883D01*
X295862D01*
X296362Y166383D01*
Y164883D01*
Y165883D02*
X297362Y166883D01*
Y169882D02*
Y167882D01*
X295362Y169882D01*
X294863D01*
X294363Y169382D01*
Y168382D01*
X294863Y167882D01*
X297362Y172381D02*
X294363D01*
X295862Y170881D01*
Y172881D01*
X253500Y369300D02*
Y372299D01*
X254999D01*
X255499Y371799D01*
Y370799D01*
X254999Y370300D01*
X253500D01*
X254500D02*
X255499Y369300D01*
X258498D02*
X256499D01*
X258498Y371299D01*
Y371799D01*
X257998Y372299D01*
X256999D01*
X256499Y371799D01*
X259498D02*
X259998Y372299D01*
X260998D01*
X261497Y371799D01*
Y371299D01*
X260998Y370799D01*
X260498D01*
X260998D01*
X261497Y370300D01*
Y369800D01*
X260998Y369300D01*
X259998D01*
X259498Y369800D01*
X238499Y378001D02*
X235501D01*
Y379501D01*
X236000Y380001D01*
X237000D01*
X237500Y379501D01*
Y378001D01*
Y379001D02*
X238499Y380001D01*
Y383000D02*
Y381000D01*
X236500Y383000D01*
X236000D01*
X235501Y382500D01*
Y381500D01*
X236000Y381000D01*
X238499Y385999D02*
Y383999D01*
X236500Y385999D01*
X236000D01*
X235501Y385499D01*
Y384499D01*
X236000Y383999D01*
X172000Y586501D02*
X169000D01*
Y588001D01*
X169500Y588500D01*
X170500D01*
X171000Y588001D01*
Y586501D01*
Y587501D02*
X172000Y588500D01*
Y591500D02*
Y589500D01*
X170000Y591500D01*
X169500D01*
X169000Y591000D01*
Y590000D01*
X169500Y589500D01*
X172000Y592499D02*
Y593499D01*
Y592999D01*
X169000D01*
X169500Y592499D01*
X172000Y601501D02*
X169000D01*
Y603001D01*
X169500Y603501D01*
X170500D01*
X171000Y603001D01*
Y601501D01*
Y602501D02*
X172000Y603501D01*
Y606500D02*
Y604500D01*
X170000Y606500D01*
X169500D01*
X169000Y606000D01*
Y605000D01*
X169500Y604500D01*
Y607499D02*
X169000Y607999D01*
Y608999D01*
X169500Y609499D01*
X171500D01*
X172000Y608999D01*
Y607999D01*
X171500Y607499D01*
X169500D01*
X237499Y680499D02*
X234501D01*
Y681999D01*
X235000Y682499D01*
X236000D01*
X236500Y681999D01*
Y680499D01*
Y681499D02*
X237499Y682499D01*
Y683498D02*
Y684498D01*
Y683998D01*
X234501D01*
X235000Y683498D01*
X237000Y685997D02*
X237499Y686497D01*
Y687497D01*
X237000Y687997D01*
X235000D01*
X234501Y687497D01*
Y686497D01*
X235000Y685997D01*
X235500D01*
X236000Y686497D01*
Y687997D01*
X171500Y623251D02*
X168500D01*
Y624751D01*
X169000Y625251D01*
X170000D01*
X170500Y624751D01*
Y623251D01*
Y624251D02*
X171500Y625251D01*
Y626250D02*
Y627250D01*
Y626750D01*
X168500D01*
X169000Y626250D01*
Y628749D02*
X168500Y629249D01*
Y630249D01*
X169000Y630749D01*
X169500D01*
X170000Y630249D01*
X170500Y630749D01*
X171000D01*
X171500Y630249D01*
Y629249D01*
X171000Y628749D01*
X170500D01*
X170000Y629249D01*
X169500Y628749D01*
X169000D01*
X170000Y629249D02*
Y630249D01*
X242000Y680499D02*
X239001D01*
Y681999D01*
X239500Y682499D01*
X240500D01*
X241000Y681999D01*
Y680499D01*
Y681499D02*
X242000Y682499D01*
Y683498D02*
Y684498D01*
Y683998D01*
X239001D01*
X239500Y683498D01*
X239001Y685997D02*
Y687997D01*
X239500D01*
X241500Y685997D01*
X242000D01*
X270000Y734759D02*
X267001D01*
Y736259D01*
X267500Y736758D01*
X268500D01*
X269000Y736259D01*
Y734759D01*
Y735759D02*
X270000Y736758D01*
Y737758D02*
Y738758D01*
Y738258D01*
X267001D01*
X267500Y737758D01*
X267001Y742257D02*
X267500Y741257D01*
X268500Y740257D01*
X269500D01*
X270000Y740757D01*
Y741757D01*
X269500Y742257D01*
X269000D01*
X268500Y741757D01*
Y740257D01*
X229381Y245011D02*
X226382D01*
Y246511D01*
X226882Y247010D01*
X227882D01*
X228382Y246511D01*
Y245011D01*
Y246011D02*
X229381Y247010D01*
Y248010D02*
Y249010D01*
Y248510D01*
X226382D01*
X226882Y248010D01*
X226382Y252509D02*
Y250509D01*
X227882D01*
X227382Y251509D01*
Y252009D01*
X227882Y252509D01*
X228882D01*
X229381Y252009D01*
Y251009D01*
X228882Y250509D01*
X215882Y253509D02*
X218881D01*
Y252009D01*
X218382Y251509D01*
X217382D01*
X216882Y252009D01*
Y253509D01*
Y252509D02*
X215882Y251509D01*
Y250510D02*
Y249510D01*
Y250010D01*
X218881D01*
X218382Y250510D01*
X215882Y246511D02*
X218881D01*
X217382Y248010D01*
Y246011D01*
X145751Y480501D02*
Y483499D01*
X147251D01*
X147751Y483000D01*
Y482000D01*
X147251Y481500D01*
X145751D01*
X146751D02*
X147751Y480501D01*
X148750D02*
X149750D01*
X149250D01*
Y483499D01*
X148750Y483000D01*
X151249D02*
X151749Y483499D01*
X152749D01*
X153249Y483000D01*
Y482500D01*
X152749Y482000D01*
X152249D01*
X152749D01*
X153249Y481500D01*
Y481000D01*
X152749Y480501D01*
X151749D01*
X151249Y481000D01*
X145751Y486501D02*
Y489500D01*
X147251D01*
X147751Y489000D01*
Y488000D01*
X147251Y487500D01*
X145751D01*
X146751D02*
X147751Y486501D01*
X148750D02*
X149750D01*
X149250D01*
Y489500D01*
X148750Y489000D01*
X153249Y486501D02*
X151249D01*
X153249Y488500D01*
Y489000D01*
X152749Y489500D01*
X151749D01*
X151249Y489000D01*
X120000Y546800D02*
Y549799D01*
X121500D01*
X121999Y549299D01*
Y548300D01*
X121500Y547800D01*
X120000D01*
X121000D02*
X121999Y546800D01*
X122999D02*
X123999D01*
X123499D01*
Y549799D01*
X122999Y549299D01*
X125498Y546800D02*
X126498D01*
X125998D01*
Y549799D01*
X125498Y549299D01*
X161228Y158938D02*
Y161936D01*
X162727D01*
X163227Y161437D01*
Y160437D01*
X162727Y159937D01*
X161228D01*
X162227D02*
X163227Y158938D01*
X164227D02*
X165226D01*
X164726D01*
Y161936D01*
X164227Y161437D01*
X166726D02*
X167226Y161936D01*
X168225D01*
X168725Y161437D01*
Y159437D01*
X168225Y158938D01*
X167226D01*
X166726Y159437D01*
Y161437D01*
X161477Y172938D02*
Y175936D01*
X162977D01*
X163477Y175437D01*
Y174437D01*
X162977Y173937D01*
X161477D01*
X162477D02*
X163477Y172938D01*
X164476Y173437D02*
X164976Y172938D01*
X165976D01*
X166476Y173437D01*
Y175437D01*
X165976Y175936D01*
X164976D01*
X164476Y175437D01*
Y174937D01*
X164976Y174437D01*
X166476D01*
X148900Y154200D02*
Y157199D01*
X150399D01*
X150899Y156699D01*
Y155700D01*
X150399Y155200D01*
X148900D01*
X149900D02*
X150899Y154200D01*
X151899Y156699D02*
X152399Y157199D01*
X153399D01*
X153898Y156699D01*
Y156199D01*
X153399Y155700D01*
X153898Y155200D01*
Y154700D01*
X153399Y154200D01*
X152399D01*
X151899Y154700D01*
Y155200D01*
X152399Y155700D01*
X151899Y156199D01*
Y156699D01*
X152399Y155700D02*
X153399D01*
X142477Y177436D02*
X145476D01*
Y175937D01*
X144976Y175437D01*
X143976D01*
X143476Y175937D01*
Y177436D01*
Y176436D02*
X142477Y175437D01*
X145476Y174437D02*
Y172438D01*
X144976D01*
X142977Y174437D01*
X142477D01*
X135977Y177444D02*
X138976D01*
Y175944D01*
X138476Y175445D01*
X137476D01*
X136977Y175944D01*
Y177444D01*
Y176444D02*
X135977Y175445D01*
X138976Y172446D02*
X138476Y173445D01*
X137476Y174445D01*
X136477D01*
X135977Y173945D01*
Y172945D01*
X136477Y172446D01*
X136977D01*
X137476Y172945D01*
Y174445D01*
X281515Y492741D02*
X278516D01*
Y494241D01*
X279016Y494740D01*
X280016D01*
X280516Y494241D01*
Y492741D01*
Y493741D02*
X281515Y494740D01*
X278516Y497739D02*
Y495740D01*
X280016D01*
X279516Y496740D01*
Y497239D01*
X280016Y497739D01*
X281015D01*
X281515Y497239D01*
Y496240D01*
X281015Y495740D01*
X331499Y398499D02*
Y395500D01*
X330000D01*
X329500Y396000D01*
Y397000D01*
X330000Y397500D01*
X331499D01*
X330500D02*
X329500Y398499D01*
X327001D02*
Y395500D01*
X328500Y397000D01*
X326501D01*
X331499Y390000D02*
Y387000D01*
X330000D01*
X329500Y387500D01*
Y388500D01*
X330000Y389000D01*
X331499D01*
X330500D02*
X329500Y390000D01*
X328500Y387500D02*
X328000Y387000D01*
X327001D01*
X326501Y387500D01*
Y388000D01*
X327001Y388500D01*
X327501D01*
X327001D01*
X326501Y389000D01*
Y389500D01*
X327001Y390000D01*
X328000D01*
X328500Y389500D01*
X331999Y383999D02*
Y381000D01*
X330500D01*
X330000Y381500D01*
Y382500D01*
X330500Y383000D01*
X331999D01*
X330999D02*
X330000Y383999D01*
X327001D02*
X329000D01*
X327001Y382000D01*
Y381500D01*
X327501Y381000D01*
X328500D01*
X329000Y381500D01*
X300023Y484240D02*
Y481241D01*
X298523D01*
X298024Y481741D01*
Y482740D01*
X298523Y483240D01*
X300023D01*
X299023D02*
X298024Y484240D01*
X297024D02*
X296024D01*
X296524D01*
Y481241D01*
X297024Y481741D01*
X192205Y350500D02*
Y352500D01*
X191705Y352999D01*
X190705D01*
X190206Y352500D01*
Y350500D01*
X190705Y350001D01*
X191705D01*
X191205Y351000D02*
X192205Y350001D01*
X191705D02*
X192205Y350500D01*
X195204Y350001D02*
X193205D01*
X195204Y352000D01*
Y352500D01*
X194704Y352999D01*
X193704D01*
X193205Y352500D01*
X260399Y489000D02*
Y490999D01*
X259899Y491499D01*
X258900D01*
X258400Y490999D01*
Y489000D01*
X258900Y488500D01*
X259899D01*
X259400Y489500D02*
X260399Y488500D01*
X259899D02*
X260399Y489000D01*
X261399Y488500D02*
X262399D01*
X261899D01*
Y491499D01*
X261399Y490999D01*
X126800Y144399D02*
Y141400D01*
X128799D01*
X131798D02*
X129799D01*
X131798Y143399D01*
Y143899D01*
X131299Y144399D01*
X130299D01*
X129799Y143899D01*
X113500Y236501D02*
X116499D01*
Y238500D01*
Y239500D02*
Y240499D01*
Y240000D01*
X113500D01*
X114000Y239500D01*
X128390Y281949D02*
X129389D01*
X128889D01*
Y284449D01*
X129389Y284948D01*
X129889D01*
X130389Y284449D01*
X127390Y281949D02*
X125391D01*
Y282449D01*
X127390Y284449D01*
Y284948D01*
X360199Y739499D02*
X359200D01*
X359700D01*
Y737000D01*
X359200Y736500D01*
X358700D01*
X358200Y737000D01*
X363198Y739499D02*
X362199Y738999D01*
X361199Y737999D01*
Y737000D01*
X361699Y736500D01*
X362699D01*
X363198Y737000D01*
Y737500D01*
X362699Y737999D01*
X361199D01*
X182899Y732499D02*
X181900D01*
X182399D01*
Y730000D01*
X181900Y729500D01*
X181400D01*
X180900Y730000D01*
X185898Y732499D02*
X183899D01*
Y731000D01*
X184899Y731499D01*
X185399D01*
X185898Y731000D01*
Y730000D01*
X185399Y729500D01*
X184399D01*
X183899Y730000D01*
X164831Y467697D02*
Y466697D01*
Y467197D01*
X167330D01*
X167830Y466697D01*
Y466197D01*
X167330Y465698D01*
X167830Y470196D02*
X164831D01*
X166331Y468697D01*
Y470696D01*
X184899Y546999D02*
X183900D01*
X184399D01*
Y544500D01*
X183900Y544000D01*
X183400D01*
X182900Y544500D01*
X185899Y546499D02*
X186399Y546999D01*
X187399D01*
X187898Y546499D01*
Y545999D01*
X187399Y545500D01*
X186899D01*
X187399D01*
X187898Y545000D01*
Y544500D01*
X187399Y544000D01*
X186399D01*
X185899Y544500D01*
X119500Y477000D02*
X118500D01*
X119000D01*
Y474500D01*
X118500Y474001D01*
X118001D01*
X117501Y474500D01*
X122499Y474001D02*
X120500D01*
X122499Y476000D01*
Y476500D01*
X121999Y477000D01*
X121000D01*
X120500Y476500D01*
X254899Y474599D02*
X253900D01*
X254399D01*
Y472100D01*
X253900Y471600D01*
X253400D01*
X252900Y472100D01*
X255899Y471600D02*
X256899D01*
X256399D01*
Y474599D01*
X255899Y474099D01*
X301264Y630500D02*
X299265D01*
Y629000D01*
X300265D01*
X299265D01*
Y627500D01*
X302264Y630500D02*
Y627500D01*
X303764D01*
X304263Y628000D01*
Y628500D01*
X303764Y629000D01*
X302264D01*
X303764D01*
X304263Y629500D01*
Y630000D01*
X303764Y630500D01*
X302264D01*
X305263Y627500D02*
X306263D01*
X305763D01*
Y630500D01*
X305263Y630000D01*
X299016Y472740D02*
Y470741D01*
X300516D01*
Y471740D01*
Y470741D01*
X302015D01*
Y473740D02*
Y474740D01*
Y474240D01*
X299016D01*
X299516Y473740D01*
X176700Y385599D02*
Y382600D01*
X178200D01*
X178699Y383100D01*
Y385099D01*
X178200Y385599D01*
X176700D01*
X179699Y385099D02*
X180199Y385599D01*
X181199D01*
X181698Y385099D01*
Y384599D01*
X181199Y384100D01*
X180699D01*
X181199D01*
X181698Y383600D01*
Y383100D01*
X181199Y382600D01*
X180199D01*
X179699Y383100D01*
X229501Y680749D02*
X232500D01*
Y682248D01*
X232000Y682748D01*
X230000D01*
X229501Y682248D01*
Y680749D01*
X232500Y685747D02*
Y683748D01*
X230500Y685747D01*
X230000D01*
X229501Y685247D01*
Y684248D01*
X230000Y683748D01*
X142001Y477999D02*
Y475000D01*
X143500D01*
X144000Y475500D01*
Y477500D01*
X143500Y477999D01*
X142001D01*
X145000Y475000D02*
X145999D01*
X145500D01*
Y477999D01*
X145000Y477500D01*
X290276Y670500D02*
X289776Y670999D01*
X288777D01*
X288277Y670500D01*
Y668500D01*
X288777Y668001D01*
X289776D01*
X290276Y668500D01*
X293275Y670999D02*
X291276D01*
Y669500D01*
X292276Y670000D01*
X292775D01*
X293275Y669500D01*
Y668500D01*
X292775Y668001D01*
X291776D01*
X291276Y668500D01*
X294275Y670500D02*
X294775Y670999D01*
X295775D01*
X296274Y670500D01*
Y670000D01*
X295775Y669500D01*
X295275D01*
X295775D01*
X296274Y669000D01*
Y668500D01*
X295775Y668001D01*
X294775D01*
X294275Y668500D01*
X321764Y609501D02*
X321264Y609001D01*
Y608001D01*
X321764Y607501D01*
X323763D01*
X324263Y608001D01*
Y609001D01*
X323763Y609501D01*
X321264Y612500D02*
Y610500D01*
X322764D01*
X322264Y611500D01*
Y612000D01*
X322764Y612500D01*
X323763D01*
X324263Y612000D01*
Y611000D01*
X323763Y610500D01*
X324263Y615499D02*
Y613499D01*
X322264Y615499D01*
X321764D01*
X321264Y614999D01*
Y613999D01*
X321764Y613499D01*
X369764Y610989D02*
X369264Y610489D01*
Y609489D01*
X369764Y608989D01*
X371763D01*
X372263Y609489D01*
Y610489D01*
X371763Y610989D01*
X369264Y613988D02*
Y611988D01*
X370764D01*
X370264Y612988D01*
Y613488D01*
X370764Y613988D01*
X371763D01*
X372263Y613488D01*
Y612488D01*
X371763Y611988D01*
X372263Y614987D02*
Y615987D01*
Y615487D01*
X369264D01*
X369764Y614987D01*
X395264Y691000D02*
X394765Y691500D01*
X393765D01*
X393265Y691000D01*
Y689000D01*
X393765Y688500D01*
X394765D01*
X395264Y689000D01*
X398264Y691500D02*
X396264D01*
Y690000D01*
X397264Y690500D01*
X397764D01*
X398264Y690000D01*
Y689000D01*
X397764Y688500D01*
X396764D01*
X396264Y689000D01*
X399263Y691000D02*
X399763Y691500D01*
X400763D01*
X401263Y691000D01*
Y689000D01*
X400763Y688500D01*
X399763D01*
X399263Y689000D01*
Y691000D01*
X320264Y714501D02*
X319764Y714001D01*
Y713001D01*
X320264Y712501D01*
X322264D01*
X322763Y713001D01*
Y714001D01*
X322264Y714501D01*
X322763Y717000D02*
X319764D01*
X321264Y715500D01*
Y717500D01*
X322264Y718499D02*
X322763Y718999D01*
Y719999D01*
X322264Y720499D01*
X320264D01*
X319764Y719999D01*
Y718999D01*
X320264Y718499D01*
X320764D01*
X321264Y718999D01*
Y720499D01*
X290776Y678500D02*
X290276Y679000D01*
X289277D01*
X288777Y678500D01*
Y676500D01*
X289277Y676000D01*
X290276D01*
X290776Y676500D01*
X293275Y676000D02*
Y679000D01*
X291776Y677500D01*
X293775D01*
X294775Y678500D02*
X295275Y679000D01*
X296274D01*
X296774Y678500D01*
Y678000D01*
X296274Y677500D01*
X296774Y677000D01*
Y676500D01*
X296274Y676000D01*
X295275D01*
X294775Y676500D01*
Y677000D01*
X295275Y677500D01*
X294775Y678000D01*
Y678500D01*
X295275Y677500D02*
X296274D01*
X363764Y608001D02*
X363264Y607501D01*
Y606501D01*
X363764Y606001D01*
X365763D01*
X366263Y606501D01*
Y607501D01*
X365763Y608001D01*
X366263Y610500D02*
X363264D01*
X364764Y609000D01*
Y611000D01*
X363264Y611999D02*
Y613999D01*
X363764D01*
X365763Y611999D01*
X366263D01*
X395253Y685000D02*
X394753Y685499D01*
X393753D01*
X393253Y685000D01*
Y683000D01*
X393753Y682501D01*
X394753D01*
X395253Y683000D01*
X397752Y682501D02*
Y685499D01*
X396252Y684000D01*
X398252D01*
X401251Y685499D02*
X400251Y685000D01*
X399251Y684000D01*
Y683000D01*
X399751Y682501D01*
X400751D01*
X401251Y683000D01*
Y683500D01*
X400751Y684000D01*
X399251D01*
X288264Y620500D02*
X287765Y620999D01*
X286765D01*
X286265Y620500D01*
Y618500D01*
X286765Y618001D01*
X287765D01*
X288264Y618500D01*
X290764Y618001D02*
Y620999D01*
X289264Y619500D01*
X291264D01*
X294263Y620999D02*
X292263D01*
Y619500D01*
X293263Y620000D01*
X293763D01*
X294263Y619500D01*
Y618500D01*
X293763Y618001D01*
X292763D01*
X292263Y618500D01*
X288264Y625000D02*
X287765Y625499D01*
X286765D01*
X286265Y625000D01*
Y623000D01*
X286765Y622501D01*
X287765D01*
X288264Y623000D01*
X290764Y622501D02*
Y625499D01*
X289264Y624000D01*
X291264D01*
X293763Y622501D02*
Y625499D01*
X292263Y624000D01*
X294263D01*
X301264Y621000D02*
X300765Y621499D01*
X299765D01*
X299265Y621000D01*
Y619000D01*
X299765Y618501D01*
X300765D01*
X301264Y619000D01*
X303764Y618501D02*
Y621499D01*
X302264Y620000D01*
X304263D01*
X305263Y621000D02*
X305763Y621499D01*
X306763D01*
X307262Y621000D01*
Y620500D01*
X306763Y620000D01*
X306263D01*
X306763D01*
X307262Y619500D01*
Y619000D01*
X306763Y618501D01*
X305763D01*
X305263Y619000D01*
X301264Y625500D02*
X300765Y625999D01*
X299765D01*
X299265Y625500D01*
Y623500D01*
X299765Y623000D01*
X300765D01*
X301264Y623500D01*
X303764Y623000D02*
Y625999D01*
X302264Y624500D01*
X304263D01*
X307262Y623000D02*
X305263D01*
X307262Y625000D01*
Y625500D01*
X306763Y625999D01*
X305763D01*
X305263Y625500D01*
X301500Y518501D02*
X301000Y518001D01*
Y517001D01*
X301500Y516501D01*
X303500D01*
X303999Y517001D01*
Y518001D01*
X303500Y518501D01*
X303999Y521000D02*
X301000D01*
X302500Y519500D01*
Y521499D01*
X303999Y522499D02*
Y523499D01*
Y522999D01*
X301000D01*
X301500Y522499D01*
X194000Y135694D02*
X193500Y135194D01*
Y134194D01*
X194000Y133694D01*
X196000D01*
X196500Y134194D01*
Y135194D01*
X196000Y135694D01*
X196500Y138193D02*
X193500D01*
X195000Y136693D01*
Y138693D01*
X194000Y139692D02*
X193500Y140192D01*
Y141192D01*
X194000Y141692D01*
X196000D01*
X196500Y141192D01*
Y140192D01*
X196000Y139692D01*
X194000D01*
X297182Y242559D02*
X296682Y243059D01*
X295682D01*
X295182Y242559D01*
Y240559D01*
X295682Y240059D01*
X296682D01*
X297182Y240559D01*
X298181Y242559D02*
X298681Y243059D01*
X299681D01*
X300181Y242559D01*
Y242059D01*
X299681Y241559D01*
X299181D01*
X299681D01*
X300181Y241059D01*
Y240559D01*
X299681Y240059D01*
X298681D01*
X298181Y240559D01*
X301181D02*
X301680Y240059D01*
X302680D01*
X303180Y240559D01*
Y242559D01*
X302680Y243059D01*
X301680D01*
X301181Y242559D01*
Y242059D01*
X301680Y241559D01*
X303180D01*
X298682Y284559D02*
X298182Y285059D01*
X297182D01*
X296682Y284559D01*
Y282559D01*
X297182Y282060D01*
X298182D01*
X298682Y282559D01*
X299681Y284559D02*
X300181Y285059D01*
X301181D01*
X301681Y284559D01*
Y284059D01*
X301181Y283559D01*
X300681D01*
X301181D01*
X301681Y283059D01*
Y282559D01*
X301181Y282060D01*
X300181D01*
X299681Y282559D01*
X302680Y284559D02*
X303180Y285059D01*
X304180D01*
X304680Y284559D01*
Y284059D01*
X304180Y283559D01*
X304680Y283059D01*
Y282559D01*
X304180Y282060D01*
X303180D01*
X302680Y282559D01*
Y283059D01*
X303180Y283559D01*
X302680Y284059D01*
Y284559D01*
X303180Y283559D02*
X304180D01*
X284099Y156199D02*
X283599Y156699D01*
X282600D01*
X282100Y156199D01*
Y154200D01*
X282600Y153700D01*
X283599D01*
X284099Y154200D01*
X285099Y156199D02*
X285599Y156699D01*
X286598D01*
X287098Y156199D01*
Y155699D01*
X286598Y155200D01*
X286099D01*
X286598D01*
X287098Y154700D01*
Y154200D01*
X286598Y153700D01*
X285599D01*
X285099Y154200D01*
X288098Y156699D02*
X290097D01*
Y156199D01*
X288098Y154200D01*
Y153700D01*
X286351Y196882D02*
X285851Y197381D01*
X284852D01*
X284352Y196882D01*
Y194882D01*
X284852Y194382D01*
X285851D01*
X286351Y194882D01*
X287351Y196882D02*
X287851Y197381D01*
X288850D01*
X289350Y196882D01*
Y196382D01*
X288850Y195882D01*
X288350D01*
X288850D01*
X289350Y195382D01*
Y194882D01*
X288850Y194382D01*
X287851D01*
X287351Y194882D01*
X292349Y197381D02*
X291349Y196882D01*
X290350Y195882D01*
Y194882D01*
X290850Y194382D01*
X291849D01*
X292349Y194882D01*
Y195382D01*
X291849Y195882D01*
X290350D01*
X268513Y358500D02*
X268013Y358999D01*
X267013D01*
X266513Y358500D01*
Y356500D01*
X267013Y356000D01*
X268013D01*
X268513Y356500D01*
X269512Y358500D02*
X270012Y358999D01*
X271012D01*
X271512Y358500D01*
Y358000D01*
X271012Y357500D01*
X270512D01*
X271012D01*
X271512Y357000D01*
Y356500D01*
X271012Y356000D01*
X270012D01*
X269512Y356500D01*
X274511Y358999D02*
X272511D01*
Y357500D01*
X273511Y358000D01*
X274011D01*
X274511Y357500D01*
Y356500D01*
X274011Y356000D01*
X273011D01*
X272511Y356500D01*
X267989Y352500D02*
X267489Y352999D01*
X266489D01*
X265989Y352500D01*
Y350500D01*
X266489Y350001D01*
X267489D01*
X267989Y350500D01*
X268988Y352500D02*
X269488Y352999D01*
X270488D01*
X270988Y352500D01*
Y352000D01*
X270488Y351500D01*
X269988D01*
X270488D01*
X270988Y351000D01*
Y350500D01*
X270488Y350001D01*
X269488D01*
X268988Y350500D01*
X273487Y350001D02*
Y352999D01*
X271988Y351500D01*
X273987D01*
X236118Y328015D02*
X236618Y328515D01*
Y329515D01*
X236118Y330014D01*
X234118D01*
X233619Y329515D01*
Y328515D01*
X234118Y328015D01*
X236118Y327015D02*
X236618Y326516D01*
Y325516D01*
X236118Y325016D01*
X235618D01*
X235118Y325516D01*
Y326016D01*
Y325516D01*
X234618Y325016D01*
X234118D01*
X233619Y325516D01*
Y326516D01*
X234118Y327015D01*
X236118Y324016D02*
X236618Y323517D01*
Y322517D01*
X236118Y322017D01*
X235618D01*
X235118Y322517D01*
Y323017D01*
Y322517D01*
X234618Y322017D01*
X234118D01*
X233619Y322517D01*
Y323517D01*
X234118Y324016D01*
X271500Y317501D02*
X271001Y317001D01*
Y316001D01*
X271500Y315501D01*
X273500D01*
X274000Y316001D01*
Y317001D01*
X273500Y317501D01*
X271500Y318500D02*
X271001Y319000D01*
Y320000D01*
X271500Y320500D01*
X272000D01*
X272500Y320000D01*
Y319500D01*
Y320000D01*
X273000Y320500D01*
X273500D01*
X274000Y320000D01*
Y319000D01*
X273500Y318500D01*
X274000Y323499D02*
Y321499D01*
X272000Y323499D01*
X271500D01*
X271001Y322999D01*
Y321999D01*
X271500Y321499D01*
X211501Y356000D02*
X211001Y356500D01*
X210001D01*
X209501Y356000D01*
Y354000D01*
X210001Y353501D01*
X211001D01*
X211501Y354000D01*
X212500Y356000D02*
X213000Y356500D01*
X214000D01*
X214499Y356000D01*
Y355500D01*
X214000Y355000D01*
X213500D01*
X214000D01*
X214499Y354500D01*
Y354000D01*
X214000Y353501D01*
X213000D01*
X212500Y354000D01*
X215499Y353501D02*
X216499D01*
X215999D01*
Y356500D01*
X215499Y356000D01*
X210501Y349000D02*
X210001Y349500D01*
X209001D01*
X208501Y349000D01*
Y347000D01*
X209001Y346500D01*
X210001D01*
X210501Y347000D01*
X211500Y349000D02*
X212000Y349500D01*
X213000D01*
X213500Y349000D01*
Y348500D01*
X213000Y348000D01*
X212500D01*
X213000D01*
X213500Y347500D01*
Y347000D01*
X213000Y346500D01*
X212000D01*
X211500Y347000D01*
X214499Y349000D02*
X214999Y349500D01*
X215999D01*
X216499Y349000D01*
Y347000D01*
X215999Y346500D01*
X214999D01*
X214499Y347000D01*
Y349000D01*
X143501Y634000D02*
X143001Y634500D01*
X142001D01*
X141501Y634000D01*
Y632000D01*
X142001Y631500D01*
X143001D01*
X143501Y632000D01*
X146500Y631500D02*
X144500D01*
X146500Y633500D01*
Y634000D01*
X146000Y634500D01*
X145000D01*
X144500Y634000D01*
X147499Y632000D02*
X147999Y631500D01*
X148999D01*
X149499Y632000D01*
Y634000D01*
X148999Y634500D01*
X147999D01*
X147499Y634000D01*
Y633500D01*
X147999Y633000D01*
X149499D01*
X143501Y638500D02*
X143001Y639000D01*
X142001D01*
X141501Y638500D01*
Y636500D01*
X142001Y636000D01*
X143001D01*
X143501Y636500D01*
X146500Y636000D02*
X144500D01*
X146500Y638000D01*
Y638500D01*
X146000Y639000D01*
X145000D01*
X144500Y638500D01*
X147499D02*
X147999Y639000D01*
X148999D01*
X149499Y638500D01*
Y638000D01*
X148999Y637500D01*
X149499Y637000D01*
Y636500D01*
X148999Y636000D01*
X147999D01*
X147499Y636500D01*
Y637000D01*
X147999Y637500D01*
X147499Y638000D01*
Y638500D01*
X147999Y637500D02*
X148999D01*
X159001Y648248D02*
X158501Y648747D01*
X157501D01*
X157001Y648248D01*
Y646248D01*
X157501Y645749D01*
X158501D01*
X159001Y646248D01*
X162000Y645749D02*
X160000D01*
X162000Y647748D01*
Y648248D01*
X161500Y648747D01*
X160500D01*
X160000Y648248D01*
X162999Y648747D02*
X164999D01*
Y648248D01*
X162999Y646248D01*
Y645749D01*
X159001Y688248D02*
X158501Y688748D01*
X157501D01*
X157001Y688248D01*
Y686248D01*
X157501Y685748D01*
X158501D01*
X159001Y686248D01*
X162000Y685748D02*
X160000D01*
X162000Y687748D01*
Y688248D01*
X161500Y688748D01*
X160500D01*
X160000Y688248D01*
X164999Y688748D02*
X163999Y688248D01*
X162999Y687248D01*
Y686248D01*
X163499Y685748D01*
X164499D01*
X164999Y686248D01*
Y686748D01*
X164499Y687248D01*
X162999D01*
X217013Y695748D02*
X216513Y696247D01*
X215513D01*
X215013Y695748D01*
Y693748D01*
X215513Y693249D01*
X216513D01*
X217013Y693748D01*
X220011Y693249D02*
X218012D01*
X220011Y695248D01*
Y695748D01*
X219512Y696247D01*
X218512D01*
X218012Y695748D01*
X223010Y696247D02*
X221011D01*
Y694748D01*
X222011Y695248D01*
X222511D01*
X223010Y694748D01*
Y693748D01*
X222511Y693249D01*
X221511D01*
X221011Y693748D01*
X219001Y575748D02*
X218501Y576248D01*
X217501D01*
X217001Y575748D01*
Y573748D01*
X217501Y573248D01*
X218501D01*
X219001Y573748D01*
X222000Y573248D02*
X220000D01*
X222000Y575248D01*
Y575748D01*
X221500Y576248D01*
X220500D01*
X220000Y575748D01*
X224499Y573248D02*
Y576248D01*
X222999Y574748D01*
X224999D01*
X218501Y646748D02*
X218001Y647248D01*
X217001D01*
X216501Y646748D01*
Y644748D01*
X217001Y644248D01*
X218001D01*
X218501Y644748D01*
X221500Y644248D02*
X219500D01*
X221500Y646248D01*
Y646748D01*
X221000Y647248D01*
X220000D01*
X219500Y646748D01*
X222499D02*
X222999Y647248D01*
X223999D01*
X224499Y646748D01*
Y646248D01*
X223999Y645748D01*
X223499D01*
X223999D01*
X224499Y645248D01*
Y644748D01*
X223999Y644248D01*
X222999D01*
X222499Y644748D01*
X236000Y652249D02*
X235501Y651749D01*
Y650749D01*
X236000Y650249D01*
X238000D01*
X238499Y650749D01*
Y651749D01*
X238000Y652249D01*
X238499Y655248D02*
Y653248D01*
X236500Y655248D01*
X236000D01*
X235501Y654748D01*
Y653748D01*
X236000Y653248D01*
X238499Y658247D02*
Y656247D01*
X236500Y658247D01*
X236000D01*
X235501Y657747D01*
Y656747D01*
X236000Y656247D01*
X236000Y581500D02*
X235501Y581001D01*
Y580001D01*
X236000Y579501D01*
X238000D01*
X238499Y580001D01*
Y581001D01*
X238000Y581500D01*
X238499Y584500D02*
Y582500D01*
X236500Y584500D01*
X236000D01*
X235501Y584000D01*
Y583000D01*
X236000Y582500D01*
X238499Y585499D02*
Y586499D01*
Y585999D01*
X235501D01*
X236000Y585499D01*
X244000Y682249D02*
X243500Y681749D01*
Y680749D01*
X244000Y680249D01*
X246000D01*
X246499Y680749D01*
Y681749D01*
X246000Y682249D01*
X246499Y685248D02*
Y683248D01*
X244500Y685248D01*
X244000D01*
X243500Y684748D01*
Y683748D01*
X244000Y683248D01*
Y686247D02*
X243500Y686747D01*
Y687747D01*
X244000Y688247D01*
X246000D01*
X246499Y687747D01*
Y686747D01*
X246000Y686247D01*
X244000D01*
X164999Y434499D02*
X164499Y434999D01*
X163500D01*
X163000Y434499D01*
Y432500D01*
X163500Y432000D01*
X164499D01*
X164999Y432500D01*
X165999Y432000D02*
X166999D01*
X166499D01*
Y434999D01*
X165999Y434499D01*
X168498Y432500D02*
X168998Y432000D01*
X169998D01*
X170498Y432500D01*
Y434499D01*
X169998Y434999D01*
X168998D01*
X168498Y434499D01*
Y433999D01*
X168998Y433499D01*
X170498D01*
X261500Y736758D02*
X261000Y736259D01*
Y735259D01*
X261500Y734759D01*
X263500D01*
X264000Y735259D01*
Y736259D01*
X263500Y736758D01*
X264000Y737758D02*
Y738758D01*
Y738258D01*
X261000D01*
X261500Y737758D01*
Y740257D02*
X261000Y740757D01*
Y741757D01*
X261500Y742257D01*
X262000D01*
X262500Y741757D01*
X263000Y742257D01*
X263500D01*
X264000Y741757D01*
Y740757D01*
X263500Y740257D01*
X263000D01*
X262500Y740757D01*
X262000Y740257D01*
X261500D01*
X262500Y740757D02*
Y741757D01*
X147762Y494500D02*
X147263Y495000D01*
X146263D01*
X145763Y494500D01*
Y492500D01*
X146263Y492000D01*
X147263D01*
X147762Y492500D01*
X148762Y492000D02*
X149762D01*
X149262D01*
Y495000D01*
X148762Y494500D01*
X151261Y495000D02*
X153261D01*
Y494500D01*
X151261Y492500D01*
Y492000D01*
X145799Y549399D02*
X145299Y549899D01*
X144300D01*
X143800Y549399D01*
Y547400D01*
X144300Y546900D01*
X145299D01*
X145799Y547400D01*
X146799Y546900D02*
X147799D01*
X147299D01*
Y549899D01*
X146799Y549399D01*
X151298Y549899D02*
X150298Y549399D01*
X149298Y548399D01*
Y547400D01*
X149798Y546900D01*
X150798D01*
X151298Y547400D01*
Y547900D01*
X150798Y548399D01*
X149298D01*
X163227Y155437D02*
X162727Y155937D01*
X161727D01*
X161228Y155437D01*
Y153437D01*
X161727Y152937D01*
X162727D01*
X163227Y153437D01*
X164227Y152937D02*
X165226D01*
X164726D01*
Y155937D01*
X164227Y155437D01*
X168725Y155937D02*
X166726D01*
Y154437D01*
X167726Y154937D01*
X168225D01*
X168725Y154437D01*
Y153437D01*
X168225Y152937D01*
X167226D01*
X166726Y153437D01*
X212332Y211945D02*
X212832Y211445D01*
X213832D01*
X214332Y211945D01*
Y213945D01*
X213832Y214444D01*
X212832D01*
X212332Y213945D01*
X211332Y214444D02*
X210333D01*
X210833D01*
Y211445D01*
X211332Y211945D01*
X207334Y214444D02*
Y211445D01*
X208833Y212945D01*
X206834D01*
X212832Y177945D02*
X213332Y177445D01*
X214332D01*
X214831Y177945D01*
Y179945D01*
X214332Y180444D01*
X213332D01*
X212832Y179945D01*
X211832Y180444D02*
X210833D01*
X211333D01*
Y177445D01*
X211832Y177945D01*
X209333D02*
X208833Y177445D01*
X207834D01*
X207334Y177945D01*
Y178445D01*
X207834Y178945D01*
X208334D01*
X207834D01*
X207334Y179445D01*
Y179945D01*
X207834Y180444D01*
X208833D01*
X209333Y179945D01*
X163227Y169437D02*
X162727Y169937D01*
X161727D01*
X161228Y169437D01*
Y167437D01*
X161727Y166937D01*
X162727D01*
X163227Y167437D01*
X164227Y166937D02*
X165226D01*
X164726D01*
Y169937D01*
X164227Y169437D01*
X168725Y166937D02*
X166726D01*
X168725Y168937D01*
Y169437D01*
X168225Y169937D01*
X167226D01*
X166726Y169437D01*
X113976Y130187D02*
X114476Y130686D01*
Y131686D01*
X113976Y132186D01*
X111977D01*
X111477Y131686D01*
Y130686D01*
X111977Y130187D01*
X111477Y129187D02*
Y128187D01*
Y128687D01*
X114476D01*
X113976Y129187D01*
X111477Y126688D02*
Y125688D01*
Y126188D01*
X114476D01*
X113976Y126688D01*
X121976Y131186D02*
X122476Y131686D01*
Y132686D01*
X121976Y133186D01*
X119977D01*
X119477Y132686D01*
Y131686D01*
X119977Y131186D01*
X119477Y130187D02*
Y129187D01*
Y129687D01*
X122476D01*
X121976Y130187D01*
Y127688D02*
X122476Y127188D01*
Y126188D01*
X121976Y125688D01*
X119977D01*
X119477Y126188D01*
Y127188D01*
X119977Y127688D01*
X121976D01*
X130476Y161437D02*
X130976Y161937D01*
Y162936D01*
X130476Y163436D01*
X128477D01*
X127977Y162936D01*
Y161937D01*
X128477Y161437D01*
Y160437D02*
X127977Y159937D01*
Y158938D01*
X128477Y158438D01*
X130476D01*
X130976Y158938D01*
Y159937D01*
X130476Y160437D01*
X129976D01*
X129476Y159937D01*
Y158438D01*
X122476Y162937D02*
X122976Y163437D01*
Y164436D01*
X122476Y164936D01*
X120477D01*
X119977Y164436D01*
Y163437D01*
X120477Y162937D01*
X122476Y161937D02*
X122976Y161437D01*
Y160438D01*
X122476Y159938D01*
X121976D01*
X121476Y160438D01*
X120976Y159938D01*
X120477D01*
X119977Y160438D01*
Y161437D01*
X120477Y161937D01*
X120976D01*
X121476Y161437D01*
X121976Y161937D01*
X122476D01*
X121476Y161437D02*
Y160438D01*
X153488Y142937D02*
X152989Y143437D01*
X151989D01*
X151489Y142937D01*
Y140937D01*
X151989Y140437D01*
X152989D01*
X153488Y140937D01*
X154488Y143437D02*
X156487D01*
Y142937D01*
X154488Y140937D01*
Y140437D01*
X155000Y223248D02*
X154500Y222748D01*
Y221749D01*
X155000Y221249D01*
X157000D01*
X157500Y221749D01*
Y222748D01*
X157000Y223248D01*
X154500Y226247D02*
X155000Y225248D01*
X156000Y224248D01*
X157000D01*
X157500Y224748D01*
Y225747D01*
X157000Y226247D01*
X156500D01*
X156000Y225747D01*
Y224248D01*
X147500Y223248D02*
X147001Y222748D01*
Y221749D01*
X147500Y221249D01*
X149500D01*
X149999Y221749D01*
Y222748D01*
X149500Y223248D01*
X147001Y226247D02*
Y224248D01*
X148500D01*
X148000Y225248D01*
Y225747D01*
X148500Y226247D01*
X149500D01*
X149999Y225747D01*
Y224748D01*
X149500Y224248D01*
X156000Y212748D02*
X155500Y212248D01*
Y211249D01*
X156000Y210749D01*
X158000D01*
X158500Y211249D01*
Y212248D01*
X158000Y212748D01*
X158500Y215247D02*
X155500D01*
X157000Y213748D01*
Y215747D01*
X150000Y212748D02*
X149501Y212248D01*
Y211249D01*
X150000Y210749D01*
X152000D01*
X152499Y211249D01*
Y212248D01*
X152000Y212748D01*
X150000Y213748D02*
X149501Y214248D01*
Y215247D01*
X150000Y215747D01*
X150500D01*
X151000Y215247D01*
Y214748D01*
Y215247D01*
X151500Y215747D01*
X152000D01*
X152499Y215247D01*
Y214248D01*
X152000Y213748D01*
X118500Y210748D02*
X119000Y210248D01*
X119999D01*
X120499Y210748D01*
Y212748D01*
X119999Y213247D01*
X119000D01*
X118500Y212748D01*
X115501Y213247D02*
X117500D01*
X115501Y211248D01*
Y210748D01*
X116001Y210248D01*
X117000D01*
X117500Y210748D01*
X298028Y487741D02*
X298527Y487241D01*
X299527D01*
X300027Y487741D01*
Y489740D01*
X299527Y490240D01*
X298527D01*
X298028Y489740D01*
X297028Y490240D02*
X296028D01*
X296528D01*
Y487241D01*
X297028Y487741D01*
X127704Y345498D02*
X124705D01*
Y343998D01*
X125205Y343498D01*
X125705D01*
X126205Y343998D01*
Y345498D01*
Y343998D01*
X126705Y343498D01*
X127204D01*
X127704Y343998D01*
Y345498D01*
Y342499D02*
X125205D01*
X124705Y341999D01*
Y340999D01*
X125205Y340499D01*
X127704D01*
Y339500D02*
Y337501D01*
X127204D01*
X125205Y339500D01*
X124705D01*
Y337501D01*
X127704Y336501D02*
Y334502D01*
X127204D01*
X125205Y336501D01*
X124705D01*
Y334502D01*
Y333502D02*
Y332502D01*
Y333002D01*
X127704D01*
X127204Y333502D01*
D14*
X278245Y473902D02*
X277495Y474335D01*
Y473469D01*
X278245Y473902D01*
X124500Y499752D02*
X149500D01*
X124500Y536248D02*
X149500D01*
X179405Y345600D02*
Y349100D01*
Y357400D02*
X182605D01*
X179405Y353900D02*
Y357400D01*
Y345600D02*
X181005D01*
X182605D01*
X305064Y696400D02*
Y699900D01*
X301864Y688100D02*
X305064D01*
Y691600D01*
X303464Y699900D02*
X305064D01*
X301864D02*
X303464D01*
X259316Y470540D02*
X273716D01*
X259316D02*
Y471792D01*
Y484940D02*
X273716D01*
Y483689D02*
Y484940D01*
Y470540D02*
Y471792D01*
X259316Y483689D02*
Y484940D01*
D15*
X126476Y107937D02*
X134976D01*
X126476D02*
Y137937D01*
X134976D01*
X146976Y107937D02*
X155476D01*
Y137937D01*
X146976D02*
X155476D01*
X180595Y726165D02*
X200279D01*
Y584827D02*
Y726165D01*
X180595Y584827D02*
X200279D01*
X180595D02*
Y726165D01*
M02*
