G04*
G04 #@! TF.GenerationSoftware,Altium Limited,Altium Designer,24.5.2 (23)*
G04*
G04 Layer_Physical_Order=1*
G04 Layer_Color=255*
%FSLAX25Y25*%
%MOIN*%
G70*
G04*
G04 #@! TF.SameCoordinates,0E20A4CB-0F74-4F35-8983-D76818566807*
G04*
G04*
G04 #@! TF.FilePolarity,Positive*
G04*
G01*
G75*
%ADD14C,0.00600*%
%ADD59R,0.03900X0.01600*%
%ADD60R,0.03000X0.01600*%
%ADD78R,0.03937X0.04016*%
%ADD79R,0.12598X0.06299*%
%ADD80R,0.03819X0.03543*%
%ADD81R,0.03543X0.03819*%
%ADD82R,0.02598X0.01260*%
%ADD83R,0.05906X0.05118*%
%ADD84R,0.04016X0.03937*%
%ADD85R,0.02323X0.05276*%
%ADD86R,0.22441X0.06299*%
%ADD87R,0.01181X0.01968*%
%ADD88R,0.04764X0.02284*%
%ADD89R,0.06181X0.01614*%
%ADD90R,0.03543X0.02402*%
%ADD91R,0.03543X0.02087*%
%ADD92R,0.02284X0.06339*%
%ADD93R,0.02165X0.00984*%
%ADD94R,0.02165X0.00787*%
%ADD95R,0.01181X0.02362*%
%ADD96R,0.01968X0.01181*%
%ADD97R,0.03543X0.03150*%
%ADD98R,0.04606X0.07087*%
%ADD99R,0.06299X0.12598*%
%ADD100R,0.09646X0.09646*%
%ADD101R,0.01063X0.03386*%
%ADD102R,0.03386X0.01063*%
%ADD103R,0.08465X0.12795*%
%ADD104R,0.08465X0.03740*%
G04:AMPARAMS|DCode=105|XSize=61.42mil|YSize=11.02mil|CornerRadius=1.38mil|HoleSize=0mil|Usage=FLASHONLY|Rotation=0.000|XOffset=0mil|YOffset=0mil|HoleType=Round|Shape=RoundedRectangle|*
%AMROUNDEDRECTD105*
21,1,0.06142,0.00827,0,0,0.0*
21,1,0.05866,0.01102,0,0,0.0*
1,1,0.00276,0.02933,-0.00413*
1,1,0.00276,-0.02933,-0.00413*
1,1,0.00276,-0.02933,0.00413*
1,1,0.00276,0.02933,0.00413*
%
%ADD105ROUNDEDRECTD105*%
G04:AMPARAMS|DCode=106|XSize=61.42mil|YSize=11.02mil|CornerRadius=1.38mil|HoleSize=0mil|Usage=FLASHONLY|Rotation=90.000|XOffset=0mil|YOffset=0mil|HoleType=Round|Shape=RoundedRectangle|*
%AMROUNDEDRECTD106*
21,1,0.06142,0.00827,0,0,90.0*
21,1,0.05866,0.01102,0,0,90.0*
1,1,0.00276,0.00413,0.02933*
1,1,0.00276,0.00413,-0.02933*
1,1,0.00276,-0.00413,-0.02933*
1,1,0.00276,-0.00413,0.02933*
%
%ADD106ROUNDEDRECTD106*%
%ADD107R,0.01575X0.07480*%
%ADD108R,0.04606X0.01575*%
%ADD109R,0.02402X0.03543*%
%ADD110R,0.02087X0.03543*%
%ADD111R,0.01181X0.05512*%
%ADD112R,0.03937X0.03937*%
%ADD113R,0.06102X0.05315*%
%ADD114R,0.07480X0.05315*%
%ADD115R,0.04724X0.03937*%
%ADD116R,0.03347X0.04331*%
%ADD117R,0.02953X0.04331*%
%ADD118R,0.06417X0.04488*%
%ADD119R,0.04331X0.02362*%
%ADD120R,0.08858X0.01968*%
%ADD121R,0.09843X0.07874*%
%ADD122R,0.07756X0.02284*%
%ADD123R,0.08661X0.10630*%
%ADD124R,0.05622X0.05622*%
%ADD125C,0.05622*%
%ADD126C,0.13055*%
%ADD127R,0.03347X0.03347*%
%ADD128C,0.03347*%
%ADD129R,0.05200X0.05200*%
%ADD130C,0.05200*%
%ADD131C,0.05150*%
%ADD132C,0.03969*%
%ADD133R,0.03969X0.03969*%
%ADD134C,0.03740*%
%ADD135O,0.05150X0.10299*%
%ADD136O,0.06535X0.13071*%
%ADD137C,0.05000*%
%ADD138R,0.05000X0.05000*%
G36*
X129677Y290862D02*
X126921D01*
Y295193D01*
X132433D01*
Y297949D01*
X137354D01*
Y288894D01*
X129677D01*
Y290862D01*
D02*
G37*
G36*
X170425Y297949D02*
X175347D01*
Y295193D01*
X180858D01*
Y290862D01*
X178102D01*
Y288894D01*
X170425D01*
Y297949D01*
D02*
G37*
G36*
X267716Y482140D02*
Y473340D01*
X261916D01*
X261917Y474702D01*
X260917D01*
Y475661D01*
X261917D01*
Y477261D01*
X260917D01*
Y478220D01*
X261917D01*
Y479820D01*
X260917D01*
Y480779D01*
X261917D01*
X261916Y482140D01*
X267716D01*
D02*
G37*
D14*
X113917Y112898D02*
X140976D01*
X113476Y112457D02*
X113917Y112898D01*
X113476Y119937D02*
X121736D01*
X121976Y120177D01*
Y147697D01*
X129476Y148449D02*
X129488Y148437D01*
X134866D01*
X136913Y150484D02*
X137583D01*
X134866Y148437D02*
X136913Y150484D01*
X140976Y132976D02*
X141000Y133000D01*
Y142437D01*
Y150413D01*
X139291Y152123D02*
X141000Y150413D01*
X137913Y152123D02*
X139291D01*
X137583Y152453D02*
X137913Y152123D01*
X121976Y147697D02*
X128724D01*
X129476Y148449D01*
X122732Y154421D02*
X137583D01*
X121976Y155177D02*
X122732Y154421D01*
X145609Y152453D02*
X148656Y149406D01*
X150008D01*
X150976Y148437D01*
X143370Y152453D02*
X145609D01*
X146976Y142437D02*
Y147547D01*
X143370Y150484D02*
X144039D01*
X146976Y147547D01*
X143370Y154421D02*
X150972D01*
X150988Y154437D01*
X156968Y148445D02*
Y160437D01*
X156961Y148437D02*
X156968Y148445D01*
Y168441D02*
Y174437D01*
X156965Y168437D02*
X156968Y168441D01*
X150984D02*
Y174437D01*
Y168441D02*
X150988Y168437D01*
Y160441D02*
Y168437D01*
X150984Y160437D02*
X150988Y160441D01*
X143976Y168429D02*
X150980D01*
X150988Y168437D01*
X143370Y161839D02*
X143976Y162445D01*
X143370Y156390D02*
Y161839D01*
X137476Y162453D02*
X137583Y162346D01*
Y156390D02*
Y162346D01*
X124500Y216898D02*
X127350Y219748D01*
X131000D01*
X124500Y211748D02*
Y216898D01*
Y211748D02*
X125000Y211248D01*
X137650Y219748D02*
X140500Y216898D01*
X131000Y219748D02*
X137650D01*
X140500Y211433D02*
Y216898D01*
Y211433D02*
X141000Y210933D01*
X131236Y238488D02*
X148000D01*
X156000D01*
X131000Y238252D02*
X131236Y238488D01*
X141000Y201563D02*
X144740D01*
X156197D01*
X157000Y200760D01*
X136945Y211248D02*
X137260Y210933D01*
X130976Y211248D02*
X136945D01*
X211134Y686862D02*
X224000D01*
X211000Y686996D02*
X211134Y686862D01*
X205000Y680535D02*
Y680721D01*
X205291Y681012D02*
X211000D01*
X205000Y680721D02*
X205291Y681012D01*
X147299Y599661D02*
X153339D01*
X155618Y597382D02*
X158016D01*
X153339Y599661D02*
X155618Y597382D01*
X155425Y594075D02*
X158016D01*
X152398Y597102D02*
X155425Y594075D01*
X147299Y597102D02*
X152398D01*
X155575Y590925D02*
X158016D01*
X147299Y594543D02*
X151957D01*
X155575Y590925D01*
X147299Y604779D02*
X153279D01*
X154925Y606425D02*
X158016D01*
X153279Y604779D02*
X154925Y606425D01*
X152839Y607339D02*
X155075Y609575D01*
X147299Y607339D02*
X152839D01*
X155075Y609575D02*
X158016D01*
X155382Y612882D02*
X158016D01*
X152398Y609898D02*
X155382Y612882D01*
X147299Y609898D02*
X152398D01*
X157118Y602220D02*
X158016Y603118D01*
X147299Y602220D02*
X157118D01*
X147299Y619811D02*
X148488Y621000D01*
X147299Y615016D02*
Y619811D01*
X157339Y634500D02*
X157531Y634307D01*
X152000Y634500D02*
X157339D01*
X135000Y631740D02*
X149240D01*
X152000Y634500D01*
X157248Y624260D02*
X157531Y624543D01*
X135000Y624260D02*
X157248D01*
X142012Y628000D02*
X142512Y627500D01*
X135000Y628000D02*
X142012D01*
X227882Y263252D02*
Y268996D01*
X227618Y269260D02*
X227882Y268996D01*
X217882Y263252D02*
Y268760D01*
X217382Y269260D02*
X217882Y268760D01*
X265500Y719508D02*
Y722047D01*
X262539Y725008D02*
X265500Y722047D01*
X262500Y725008D02*
X262539D01*
X268158Y724665D02*
X268500Y725008D01*
X268158Y718917D02*
Y724665D01*
X296732Y531543D02*
X297000Y531276D01*
Y524488D02*
Y531276D01*
X326736Y555756D02*
X327000Y555492D01*
X320098Y555756D02*
X326736D01*
X126000Y485500D02*
X129500Y482000D01*
X135500D01*
X141484D02*
Y493984D01*
X141500Y494000D02*
Y501500D01*
X122000Y513000D02*
X130000D01*
X141500Y501500D01*
X141484Y493984D02*
X141500Y494000D01*
X135031Y476500D02*
X135209D01*
X135500Y476791D02*
Y482000D01*
X135209Y476500D02*
X135500Y476791D01*
X296000Y382500D02*
X298500Y385000D01*
X287756Y382500D02*
X296000D01*
X298500Y385000D02*
Y394500D01*
X295500Y397500D02*
X298500Y394500D01*
X287756Y397500D02*
X295500D01*
X287756Y387500D02*
Y392500D01*
X322492Y382500D02*
Y388500D01*
Y397000D01*
X307244Y397500D02*
X316508D01*
X315508Y387500D02*
X316508Y388500D01*
X307244Y387500D02*
X315508D01*
X307244Y382500D02*
X316508D01*
X184205Y342138D02*
X186142Y344075D01*
X184205Y342000D02*
Y342138D01*
X186142Y344075D02*
Y347760D01*
X178220Y336000D02*
Y342000D01*
X178465Y351500D02*
X180205Y353240D01*
Y361543D01*
X178268Y351500D02*
X178465D01*
X150705Y343705D02*
X158500Y351500D01*
X178268D01*
X174079Y369295D02*
X179240Y374457D01*
X180205D01*
X150705Y369295D02*
X174079D01*
X282728Y474740D02*
X284293Y476304D01*
X285580D01*
X292016Y482602D02*
Y482740D01*
X290406Y481131D02*
X290544D01*
X292016Y482602D01*
X285580Y476304D02*
X290406Y481131D01*
X274154Y474740D02*
X282728D01*
X292016Y482602D02*
Y488740D01*
X280016Y482748D02*
X286024D01*
X286032Y482740D01*
X286039Y482748D01*
Y488740D01*
X273315Y481579D02*
X274485Y482748D01*
X272165Y481579D02*
X273315D01*
X274485Y482748D02*
X280016D01*
X272165Y476461D02*
Y479020D01*
Y473902D02*
Y476461D01*
X273315Y473902D02*
X274154Y474740D01*
X272165Y473902D02*
X273315D01*
X293902Y474339D02*
X294303Y474740D01*
X293902Y462240D02*
Y474339D01*
X255500Y338342D02*
Y351500D01*
X235000Y339488D02*
X254354D01*
X255500Y338342D01*
X237000Y368508D02*
X237047Y368461D01*
Y362618D02*
Y368461D01*
X254953Y352047D02*
X255500Y351500D01*
X247618Y352047D02*
X254953D01*
X247618Y355984D02*
X253996D01*
X255512Y357500D01*
X247618Y357953D02*
X250098D01*
X255508Y363362D01*
Y363500D01*
X235079Y339567D02*
Y347382D01*
X235000Y339488D02*
X235079Y339567D01*
X226500Y348000D02*
Y348039D01*
X228539Y350079D02*
X232382D01*
X226500Y348039D02*
X228539Y350079D01*
X220524Y354961D02*
X223437Y352047D01*
X220524Y354961D02*
Y355000D01*
X223437Y352047D02*
X232382D01*
X226500Y355000D02*
X227484Y354016D01*
X232382D01*
X289881Y648109D02*
X291992Y650220D01*
X314764D01*
X288272Y646638D02*
X289743Y648109D01*
X288272Y646500D02*
Y646638D01*
X289743Y648109D02*
X289881D01*
X288264Y646492D02*
X288272Y646500D01*
X288264Y640500D02*
Y646492D01*
Y634500D02*
Y640500D01*
X294256Y646500D02*
X300772D01*
X306752Y640500D02*
Y646496D01*
Y634500D02*
Y640500D01*
Y646496D02*
X306756Y646500D01*
X308370Y648252D02*
X314764D01*
X306756Y646638D02*
X308370Y648252D01*
X306756Y646500D02*
Y646638D01*
X323264Y625488D02*
X323346Y625571D01*
Y633764D01*
X368622Y628590D02*
X370724Y626488D01*
X368622Y628590D02*
Y633764D01*
X370724Y626488D02*
X370764D01*
X364685Y626567D02*
Y633764D01*
Y626567D02*
X364764Y626488D01*
X375236Y683685D02*
X382949D01*
X383264Y684000D01*
X375236Y687622D02*
X380937D01*
X383276Y689961D01*
Y690000D01*
X333189Y701933D02*
X333264Y702008D01*
X333189Y694236D02*
Y701933D01*
X321378Y694236D02*
Y701898D01*
X321264Y702012D02*
X321378Y701898D01*
X307043Y677779D02*
X314764D01*
X306764Y677500D02*
X307043Y677779D01*
X306764Y669500D02*
X308327Y667937D01*
X314764D01*
X307488Y661000D02*
Y663513D01*
X307976Y664000D02*
X314764D01*
X307488Y663513D02*
X307976Y664000D01*
X314732Y666000D02*
X314764Y665969D01*
X300087Y666000D02*
X314732D01*
X298039Y663953D02*
X300087Y666000D01*
X298039Y661000D02*
Y663953D01*
X137508Y273933D02*
X138194Y274619D01*
Y276253D01*
X147000Y285059D01*
X147272Y276831D02*
X152905Y282465D01*
Y288500D01*
X147272Y273933D02*
Y276831D01*
X177585Y274619D02*
Y276253D01*
X168654Y285185D02*
Y288500D01*
X177585Y274619D02*
X178272Y273933D01*
X168654Y285185D02*
X177585Y276253D01*
X174965Y273933D02*
Y276374D01*
X166685Y284653D02*
Y288500D01*
Y284653D02*
X174965Y276374D01*
X171890Y274008D02*
Y276949D01*
X171815Y273933D02*
X171890Y274008D01*
X164716Y284122D02*
X171890Y276949D01*
X164716Y284122D02*
Y288500D01*
X162748Y282090D02*
X168508Y276331D01*
Y273933D02*
Y276331D01*
X162748Y282090D02*
Y288500D01*
X162772Y273933D02*
Y276567D01*
X160780Y278559D02*
Y288500D01*
Y278559D02*
X162772Y276567D01*
X153008Y277067D02*
X154874Y278933D01*
Y288500D01*
X153008Y273933D02*
Y277067D01*
X147000Y285059D02*
Y288500D01*
X140815Y276510D02*
X148969Y284664D01*
Y288500D01*
X140815Y273933D02*
Y276510D01*
X143965Y276524D02*
X150890Y283449D01*
Y288453D01*
X143965Y273933D02*
Y276524D01*
X150890Y288453D02*
X150937Y288500D01*
X156315Y273933D02*
X156843Y274461D01*
Y288500D01*
X158811Y274587D02*
Y288500D01*
Y274587D02*
X159465Y273933D01*
X287823Y124315D02*
X287831Y124323D01*
X281823Y124315D02*
X287823D01*
X276528Y141618D02*
X282173D01*
X275831Y142315D02*
X276528Y141618D01*
X275831Y136331D02*
X276000Y136500D01*
X282173D01*
X275839Y130315D02*
Y136323D01*
Y124315D02*
Y130315D01*
X275831Y136331D02*
X275839Y136323D01*
X287968Y130307D02*
X289811Y132150D01*
X287831Y130307D02*
X287968D01*
X289811Y132150D02*
Y136500D01*
Y147307D02*
X290319Y147815D01*
X289811Y141618D02*
Y147307D01*
X292500Y184500D02*
Y190032D01*
X292850Y190382D01*
X290354Y166882D02*
X290362Y166890D01*
X284354Y166882D02*
X290354D01*
X290500Y172874D02*
X292500Y174874D01*
Y179382D01*
X290362Y172874D02*
X290500D01*
X278370Y172882D02*
Y178882D01*
Y166882D02*
Y172882D01*
X278362Y178890D02*
X278370Y178882D01*
X278854Y179382D02*
X284862D01*
X278362Y178890D02*
X278854Y179382D01*
X278362Y184874D02*
X278736Y184500D01*
X284862D01*
X289673Y225059D02*
X296189D01*
X297181Y224067D01*
X289673Y219059D02*
Y225059D01*
X283362Y225386D02*
X283689Y225059D01*
X283362Y225386D02*
Y231000D01*
X291000D02*
X302232D01*
X303181Y230051D01*
X297134Y236118D02*
X297193Y236059D01*
X291000Y236118D02*
X297134D01*
X284862Y266886D02*
X285189Y266559D01*
X284862Y266886D02*
Y273000D01*
X292500Y278118D02*
X298634D01*
X298693Y278059D01*
X292500Y273000D02*
X303732D01*
X304681Y272051D01*
X291173Y266559D02*
X291665Y266067D01*
X298681D01*
X291165Y260559D02*
Y266551D01*
X291173Y266559D01*
D59*
X272165Y473902D02*
D03*
Y476461D02*
D03*
Y479020D02*
D03*
Y481579D02*
D03*
D60*
X260417D02*
D03*
Y479020D02*
D03*
Y476461D02*
D03*
Y473902D02*
D03*
D78*
X175488Y647248D02*
D03*
X169512D02*
D03*
X175488Y687248D02*
D03*
X169512D02*
D03*
X205024Y694748D02*
D03*
X211000D02*
D03*
X146976Y142437D02*
D03*
X141000D02*
D03*
X150988Y168437D02*
D03*
X156965D02*
D03*
X150988Y154437D02*
D03*
X156965D02*
D03*
X130976Y211248D02*
D03*
X125000D02*
D03*
X206512Y575000D02*
D03*
X212488D02*
D03*
X206500Y646000D02*
D03*
X212476D02*
D03*
X148488Y621000D02*
D03*
X142512D02*
D03*
Y627500D02*
D03*
X148488D02*
D03*
X135524Y494000D02*
D03*
X141500D02*
D03*
X286039Y488740D02*
D03*
X292016D02*
D03*
X255500Y351500D02*
D03*
X261476D02*
D03*
X255512Y357500D02*
D03*
X261488D02*
D03*
X220524Y355000D02*
D03*
X226500D02*
D03*
X220524Y348000D02*
D03*
X226500D02*
D03*
X219094Y212945D02*
D03*
X225071D02*
D03*
X225583Y178945D02*
D03*
X219606D02*
D03*
X306752Y634500D02*
D03*
X300776D02*
D03*
X306752Y640500D02*
D03*
X300776D02*
D03*
X288276D02*
D03*
X294252D02*
D03*
X288264Y634500D02*
D03*
X294240D02*
D03*
X383276Y690000D02*
D03*
X389252D02*
D03*
X383264Y684000D02*
D03*
X389240D02*
D03*
X306764Y669500D02*
D03*
X300787D02*
D03*
X306764Y677500D02*
D03*
X300787D02*
D03*
X286874Y190382D02*
D03*
X292850D02*
D03*
X303169Y236059D02*
D03*
X297193D02*
D03*
X304669Y278059D02*
D03*
X298693D02*
D03*
X151976Y541000D02*
D03*
X146000D02*
D03*
X290319Y147815D02*
D03*
X284343D02*
D03*
D79*
X210157Y663500D02*
D03*
X229842D02*
D03*
X210157Y592500D02*
D03*
X229842D02*
D03*
D80*
X137476Y168437D02*
D03*
Y162453D02*
D03*
X143976Y168429D02*
D03*
Y162445D02*
D03*
X327000Y555492D02*
D03*
Y549508D02*
D03*
X211000Y686996D02*
D03*
Y681012D02*
D03*
X217500Y686988D02*
D03*
Y681004D02*
D03*
X227882Y257268D02*
D03*
Y263252D02*
D03*
X217882Y257268D02*
D03*
Y263252D02*
D03*
X268500Y725008D02*
D03*
Y730992D02*
D03*
X280016Y482748D02*
D03*
Y488732D02*
D03*
X237000Y368508D02*
D03*
Y374492D02*
D03*
X333264Y707992D02*
D03*
Y702008D02*
D03*
X287831Y130307D02*
D03*
Y124323D02*
D03*
X275831Y136331D02*
D03*
Y142315D02*
D03*
X278362Y178890D02*
D03*
Y184874D02*
D03*
X290362Y172874D02*
D03*
Y166890D02*
D03*
X303181Y230051D02*
D03*
Y224067D02*
D03*
X297181D02*
D03*
Y230051D02*
D03*
X298681Y266067D02*
D03*
Y272051D02*
D03*
X304681D02*
D03*
Y266067D02*
D03*
D81*
X156968Y174437D02*
D03*
X150984D02*
D03*
X156968Y160437D02*
D03*
X150984D02*
D03*
X141500Y488000D02*
D03*
X135516D02*
D03*
X141484Y482000D02*
D03*
X135500D02*
D03*
X322492Y382500D02*
D03*
X316508D02*
D03*
Y388500D02*
D03*
X322492D02*
D03*
X316508Y397000D02*
D03*
X322492D02*
D03*
X178220Y336000D02*
D03*
X184205D02*
D03*
Y342000D02*
D03*
X178220D02*
D03*
X286032Y482740D02*
D03*
X292016D02*
D03*
X300772Y646500D02*
D03*
X306756D02*
D03*
X294256D02*
D03*
X288272D02*
D03*
X275839Y124315D02*
D03*
X281823D02*
D03*
Y130315D02*
D03*
X275839D02*
D03*
X278370Y166882D02*
D03*
X284354D02*
D03*
Y172882D02*
D03*
X278370D02*
D03*
X289673Y219059D02*
D03*
X283689D02*
D03*
X289673Y225059D02*
D03*
X283689D02*
D03*
X291165Y260559D02*
D03*
X285181D02*
D03*
X291173Y266559D02*
D03*
X285189D02*
D03*
X150976Y148437D02*
D03*
X156961D02*
D03*
X128000Y541000D02*
D03*
X122016D02*
D03*
X255508Y363500D02*
D03*
X261492D02*
D03*
D82*
X143370Y156390D02*
D03*
Y154421D02*
D03*
Y152453D02*
D03*
Y150484D02*
D03*
X137583D02*
D03*
Y152453D02*
D03*
Y154421D02*
D03*
Y156390D02*
D03*
D83*
X113476Y119937D02*
D03*
Y112457D02*
D03*
X121476Y119677D02*
D03*
Y112197D02*
D03*
X121976Y147697D02*
D03*
Y155177D02*
D03*
X156000Y231008D02*
D03*
Y238488D02*
D03*
X148000Y231008D02*
D03*
Y238488D02*
D03*
D84*
X129476Y148449D02*
D03*
Y154425D02*
D03*
X157000Y206736D02*
D03*
Y200760D02*
D03*
X151000D02*
D03*
Y206736D02*
D03*
X224000Y680886D02*
D03*
Y686862D02*
D03*
X195500Y145705D02*
D03*
Y151681D02*
D03*
X262500Y725008D02*
D03*
Y730984D02*
D03*
X297000Y519012D02*
D03*
Y524988D02*
D03*
X235000Y339488D02*
D03*
Y333512D02*
D03*
X321264Y702012D02*
D03*
Y707988D02*
D03*
X364764Y626488D02*
D03*
Y620512D02*
D03*
X370764Y626488D02*
D03*
Y620512D02*
D03*
X323264Y625488D02*
D03*
Y619512D02*
D03*
X165331Y420209D02*
D03*
Y426185D02*
D03*
D85*
X141000Y201563D02*
D03*
X137260D02*
D03*
X144740D02*
D03*
Y210933D02*
D03*
X141000D02*
D03*
X137260D02*
D03*
D86*
X131000Y219748D02*
D03*
Y238252D02*
D03*
D87*
X205000Y680535D02*
D03*
Y684472D02*
D03*
D88*
X135000Y624260D02*
D03*
Y628000D02*
D03*
Y631740D02*
D03*
X125118Y624260D02*
D03*
Y628000D02*
D03*
Y631740D02*
D03*
D89*
X147299Y615016D02*
D03*
Y612457D02*
D03*
Y609898D02*
D03*
Y607339D02*
D03*
Y604779D02*
D03*
Y602220D02*
D03*
Y599661D02*
D03*
Y597102D02*
D03*
Y594543D02*
D03*
Y591984D02*
D03*
X124701D02*
D03*
Y594543D02*
D03*
Y597102D02*
D03*
Y599661D02*
D03*
Y602220D02*
D03*
Y604779D02*
D03*
Y607339D02*
D03*
Y609898D02*
D03*
Y612457D02*
D03*
Y615016D02*
D03*
D90*
X164500Y634307D02*
D03*
Y624543D02*
D03*
X157531D02*
D03*
Y634307D02*
D03*
X164984Y612882D02*
D03*
Y603118D02*
D03*
X158016D02*
D03*
Y612882D02*
D03*
X164984Y597382D02*
D03*
Y587618D02*
D03*
X158016D02*
D03*
Y597382D02*
D03*
D91*
X164500Y631000D02*
D03*
Y627850D02*
D03*
X157531D02*
D03*
Y631000D02*
D03*
X164984Y609575D02*
D03*
Y606425D02*
D03*
X158016D02*
D03*
Y609575D02*
D03*
X164984Y594075D02*
D03*
Y590925D02*
D03*
X158016D02*
D03*
Y594075D02*
D03*
D92*
X202500Y123307D02*
D03*
X207500D02*
D03*
X212500D02*
D03*
X217500D02*
D03*
Y151693D02*
D03*
X212500D02*
D03*
X207500D02*
D03*
X202500D02*
D03*
D93*
X268158Y718917D02*
D03*
Y713012D02*
D03*
X262842D02*
D03*
Y718917D02*
D03*
D94*
X268158Y716949D02*
D03*
Y714980D02*
D03*
X262842D02*
D03*
Y716949D02*
D03*
D95*
X265500Y719508D02*
D03*
Y712421D02*
D03*
D96*
X135031Y476500D02*
D03*
X138969D02*
D03*
D97*
X186142Y347760D02*
D03*
Y355240D02*
D03*
X178268Y351500D02*
D03*
X298327Y697740D02*
D03*
Y690260D02*
D03*
X306201Y694000D02*
D03*
D98*
X282728Y474740D02*
D03*
X294303D02*
D03*
X274843Y532921D02*
D03*
D99*
X255500Y339342D02*
D03*
Y319657D02*
D03*
D100*
X240000Y355000D02*
D03*
D101*
X235079Y362618D02*
D03*
X237047D02*
D03*
X239016D02*
D03*
X240984D02*
D03*
X242953D02*
D03*
X244921D02*
D03*
Y347382D02*
D03*
X242953D02*
D03*
X240984D02*
D03*
X239016D02*
D03*
X237047D02*
D03*
X235079D02*
D03*
D102*
X232382Y350079D02*
D03*
Y352047D02*
D03*
Y354016D02*
D03*
Y355984D02*
D03*
Y357953D02*
D03*
Y359921D02*
D03*
X247618D02*
D03*
Y357953D02*
D03*
Y355984D02*
D03*
Y354016D02*
D03*
Y352047D02*
D03*
Y350079D02*
D03*
D103*
X200665Y195945D02*
D03*
D104*
X223500Y205000D02*
D03*
Y195945D02*
D03*
Y186890D02*
D03*
D105*
X375236Y687622D02*
D03*
Y685653D02*
D03*
Y683685D02*
D03*
Y681716D02*
D03*
Y679748D02*
D03*
Y677779D02*
D03*
Y675811D02*
D03*
Y673842D02*
D03*
Y671874D02*
D03*
Y669906D02*
D03*
Y667937D02*
D03*
Y665969D02*
D03*
Y664000D02*
D03*
Y662032D02*
D03*
Y660063D02*
D03*
Y658095D02*
D03*
Y656126D02*
D03*
Y654157D02*
D03*
Y652189D02*
D03*
Y650220D02*
D03*
Y648252D02*
D03*
Y646283D02*
D03*
Y644315D02*
D03*
Y642346D02*
D03*
Y640378D02*
D03*
X314764D02*
D03*
Y642346D02*
D03*
Y644315D02*
D03*
Y646283D02*
D03*
Y648252D02*
D03*
Y650220D02*
D03*
Y652189D02*
D03*
Y654157D02*
D03*
Y656126D02*
D03*
Y658095D02*
D03*
Y660063D02*
D03*
Y662032D02*
D03*
Y664000D02*
D03*
Y665969D02*
D03*
Y667937D02*
D03*
Y669906D02*
D03*
Y671874D02*
D03*
Y673842D02*
D03*
Y675811D02*
D03*
Y677779D02*
D03*
Y679748D02*
D03*
Y681716D02*
D03*
Y683685D02*
D03*
Y685653D02*
D03*
Y687622D02*
D03*
D106*
X321378Y694236D02*
D03*
X323346D02*
D03*
X325315D02*
D03*
X327284D02*
D03*
X329252D02*
D03*
X331221D02*
D03*
X333189D02*
D03*
X335157D02*
D03*
X337126D02*
D03*
X339094D02*
D03*
X341063D02*
D03*
X343032D02*
D03*
X345000D02*
D03*
X346969D02*
D03*
X348937D02*
D03*
X350905D02*
D03*
X352874D02*
D03*
X354842D02*
D03*
X356811D02*
D03*
X358780D02*
D03*
X360748D02*
D03*
X362717D02*
D03*
X364685D02*
D03*
X366653D02*
D03*
X368622D02*
D03*
Y633764D02*
D03*
X366653D02*
D03*
X364685D02*
D03*
X362717D02*
D03*
X360748D02*
D03*
X358780D02*
D03*
X356811D02*
D03*
X354842D02*
D03*
X352874D02*
D03*
X350905D02*
D03*
X348937D02*
D03*
X346969D02*
D03*
X345000D02*
D03*
X343032D02*
D03*
X341063D02*
D03*
X339094D02*
D03*
X337126D02*
D03*
X335157D02*
D03*
X333189D02*
D03*
X331221D02*
D03*
X329252D02*
D03*
X327284D02*
D03*
X325315D02*
D03*
X323346D02*
D03*
X321378D02*
D03*
D107*
X307488Y661000D02*
D03*
X302764D02*
D03*
X298039D02*
D03*
D108*
X289811Y141618D02*
D03*
Y136500D02*
D03*
X282173D02*
D03*
Y139059D02*
D03*
Y141618D02*
D03*
X292500Y184500D02*
D03*
Y179382D02*
D03*
X284862D02*
D03*
Y181941D02*
D03*
Y184500D02*
D03*
X292500Y278118D02*
D03*
Y273000D02*
D03*
X284862D02*
D03*
Y275559D02*
D03*
Y278118D02*
D03*
X283362Y236118D02*
D03*
Y233559D02*
D03*
Y231000D02*
D03*
X291000D02*
D03*
Y236118D02*
D03*
D109*
X178272Y266965D02*
D03*
X168508D02*
D03*
Y273933D02*
D03*
X178272D02*
D03*
X162772Y266965D02*
D03*
X153008D02*
D03*
Y273933D02*
D03*
X162772D02*
D03*
X147272Y266965D02*
D03*
X137508D02*
D03*
Y273933D02*
D03*
X147272D02*
D03*
D110*
X174965Y266965D02*
D03*
X171815D02*
D03*
Y273933D02*
D03*
X174965D02*
D03*
X159465Y266965D02*
D03*
X156315D02*
D03*
Y273933D02*
D03*
X159465D02*
D03*
X143965Y266965D02*
D03*
X140815D02*
D03*
Y273933D02*
D03*
X143965D02*
D03*
D111*
X168654Y288500D02*
D03*
X166685D02*
D03*
X164716D02*
D03*
X162748D02*
D03*
X160780D02*
D03*
X158811D02*
D03*
X156843D02*
D03*
X154874D02*
D03*
X152905D02*
D03*
X150937D02*
D03*
X148969D02*
D03*
X147000D02*
D03*
X145031D02*
D03*
X143063D02*
D03*
X141095D02*
D03*
X139126D02*
D03*
D112*
X174047Y291925D02*
D03*
X133732D02*
D03*
D113*
X319409Y532035D02*
D03*
D114*
X306319Y574161D02*
D03*
X282815D02*
D03*
D115*
X320098Y570323D02*
D03*
Y555756D02*
D03*
D116*
X309724Y531543D02*
D03*
X305394D02*
D03*
X301063D02*
D03*
X296732D02*
D03*
X292402D02*
D03*
X288071D02*
D03*
X283740D02*
D03*
D117*
X279606D02*
D03*
D118*
X180205Y374457D02*
D03*
Y361543D02*
D03*
D119*
X227618Y276740D02*
D03*
Y269260D02*
D03*
X217382D02*
D03*
Y273000D02*
D03*
Y276740D02*
D03*
D120*
X191299Y518697D02*
D03*
Y521846D02*
D03*
Y524996D02*
D03*
Y515547D02*
D03*
Y512398D02*
D03*
D121*
X191673Y501177D02*
D03*
Y536216D02*
D03*
X213130Y501177D02*
D03*
Y536216D02*
D03*
D122*
X287756Y382500D02*
D03*
Y387500D02*
D03*
Y392500D02*
D03*
Y397500D02*
D03*
X307244D02*
D03*
Y392500D02*
D03*
Y387500D02*
D03*
Y382500D02*
D03*
D123*
X140976Y112898D02*
D03*
Y132976D02*
D03*
D124*
X173331Y430854D02*
D03*
D125*
Y440697D02*
D03*
Y448571D02*
D03*
Y458413D02*
D03*
D126*
X184000Y418768D02*
D03*
Y470500D02*
D03*
D127*
X126000Y485500D02*
D03*
D128*
Y490421D02*
D03*
D129*
X122000Y533000D02*
D03*
D130*
Y523000D02*
D03*
X152000D02*
D03*
Y533000D02*
D03*
X122000Y513000D02*
D03*
Y503000D02*
D03*
X152000Y513000D02*
D03*
Y503000D02*
D03*
D131*
X150705Y343705D02*
D03*
Y369295D02*
D03*
D132*
X364421Y727000D02*
D03*
X369342D02*
D03*
X374264D02*
D03*
D133*
X379185D02*
D03*
D134*
X201831Y510035D02*
D03*
Y527358D02*
D03*
D135*
X260043Y462240D02*
D03*
X280516D02*
D03*
X293902D02*
D03*
D136*
X256500Y433500D02*
D03*
X295476D02*
D03*
D137*
X186500Y655496D02*
D03*
Y663370D02*
D03*
Y671244D02*
D03*
Y679118D02*
D03*
Y686992D02*
D03*
Y694866D02*
D03*
Y702740D02*
D03*
Y710614D02*
D03*
Y718488D02*
D03*
X194374Y663370D02*
D03*
Y671244D02*
D03*
Y679118D02*
D03*
Y686992D02*
D03*
Y694866D02*
D03*
Y702740D02*
D03*
Y710614D02*
D03*
Y718488D02*
D03*
Y655496D02*
D03*
X186500Y600378D02*
D03*
Y608252D02*
D03*
Y616126D02*
D03*
Y624000D02*
D03*
Y631874D02*
D03*
Y639748D02*
D03*
Y647622D02*
D03*
X194374Y592504D02*
D03*
Y600378D02*
D03*
Y608252D02*
D03*
Y616126D02*
D03*
Y624000D02*
D03*
Y631874D02*
D03*
Y639748D02*
D03*
Y647622D02*
D03*
D138*
X186500Y592504D02*
D03*
M02*
