G04*
G04 #@! TF.GenerationSoftware,Altium Limited,Altium Designer,24.5.2 (23)*
G04*
G04 Layer_Color=16711935*
%FSLAX25Y25*%
%MOIN*%
G70*
G04*
G04 #@! TF.SameCoordinates,0E20A4CB-0F74-4F35-8983-D76818566807*
G04*
G04*
G04 #@! TF.FilePolarity,Negative*
G04*
G01*
G75*
%ADD63R,0.06213X0.06213*%
%ADD64C,0.06213*%
%ADD65C,0.13646*%
%ADD66R,0.03937X0.03937*%
%ADD67C,0.03937*%
%ADD68R,0.05791X0.05791*%
%ADD69C,0.05791*%
%ADD70C,0.05740*%
%ADD71C,0.04559*%
%ADD72R,0.04559X0.04559*%
%ADD73C,0.04331*%
%ADD74O,0.05543X0.10693*%
%ADD75O,0.06929X0.13465*%
%ADD76C,0.05591*%
%ADD77R,0.05591X0.05591*%
D63*
X173331Y430854D02*
D03*
D64*
Y440697D02*
D03*
Y448571D02*
D03*
Y458413D02*
D03*
D65*
X184000Y418768D02*
D03*
Y470500D02*
D03*
D66*
X126000Y485500D02*
D03*
D67*
Y490421D02*
D03*
D68*
X122000Y533000D02*
D03*
D69*
Y523000D02*
D03*
X152000D02*
D03*
Y533000D02*
D03*
X122000Y513000D02*
D03*
Y503000D02*
D03*
X152000Y513000D02*
D03*
Y503000D02*
D03*
D70*
X150705Y343705D02*
D03*
Y369295D02*
D03*
D71*
X364421Y727000D02*
D03*
X369342D02*
D03*
X374264D02*
D03*
D72*
X379185D02*
D03*
D73*
X201831Y510035D02*
D03*
Y527358D02*
D03*
D74*
X260043Y462240D02*
D03*
X280516D02*
D03*
X293902D02*
D03*
D75*
X256500Y433500D02*
D03*
X295476D02*
D03*
D76*
X186500Y655496D02*
D03*
Y663370D02*
D03*
Y671244D02*
D03*
Y679118D02*
D03*
Y686992D02*
D03*
Y694866D02*
D03*
Y702740D02*
D03*
Y710614D02*
D03*
Y718488D02*
D03*
X194374Y663370D02*
D03*
Y671244D02*
D03*
Y679118D02*
D03*
Y686992D02*
D03*
Y694866D02*
D03*
Y702740D02*
D03*
Y710614D02*
D03*
Y718488D02*
D03*
Y655496D02*
D03*
X186500Y600378D02*
D03*
Y608252D02*
D03*
Y616126D02*
D03*
Y624000D02*
D03*
Y631874D02*
D03*
Y639748D02*
D03*
Y647622D02*
D03*
X194374Y592504D02*
D03*
Y600378D02*
D03*
Y608252D02*
D03*
Y616126D02*
D03*
Y624000D02*
D03*
Y631874D02*
D03*
Y639748D02*
D03*
Y647622D02*
D03*
D77*
X186500Y592504D02*
D03*
M02*
