G04*
G04 #@! TF.GenerationSoftware,Altium Limited,Altium Designer,24.5.2 (23)*
G04*
G04 Layer_Color=65535*
%FSLAX25Y25*%
%MOIN*%
G70*
G04*
G04 #@! TF.SameCoordinates,E32C8930-F8F6-4D60-B923-159A8687A494*
G04*
G04*
G04 #@! TF.FilePolarity,Positive*
G04*
G01*
G75*
%ADD10C,0.00787*%
%ADD11C,0.00500*%
%ADD12C,0.01181*%
%ADD13C,0.00600*%
%ADD14C,0.01000*%
%ADD15C,0.00800*%
D10*
X162316Y107429D02*
X161528D01*
X162316D01*
Y125429D02*
X161528D01*
X162316D01*
X70252Y186661D02*
X69465D01*
X70252D01*
Y87661D02*
X69465D01*
X70252D01*
X65311Y10654D02*
X64524D01*
X65311D01*
X164004Y269201D02*
X163216D01*
X164004D01*
X216535Y278055D02*
X215747D01*
X216535D01*
X236748Y276500D02*
X235961D01*
X236748D01*
X97158Y140315D02*
X96370D01*
X97158D01*
X246784Y226894D02*
X245997D01*
X246784D01*
X288779Y344488D02*
X287992D01*
X288779D01*
X286614Y190551D02*
X285827D01*
X286614D01*
X110311Y183098D02*
X109524D01*
X110311D01*
X145492Y163484D02*
X144705D01*
X145492D01*
X110327Y162717D02*
X109539D01*
X110327D01*
X110311Y200598D02*
X109524D01*
X110311D01*
X127799Y90697D02*
X127012D01*
X127799D01*
X129835Y100685D02*
X129047D01*
X129835D01*
X130339Y204760D02*
X129551D01*
X130339D01*
X175631Y212622D02*
X174843D01*
X175631D01*
X193236Y121000D02*
X192449D01*
X193236D01*
X251421Y152713D02*
X250634D01*
X251421D01*
X161831Y185000D02*
X161044D01*
X161831D01*
X233393Y334425D02*
X232606D01*
X233393D01*
X324413Y268378D02*
X323626D01*
X324413D01*
X202032Y112264D02*
X201245D01*
X202032D01*
X272997Y202386D02*
X272210D01*
X272997D01*
X223236Y121000D02*
X222449D01*
X223236D01*
X208161Y120984D02*
X207374D01*
X208161D01*
D11*
X73110Y126000D02*
X72480D01*
X73110D01*
X119724Y35000D02*
X119703Y36003D01*
X119639Y37003D01*
X119533Y38000D01*
X119385Y38992D01*
X119194Y39977D01*
X118962Y40952D01*
X118689Y41917D01*
X118375Y42869D01*
X118021Y43808D01*
X117628Y44730D01*
X117195Y45635D01*
X116725Y46520D01*
X116217Y47385D01*
X115673Y48228D01*
X115094Y49046D01*
X114481Y49840D01*
X113835Y50607D01*
X113156Y51345D01*
X112447Y52054D01*
X111709Y52732D01*
X110942Y53379D01*
X110149Y53992D01*
X109330Y54571D01*
X108488Y55115D01*
X107623Y55622D01*
X106737Y56093D01*
X105832Y56525D01*
X104910Y56919D01*
X103972Y57273D01*
X103019Y57587D01*
X102055Y57860D01*
X101079Y58092D01*
X100094Y58282D01*
X99103Y58431D01*
X98106Y58537D01*
X97105Y58601D01*
X96102Y58622D01*
X95100Y58601D01*
X94099Y58537D01*
X93102Y58431D01*
X92110Y58282D01*
X91126Y58092D01*
X90150Y57860D01*
X89185Y57587D01*
X88233Y57273D01*
X87295Y56919D01*
X86372Y56525D01*
X85468Y56093D01*
X84582Y55622D01*
X83717Y55115D01*
X82875Y54571D01*
X82056Y53992D01*
X81262Y53379D01*
X80496Y52732D01*
X79757Y52054D01*
X79048Y51345D01*
X78370Y50607D01*
X77724Y49840D01*
X77110Y49046D01*
X76531Y48228D01*
X75987Y47385D01*
X75480Y46520D01*
X75010Y45635D01*
X74577Y44730D01*
X74184Y43808D01*
X73830Y42869D01*
X73516Y41917D01*
X73242Y40952D01*
X73010Y39977D01*
X72820Y38992D01*
X72672Y38000D01*
X72565Y37003D01*
X72502Y36002D01*
X72480Y35000D01*
X72502Y33997D01*
X72565Y32997D01*
X72672Y31999D01*
X72820Y31008D01*
X73010Y30023D01*
X73242Y29048D01*
X73516Y28083D01*
X73830Y27130D01*
X74184Y26192D01*
X74577Y25270D01*
X75010Y24365D01*
X75480Y23480D01*
X75987Y22615D01*
X76531Y21772D01*
X77110Y20954D01*
X77724Y20160D01*
X78370Y19394D01*
X79048Y18655D01*
X79757Y17946D01*
X80496Y17267D01*
X81263Y16621D01*
X82056Y16008D01*
X82875Y15429D01*
X83717Y14885D01*
X84582Y14378D01*
X85468Y13907D01*
X86373Y13475D01*
X87295Y13081D01*
X88233Y12727D01*
X89185Y12413D01*
X90150Y12140D01*
X91126Y11908D01*
X92110Y11718D01*
X93102Y11569D01*
X94099Y11463D01*
X95100Y11399D01*
X96102Y11378D01*
X97105Y11399D01*
X98106Y11463D01*
X99103Y11569D01*
X100095Y11718D01*
X101079Y11908D01*
X102055Y12140D01*
X103019Y12413D01*
X103972Y12727D01*
X104910Y13081D01*
X105832Y13475D01*
X106737Y13907D01*
X107623Y14378D01*
X108488Y14885D01*
X109330Y15429D01*
X110149Y16008D01*
X110942Y16621D01*
X111709Y17268D01*
X112447Y17946D01*
X113156Y18655D01*
X113835Y19394D01*
X114481Y20160D01*
X115094Y20954D01*
X115673Y21772D01*
X116217Y22615D01*
X116725Y23480D01*
X117195Y24365D01*
X117628Y25270D01*
X118021Y26192D01*
X118375Y27131D01*
X118689Y28083D01*
X118962Y29048D01*
X119194Y30023D01*
X119385Y31008D01*
X119533Y32000D01*
X119639Y32997D01*
X119703Y33997D01*
X119724Y35000D01*
X192247Y330815D02*
X191961Y331790D01*
X191193Y332455D01*
X190188Y332599D01*
X189264Y332177D01*
X188715Y331323D01*
Y330307D01*
X189264Y329452D01*
X190188Y329030D01*
X191193Y329175D01*
X191961Y329840D01*
X192247Y330815D01*
X157142Y324400D02*
X156512D01*
X157142D01*
X254428Y113737D02*
X253987Y114499D01*
X253107D01*
X252667Y113737D01*
X253107Y112975D01*
X253987D01*
X254428Y113737D01*
X254104D02*
X253269Y114219D01*
Y113255D01*
X254104Y113737D01*
X253941D02*
X253153D01*
X253941D01*
X253547D02*
X252760D01*
X253547D01*
X150583Y105602D02*
X155938D01*
X150583Y114768D02*
X155938D01*
X150583Y123602D02*
X155938D01*
X150583Y132768D02*
X155938D01*
X71685Y175323D02*
Y180677D01*
X62520Y175323D02*
Y180677D01*
X71685Y76323D02*
Y81677D01*
X62520Y76323D02*
Y81677D01*
X66378Y127496D02*
X69764D01*
X66378Y124504D02*
X69764D01*
X67673Y18705D02*
Y24611D01*
X62161Y18705D02*
Y24611D01*
X162429Y275165D02*
Y275835D01*
X170697Y275165D02*
Y275835D01*
X222834Y268154D02*
X229133D01*
X222834Y280476D02*
X229133D01*
X247378Y264689D02*
X256827D01*
X247378Y288311D02*
X256827D01*
X100110Y125945D02*
X104047Y122008D01*
X126095D01*
X104047Y147992D02*
X126095D01*
X100110Y144055D02*
X104047Y147992D01*
X100110Y139409D02*
Y144055D01*
Y125945D02*
Y130591D01*
X126095Y139409D02*
Y147992D01*
Y122008D02*
Y130591D01*
X143033Y327794D02*
X155632D01*
X143033Y344527D02*
X155632D01*
X143033Y327794D02*
Y344527D01*
X155632Y327794D02*
Y344527D01*
X240233Y228272D02*
X266808D01*
X240233D02*
Y240871D01*
X266808D01*
Y228272D02*
Y240871D01*
X273583Y98169D02*
Y149862D01*
X279528D01*
X297559D02*
X328701D01*
Y98169D02*
Y149862D01*
X297559Y98169D02*
X328701D01*
X273583D02*
X279528D01*
X282677Y327260D02*
Y332976D01*
Y306787D02*
Y319591D01*
X328740Y299016D02*
Y338780D01*
X324803Y299016D02*
X328740D01*
X282677D02*
X309055D01*
X324803Y338780D02*
X328740D01*
X294598D02*
X309055D01*
X282677Y299016D02*
Y299118D01*
X328150Y181693D02*
Y212008D01*
X322598D02*
X328150D01*
X301142D02*
X310236D01*
X322598Y181693D02*
X328150D01*
X301142D02*
X310236D01*
X98953Y195319D02*
X105252D01*
X98953Y180681D02*
X105252D01*
X119941Y188583D02*
X137264D01*
X119941Y161417D02*
X137264D01*
X98969Y174937D02*
X105268D01*
X98969Y160299D02*
X105268D01*
X98953Y212819D02*
X105252D01*
X98953Y198181D02*
X105252D01*
X129197Y86858D02*
X130358D01*
X114610D02*
X115772D01*
X129197Y71110D02*
X130358D01*
X114610D02*
X115772D01*
X130358Y85697D02*
Y86858D01*
X114610Y85697D02*
Y86858D01*
X130358Y71110D02*
Y72272D01*
X114610Y71110D02*
Y72272D01*
X122158Y118992D02*
X126095Y115055D01*
X100110Y118992D02*
X122158D01*
X100110Y93008D02*
X122158D01*
X126095Y96945D01*
Y101591D01*
Y110409D02*
Y115055D01*
X100110Y93008D02*
Y101591D01*
Y110409D02*
Y118992D01*
X116953Y214642D02*
X123252D01*
X116953Y202358D02*
X123252D01*
X184843Y214433D02*
Y216559D01*
Y161441D02*
Y163567D01*
X239961Y214433D02*
Y216559D01*
Y161441D02*
Y163567D01*
X184843Y216559D02*
X186969D01*
X184843Y161441D02*
X186969D01*
X237835Y216559D02*
X239961D01*
X237835Y161441D02*
X239961D01*
X205063Y125665D02*
Y131965D01*
X190425Y125665D02*
Y131965D01*
X249512Y162488D02*
Y183512D01*
X270693Y162488D02*
Y183512D01*
X249512Y162488D02*
X250752D01*
X249512Y183512D02*
X250752D01*
X269453D02*
X270693D01*
X269453Y162488D02*
X270693D01*
X176950Y182441D02*
Y187559D01*
X163406Y182441D02*
Y187559D01*
X211149Y309425D02*
Y323205D01*
Y309425D02*
X216031D01*
X236739D02*
Y323205D01*
X231858Y309425D02*
X236739D01*
X274803Y232382D02*
Y236209D01*
Y232382D02*
X312228D01*
X274803Y269906D02*
Y279429D01*
X276728D01*
X274803Y246406D02*
Y259602D01*
X283268Y279429D02*
X291142D01*
X297835D02*
X314173D01*
X270598Y328295D02*
Y332705D01*
X277606Y328295D02*
Y332705D01*
X150409Y322904D02*
X153795D01*
X150409Y325896D02*
X153795D01*
X192977Y94744D02*
Y98996D01*
X189828Y94744D02*
X192977D01*
X189828Y89232D02*
Y94744D01*
Y89232D02*
X242977D01*
Y94744D01*
X239828D02*
X242977D01*
X239828D02*
Y98996D01*
X276284Y204138D02*
X277544D01*
X276284Y194728D02*
X277544D01*
X280930Y204138D02*
X282190D01*
X280930Y194728D02*
X282190D01*
X235063Y125665D02*
Y131965D01*
X220425Y125665D02*
Y131965D01*
X219988Y125650D02*
Y131949D01*
X205351Y125650D02*
Y131949D01*
D12*
X271457Y110236D02*
X270866Y110827D01*
X270276Y110236D01*
X270866Y109646D01*
X271457Y110236D01*
D13*
X274283Y319544D02*
X273533Y319977D01*
Y319111D01*
X274283Y319544D01*
X70817Y37458D02*
Y39058D01*
Y35858D02*
Y37458D01*
X59017Y35858D02*
X62517D01*
X59017D02*
Y39058D01*
X67317Y35858D02*
X70817D01*
X158696Y311315D02*
Y336315D01*
X195276Y311516D02*
Y334646D01*
X176902Y230400D02*
Y233900D01*
X173702Y222100D02*
X176902D01*
Y225600D01*
X175302Y233900D02*
X176902D01*
X173702D02*
X175302D01*
X246544Y318615D02*
X250044D01*
X258344Y315415D02*
Y318615D01*
X254844D02*
X258344D01*
X246544Y317015D02*
Y318615D01*
Y315415D02*
Y317015D01*
X262744Y301115D02*
X263996D01*
X275893Y315515D02*
X277144D01*
X262744D02*
X263996D01*
X262744Y301115D02*
Y315515D01*
X275893Y301115D02*
X277144D01*
Y315515D01*
D14*
X213063Y263500D02*
Y272000D01*
X183063Y263500D02*
X213063D01*
X183063D02*
Y272000D01*
X213063Y284000D02*
Y292500D01*
X183063D02*
X213063D01*
X183063Y284000D02*
Y292500D01*
X94008Y72083D02*
Y213421D01*
X74323D02*
X94008D01*
X74323Y72083D02*
Y213421D01*
Y72083D02*
X94008D01*
X27642Y57988D02*
X21644D01*
Y60987D01*
X22643Y61987D01*
X24643D01*
X25642Y60987D01*
Y57988D01*
Y59987D02*
X27642Y61987D01*
Y66985D02*
Y64986D01*
X26642Y63986D01*
X24643D01*
X23643Y64986D01*
Y66985D01*
X24643Y67985D01*
X25642D01*
Y63986D01*
X23643Y69984D02*
X27642Y71984D01*
X23643Y73983D01*
X27642Y81980D02*
Y83980D01*
Y82980D01*
X21644D01*
X22643Y81980D01*
X27642Y86979D02*
X26642D01*
Y87979D01*
X27642D01*
Y86979D01*
X22643Y91977D02*
X21644Y92977D01*
Y94976D01*
X22643Y95976D01*
X26642D01*
X27642Y94976D01*
Y92977D01*
X26642Y91977D01*
X22643D01*
X39256Y57988D02*
X33258D01*
X35257Y59987D01*
X33258Y61987D01*
X39256D01*
X33258Y67985D02*
Y65986D01*
Y66985D01*
X38256D01*
X39256Y65986D01*
Y64986D01*
X38256Y63986D01*
X39256Y69984D02*
X33258D01*
X35257Y71984D01*
X33258Y73983D01*
X39256D01*
X36257Y81980D02*
Y85979D01*
X39256Y97975D02*
Y93976D01*
X35257Y97975D01*
X34258D01*
X33258Y96976D01*
Y94976D01*
X34258Y93976D01*
Y99975D02*
X33258Y100974D01*
Y102974D01*
X34258Y103973D01*
X38256D01*
X39256Y102974D01*
Y100974D01*
X38256Y99975D01*
X34258D01*
X39256Y109971D02*
Y105973D01*
X35257Y109971D01*
X34258D01*
X33258Y108972D01*
Y106972D01*
X34258Y105973D01*
X39256Y114970D02*
X33258D01*
X36257Y111971D01*
Y115969D01*
X11014Y58185D02*
X17012D01*
X15012Y60184D01*
X17012Y62184D01*
X11014D01*
X17012Y65183D02*
Y67182D01*
X16012Y68182D01*
X14013D01*
X13013Y67182D01*
Y65183D01*
X14013Y64183D01*
X16012D01*
X17012Y65183D01*
X13013Y70181D02*
X17012D01*
X15012D01*
X14013Y71181D01*
X13013Y72180D01*
Y73180D01*
X11014Y80178D02*
X17012D01*
Y77179D01*
X16012Y76179D01*
X14013D01*
X13013Y77179D01*
Y80178D01*
X12013Y86176D02*
X11014Y85176D01*
Y83177D01*
X12013Y82177D01*
X13013D01*
X14013Y83177D01*
Y85176D01*
X15012Y86176D01*
X16012D01*
X17012Y85176D01*
Y83177D01*
X16012Y82177D01*
X12013Y89175D02*
X13013D01*
Y88175D01*
Y90175D01*
Y89175D01*
X16012D01*
X17012Y90175D01*
Y94173D02*
Y96173D01*
X16012Y97172D01*
X14013D01*
X13013Y96173D01*
Y94173D01*
X14013Y93174D01*
X16012D01*
X17012Y94173D01*
X13013Y99172D02*
X17012D01*
X15012D01*
X14013Y100171D01*
X13013Y101171D01*
Y102171D01*
X17012Y105170D02*
X13013D01*
Y106169D01*
X14013Y107169D01*
X17012D01*
X14013D01*
X13013Y108169D01*
X14013Y109169D01*
X17012D01*
Y117166D02*
X11014D01*
X13013Y119165D01*
X11014Y121165D01*
X17012D01*
X13013Y124164D02*
Y126163D01*
X14013Y127163D01*
X17012D01*
Y124164D01*
X16012Y123164D01*
X15012Y124164D01*
Y127163D01*
X17012Y129162D02*
Y131161D01*
Y130162D01*
X13013D01*
Y129162D01*
X17012Y134160D02*
X13013D01*
Y137160D01*
X14013Y138159D01*
X17012D01*
X11014Y146157D02*
X17012D01*
Y149156D01*
X16012Y150155D01*
X15012D01*
X14013Y149156D01*
Y146157D01*
Y149156D01*
X13013Y150155D01*
X12013D01*
X11014Y149156D01*
Y146157D01*
X17012Y153154D02*
Y155154D01*
X16012Y156153D01*
X14013D01*
X13013Y155154D01*
Y153154D01*
X14013Y152155D01*
X16012D01*
X17012Y153154D01*
X13013Y159152D02*
Y161152D01*
X14013Y162151D01*
X17012D01*
Y159152D01*
X16012Y158153D01*
X15012Y159152D01*
Y162151D01*
X13013Y164151D02*
X17012D01*
X15012D01*
X14013Y165150D01*
X13013Y166150D01*
Y167150D01*
X11014Y174147D02*
X17012D01*
Y171149D01*
X16012Y170149D01*
X14013D01*
X13013Y171149D01*
Y174147D01*
D15*
X90103Y20500D02*
Y22499D01*
X89103Y21500D02*
X91102D01*
X90103Y46000D02*
Y47999D01*
M02*
