G04*
G04 #@! TF.GenerationSoftware,Altium Limited,Altium Designer,24.5.2 (23)*
G04*
G04 Layer_Physical_Order=2*
G04 Layer_Color=16711680*
%FSLAX25Y25*%
%MOIN*%
G70*
G04*
G04 #@! TF.SameCoordinates,4548FBC5-0A75-4E4F-B370-8EE1CEEC3E87*
G04*
G04*
G04 #@! TF.FilePolarity,Positive*
G04*
G01*
G75*
%ADD18C,0.01500*%
%ADD19C,0.03347*%
%ADD20R,0.03347X0.03347*%
%ADD21R,0.05937X0.05937*%
%ADD22C,0.05937*%
%ADD23C,0.23622*%
G36*
X87528Y38447D02*
X88099Y38211D01*
X88612Y37868D01*
X89049Y37431D01*
X89392Y36918D01*
X89628Y36347D01*
X89748Y35742D01*
Y35433D01*
Y3937D01*
Y3628D01*
X89628Y3023D01*
X89392Y2452D01*
X89049Y1939D01*
X88612Y1503D01*
X88099Y1159D01*
X87528Y923D01*
X86923Y803D01*
X3628D01*
X3023Y923D01*
X2452Y1159D01*
X1939Y1503D01*
X1503Y1939D01*
X1159Y2452D01*
X923Y3023D01*
X803Y3628D01*
Y3937D01*
Y35433D01*
Y35742D01*
X923Y36347D01*
X1159Y36918D01*
X1503Y37431D01*
X1939Y37868D01*
X2452Y38211D01*
X3023Y38447D01*
X3628Y38567D01*
X86923D01*
X87528Y38447D01*
D02*
G37*
%LPC*%
G36*
X58527Y33980D02*
X57614D01*
X56732Y33744D01*
X55941Y33287D01*
X55295Y32642D01*
X54839Y31851D01*
X54602Y30968D01*
Y30055D01*
X54839Y29173D01*
X55295Y28382D01*
X55941Y27736D01*
X56732Y27280D01*
X57614Y27043D01*
X58527D01*
X59410Y27280D01*
X60201Y27736D01*
X60846Y28382D01*
X61303Y29173D01*
X61539Y30055D01*
Y30968D01*
X61303Y31851D01*
X60846Y32642D01*
X60201Y33287D01*
X59410Y33744D01*
X58527Y33980D01*
D02*
G37*
G36*
X35949D02*
X29012D01*
Y27043D01*
X35949D01*
Y33980D01*
D02*
G37*
G36*
X58527Y16264D02*
X57614D01*
X56732Y16027D01*
X55941Y15571D01*
X55295Y14925D01*
X54839Y14134D01*
X54821Y14070D01*
X35730D01*
X35712Y14134D01*
X35256Y14925D01*
X34610Y15571D01*
X33819Y16027D01*
X32937Y16264D01*
X32024D01*
X31141Y16027D01*
X30351Y15571D01*
X29705Y14925D01*
X29248Y14134D01*
X29012Y13252D01*
Y12339D01*
X29248Y11456D01*
X29705Y10666D01*
X30351Y10020D01*
X31141Y9563D01*
X32024Y9327D01*
X32937D01*
X33819Y9563D01*
X34610Y10020D01*
X35256Y10666D01*
X35712Y11456D01*
X35730Y11521D01*
X54287D01*
X54494Y11021D01*
X50653Y7180D01*
X49909D01*
Y8079D01*
X45563D01*
Y3732D01*
X49909D01*
Y4631D01*
X51181D01*
X51669Y4728D01*
X52082Y5004D01*
X56674Y9596D01*
X56732Y9563D01*
X57614Y9327D01*
X58527D01*
X59410Y9563D01*
X60201Y10020D01*
X60846Y10666D01*
X61303Y11456D01*
X61539Y12339D01*
Y13252D01*
X61303Y14134D01*
X60846Y14925D01*
X60201Y15571D01*
X59410Y16027D01*
X58527Y16264D01*
D02*
G37*
G36*
X77741Y31996D02*
X75803D01*
X73889Y31693D01*
X72046Y31094D01*
X70319Y30214D01*
X68752Y29075D01*
X67381Y27705D01*
X66242Y26137D01*
X65363Y24411D01*
X64764Y22568D01*
X64461Y20654D01*
Y18716D01*
X64764Y16802D01*
X65363Y14959D01*
X66242Y13233D01*
X67381Y11665D01*
X68752Y10295D01*
X70319Y9156D01*
X72046Y8276D01*
X73889Y7677D01*
X75803Y7374D01*
X77741D01*
X79655Y7677D01*
X81497Y8276D01*
X83224Y9156D01*
X84792Y10295D01*
X86162Y11665D01*
X87301Y13233D01*
X88181Y14959D01*
X88779Y16802D01*
X89083Y18716D01*
Y20654D01*
X88779Y22568D01*
X88181Y24411D01*
X87301Y26137D01*
X86162Y27705D01*
X84792Y29075D01*
X83224Y30214D01*
X81497Y31094D01*
X79655Y31693D01*
X77741Y31996D01*
D02*
G37*
G36*
X14748D02*
X12811D01*
X10897Y31693D01*
X9054Y31094D01*
X7327Y30214D01*
X5759Y29075D01*
X4389Y27705D01*
X3250Y26137D01*
X2371Y24411D01*
X1772Y22568D01*
X1469Y20654D01*
Y18716D01*
X1772Y16802D01*
X2371Y14959D01*
X3250Y13233D01*
X4389Y11665D01*
X5759Y10295D01*
X7327Y9156D01*
X9054Y8276D01*
X10897Y7677D01*
X12811Y7374D01*
X14748D01*
X16662Y7677D01*
X18505Y8276D01*
X20232Y9156D01*
X21800Y10295D01*
X23170Y11665D01*
X24309Y13233D01*
X25189Y14959D01*
X25787Y16802D01*
X26091Y18716D01*
Y20654D01*
X25787Y22568D01*
X25189Y24411D01*
X24309Y26137D01*
X23170Y27705D01*
X21800Y29075D01*
X20232Y30214D01*
X18505Y31094D01*
X16662Y31693D01*
X14748Y31996D01*
D02*
G37*
G36*
X43247Y8079D02*
X42383D01*
X41584Y7748D01*
X40973Y7136D01*
X40642Y6338D01*
Y5473D01*
X40973Y4674D01*
X41584Y4063D01*
X42383Y3732D01*
X43247D01*
X44046Y4063D01*
X44657Y4674D01*
X44988Y5473D01*
Y6338D01*
X44657Y7136D01*
X44046Y7748D01*
X43247Y8079D01*
D02*
G37*
%LPD*%
D18*
X51181Y5906D02*
X58071Y12795D01*
X47736Y5906D02*
X51181D01*
X32480Y12795D02*
X58071D01*
D19*
X42815Y5906D02*
D03*
D20*
X47736D02*
D03*
D21*
X32480Y30512D02*
D03*
D22*
X58071D02*
D03*
X32480Y12795D02*
D03*
X58071D02*
D03*
D23*
X13780Y19685D02*
D03*
X76772D02*
D03*
M02*
